<svg xmlns="http://www.w3.org/2000/svg" viewBox="0 0 16 12" enable-background="new 0 0 16 12"><switch><g><path fill="#16327e" fill-rule="evenodd" d="m0 0h16v12h-16z"/><path fill="#ed1f24" fill-rule="evenodd" d="M16,12 0,6 16,0z"/><path fill="#fff" fill-rule="evenodd" d="M16,11.3438 1.7969,6 16,.6562"/><g><path fill="#37221b" fill-rule="evenodd" d="m14.315 3.072c.034-.009.068-.019.104-.028.014.003.025-.001.033-.014.013-.002.024-.005.036-.007.006-.003.011-.007.017-.01.065-.013.127-.034.184-.067.055-.021.11-.042.165-.062.005-.003.011-.007.016-.01.015 0 .029 0 .036-.016.02-.001.037-.008.053-.022.029-.001.059.002.086.015.012.013.023.026.033.04.001.011.002.023.004.034-.003.011-.006.022-.009.032-.015.027-.038.052-.023.087.026.059-.002.109-.017.165-.021.086-.068.165-.073.255-.008.022-.016.043-.023.064-.046.031-.036.083-.046.127-.007.013-.014.025-.021.038-.01.002-.019.013-.028.002-.017-.031.017-.046.021-.07.004-.018.002-.038-.024-.03-.162.051-.323.102-.484.153-.014.005-.042.012-.031.032.011.021.024.049.056.047.02-.002.038-.011.058-.017.134-.038.269-.075.402-.113-.063.099-.163.178-.181.304v-.001c-.02.01-.024.029-.035.046-.041.064-.059.141-.111.197-.004-.002-.007 0-.008.005-.055.029-.109.06-.157.101-.006.003-.012.005-.018.008-.005.004-.01.008-.015.012l-.002.001c-.076.039-.148.083-.217.135h-.006l-.004.005c-.006.004-.013.009-.02.013-.098.057-.195.115-.294.173.003.005.005.011.008.017.05.007.101.014.149.02.005.004.01.005.015.002.011.012.023.014.037.011.017.002.034.004.05.007.01.013.023.014.037.011.018.003.035.005.052.008.063.021.126.04.192.046.018.001.035.002.052.003-.006.009-.012.019-.018.028-.019.042-.014.085-.002.127.014.003.027.003.037-.009.012-.002.023-.003.035-.005-.001.01-.001.019-.001.029-.041.013-.092 0-.125.042-.005.006-.011.012-.017.018-.042-.012-.083-.031-.125-.035-.114-.01-.23-.014-.346-.022-.077-.006-.154-.015-.231-.023.029-.035.06-.026.091-.028.185-.011.367.036.553.038.046 0 .074-.019.079-.061s-.019-.07-.063-.08c-.16-.034-.32-.068-.48-.101-.023-.005-.05-.013-.065.011-.063.101-.191.098-.273.173-.034.033-.077-.013-.1-.032-.019-.014.024-.04.05-.053.044-.022.088-.045.109-.1-.049-.011-.068.025-.096.043-.074.047-.14.111-.23.127.006-.048.051-.055.083-.076.047-.031.101-.055.138-.106-.041-.016-.07-.004-.093.018s-.047.031-.077.025c.005-.036.036-.05.06-.069.02-.016.024-.031.008-.051-.017-.021-.027-.002-.042.006-.055.032-.108.066-.165.093-.048.023-.087.069-.162.06.079-.084.178-.113.259-.169.041-.028.073-.05.048-.101-.027-.056-.073-.026-.105-.009-.063.034-.119.079-.183.113-.058.032-.106.084-.187.091.018-.04.047-.052.072-.068.087-.056.174-.11.262-.165.021-.013.039-.027.023-.055-.015-.025-.037-.025-.06-.015-.016.007-.03.016-.046.025-.134.077-.269.153-.402.231-.023.014-.044.021-.076-.002.029-.019.05-.033.072-.045.126-.073.252-.146.379-.217.03-.017.049-.035.023-.067-.02-.025-.04-.049-.078-.022-.133.093-.278.163-.423.232-.034.016-.087.071-.101.038-.021-.052.055-.056.091-.077.127-.072.256-.142.385-.21.044-.023.051-.061.027-.094-.019-.028-.053-.066-.093-.029-.114.105-.266.146-.391.231-.055.037-.111.073-.179.096-.001-.031.01-.048.027-.058.085-.049.169-.098.255-.145.07-.039.145-.073.212-.117.039-.025.06-.071.02-.11-.033-.032-.078-.026-.105.014-.024.036-.063.052-.098.068-.142.066-.282.137-.422.207-.03.015-.065.063-.115.03.013-.028.032-.043.056-.054.159-.077.318-.153.479-.231.076-.038.143-.134.11-.164-.056-.052-.124-.035-.187-.007-.206.094-.406.202-.604.312-.069.038-.192.025-.239-.03.154.058.264-.038.383-.1.182-.094.361-.194.553-.268.14-.054.275-.277.245-.425-.003-.011-.005-.023-.023-.022-.085.089-.176.151-.31.177-.27.053-.535.128-.793.233-.263.106-.354.314-.201.519.095.127.177.259.258.395.053.089.117.175.249.169.075-.002.151.034.22.072.092.051.105.121.047.212-.029.045-.007.069.029.091.121.074.248.075.377.026.023-.009.053-.037.065-.01.015.032-.024.045-.052.054-.014.004-.03.003-.041.011-.023.014-.069-.004-.065.039.002.027.034.043.06.055.134.064.237-.004.338-.08.016-.012.023-.044.06-.022-.019.054-.075.075-.111.128.201.038.302-.102.414-.219-.021.127-.126.178-.218.253.113.025.2.002.284-.04.019-.009.036-.029.048 0 .007.019-.011.042-.03.045-.057.011-.105.043-.167.042-.185-.002-.362-.082-.549-.04-.017.004-.04-.009-.058-.019-.11-.062-.214-.138-.342-.168-.025-.006-.047-.032-.068-.051-.044-.038-.052-.082-.009-.125.059-.059.033-.104-.025-.139-.044-.026-.094-.041-.144-.056-.093-.027-.202-.009-.279-.104-.018.085.006.163-.041.233.047-.03.098-.016.144-.032.03-.01.072-.018.085.017.01.031-.023.054-.053.067-.006-.005-.012-.011-.019-.017.02-.03.016-.04-.023-.032-.077.018-.15.055-.234.053.055-.054.096-.11.09-.189-.033.006-.041.042-.065.055-.006-.005-.012-.011-.018-.017.007-.03.046-.044.044-.079-.113-.031-.204.009-.285.082-.005.002-.011.004-.016.006-.029.015-.06.03-.089.045-.058.013-.115.026-.173.039-.006 0-.011 0-.017 0-.04-.007-.081-.014-.122-.021-.013-.026-.063-.018-.057-.062.042-.018.066.024.102.031.157.03.286-.033.411-.114.063-.041.128-.075.2-.058.087.021.081-.019.063-.076-.045-.147-.126-.273-.229-.387-.029-.033-.046-.016-.068.007-.086.087-.192.145-.296.206-.175.104-.226.203-.188.388-.026.016-.025-.021-.044-.022-.005-.012-.011-.023-.017-.035.001-.039.003-.078.004-.117.028-.047.057-.095.085-.142.054-.06.128-.093.19-.14.092-.045.178-.099.246-.177.004-.005.008-.009.012-.014.005-.006.01-.012.015-.019.006-.002.008-.005.006-.011.012-.009.014-.018 0-.028v.001c-.002-.018 0-.038-.019-.051-.003-.011-.007-.023-.011-.035-.003-.005-.006-.011-.009-.017-.002-.012-.005-.023-.007-.035 0-.028-.001-.057-.001-.085.002-.018.005-.035.008-.052.004-.006.007-.012.01-.018.004-.011.009-.022.013-.034.007-.011.013-.022.02-.034.004-.005.008-.011.012-.016.078-.067.171-.108.261-.157.005-.002.01-.004.016-.006.006-.002.011-.003.017-.004.04-.016.081-.032.122-.048.089-.028.177-.055.265-.083.005.002.011.002.015-.003.02.002.038.002.053-.015.012-.002.023-.004.034-.006.014.002.025 0 .035-.012.005-.001.011-.002.017-.003.02.002.039.002.054-.014.036.002.069-.007.102-.022.02.002.039.002.055-.013.016-.002.033-.004.049-.006.114-.019.19-.09.247-.184.011-.011.021-.022.032-.032.023.007.016.037.034.048.015.088.015.088.14.035.012-.003.023-.005.036-.008.005-.003.011-.006.017-.009.005-.002.012-.003.017-.004.015.002.027-.001.035-.014.006-.002.012-.003.017-.004.015.003.026-.002.035-.013.023-.007.047-.015.07-.022.007-.003.014-.006.021-.01.017-.003.037 0 .049-.018.012-.003.023-.006.034-.009.006-.003.012-.007.018-.01.021.002.037-.008.052-.021.015.002.026-.002.034-.015.033-.004.06-.023.088-.04.006-.004.012-.008.017-.012.009-.005.018-.01.026-.015.008-.004.015-.007.021-.011.023-.013.018-.063.053-.05.03.011.014.05.021.076-.003.01-.007.021.005.027.014.008.025.002.035-.008.01-.002.021-.003.031-.005.016.002.03.002.04-.012.005.003.009.002.012-.003.099-.017.188-.057.28-.096.011-.004.021-.009.033-.013.007-.003.015-.007.021-.01.027-.008.055-.016.082-.023.021.002.039.001.056-.012.009 0 .019.001.026.001.025.01.045.038.076.022m.035 1.125c.075-.023.148-.052.216-.113-.11-.006-.192.038-.219.109-.008.002-.014.005-.021.007.002.003.006.009.007.009.006-.003.012-.008.018-.012m-.105.155c.104-.029.181-.106.265-.167-.098.04-.207.061-.265.166-.016.001-.034-.004-.042.015-.001.003.008.015.014.016.021.002.026-.013.028-.03m.035-.695c-.012.001-.024-.001-.034.003-.205.068-.41.138-.615.206-.023.007-.027.018-.018.038.023.044.047.08.107.057.149-.057.301-.109.45-.167.06-.023.114-.059.108-.137.036.03.068.054.123.036.123-.042.251-.07.374-.114.063-.022.155-.032.128-.148-.16.049-.318.094-.476.146-.053.018-.126.005-.148.081m0-.418c.025-.002.053.001.076-.007.195-.065.395-.116.583-.2.057-.024.12-.059.097-.12-.027-.072-.095-.025-.141-.004-.16.071-.322.138-.49.182-.092.024-.126.063-.126.148-.007.002-.014.004-.021.006.001.002.002.004.004.006.006-.004.012-.008.019-.012m-.707-.029c-.214.125-.448.193-.679.269-.037.012-.059.034-.065.061-.011.045-.029.086-.045.129-.005.015-.023.032-.005.047.016.014.031.001.048-.004.15-.048.302-.094.456-.13.212-.048.313-.177.29-.373m-.956.683c.05.007.051.087.134.055.219-.085.444-.151.669-.223.051-.016.084-.042.07-.098-.016-.063-.066-.044-.105-.035-.072.018-.145.039-.215.064-.185.068-.398.067-.553.237m.059.125c.042.023.084.025.102.061.021.044.057.03.09.021.071-.02.142-.042.213-.062.137-.04.276-.076.406-.137.034-.015.078-.042.056-.092-.021-.049-.065-.062-.116-.045-.245.083-.491.167-.75.254m.962-.6c.084.008.165-.019.243-.044.115-.037.24-.059.33-.153.027-.029.067-.063.043-.103-.026-.043-.078-.015-.119-.013-.005.001-.01.006-.016.007-.127.042-.248.102-.381.132-.067.015-.131.039-.145.128-.008.049-.003.059.044.045m-.122.28c.026.045.063.063.07.103.007.034.031.025.055.018.104-.033.209-.063.313-.098.08-.028.158-.064.237-.094.046-.018.065-.053.048-.096-.018-.043-.049-.034-.09-.019-.08.03-.162.058-.246.078-.128.03-.253.07-.387.108m-.553.56c.025-.005.04-.007.054-.012.113-.038.227-.076.341-.114.065-.022.131-.043.194-.07.045-.019.076-.052.05-.109-.03-.064-.066-.033-.102-.009-.02.013-.041.02-.063.027-.16.054-.321.105-.486.144-.023.005-.074.018-.051.049.023.03.016.09.063.094m2.059-1.12c.011-.072-.018-.084-.063-.068-.021.007-.038.023-.06.03-.212.066-.424.136-.636.204-.025.008-.065.002-.038.05.017.028.019.059.073.043.195-.055.388-.12.586-.164.058-.013.143-.014.139-.095m-1.427.49c.188-.044.372-.096.553-.16.043-.015.054-.047.037-.09-.019-.045-.05-.051-.091-.034-.026.011-.053.022-.08.033-.136.054-.281.072-.424.103-.043.009-.082.033-.07.078.008.027.016.085.075.069m-.594.665c.055.106.084.116.188.075.074-.03.149-.057.225-.087.084-.034.17-.066.252-.104.044-.02.044-.059.016-.094-.023-.027-.047-.052-.078-.005-.009.013-.026.022-.043.027-.184.063-.369.124-.56.188m1.248-.841c.058.108.065.114.125.096.153-.046.308-.089.459-.14.044-.015.095-.023.127-.066.016-.021.02-.043.012-.065-.011-.031-.034-.005-.051-.007-.06-.006-.111.027-.167.041-.168.043-.336.094-.505.142m-1.12.988c.034.015.068.018.078.034.039.071.088.031.131.013.137-.056.271-.117.407-.174.036-.016.063-.04.046-.079-.018-.04-.053-.045-.094-.027-.185.077-.369.152-.568.233m.557-.432c.037.095.091.117.18.07.032-.017.072-.03.111-.043.105-.033.206-.08.303-.135.027-.016.047-.038.025-.07-.016-.024-.035-.038-.072-.022-.176.082-.359.144-.547.2m.078.342c-.009.003-.028.008-.047.016-.127.054-.253.107-.379.164-.023.011-.074.02-.054.059.019.033.051.067.106.034.096-.057.195-.104.302-.14.04-.014.091-.02.119-.063.013-.019.021-.037.01-.056-.009-.018-.029-.013-.058-.013m.03-.199c.031.056.065.073.122.045.087-.043.178-.08.268-.114.049-.018.1-.031.141-.063.017-.013.034-.029.021-.051-.013-.02-.031-.031-.059-.017-.041.02-.083.037-.125.054-.121.048-.243.096-.368.146m.534-.042c.003-.027-.009-.036-.035-.024-.141.057-.281.113-.421.173-.015.006-.047.024-.028.052.015.021.029.051.068.033.119-.056.246-.091.358-.162.029-.019.048-.04.058-.072m-.51.39c-.162.021-.299.1-.434.185.17-.003.31-.073.434-.185m.352-.086c-.004-.01-.009-.019-.013-.029-.051.026-.102.052-.154.078-.102.05-.199.104-.293.168-.018.012-.032.026-.027.048.005.017.018.021.034.011.151-.092.302-.184.453-.275m.556-.643c-.107.032-.211.063-.315.092-.027.007-.066.007-.059.045.008.042.047.044.083.029.089-.036.179-.072.27-.108.023-.009.026-.026.021-.059m-.457.484c-.139.031-.263.104-.398.144-.017.005-.027.036-.015.062.012.021.021.018.041.008.126-.066.257-.122.372-.214m.079-.192c.12.019.285-.072.288-.156-.098.043-.209.055-.288.156m-.843.734c.053.019.088-.002.112-.041.011-.017.054-.031.012-.06-.03-.021-.065-.009-.071.017-.01.034-.036.055-.053.084m-.106.087c-.001-.002-.002-.005-.003-.006-.002-.001-.006 0-.008.001.002.003.003.006.005.009.002-.002.004-.003.006-.004"/><path fill="#3f3527" fill-rule="evenodd" d="m11.981 7.586c-.005-.046.033-.043.06-.053.028-.009.06-.014.083-.034.051-.019.113-.024.093-.107-.017-.064-.062-.023-.094-.029-.012 0-.023 0-.035 0-.114 0-.223.022-.315.097h-.006l-.005.003c-.033-.027-.039-.067-.05-.104-.001-.019-.002-.038-.003-.058.029-.064.007-.093-.06-.097-.034-.002-.066-.01-.1-.016-.01-.002-.019-.003-.027-.005-.008-.003-.017-.006-.024-.009-.018-.002-.035-.004-.054-.007-.043-.021-.091-.026-.139-.03-.011-.002-.023-.005-.033-.007-.046-.028-.08-.021-.081.036-.001.08-.045.097-.112.092-.033-.002-.072-.01-.075.043-.004.068-.048.067-.097.057-.018-.021-.045-.014-.068-.019l.002.001c-.008-.003-.014-.007-.021-.009-.011-.003-.023-.005-.033-.007-.017-.014-.033-.027-.051-.042l.004-.002v-.005c.019-.089.036-.177.057-.275-.157.041-.286.104-.399.201-.01-.005-.02-.01-.029-.015 0-.015-.001-.028-.017-.035-.004-.008-.008-.015-.012-.022l-.005.001.005-.001c-.017-.036-.041-.064-.072-.087-.001-.007-.005-.011-.011-.012-.009-.007-.018-.015-.025-.021-.006-.005-.011-.01-.017-.015-.037-.048-.087-.081-.139-.112-.006-.003-.011-.007-.017-.01-.007-.005-.014-.01-.021-.016-.005-.014-.017-.019-.03-.02-.041-.039-.089-.066-.141-.089l-.004.004.004-.003c-.023-.026-.054-.04-.085-.054-.008-.004-.015-.008-.022-.012v-.001c-.005-.004-.011-.009-.017-.014-.018-.059.034-.028.052-.041.054.001.107.01.159-.011v.002c.012-.002.021-.003.032-.005.012-.001.023-.002.035-.002.066.007.13-.012.193-.025.017-.003.033-.007.05-.01.016.002.031.003.043-.011.027-.002.056-.003.079-.021.038.001.074-.014.104-.033.057-.035.088-.019.123.034.063.094.139.18.236.253.023-.09.045-.17.066-.25.039-.043.085-.009.128-.014.013.002.024.004.037.007.011.002.021.004.031.005.019.023.073.024.049.075-.044.088.001.104.076.096.014.013.027.025.042.038-.003.005-.003.01 0 .016-.003.023-.007.046-.01.069-.032.049-.02.077.039.086.044.007.088.017.132.025.008.002.015.004.022.006.012.002.023.003.035.005.031.021.069.019.104.029.017.002.034.005.052.008.123.041.123.041.167-.077.008-.021.017-.043.024-.064.035-.03.06-.011.086.016.051.049.094.106.156.142.012.021.03.032.051.04.015.016.031.029.053.032.2.128.37.106.486-.061.006.007.012.015.018.021-.004.008-.009.015-.01.023-.002.024-.043.034-.024.064.021.032.047.035.081.023.015-.005.041-.002.049.008.051.064.144.003.196.068.013.017.04-.005.039-.036-.002-.043.004-.085.034-.12.006.007.012.015.018.021-.006.034-.021.069-.015.102.013.06.005.142.104.14.004.005.009.006.015.004.01.013.023.014.037.012.014.002.028.005.042.008.009.003.019.006.027.008.015.003.03.006.046.008.011.015.025.014.041.012.01.002.02.004.028.006.034.019.073.023.111.028.011.002.021.004.03.006.016.017.036.015.057.014.006.001.012.002.018.003.067.026.137.044.209.051.025.021.057.017.086.021.071.026.146.042.221.055h.002c.013.003.025.006.039.008.008.002.017.004.025.006.012.014.027.014.043.012.049.029.133.002.146.09-.012.107-.026.118-.167.125.009.039.032.076.021.117-.018.012-.034.023-.051.036-.029-.001-.059-.003-.087-.003-.162-.017-.324-.029-.487-.029-.037-.002-.073-.003-.11-.005-.031-.019-.065-.013-.098-.011-.047-.002-.093-.004-.14-.006-.01-.002-.02-.004-.029-.005v.001c-.013-.003-.026-.005-.039-.007-.012 0-.023-.001-.035-.001s-.023 0-.034 0c-.029-.002-.059-.002-.087-.004-.12-.004-.249-.075-.355.043-.009.01-.04.016-.048.009-.059-.051-.15.014-.2-.06-.007-.011-.021-.002-.031 0-.097.012-.19.008-.27-.061-.01-.008-.024-.016-.037-.016-.165-.012-.33-.021-.494-.031-.026-.002-.054.002-.041.035.019.049-.021.067-.054.103.053.004.094.009.133.01.229.001.458.002.687.003.113 0 .113 0 .077.102.219-.006.44.021.633-.117.001.017.002.033.004.05-.018.039-.035.079-.058.129.116-.013.217.002.315-.026.012 0 .023 0 .034-.001.013-.003.025-.004.038-.007.01.004.021.006.031.01-.011.023-.021.047-.033.07-.06.046-.129.065-.217.075.095.056.177.096.266.122.023.009.047.019.07.027.014.005.031.01.023.026-.006.01-.025.01-.039.015-.015-.003-.029-.003-.04.01-.027.002-.055.004-.081.006-.006 0-.012 0-.017 0-.012.001-.024.001-.036.001-.046 0-.092-.001-.138-.002-.012-.001-.023-.001-.035-.001-.027-.01-.054-.021-.088-.012.06.082.143.135.227.184-.006.03-.036.03-.055.045-.039 0-.078.001-.117.002-.018-.004-.034-.009-.052-.014-.067-.039-.135-.079-.204-.119-.004.041-.008.08-.012.119-.01.007-.021.014-.03.021-.006-.001-.011-.002-.017-.001-.021-.024-.043-.049-.065-.073-.018-.029-.043-.053-.074-.069-.012-.021-.03-.031-.051-.038-.058-.039-.109-.091-.19-.079.013.031.023.058.033.084-.008.017-.016.033-.023.05-.047.008-.057-.024-.065-.059.025-.024.027-.05 0-.074-.02-.017-.04-.033-.06-.049-.014-.011-.033-.02-.021-.04.009-.014.026-.008.04-.004.042.013.083.025.123.04.143.055.26.146.371.265 0-.034-.002-.055 0-.074.004-.038-.058-.08-.015-.104.033-.02.062.04.093.063.132.1.216.131.316.112-.063-.056-.134-.097-.18-.165-.013-.019-.035-.038-.023-.062.015-.028.042-.006.06-.001.108.023.216.019.326.006-.11-.063-.231-.104-.341-.195.113-.008.215.017.306-.068-.142.008-.27.016-.409.023.02-.049.035-.087.053-.13-.224.07-.442.072-.664.052.008-.041.059-.042.049-.09-.22 0-.44.002-.659 0-.075-.001-.15-.009-.226-.018-.021-.002-.066-.019-.028-.045.044-.03.053-.065.07-.111.049-.127.052-.152-.038-.247-.076-.08-.137-.078-.21.005-.013.014-.02.054-.05.021-.085-.09-.185-.059-.283-.036-.034.008-.054.015-.087-.021-.046-.051-.11-.018-.152.023-.043.041-.099.102-.051.156.099.113.212.215.321.316.02.018.055.019.082.026.088.026.19.019.264.077.068.056.143.066.222.079.188.028.372.07.502.226.035.041.054.05.101.017.084-.059.146-.047.196.025-.062-.017-.124-.045-.185.005-.029.023-.058.047-.087.07-.002-.004-.004-.009-.007-.013-.018-.069-.063-.116-.12-.152-.002-.005-.006-.008-.012-.007-.145-.107-.317-.128-.488-.148-.042-.005-.076-.017-.106-.044-.012-.021-.03-.031-.053-.036-.009-.014-.023-.014-.036-.014l-.003-.004h-.004c-.049-.02-.098-.031-.15-.032-.005-.002-.01-.004-.015-.006-.081-.016-.148-.053-.202-.119-.053-.064-.113-.123-.182-.171-.006-.006-.012-.012-.018-.017-.016-.04-.076-.047-.072-.101.008-.079.04-.148.11-.186.059-.03.126-.066.185.008.014.018.033.005.048 0 .065-.021.131-.016.197-.019.021.008.041.016.063.023.018.019.034.04.059.008.021-.031.059-.042.089-.06.015-.001.028-.001.043-.002.05.022.102.044.13.092.033.057.081.066.139.058.012 0 .023 0 .035 0 .006.001.012.001.017.001.012 0 .023 0 .036.001.005 0 .011 0 .017 0 .034.001.069.002.104.002.012 0 .023.001.034.002.018.008.034.008.053.002.018.003.021-.006.015-.019m1.065-.052c-.028-.029.01-.05.012-.075.003-.055.036-.111-.01-.164-.013-.016-.024-.023-.044-.021-.018.003-.023.016-.023.031-.003.104-.05.196-.094.289.071.018.095-.07.158-.059-.047.082-.126.104-.214.111.015.007.027.011.042.012.275.023.551.047.827.066.034.002.091.05.101-.003.008-.038-.065-.032-.1-.04-.219-.049-.434-.112-.655-.147m-2.182-.679c-.082-.058-.152-.117-.198-.192-.071-.114-.146-.142-.277-.086-.172.073-.364.069-.565.092.031.021.049.035.067.047.178.114.36.223.485.399.028.04.048.016.07 0 .1-.065.206-.115.321-.148.053-.016.077-.01.06.055-.018.066-.032.135-.04.204-.013.1.078.068.125.09.049.021.056-.017.063-.054.044-.203.091-.405.137-.608.008-.035.02-.076-.036-.074-.047.002-.113-.067-.141.032-.021.078-.045.155-.072.244m3.124 1.064c0-.001.001-.002.001-.003.055.004.109.009.164.012.056.003.066-.025.046-.071-.017-.035-.035-.06-.082-.064-.358-.026-.716-.058-1.073-.083-.074-.005-.148-.029-.225-.009-.035.01-.075.001-.068.061.005.053.02.077.076.08.387.023.774.051 1.161.076m-1.796-.598c.077 0 .139.004.198-.002.053-.004.088-.044.089-.092.001-.059-.055-.012-.08-.029-.007-.004-.018-.004-.025-.006-.185-.029-.318-.143-.44-.272-.047-.05-.069-.038-.086.019-.03.103-.062.204-.089.308-.01.039-.013.079-.006.12.006.034.018.044.051.026.127-.067.266-.076.389-.072m2.065.451c.06.009.086-.007.093-.05.006-.04-.008-.061-.053-.071-.374-.088-.747-.179-1.12-.269-.044-.011-.07-.007-.08.046-.01.05-.005.076.056.089.184.038.365.085.549.128.191.044.383.088.556.128m-3.038-.738c-.011.035.011.046.044.053.144.028.288.057.431.09.068.016.056-.042.072-.072.025-.047-.02-.045-.043-.05-.137-.034-.275-.061-.41-.099-.078-.022-.086.019-.094.078m.58.601c-.041 0-.091-.002-.14 0-.021.001-.063-.017-.047.031.011.029-.034.083.034.088.148.008.295.017.441.022.058.002.062-.051.067-.085.007-.043-.038-.032-.063-.035-.095-.009-.19-.015-.293-.021m-.711-.415c.043.009.059-.014.067-.06.021-.113.051-.225.074-.337.005-.027.027-.064-.026-.074-.043-.008-.077-.007-.088.05-.023.122-.05.242-.078.362-.012.047-.005.068.051.059m1.559.014c.007-.079-.02-.092-.075-.064-.026.014-.047.026-.054.06-.014.066-.051.117-.121.129-.041.007-.035.031-.03.058.013.072.1.102.161.051.078-.064.122-.144.119-.232m.297.081c-.008-.028.012-.082-.047-.087-.053-.005-.059.041-.068.082-.019.08-.053.152-.104.217-.012.016-.043.03-.019.057.02.021.05.034.078.025.031-.01.063-.025.082-.059.041-.07.07-.144.078-.235m-.349.242c.03-.003.059-.007.08-.029.07-.075.116-.163.125-.268.003-.033-.004-.07-.045-.069-.034.001-.074.006-.075.061-.001.095-.049.169-.116.231-.015.014-.047.023-.03.053.013.021.04.018.062.021m-.239.059c.045-.009.093-.097.124.011.007.021.024.004.033-.006.011-.012.026-.021.01-.043-.03-.041-.226-.122-.268-.102-.068.032-.133.071-.205.092-.011.004-.025.008-.02.022.003.009.014.024.021.023.066-.002.137.055.2-.022.039-.05.088-.059.104.024m-.05-.018c-.067.042-.106.096-.135.159-.023.05.009.071.044.086.041.017.071-.011.078-.044.011-.063.034-.124.013-.201m.258.029c-.053.052-.095.158-.093.22 0 .022.011.039.03.047.025.012.041-.004.058-.022.047-.056.051-.162.005-.244m-.104.079c-.01-.022.006-.071-.036-.079-.029-.005-.06.027-.068.058-.015.05-.023.102-.026.153-.003.039.027.035.055.026.077-.024.065-.093.076-.158m.259.081c-.001-.021-.002-.041-.003-.061-.001-.023.001-.056-.023-.06-.025-.004-.046.022-.053.049-.009.039-.014.079-.021.118-.006.03-.027.066.018.08.046.013.069-.021.081-.059.007-.021.001-.046.001-.068m-.389-.39c-.001-.024-.013-.036-.037-.036-.029-.001-.043.013-.041.041.002.025.02.031.042.03.023-.001.04-.008.036-.035"/><path fill="#37221b" fill-rule="evenodd" d="m12.693 7.05c-.006-.007-.012-.015-.018-.021.018-.106-.056-.22.031-.319.001-.002-.006-.01-.008-.015-.023-.074.02-.159-.036-.229-.007-.008-.004-.03.002-.042.034-.07.02-.133.005-.208-.015-.081-.042-.127-.111-.158-.004-.102-.057-.152-.158-.152-.016-.007-.031-.015-.047-.022-.035-.025-.071-.05-.106-.076-.005-.004-.011-.007-.016-.011-.004-.01-.011-.017-.023-.015-.018-.011-.035-.007-.053 0-.011 0-.023 0-.034.001-.028 0-.058.001-.087.001-.041.001-.081.001-.121.002-.018 0-.035 0-.053.001-.005-.002-.01-.003-.015-.004-.013-.005-.024-.011-.037-.017.095-.028.173-.088.267-.137-.127-.081-.251.019-.376-.026.163-.002.271-.099.392-.2-.155-.012-.281.056-.421.057.119-.051.235-.102.331-.214-.15-.011-.26.069-.388.077.101-.04.176-.109.25-.18.007.005.013.011.018.017.002.025-.035.031-.027.062.057 0 .13-.047.167.016.029.047-.043.076-.08.128.058 0 .1 0 .142 0 .03 0 .052.021.06.043.012.031-.024.033-.042.043-.046.027-.085.06-.126.1.027.008.047.017.066.019.038.003.06.029.066.059.007.036-.032.041-.056.056-.021.014-.053.019-.067.055.173.019.335-.012.497-.028.01-.001.027-.012.026-.018-.003-.087.026-.06.065-.022.01.01.034.005.051.007.167.02.301.087.375.25.018.04.044.082.093.097.016.005.04.003.028.029-.007.019-.025.019-.044.013-.027-.009-.069-.024-.077.007-.015.056-.066.108-.028.172.017.029.023.044-.023.06-.053.017-.07.082-.05.122.023.046.012.069-.01.106-.03.051-.024.11.013.154.04.049.107.05.165.063.021.005.026-.017.029-.034.003-.019.01-.036.033-.028.017.006.018.023.016.037-.018.134.063.215.153.294-.019-.059.059-.107.018-.162-.042-.056-.057-.122-.073-.185-.016-.061-.023-.131.03-.186.018.078.012.155.026.231.019.098.083.14.163.171.026.01.059.002.044-.037-.035-.094-.023-.2-.101-.286-.072-.078-.065-.101-.043-.171.067.192.188.302.412.317-.127-.123-.133-.295-.252-.409.102.108.251.116.364.201.015-.119 0-.14-.113-.164-.07-.015-.137-.034-.191-.094.04-.019.056-.003.076.009.174.097.299.031.386-.053.013-.013.028-.023.019-.043-.01-.02-.03-.013-.046-.01-.06.009-.119.02-.18.027-.09.011-.178-.004-.265-.029-.015-.004-.038-.012-.029-.034.007-.022.027-.017.044-.008.07.038.146.018.221.024.076.007.115-.035.144-.098-.45-.049-.45-.049-.488-.144.224.141.411.052.616-.064-.098-.022-.11-.104-.165-.147-.06-.047-.137-.027-.22-.049.074-.04.138-.052.203-.055.107-.005.213.015.318.031.023.003.058.017.07-.013.01-.025-.015-.047-.031-.067-.049-.063-.125-.065-.19-.091-.088-.035-.191-.022-.279-.086.042-.025.071-.007.101 0 .089.022.178.045.268.066.05.012.079-.015.087-.061.011-.057-.029-.059-.07-.058-.053 0-.104 0-.156-.002-.031 0-.063 0-.083-.039.04-.014.073-.022.112-.016.053.009.109.016.162-.002.023-.007.062-.004.059-.04-.003-.027-.033-.035-.06-.042-.118-.03-.239-.035-.361-.033-.026 0-.062.015-.088-.035.159.009.31-.026.456.027.059.021.074-.003.062-.058.006-.006.012-.012.017-.018.027.08.091.071.154.064.175-.019.35-.045.525-.051.02.003.039.006.055-.01.012-.001.023-.002.034-.003 0 .01 0 .019.001.029-.215.023-.429.048-.644.068-.06.005-.098.012-.122.082-.035.105-.041.108.069.114 0 .021 0 .042 0 .064-.023.002-.045.003-.068.005-.006-.005-.013-.009-.019-.014-.002.002-.003.004-.005.007.008.002.016.005.023.007.005.019.021.016.034.018.145.018.289.035.435.053-.001.01-.001.02-.001.03-.012-.002-.023-.003-.034-.005-.011-.011-.023-.011-.037-.008-.043-.003-.087-.008-.13-.01-.11-.002-.219-.046-.331-.021-.001-.006.021-.001.007-.014-.002.005-.004.009-.007.014.034.013.065.039.075.067.025.079.088.085.152.098.19.036.377.073.566.109-.014.02-.035.011-.053.016-.021 0-.044-.002-.065-.002-.007-.003-.013-.006-.02-.009-.023-.003-.045-.006-.067-.009-.007-.002-.014-.005-.02-.008-.086-.016-.17-.042-.258-.044-.007-.003-.014-.005-.021-.008-.023-.003-.045-.006-.068-.009-.006-.002-.012-.004-.018-.006-.053-.02-.105-.021-.159-.006-.023-.002-.046-.002-.069-.004-.009 0-.019-.002-.028-.002-.09-.025-.183-.016-.276-.022.046.026.074.064.098.107.025.047.065.071.12.068.004.007.008.014.013.02-.072.091-.183.121-.29.169.043.015.077.01.111.012.039.002.07-.048.111-.016-.004.001-.006.004-.004.008-.037.039-.073.077-.111.117.067.025.126-.021.188-.01 0 .011 0 .022 0 .034-.012.008-.017.021-.017.035-.023.029-.047.058-.07.087-.046.028-.104.045-.137.079-.037.038.028.093.026.145 0 .002.002.004.004.007-.018.027.013.083-.051.082-.01-.008-.021-.018-.031-.026-.006-.004-.012-.008-.018-.012-.049-.045-.104-.075-.177-.069.008.05.029.089.058.125.021.03.043.061.063.092.012.018.045.029.032.055-.011.022-.041.016-.063.017-.02.001-.04.002-.06.002-.056-.019-.116-.024-.17-.064-.015.074-.004.137.028.197.008.014.03.024.021.043-.013.022-.035.013-.055.01-.023-.004-.047-.006-.068-.012-.091-.025-.111-.01-.114.086-.001.033.012.061.023.092-.062.033-.066-.044-.105-.054-.08-.102-.08-.102-.15.005-.01.017-.021.033-.031.05-.006-.007-.012-.015-.018-.021.009-.044.042-.074.066-.11.034-.052.001-.168-.053-.183-.162-.045-.162-.045-.238.107-.012.023-.021.047-.035.069-.008.014-.014.041-.032.032-.063-.03-.052.032-.073.053m.155-.539c-.015-.15.083-.275.099-.418.005-.043.049-.075.033-.12-.049-.141-.244-.265-.402-.258-.011 0-.025.002-.031.01-.035.039-.082.034-.127.045-.039.01-.085-.005-.119.026.106.106.241.096.373.087-.006.042-.03.043-.047.053-.066.043-.07.076-.004.12.05.034.104.065.165.013.014-.012.04-.029.054-.006.019.033-.021.032-.036.045-.011.009-.025.014-.038.019-.073.032-.087.082-.034.144.017.019.039.033.06.048.014.009.025.018.02.034-.006.019-.021.015-.035.008-.051-.027-.055.009-.065.044-.023.072.005.115.07.142.001.016.042.045-.01.044-.087-.003-.054.043-.042.087.011.038.067.034.069.084-.031.003-.073-.028-.087.024-.012.045-.029.088.003.131.013.018.027.03.05.017.029-.016.102-.198.088-.231-.026-.064-.024-.128-.005-.193"/><path fill="#393a3a" fill-rule="evenodd" d="m14.364 5.391c0-.021 0-.042 0-.064.06.027.113-.008.169-.016.129-.018.26-.025.389-.04.126-.015.252-.031.373-.07.048-.015.084-.047.074-.102-.008-.05-.049-.056-.094-.052-.071.006-.144.01-.215.015-.001-.01-.001-.019-.001-.029.069-.007.138-.014.206-.021.027-.003.062.008.059-.04-.003-.039-.006-.078-.054-.086-.023-.004-.046-.002-.068.002-.263.034-.524.069-.786.103 0-.009 0-.019.001-.029.239-.036.479-.07.72-.107.035-.006.097.022.104-.026.007-.05-.053-.07-.095-.088-.042-.019-.085-.021-.134-.009-.173.045-.348.083-.525.103-.002-.01-.003-.019-.005-.029.181-.037.361-.073.542-.111.102-.021.193.042.26.121.066.079.099.177.105.258.008.102.1.225-.021.323-.007.006-.01.019-.012.03-.002.011.004.025-.001.034-.054.113-.075.245-.181.33-.009-.002-.018-.005-.025-.008-.021-.003-.043-.006-.065-.009-.008-.002-.016-.005-.023-.008-.03-.008-.06-.016-.089-.024.018-.005.039.004.053-.016.037.006.075.006.11.018.05.016.066-.012.083-.049.02-.038.021-.072-.013-.101-.042-.033-.089-.054-.142-.061-.1-.014-.2-.025-.301-.038 0-.01 0-.02.001-.03.149.019.307.005.443.088.027.017.05.03.075.003.032-.034.044-.077.035-.12-.009-.042-.048-.022-.072-.023-.294-.009-.588-.016-.882-.023m.184-.038c.239.022.479.022.719.025.018 0 .035.003.052 0 .06-.013.078-.054.069-.11-.011-.061-.048-.045-.091-.031-.055.018-.111.026-.168.038-.191.039-.388.048-.581.079"/><path fill="#393a3a" fill-rule="evenodd" d="m11.81 5.762c.013.006.024.011.037.017-.054.017-.106.033-.159.049-.018.003-.035.005-.053.008-.008.003-.015.006-.023.009-.192.031-.366.104-.516.229-.026.018-.058.03-.077.053-.063.073-.133.135-.222.174-.005-.002-.009-.002-.013.002-.076.018-.154.025-.229.008-.052-.012-.073.004-.075.048-.006.108-.054.079-.108.037-.007-.005-.015-.008-.023-.013-.006-.005-.012-.01-.018-.016-.021-.036-.041-.071-.062-.107-.004-.022-.007-.044-.011-.067.014-.067.043-.128.076-.189.01-.013.02-.025.029-.038.012-.013.023-.025.035-.037.004-.005.009-.009.014-.014.07-.042.107-.103.1-.186-.006-.076.031-.125.098-.157.127-.061.254-.123.381-.184.006-.004.013-.008.019-.012.108-.039.21-.093.312-.144.007-.004.013-.008.02-.012.005-.002.01-.003.016-.005.006-.004.012-.008.019-.012.005-.002.011-.004.017-.006.006-.004.012-.008.017-.012.071-.017.104-.083.156-.123.006.006.012.012.019.019-.052.086-.135.132-.221.173-.242.116-.484.231-.727.345-.063.029-.095.072-.09.142.004.047-.003.094-.033.131-.029.035-.023.065-.006.103.057.132.056.133.202.131.075-.001.15-.004.226-.004.035 0 .067-.007.097-.03.225-.189.497-.261.777-.311m-1.191.386c-.048-.002-.082-.005-.1-.055-.017-.049-.029-.133-.079-.13-.054.003-.082.08-.11.133-.011.02-.019.043-.023.064-.02.082.017.165.087.208.017.01.042.031.047-.003.014-.106.117-.135.179-.218m-.058.122c.158.042.328-.017.379-.132-.141.006-.292-.028-.379.132"/><path fill="#393a3a" fill-rule="evenodd" d="m14.347 4.849c.006-.009.012-.019.018-.028.039-.006.076-.022.117-.012-.016.01-.031.019-.047.029-.029.004-.059.007-.088.011"/><path fill="#37221b" fill-rule="evenodd" d="m11.566 5.05c.016-.014.032-.027.048-.04.006.006.012.011.018.017-.016.019-.032.038-.048.056-.007-.006-.013-.012-.019-.019.001-.005.001-.009.001-.014"/><path fill="#37221b" fill-rule="evenodd" d="m14.435 4.838c.016-.01.031-.019.047-.029v-.002c.002.01.003.019.005.029-.018.001-.035.002-.052.002"/><path fill="#993c21" fill-rule="evenodd" d="m14.274 5.05c.013.055-.003.079-.062.058-.146-.053-.297-.018-.456-.027.026.05.062.035.088.035.122-.002.243.003.361.033.026.007.057.015.06.042.003.036-.036.032-.059.04-.053.018-.109.012-.162.002-.039-.007-.072.002-.112.016.021.039.052.038.083.039.052.002.104.002.156.002.041 0 .081.002.07.058-.008.046-.037.072-.087.061-.09-.021-.179-.044-.268-.066-.029-.007-.059-.025-.101 0 .088.064.191.052.279.086.065.026.141.029.19.091.017.021.041.043.031.067-.013.03-.047.017-.07.013-.105-.016-.211-.036-.318-.031-.065.003-.129.015-.203.055.083.022.159.002.22.049.055.043.067.125.165.147-.205.117-.393.205-.616.064.038.095.038.095.488.144-.028.064-.067.105-.144.098-.074-.007-.15.013-.221-.024-.017-.008-.037-.014-.044.008-.009.022.015.03.029.034.087.025.175.04.265.029.06-.007.119-.019.18-.027.016-.003.036-.01.046.01.01.019-.006.03-.019.043-.087.084-.212.149-.386.053-.021-.012-.036-.028-.076-.009.055.061.121.08.191.094.113.024.128.044.113.164-.113-.085-.263-.093-.364-.201.119.114.125.286.252.409-.224-.016-.345-.125-.412-.317-.021.07-.029.094.043.171.078.085.065.191.101.286.015.04-.018.047-.044.037-.08-.031-.145-.073-.163-.171-.015-.076-.009-.154-.026-.231-.054.055-.046.125-.03.186.017.063.031.129.073.185.041.055-.036.104-.018.162-.091-.079-.171-.16-.153-.294.002-.014.001-.031-.016-.037-.023-.008-.03.01-.033.028-.003.018-.009.039-.029.034-.058-.013-.125-.014-.165-.063-.037-.044-.043-.103-.013-.154.021-.037.033-.06.01-.106-.021-.039-.003-.104.05-.122.045-.015.039-.031.023-.06-.038-.064.014-.117.028-.172.008-.032.05-.017.077-.007.019.006.037.005.044-.013.012-.026-.013-.024-.028-.029-.049-.015-.075-.057-.093-.097-.074-.162-.208-.229-.375-.25-.017-.002-.041.002-.051-.007-.039-.038-.068-.065-.065.022.001.006-.017.017-.026.018-.162.017-.324.047-.497.028.015-.035.046-.041.067-.055.023-.015.063-.019.056-.056-.006-.03-.028-.056-.066-.059-.02-.002-.039-.01-.066-.019.041-.04.08-.073.126-.1.018-.011.054-.013.042-.043-.009-.021-.03-.043-.06-.043-.042 0-.084 0-.142 0 .037-.053.109-.081.08-.128-.037-.063-.11-.016-.167-.016-.008-.031.029-.037.027-.062.03-.013.063-.036.054-.067-.013-.035-.055-.027-.085-.017-.046.016-.097.002-.144.032.047-.07.023-.148.041-.233.077.094.187.076.279.104.05.015.1.03.144.056.059.035.084.08.025.139-.043.043-.035.087.009.125.021.019.043.045.068.051.128.03.231.106.342.168.018.01.041.022.058.019.187-.042.364.039.549.04.062 0 .11-.031.167-.042.02-.004.037-.026.03-.045-.012-.029-.029-.009-.048 0-.084.042-.171.065-.284.04.092-.076.197-.127.218-.253-.112.117-.213.257-.414.219.036-.054.093-.075.111-.128-.036-.022-.044.01-.06.022-.101.076-.204.144-.338.08-.026-.013-.059-.028-.06-.055-.004-.043.043-.025.065-.039.011-.008.027-.006.041-.011.027-.009.066-.021.052-.054-.013-.027-.042.001-.065.01-.129.049-.256.047-.377-.026-.036-.021-.059-.046-.029-.091.059-.092.045-.162-.047-.212-.068-.038-.145-.074-.22-.072-.132.005-.196-.081-.249-.169-.081-.136-.163-.268-.258-.395-.152-.205-.062-.413.201-.519.258-.104.523-.18.793-.233.135-.026.226-.088.31-.177.018-.002.02.011.023.022.03.148-.105.372-.245.425-.191.074-.371.174-.553.268-.119.061-.229.157-.383.1.047.056.17.068.239.03.198-.109.398-.218.604-.312.063-.028.131-.045.187.007.032.03-.034.126-.11.164-.16.077-.319.154-.479.231-.023.011-.043.025-.056.054.051.032.085-.015.115-.03.14-.07.28-.141.422-.207.035-.016.073-.032.098-.068.027-.04.072-.046.105-.014.04.039.02.085-.02.11-.067.044-.142.078-.212.117-.086.047-.17.096-.255.145-.018.01-.028.027-.027.058.067-.022.124-.059.179-.096.125-.086.276-.127.391-.231.04-.037.074.001.093.029.023.034.017.071-.027.094-.129.068-.258.138-.385.21-.036.021-.112.024-.091.077.014.033.066-.022.101-.038.145-.069.29-.139.423-.232.038-.027.059-.003.078.022.025.032.007.05-.023.067-.127.071-.253.144-.379.217-.023.012-.043.026-.072.045.032.022.053.016.076.002.134-.078.269-.154.402-.231.016-.009.03-.018.046-.025.023-.01.046-.01.06.015.017.027-.001.042-.023.055-.088.055-.175.11-.262.165-.025.016-.055.028-.072.068.08-.007.129-.059.187-.091.063-.035.12-.08.183-.113.032-.017.078-.046.105.009.025.051-.007.073-.048.101-.081.056-.18.085-.259.169.075.009.114-.037.162-.06.057-.027.11-.061.165-.093.015-.008.025-.027.042-.006.017.02.012.035-.008.051-.024.019-.056.033-.06.069-.055-.005-.082.042-.122.065-.018.01-.056.003-.046.035.012.04.042-.005.063.004.027-.003.035.024.054.035.091-.016.156-.08.23-.127.027-.017.047-.053.096-.043-.021.055-.065.077-.109.1-.025.013-.068.039-.05.053.023.019.065.064.1.032.081-.075.209-.073.273-.173.015-.024.042-.016.065-.011.16.033.32.067.48.101.044.009.067.037.063.08s-.033.061-.079.061c-.185-.002-.367-.049-.553-.038-.03.002-.062-.007-.091.028.077.008.154.018.231.023.115.008.231.012.346.022.042.004.083.023.125.035"/><path fill="#f7f6f5" fill-rule="evenodd" d="m11.584 5.082c.016-.019.032-.038.048-.056.024-.014.032-.049.065-.055.006.079-.035.135-.09.189.084.002.157-.035.234-.053.038-.009.042.002.023.032-.074.07-.149.14-.25.18.128-.008.237-.088.388-.077-.096.112-.212.163-.331.214.14 0 .266-.069.421-.057-.121.102-.229.199-.392.2.125.045.249-.055.376.026-.094.049-.172.109-.267.137-.28.05-.553.122-.777.311-.029.023-.062.03-.097.03-.075 0-.15.003-.226.004-.146.002-.146.001-.202-.131-.017-.037-.023-.067.006-.103.03-.037.037-.085.033-.131-.005-.07.026-.113.09-.142.242-.113.484-.229.727-.345.086-.041.169-.087.221-.173m-.613.553c.005.003.011.007.016.011-.002.028-.029.057.013.102.008-.091.06-.152.067-.232-.091.088-.202.133-.31.186-.068.034-.093.09-.095.162-.001.008.004.018.016.014.032-.009.007-.048.033-.063.042.054.091.098.159.047.057-.043.057-.098.008-.149-.021-.021-.007-.029.009-.037.027-.015.057-.027.085-.041"/><path fill="#993c21" fill-rule="evenodd" d="m10.898 5.02c-.038-.186.013-.285.188-.388.104-.061.21-.119.296-.206.023-.023.039-.04.068-.007.102.114.184.24.229.387.018.057.023.097-.063.076-.072-.017-.138.017-.2.058-.125.082-.254.144-.411.114-.036-.007-.06-.049-.102-.031l-.003-.003"/><path fill="#993c21" fill-rule="evenodd" d="m13.571 3.21c.023.196-.078.325-.29.373-.154.036-.306.082-.456.13-.017.005-.032.018-.048.004-.018-.015 0-.032.005-.047.016-.043.034-.084.045-.129.007-.027.028-.049.065-.061.23-.076.465-.144.679-.269"/><path fill="#993c21" fill-rule="evenodd" d="m12.615 3.893c.154-.169.367-.169.553-.237.07-.025.143-.046.215-.064.039-.009.09-.029.105.035.014.056-.02.082-.07.098-.225.072-.45.138-.669.223-.083.033-.084-.047-.134-.055"/><path fill="#993c21" fill-rule="evenodd" d="m12.674 4.02c.259-.088.505-.171.75-.254.051-.017.095-.004.116.045.023.05-.021.077-.056.092-.13.06-.27.097-.406.137-.071.021-.142.042-.213.062-.033.009-.068.023-.09-.021-.018-.035-.06-.037-.102-.061"/><path fill="#f2f0f0" fill-rule="evenodd" d="m14.416 4.991c.262-.034.523-.069.786-.103.023-.003.046-.006.068-.002.048.008.051.047.054.086.003.048-.031.037-.059.04-.068.006-.137.014-.206.021-.012.001-.023.002-.034.003-.019.003-.036.007-.055.01-.176.006-.351.032-.525.051-.063.007-.127.016-.154-.064.033-.042.084-.028.125-.042"/><path fill="#f2f0f0" fill-rule="evenodd" d="m14.435 4.838c.017-.001.034-.002.052-.002.178-.019.352-.058.525-.103.049-.013.092-.01.134.009.042.018.102.038.095.088-.007.049-.068.021-.104.026-.24.037-.48.071-.72.107-.012.002-.023.003-.035.005-.013.003-.024.006-.037.009-.012-.043-.017-.085.002-.127.029-.004.059-.007.088-.011"/><path fill="#993c21" fill-rule="evenodd" d="m13.636 3.419c-.047.014-.052.004-.044-.045.014-.089.077-.113.145-.128.133-.03.254-.09.381-.132.006-.002.011-.007.016-.007.041-.002.093-.031.119.013.024.04-.016.074-.043.103-.09.094-.215.116-.33.153-.078.025-.159.052-.243.044"/><path fill="#963b20" fill-rule="evenodd" d="m14.277 3.238c0-.085.034-.124.126-.148.168-.044.33-.11.49-.182.046-.021.113-.068.141.004.023.06-.04.095-.097.12-.188.083-.388.134-.583.2-.023.008-.051.005-.076.007"/><path fill="#963b20" fill-rule="evenodd" d="m13.514 3.698c.134-.038.259-.079.387-.108.084-.019.166-.048.246-.078.041-.015.072-.024.09.019.017.043-.002.078-.048.096-.079.03-.157.066-.237.094-.104.036-.209.065-.313.098-.023.007-.048.017-.055-.018-.008-.04-.044-.059-.07-.103"/><path fill="#963b20" fill-rule="evenodd" d="m12.961 4.258c-.047-.003-.039-.064-.063-.094-.023-.032.028-.044.051-.049.165-.039.326-.09.486-.144.021-.007.043-.014.063-.027.035-.024.071-.055.102.009.026.057-.005.089-.05.109-.063.027-.129.048-.194.07-.113.039-.227.077-.341.114-.014.005-.028.007-.054.012"/><path fill="#963b20" fill-rule="evenodd" d="m15.02 3.138c.004.082-.081.083-.139.095-.198.044-.391.109-.586.164-.055.016-.057-.015-.073-.043-.027-.048.013-.042.038-.05.212-.068.424-.137.636-.204.023-.007.04-.023.06-.03.046-.016.074-.004.063.068"/><path fill="#963b20" fill-rule="evenodd" d="m13.593 3.628c-.06.017-.067-.042-.075-.069-.012-.045.027-.069.07-.078.143-.031.288-.049.424-.103.027-.011.054-.022.08-.033.041-.017.072-.012.091.034.017.043.006.075-.037.09-.181.063-.365.116-.553.16"/><path fill="#963b20" fill-rule="evenodd" d="m12.999 4.293c.19-.064.376-.125.56-.188.017-.005.034-.014.043-.027.031-.047.056-.022.078.005.028.035.028.074-.016.094-.082.038-.168.07-.252.104-.075.03-.15.057-.225.087-.104.042-.134.031-.188-.075"/><path fill="#963b20" fill-rule="evenodd" d="m14.247 3.452c.169-.048.337-.099.505-.142.056-.014.106-.047.167-.041.017.002.04-.023.051.007.008.022.004.044-.012.065-.032.042-.083.051-.127.066-.151.051-.306.094-.459.14-.06.018-.067.013-.125-.096"/><path fill="#963b20" fill-rule="evenodd" d="m13.13 4.44c.199-.082.384-.156.568-.233.041-.018.076-.013.094.027.017.039-.01.064-.046.079-.136.058-.271.118-.407.174-.043.018-.092.058-.131-.013-.01-.017-.044-.019-.078-.034"/><path fill="#963b20" fill-rule="evenodd" d="m14.277 3.656c.006.079-.049.114-.108.137-.149.058-.301.11-.45.167-.06.023-.085-.013-.107-.057-.01-.02-.005-.03.018-.038.205-.068.41-.138.615-.206.01-.004.023-.002.034-.003"/><path fill="#963b20" fill-rule="evenodd" d="m13.684 4.01c.188-.056.371-.118.547-.2.037-.017.057-.003.072.022.021.032.002.055-.025.07-.097.055-.197.102-.303.135-.039.012-.079.025-.111.043-.089.047-.143.025-.18-.07"/><path fill="#963b20" fill-rule="evenodd" d="m14.278 3.656c.023-.076.096-.063.148-.081.157-.052.315-.097.476-.146.027.116-.065.126-.128.148-.123.044-.251.072-.374.114-.055.019-.087-.006-.123-.036"/><path fill="#963b20" fill-rule="evenodd" d="m13.762 4.35c.028 0 .049-.004.058.013.011.019.003.037-.01.056-.028.043-.079.049-.119.063-.106.036-.206.083-.302.14-.056.033-.088 0-.106-.034-.021-.039.03-.047.054-.059.126-.057.252-.11.379-.164.019-.008.038-.013.047-.016"/><path fill="#963b20" fill-rule="evenodd" d="m14.839 3.698c-.134.038-.269.075-.402.113-.02.005-.038.015-.058.017-.031.002-.045-.026-.056-.047-.011-.02.018-.027.031-.032.161-.051.322-.102.484-.153.026-.008.028.012.024.03-.005.024-.038.039-.021.07l-.003.003"/><path fill="#963b20" fill-rule="evenodd" d="m13.792 4.151c.125-.049.247-.097.368-.146.042-.017.084-.034.125-.054.027-.014.046-.003.059.017.013.022-.005.038-.021.051-.041.032-.092.045-.141.063-.09.034-.181.071-.268.114-.058.028-.091.011-.122-.045"/><path fill="#913a20" fill-rule="evenodd" d="m14.326 4.109c-.01.032-.028.053-.058.072-.112.07-.239.106-.358.162-.039.019-.054-.012-.068-.033-.019-.028.014-.046.028-.052.14-.06.28-.116.421-.173.026-.011.038-.003.035.024"/><path fill="#913a20" fill-rule="evenodd" d="m13.816 4.5c-.123.112-.264.182-.434.185.135-.085.271-.165.434-.185"/><path fill="#913a20" fill-rule="evenodd" d="m14.169 4.413c-.151.091-.302.183-.453.275-.017.01-.029.006-.034-.011-.005-.022.01-.036.027-.048.094-.063.191-.118.293-.168.052-.026.104-.052.154-.078.004.01.009.019.013.029"/><path fill="#913a20" fill-rule="evenodd" d="m14.725 3.771c.006.032.003.049-.021.059-.091.036-.181.072-.27.108-.036.015-.075.013-.083-.029-.008-.038.031-.038.059-.045.104-.029.207-.06.315-.092"/><path fill="#913a20" fill-rule="evenodd" d="m14.268 4.255c-.115.092-.246.148-.372.214-.02.01-.029.013-.041-.008-.013-.026-.002-.057.015-.062.136-.04.26-.113.398-.144"/><path fill="#913a20" fill-rule="evenodd" d="m14.347 4.063c.079-.101.19-.112.288-.156-.003.084-.168.175-.288.156"/><path fill="#913a20" fill-rule="evenodd" d="m13.148 4.908c-.019-.01-.026-.038-.054-.035.024-.045.102-.038.105-.104.029.006.054-.002.076-.025s.052-.034.093-.018c-.037.052-.091.076-.138.106-.032.021-.077.027-.083.076"/><path fill="#913a20" fill-rule="evenodd" d="m14.243 4.351c.058-.104.167-.127.265-.166-.084.061-.16.137-.265.167"/><path fill="#913a20" fill-rule="evenodd" d="m14.346 4.192c.026-.071.108-.116.219-.109-.068.061-.141.09-.216.113l-.003-.004"/><path fill="#913a20" fill-rule="evenodd" d="m13.504 4.797c.017-.029.043-.05.053-.084.007-.026.041-.037.071-.017.042.028-.001.043-.012.06-.024.039-.06.06-.112.041"/><path fill="#913a20" fill-rule="evenodd" d="m14.243 4.352c-.002.018-.007.033-.028.03-.006-.001-.015-.012-.014-.016.008-.019.026-.014.042-.015"/><path fill="#913a20" fill-rule="evenodd" d="m14.349 4.196c-.006.004-.012.008-.018.012-.001 0-.005-.006-.007-.009.008-.002.014-.004.021-.007l.003.004"/><path fill="#963b20" fill-rule="evenodd" d="m14.278 3.239c-.007.004-.013.008-.019.012-.002-.002-.003-.004-.004-.006.008-.002.015-.004.021-.006"/><path fill="#393a3a" fill-rule="evenodd" d="m14.345 4.977c.013-.003.024-.006.037-.009-.01.012-.023.012-.037.009"/><path fill="#993c21" fill-rule="evenodd" d="m13.389 4.876h.007v.01h-.007z"/><path fill="#f0bb2d" fill-rule="evenodd" d="m12.347 8.462c-.05-.072-.112-.084-.196-.025-.047.033-.065.024-.101-.017-.13-.155-.315-.197-.502-.226-.079-.013-.153-.023-.222-.079-.073-.059-.176-.051-.264-.077-.027-.008-.063-.009-.082-.026-.109-.102-.223-.203-.321-.316-.048-.055.008-.115.051-.156.042-.041.106-.074.152-.023.033.035.053.028.087.021.099-.022.198-.054.283.036.03.032.037-.008.05-.021.073-.083.134-.085.21-.005.09.095.087.12.038.247-.018.046-.026.081-.07.111-.038.025.007.043.028.045.075.009.15.017.226.018.22.002.44 0 .659 0 .01.048-.041.049-.049.09.222.021.44.019.664-.052-.018.043-.033.081-.053.13.14-.008.268-.016.409-.023-.091.085-.192.06-.306.068.109.091.23.132.341.195-.11.013-.218.017-.326-.006-.019-.005-.046-.027-.06.001-.013.023.01.043.023.062.046.068.116.109.18.165-.101.019-.185-.013-.316-.112-.031-.023-.06-.082-.093-.063-.043.024.019.066.015.104-.002.02 0 .04 0 .074-.111-.118-.229-.21-.371-.265-.04-.015-.081-.027-.123-.04-.014-.004-.031-.01-.04.004-.013.021.007.029.021.04.021.016.041.032.06.049.027.024.025.05 0 .074m-1.304-.534c.005-.036.035-.028.059-.032.019-.002.04.012.057-.007-.056-.046-.206-.098-.308-.107.102.154.232.242.342.222-.051-.036-.109-.038-.149-.075m1.749.215c-.11.012-.221.023-.331.034.148.088.312.128.459.208-.082-.099-.212-.116-.333-.185.051-.005.083-.005.113-.011.031-.007.067-.003.092-.047m-1.563-.372c-.056-.061-.141-.065-.207-.111.054-.014.11.012.155-.033-.109.007-.213-.027-.322-.038.101.114.241.14.374.183m.723.292c.126.028.22.122.336.168.004-.007.008-.015.013-.021-.063-.04-.126-.081-.197-.127.065-.02.129-.007.171-.06-.106.014-.212.021-.322.04m-.218.121c-.07-.045-.145-.085-.217-.138.07-.025.142.012.223-.041-.132-.012-.239.005-.35-.01.108.077.207.165.344.188"/><path fill="#f5be29" fill-rule="evenodd" d="m10.863 6.856c.027-.089.051-.166.072-.244.027-.1.094-.03.141-.032.056-.002.044.04.036.074-.046.203-.093.405-.137.608-.008.037-.015.075-.063.054-.047-.021-.138.01-.125-.09.008-.069.023-.138.04-.204.018-.064-.007-.07-.06-.055-.115.033-.222.083-.321.148-.023.016-.042.04-.07 0-.125-.177-.308-.285-.485-.399-.019-.012-.036-.025-.067-.047.2-.022.393-.019.565-.092.132-.056.206-.028.277.086.046.075.116.135.198.192"/><path fill="#f0bb2d" fill-rule="evenodd" d="m13.987 7.92c-.387-.025-.774-.053-1.161-.076-.057-.003-.071-.027-.076-.08-.007-.061.033-.052.068-.061.076-.021.15.004.225.009.357.025.715.057 1.073.083.047.004.065.028.082.064.021.046.01.074-.046.071-.055-.003-.109-.008-.164-.012 0 .001-.001.002-.001.003"/><path fill="#f5be29" fill-rule="evenodd" d="m12.191 7.322c-.123-.004-.262.005-.389.072-.033.018-.045.008-.051-.026-.007-.041-.004-.081.006-.12.027-.104.059-.205.089-.308.017-.058.039-.069.086-.019.122.13.256.243.44.272.008.002.019.002.025.006.025.018.081-.029.08.029-.001.048-.036.088-.089.092-.06.006-.121.002-.198.002"/><path fill="#f0bb2d" fill-rule="evenodd" d="m14.257 7.773c-.173-.04-.364-.084-.556-.128-.184-.043-.365-.09-.549-.128-.06-.013-.065-.039-.056-.089.01-.053.036-.057.08-.046.373.091.746.182 1.12.269.045.01.059.031.053.071-.007.043-.033.059-.093.05"/><path fill="#f5be29" fill-rule="evenodd" d="m12.693 7.05c.021-.021.011-.083.073-.053.019.009.024-.019.032-.032.014-.022.023-.046.035-.069.076-.152.076-.152.238-.107.054.016.087.131.053.183-.024.036-.058.066-.066.11-.03.035-.036.077-.034.12.001.031-.026.053-.039.036-.053-.065-.146-.005-.196-.068-.008-.01-.034-.013-.049-.008-.034.012-.06.009-.081-.023-.019-.03.023-.04.024-.064.001-.009.006-.016.01-.023"/><path fill="#f0bb2d" fill-rule="evenodd" d="m11.219 7.04c.008-.059.016-.101.094-.078.135.038.273.064.41.099.023.005.068.003.043.05-.017.03-.004.088-.072.072-.143-.033-.287-.061-.431-.09-.033-.007-.055-.018-.044-.053"/><path fill="#eab832" fill-rule="evenodd" d="m11.799 7.636c.104.007.198.013.293.021.025.003.07-.008.063.035-.006.034-.01.087-.067.085-.146-.006-.294-.015-.441-.022-.068-.005-.023-.059-.034-.088-.017-.048.026-.03.047-.031.049-.002.099 0 .14 0"/><path fill="#eab832" fill-rule="evenodd" d="m11.09 7.221c-.056.01-.063-.012-.051-.059.028-.12.055-.241.078-.362.011-.057.045-.058.088-.05.054.009.031.047.026.074-.023.113-.053.224-.074.337-.009.046-.024.068-.067.06"/><path fill="#f0bb2d" fill-rule="evenodd" d="m12.647 7.234c.003.088-.041.169-.119.232-.062.051-.148.021-.161-.051-.005-.026-.011-.051.03-.058.07-.012.107-.063.121-.129.007-.033.027-.046.054-.06.056-.027.082-.015.075.064"/><path fill="#eab832" fill-rule="evenodd" d="m12.943 7.315c-.008.091-.037.165-.078.235-.02.033-.051.049-.082.059-.028.009-.059-.004-.078-.025-.024-.026.007-.041.019-.057.052-.064.086-.137.104-.217.01-.041.016-.087.068-.082.059.005.039.059.047.087"/><path fill="#eab832" fill-rule="evenodd" d="m12.594 7.558c-.021-.003-.049.001-.062-.021-.017-.029.016-.039.03-.053.067-.063.115-.137.116-.231.001-.056.041-.061.075-.061.041-.001.048.036.045.069-.009.104-.055.192-.125.268-.021.022-.05.026-.08.029"/><path fill="#eab832" fill-rule="evenodd" d="m12.355 7.616c-.017-.083-.065-.074-.104-.024-.063.077-.134.021-.2.022-.007.001-.018-.015-.021-.023-.006-.015.009-.019.02-.022.072-.021.137-.06.205-.092.042-.021.237.061.268.102.017.022.001.031-.01.043-.009.01-.026.026-.033.006-.031-.107-.079-.019-.124-.011"/><path fill="#eab832" fill-rule="evenodd" d="m13.04 7.535c-.063-.012-.087.076-.158.059.044-.093.091-.185.094-.289 0-.016.006-.028.023-.031.02-.002.031.006.044.021.046.053.013.109.01.164-.002.025-.04.046-.012.075v.001"/><path fill="#eab832" fill-rule="evenodd" d="m12.305 7.598c.021.077-.002.139-.013.201-.007.033-.037.061-.078.044-.035-.015-.067-.036-.044-.086.028-.064.067-.117.135-.159"/><path fill="#eab832" fill-rule="evenodd" d="m12.563 7.627c.046.082.042.189-.005.244-.017.019-.032.034-.058.022-.02-.008-.03-.024-.03-.047-.002-.061.04-.168.093-.22"/><path fill="#eab832" fill-rule="evenodd" d="m12.458 7.706c-.012.065.001.134-.076.158-.027.009-.058.013-.055-.026.004-.052.012-.104.026-.153.009-.03.039-.063.068-.058.042.008.026.057.036.079"/><path fill="#eab832" fill-rule="evenodd" d="m12.717 7.787c0 .022.006.047-.001.068-.012.037-.035.071-.081.059-.045-.014-.023-.05-.018-.08.008-.039.013-.079.021-.118.007-.026.027-.053.053-.049.023.004.021.036.023.06.001.019.002.04.003.061"/><path fill="#eab832" fill-rule="evenodd" d="m12.327 7.398c.005.027-.012.034-.035.035-.023.001-.04-.005-.042-.03-.002-.028.012-.042.041-.041.024 0 .036.012.036.036"/><path fill="#993c21" fill-rule="evenodd" d="m12.782 6.543c-.065-.027-.093-.07-.07-.142.011-.035.015-.071.065-.044.014.007.029.012.035-.008.006-.017-.006-.025-.02-.034-.021-.015-.043-.028-.06-.048-.053-.061-.039-.112.034-.144.013-.005.027-.011.038-.019.015-.013.055-.013.036-.045-.014-.023-.04-.006-.054.006-.06.053-.115.021-.165-.013-.066-.044-.063-.077.004-.12.017-.01.041-.011.047-.053-.132.009-.267.019-.373-.087.034-.031.08-.017.119-.026.045-.011.092-.006.127-.045.006-.007.021-.009.031-.01.158-.007.354.118.402.258.016.045-.028.077-.033.12-.016.143-.113.268-.099.418-.028 0-.036.039-.066.036"/><path fill="#f2f0f0" fill-rule="evenodd" d="m15.06 5.063c.071-.005.144-.009.215-.015.045-.004.086.002.094.052.01.055-.026.086-.074.102-.121.04-.247.056-.373.07-.129.015-.26.022-.389.04-.056.007-.109.043-.169.016-.11-.006-.104-.009-.069-.114.024-.07.062-.077.122-.082.215-.02.429-.045.644-.068"/><path fill="#f2f0f0" fill-rule="evenodd" d="m14.764 5.496c.101.012.201.024.301.038.053.007.1.028.142.061.034.029.032.063.013.101-.017.037-.033.065-.083.049-.035-.012-.073-.012-.11-.018-.19-.036-.377-.073-.566-.109-.065-.012-.127-.019-.152-.098-.01-.029-.041-.055-.075-.067.112-.026.221.018.331.021.043.002.087.007.13.01.013.003.024.005.037.008.012.002.023.003.034.005"/><path fill="#e9e8e8" fill-rule="evenodd" d="m14.364 5.391c.294.007.588.014.882.023.024.001.063-.019.072.023.009.043-.003.086-.035.12-.025.027-.048.014-.075-.003-.137-.083-.294-.068-.443-.088-.146-.018-.29-.035-.435-.053-.014-.002-.029.002-.034-.018.023-.002.046-.003.068-.005"/><path fill="#913a20" fill-rule="evenodd" d="m12.782 6.543c.03.003.038-.036.066-.036-.02.065-.021.129.005.193.014.032-.059.215-.088.231-.023.013-.037.001-.05-.017-.032-.043-.015-.086-.003-.131.014-.053.056-.021.087-.024-.002-.05-.059-.046-.069-.084-.012-.044-.045-.09.042-.087.052.001.011-.029.01-.044"/><path fill="#393a3a" fill-rule="evenodd" d="m14.971 5.05c.019-.003.036-.006.055-.01-.016.016-.035.013-.055.01"/><path fill="#393a3a" fill-rule="evenodd" d="m14.296 5.396c-.008-.002-.016-.005-.023-.007.002-.002.003-.004.005-.007.006.005.013.009.019.014"/><path fill="#393a3a" fill-rule="evenodd" d="m14.73 5.491c-.013-.003-.024-.005-.037-.008.014-.003.026-.003.037.008"/><path fill="#f2f0f0" fill-rule="evenodd" d="m14.231 5.452c.003-.005.005-.009.007-.014.015.013-.008.008-.007.014"/><path fill="#e9e8e8" fill-rule="evenodd" d="m14.548 5.353c.193-.031.39-.04.581-.079.057-.012.113-.021.168-.038.043-.014.08-.03.091.031.009.056-.01.097-.069.11-.017.003-.034.001-.052 0-.239-.003-.479-.002-.719-.025"/><path fill="#f0bb2d" fill-rule="evenodd" d="m10.618 6.148c-.062.082-.165.111-.179.218-.005.034-.03.013-.047.003-.07-.043-.106-.127-.087-.208.005-.022.013-.044.023-.064.028-.053.057-.13.11-.133.05-.003.063.081.079.13.018.05.052.053.1.055"/><path fill="#eab832" fill-rule="evenodd" d="m10.561 6.27c.087-.16.238-.126.379-.132-.051.115-.221.173-.379.132"/><path fill="#f7f6f5" fill-rule="evenodd" d="m11.635 5.836c-.008.003-.015.006-.023.009.008-.003.015-.006.023-.009"/><path fill="#37221b" fill-rule="evenodd" d="m13.2 4.769c-.004.066-.081.059-.105.104-.021-.009-.052.035-.063-.004-.01-.032.028-.025.046-.035.04-.023.067-.07.123-.065"/><path fill="#393a3a" fill-rule="evenodd" d="m10.972 5.635c-.028.014-.058.026-.085.041-.016.008-.029.016-.009.037.049.051.049.106-.008.149-.068.051-.117.007-.159-.047-.026.014-.001.054-.033.062-.012.004-.017-.006-.016-.014.002-.071.026-.128.095-.162.108-.053.22-.098.31-.186-.007.081-.06.142-.067.232-.042-.045-.015-.074-.013-.102 0-.006 0-.013 0-.02-.005.003-.011.006-.016.009m-.139.179c-.02-.019-.028-.06-.065-.064-.029-.003-.021.028-.019.045.003.038.028.053.063.053.02 0 .024-.012.021-.035"/><path fill="#473619" fill-rule="evenodd" d="m12.793 8.144c-.024.044-.06.04-.092.047-.03.006-.063.006-.113.011.121.068.251.086.333.185-.148-.08-.31-.12-.459-.208.11-.012.221-.023.331-.034"/><path fill="#473619" fill-rule="evenodd" d="m11.04 7.929c.04.037.099.039.149.075-.109.021-.24-.067-.342-.222.102.01.252.061.308.107-.017.019-.038.005-.058.007-.042-.024-.087-.04-.149-.047.035.035.056.064.092.079"/><path fill="#473619" fill-rule="evenodd" d="m11.23 7.772c-.133-.043-.273-.068-.374-.183.109.011.213.045.322.038-.045.045-.102.019-.155.033.066.046.151.051.207.111"/><path fill="#473619" fill-rule="evenodd" d="m11.952 8.06c.11-.019.216-.026.322-.04-.042.053-.106.04-.171.06.071.046.135.087.197.127-.005.007-.009.015-.013.021-.116-.046-.21-.14-.336-.168"/><path fill="#473619" fill-rule="evenodd" d="m11.734 8.185c-.137-.023-.235-.111-.344-.189.11.015.218-.002.35.01-.081.053-.152.016-.223.041.072.053.146.093.217.138"/><path fill="#eab832" fill-rule="evenodd" d="m11.04 7.929c-.036-.015-.057-.044-.092-.079.063.007.107.022.149.047-.023.004-.053-.004-.058.032"/><path fill="#e9e8e8" fill-rule="evenodd" d="m10.833 5.815c.004.022-.001.034-.021.035-.035 0-.06-.015-.063-.053-.002-.017-.011-.048.019-.045.037.003.046.044.065.064"/><path fill="#f7f6f5" fill-rule="evenodd" d="m10.972 5.635c.005-.003.011-.006.016-.009 0 .007 0 .014 0 .02-.005-.003-.011-.007-.016-.011"/></g></g></switch></svg>