<svg xmlns="http://www.w3.org/2000/svg" viewBox="0 0 16 12" enable-background="new 0 0 16 12"><switch><g><path fill="#fff" d="m0 3h16v6h-16z"/><g><path fill="#ed1c2e" d="m0 0h16v3h-16z"/><path fill="#ed1c2e" d="m0 9h16v3h-16z"/></g><g><g><path fill="#00539f" d="m7.357 6.571l-.224.205c.202.057.483-.009.595-.205h-.371"/><path fill="#00539f" d="m5.51 6.703c.151.149.402.132.554.037.151-.094.263-.1.357-.09.011.084.032.191.071.299h-.899c-.022-.055-.065-.183-.083-.246"/><path fill="#00539f" d="m5.661 7.104c.177-.082.356-.017.435.042.144.109.383.08.5.019.044.071.098.142.164.195h-.963c-.039-.063-.123-.215-.136-.256"/><path fill="#00539f" d="m9.898 7.755c.043-.042.1-.112.137-.161-.062-.008-.134-.053-.211-.09-.142-.069-.277-.069-.398.013-.179.121-.402.151-.577.029-.19-.134-.367-.104-.517-.019-.149.084-.243.089-.333.089s-.184-.005-.333-.089c-.149-.085-.326-.114-.517.019-.175.122-.398.092-.577-.029-.12-.082-.256-.082-.397-.013-.077.037-.149.082-.211.09.037.049.094.119.137.161h3.797"/><path fill="#00539f" d="m9.424 8.16c.04-.025.149-.107.204-.149-.06.013-.195-.031-.266-.067-.204-.104-.338-.094-.489-.015-.152.079-.366.122-.523.037-.157-.084-.269-.106-.351-.106s-.193.022-.351.106c-.156.085-.37.042-.523-.037-.151-.079-.285-.089-.489.015-.07.036-.206.08-.266.067.055.042.164.124.204.149h2.848"/><path fill="#00539f" d="m8.494 7.359c-.042-.022-.091-.074-.137-.142-.071-.106-.185-.166-.357-.166s-.286.06-.357.166c-.046.067-.095.119-.137.142h.988"/><path fill="#00539f" d="m8.229 6.959c-.018-.029-.055-.124-.066-.174-.04.013-.117.018-.162.018s-.122-.005-.162-.018c-.012.05-.049.144-.066.174h.457"/><path fill="#00539f" d="m8.643 6.571l.224.205c-.202.057-.483-.009-.595-.205h.371"/><path fill="#00539f" d="m10.49 6.703c-.151.149-.402.132-.554.037-.151-.094-.264-.1-.357-.09-.011.084-.032.191-.071.299h.899c.023-.055.065-.183.083-.246"/><path fill="#00539f" d="m10.339 7.104c-.177-.082-.356-.017-.435.042-.145.109-.383.08-.5.019-.044.071-.098.142-.164.195h.963c.039-.063.123-.215.136-.256"/><path fill="#00539f" d="m8.977 8.397c-.301.123-.631.19-.977.19s-.676-.067-.978-.19c.064-.008.15-.039.22-.077.111-.063.315-.075.412-.013.098.063.214.124.346.124s.248-.062.346-.124c.097-.063.301-.05.412.013.069.038.154.069.219.077"/></g><g><path fill="#5f4d3b" d="m8.507 3.462c-.544-.111-1.034-.047-1.034.465 0 .502 0 1.248 0 1.402 0 .153.004.173.186.216.397.093.436.102.868.201v-1.441c-.338-.037-.468-.227-.468-.447 0-.214.149-.353.447-.396"/><path fill="#5f4d3b" d="m7.16 7.392c-.304 0-.621-.263-.621-.765 0-.503 0-1.134 0-1.248 0-.113.012-.129-.014-.156-.016-.015.017-.038.039-.061.033-.033.057-.061.012-.106-.046-.046-.026-.058.002-.086.029-.028.04-.057.013-.085s-.034-.036-.004-.066.018-.042-.007-.067c-.025-.024-.037-.043-.006-.074.031-.031.033-.036.07-.036.035 0 .113 0 .148 0s.035.011.006.04c-.037.038-.049.053-.006.096.043.043.041.057.014.084-.041.041-.059.069-.018.111.042.042.046.06.014.092-.031.031-.034.06 0 .094.027.027.029.043.029.09 0 .285 0 1.061 0 1.273 0 .215.154.344.447.344s.393-.119.477-.199c-.055.383-.213.726-.596.726"/><path fill="#5f4d3b" d="m8 6.166c.041.013.081.072.081.137h.081c0-.055-.024-.139-.067-.191 0-.014-.002-.025-.005-.037.029-.037.073-.097.072-.154-.001-.035-.044-.034-.049-.006-.004.023-.02.06-.05.072 0-.046-.026-.101-.063-.101s-.064.055-.064.101c-.03-.013-.046-.049-.05-.072-.005-.028-.048-.029-.049.006-.001.058.043.117.072.154-.003.012-.005.023-.005.037-.043.053-.067.137-.067.191h.081c0-.064.04-.124.081-.137"/><path fill="#5f4d3b" d="m7.582 6.166c.041.013.081.072.081.137h.081c0-.055-.023-.139-.066-.191-.001-.014-.003-.025-.006-.037.029-.037.073-.097.072-.154-.001-.035-.044-.034-.049-.006-.004.023-.019.06-.05.072 0-.046-.026-.101-.064-.101s-.063.055-.063.101c-.03-.013-.046-.049-.051-.072-.004-.028-.047-.029-.048.006-.001.058.042.117.072.154-.003.012-.005.023-.006.037-.043.053-.066.137-.066.191h.081c0-.064.039-.124.08-.137"/><path fill="#5f4d3b" d="m7.165 6.166c.041.013.081.072.081.137h.08c0-.055-.023-.139-.066-.191 0-.014-.002-.025-.006-.037.03-.037.074-.097.072-.154 0-.035-.043-.034-.049-.006-.004.023-.019.06-.049.072 0-.046-.026-.101-.064-.101-.038 0-.064.055-.064.101-.03-.013-.046-.049-.05-.072-.005-.028-.048-.029-.049.006-.001.058.043.117.072.154-.003.012-.005.023-.005.037-.043.053-.067.137-.067.191h.081c0-.064.04-.124.081-.137"/><path fill="#5f4d3b" d="m8.418 6.166c-.041.013-.081.072-.081.137h-.081c0-.055.023-.139.066-.191.001-.014.003-.025.006-.037-.029-.037-.073-.097-.072-.154.001-.035.044-.034.049-.006.004.023.02.06.05.072 0-.046.026-.101.063-.101s.063.055.063.101c.03-.013.046-.049.051-.072.004-.028.047-.029.048.006.001.058-.042.117-.072.154.003.012.005.023.006.037.043.053.066.137.066.191h-.081c0-.064-.039-.124-.08-.137"/><path fill="#5f4d3b" d="m8.835 6.166c-.041.013-.081.072-.081.137h-.08c0-.055.023-.139.066-.191 0-.014.002-.025.006-.037-.03-.037-.074-.097-.072-.154 0-.035.043-.034.049-.006.004.023.02.06.049.072 0-.046.026-.101.063-.101.038 0 .063.055.063.101.03-.013.046-.049.05-.072.005-.028.048-.029.049.006.001.058-.043.117-.072.154.003.012.005.023.005.037.043.053.067.137.067.191h-.081c0-.064-.04-.124-.081-.137"/><path fill="#5f4d3b" d="m6.906 6.402h2.188v.1h-2.188z"/><path fill="#5f4d3b" d="m8.84 7.392c.304 0 .622-.263.622-.765 0-.503 0-1.134 0-1.248 0-.113-.013-.129.014-.156.015-.015-.018-.038-.04-.061-.033-.033-.057-.061-.012-.106.046-.046.026-.058-.002-.086s-.04-.057-.013-.085.034-.036.004-.066-.018-.042.008-.067c.024-.024.036-.043.005-.074-.031-.031-.034-.036-.07-.036-.035 0-.114 0-.148 0-.035 0-.035.011-.007.04.038.038.05.053.007.096-.043.043-.041.057-.014.084.041.041.059.069.018.111-.042.042-.046.06-.014.092.031.031.034.06 0 .094-.027.027-.029.043-.029.09 0 .285 0 1.061 0 1.273 0 .215-.154.344-.447.344s-.393-.119-.477-.199c.055.383.213.726.596.726"/></g><g><path fill="#fbaa29" d="m6.921 5.736s.001-.073.001-.164l.436.164h-.438"/><path fill="#fbaa29" d="m6.414 5.786l-.979-.132c.028-.209.082-.414.16-.608l.818.325v.415"/><path fill="#fbaa29" d="m8.438 4.2l.174-.714c.203.049.401.123.589.222l-.56 1.073.002-.539c-.065 0-.164-.009-.204-.042"/><path fill="#fbaa29" d="m6.414 5.904l-.996-.061c-.014.209 0 .42.038.627 0 0 .958.007.958 0v-.566"/><path fill="#fbaa29" d="m6.414 5.23c-.032-.042-.012-.064.022-.087.035-.022.03-.04.013-.072s-.035-.066-.003-.102.021-.05-.005-.075c-.024-.025-.027-.052-.005-.072s.018-.035.003-.055c-.016-.02-.045-.06-.019-.086l-.406-.339c-.135.161-.249.338-.342.528l.741.36"/><path fill="#fbaa29" d="m7.358 5.377l-.484-.47c.068-.068.075-.08.026-.128-.053-.053-.055-.058.053-.165.037-.037.017-.063-.035-.063-.053 0-.293 0-.32 0s-.049.002-.068.021l-.387-.374c.147-.152.313-.284.49-.394l.726 1.167v.406"/><path fill="#fbaa29" d="m6.921 5.476c0-.116 0-.232 0-.249 0-.034-.002-.048-.029-.075s-.014-.04.007-.07l.46.383v.225l-.438-.213"/><path fill="#fbaa29" d="m7.358 4.776c0-.224 0-.432 0-.551 0-.358.021-.537.072-.573l-.042-.172c-.203.055-.401.129-.589.228l.559 1.068"/><path fill="#fbaa29" d="m9.08 5.736s-.001-.073-.001-.164l-.437.164h.438"/><path fill="#fbaa29" d="m9.586 5.786l.979-.132c-.028-.209-.082-.414-.16-.608l-.818.325v.415"/><path fill="#fbaa29" d="m9.586 5.904l.996-.061c.014.209 0 .42-.038.627 0 0-.958.007-.958 0v-.566"/><path fill="#fbaa29" d="m9.586 5.23c.032-.042.013-.064-.023-.087s-.03-.04-.013-.072.035-.066.003-.102-.021-.05.005-.075c.024-.025.027-.052.005-.072s-.018-.035-.003-.055c.016-.02.045-.06.019-.086l.406-.339c.135.161.249.338.342.528l-.741.36"/><path fill="#fbaa29" d="m8.642 5.377l.484-.47c-.068-.068-.075-.08-.026-.128.053-.053.055-.058-.053-.165-.037-.037-.017-.063.035-.063.053 0 .293 0 .32 0s.049.002.068.021l.387-.374c-.148-.152-.313-.284-.49-.394l-.726 1.167v.406"/><path fill="#fbaa29" d="m9.08 5.476c0-.116 0-.232 0-.249 0-.034.002-.048.029-.075s.014-.04-.007-.07l-.46.383v.225l.438-.213"/></g><g><path fill="#ed1c2e" d="m6.598 5.227c.018.018.025.035.025.078 0 .041 0 .967 0 1.329 0 .442.269.689.544.689.254 0 .421-.231.507-.5-.111.088-.275.115-.432.115-.182 0-.475-.122-.475-.386 0-.243 0-1.146 0-1.29 0-.035-.035-.035-.17-.035"/><path fill="#ed1c2e" d="m8.213 3.482c-.348-.035-.669.037-.669.51 0 .497 0 1.104 0 1.256 0 .21-.017.186.161.229.323.08.359.09.751.179v-1.277c-.334-.037-.479-.255-.479-.498 0-.192.086-.374.236-.398"/><path fill="#ed1c2e" d="m9.402 5.227c-.018.018-.025.035-.025.078 0 .041 0 .967 0 1.329 0 .442-.269.689-.544.689-.254 0-.421-.231-.507-.5.111.088.275.115.432.115.182 0 .475-.122.475-.386 0-.243 0-1.146 0-1.29 0-.035.035-.035.17-.035"/></g></g></g></switch></svg>