<?xml version="1.0" encoding="utf-8"?>
<!-- Generator: Adobe Illustrator 18.0.0, SVG Export Plug-In . SVG Version: 6.00 Build 0)  -->
<!DOCTYPE svg PUBLIC "-//W3C//DTD SVG 1.1//EN" "http://www.w3.org/Graphics/SVG/1.1/DTD/svg11.dtd">
<svg version="1.1" id="Layer_1" xmlns="http://www.w3.org/2000/svg" xmlns:xlink="http://www.w3.org/1999/xlink" x="0px" y="0px"
	 viewBox="0 0 56 56" enable-background="new 0 0 56 56" xml:space="preserve">
<path opacity="0.4" fill="#FFFFFF" enable-background="new    " d="M46.8,37.4c-0.2,0-0.3,0-0.5,0H15.5c-0.1,0-0.3,0-0.4,0
	c-1.3,0-2.4-1.1-2.4-2.4s1.1-2.4,2.4-2.4c1.1,0,2.1,0.8,2.3,1.9l1.4-0.7c-0.5-0.7-0.7-1.5-0.7-2.4c0-2.4,2-4.4,4.4-4.4
	c1.2,0,2.4,0.5,3.2,1.4c0-0.2,0-0.5,0-0.7c0-4.5,3.6-8.1,8.1-8.1s8.1,3.6,8.1,8.1c0,1.5-0.4,2.9-1.1,4l1.8,0.8
	c0.3-2.1,2.1-3.7,4.3-3.7c2.4,0,4.3,1.9,4.3,4.3S49.2,37.4,46.8,37.4z"/>
<path fill="#FFFFFF" d="M20.6,10l-1.8-6.7l-1.6,0.4l1.8,6.7C19.5,10.2,20.1,10.1,20.6,10z"/>
<path fill="#FFFFFF" d="M15,12.7l-4.9-4.9L8.9,8.9l4.9,4.9C14.2,13.4,14.6,13,15,12.7z"/>
<path fill="#FFFFFF" d="M11.5,17.9l-6.7-1.8l-0.4,1.6l6.7,1.8C11.2,18.9,11.3,18.4,11.5,17.9z"/>
<path fill="#FFFFFF" d="M31.9,13.9l5-5l-1.2-1.2l-5,5C31.2,13.1,31.6,13.5,31.9,13.9z"/>
<path fill="#FFFFFF" d="M26.6,10.3l1.7-6.4l-1.6-0.4L25,10C25.6,10,26.1,10.2,26.6,10.3z"/>
<path fill="#FFFFFF" d="M11.1,24.1l-6.7,1.8l0.4,1.6l6.7-1.8C11.3,25.2,11.2,24.6,11.1,24.1z"/>
<path fill="#FFFFFF" d="M16.5,24.6c-0.9-2-0.8-4.3,0.3-6.3c1.9-3.3,6.2-4.5,9.5-2.6c0.4,0.2,0.8,0.5,1.1,0.8
	c0.8-0.4,1.6-0.8,2.5-1.1c-0.7-0.7-1.4-1.4-2.3-1.9c-4.5-2.6-10.4-1.1-13,3.5c-1.8,3.1-1.6,6.9,0.1,9.7C15.3,26,15.9,25.2,16.5,24.6
	z"/>
<path fill="#FFFFFF" d="M46.8,25.7c-0.7,0-1.3,0.1-2,0.3c-0.8-5.4-5.4-9.6-11-9.6c-4.9,0-9,3.1-10.6,7.5c-0.2,0-0.4,0-0.7,0
	c-3.5,0-6.4,2.4-7.2,5.7l-0.2,0c-3.1,0-5.5,2.5-5.5,5.5c0,3,2.4,5.5,5.5,5.5l0,0h31.5l0,0l0.2,0c4.1,0,7.5-3.3,7.5-7.5
	S50.9,25.7,46.8,25.7z M46.8,37.4c-0.2,0-0.3,0-0.5,0H15.5c-0.1,0-0.3,0-0.4,0c-1.3,0-2.4-1.1-2.4-2.4c0-1.3,1.1-2.4,2.4-2.4
	c1.1,0,2.1,0.8,2.3,1.9l1.4-0.7c-0.5-0.7-0.7-1.5-0.7-2.4c0-2.4,2-4.4,4.4-4.4c1.2,0,2.4,0.5,3.2,1.4c0-0.2,0-0.5,0-0.7
	c0-4.5,3.6-8.1,8.1-8.1s8.1,3.6,8.1,8.1c0,1.5-0.4,2.9-1.1,4l1.8,0.8c0.3-2.1,2.1-3.7,4.3-3.7c2.4,0,4.3,1.9,4.3,4.3
	S49.2,37.4,46.8,37.4z"/>
<path fill="#FFFFFF" d="M31.6,44.8l1.3,0.4l-2.1,8l-1.3-0.4L31.6,44.8z"/>
<path fill="#FFFFFF" d="M35.1,47.2l0.4,1.3l-8,2.1l-0.4-1.3L35.1,47.2z"/>
<path fill="#FFFFFF" d="M27.8,46.5l1-1l5.9,5.9l-1,1L27.8,46.5z"/>
</svg>
