<svg xmlns="http://www.w3.org/2000/svg" viewBox="0 0 16 12" enable-background="new 0 0 16 12"><path fill="#5c97b1" d="m0 0h16v12h-16z"/><path fill="#262d62" d="m0 0h8v6h-8z"/><path fill="#fff" d="m0 0h9v6h-9z"/><g fill="#dc2f34"><path d="m0 3h9v1h-9z"/><path d="m4 0h1v6h-1z"/><path d="m0 0h1v1h-1z"/><path d="m1 1h1v1h-1z"/><path d="m2 2h1v1h-1z"/><path d="m7 4h1v1h-1z"/><path d="m8 5h1v1h-1z"/></g><g fill="#262d62"><path d="m6 5h1v1h-1z"/><path d="m2 5h1v1h-1z"/><path d="m6 0h1v1h-1z"/><path d="m2 0h1v1h-1z"/></g><g fill="#dc2f34"><path d="m0 5h1v1h-1z"/><path d="m1 4h1v1h-1z"/><path d="m8 0h1v1h-1z"/><path d="m7 1h1v1h-1z"/><path d="m6 2h1v1h-1z"/></g><g fill="#ffce05"><path d="m10 4h1v1h-1z"/><path d="m12 3h1v1h-1z"/><path d="m14 1h1v1h-1z"/><path d="m10 9h1v1h-1z"/><path d="m12 7h1v1h-1z"/><path d="m14 6h1v1h-1z"/><path d="m8 7h1v1h-1z"/><path d="m8 9h1v1h-1z"/><path d="m5 10h1v1h-1z"/></g><g fill="#262d62"><path d="m0 2.02h1v.979h-1z"/><path d="m8 2h1v1h-1z"/></g></svg>