<svg xmlns="http://www.w3.org/2000/svg" viewBox="0 0 16 12" enable-background="new 0 0 16 12"><switch><g><path fill="#52b5e0" d="m0 0h16v12h-16z"/><path fill="#262d62" d="m0 0h9v6h-9z"/><g><path fill="#fff" d="m0 0h9v6h-9z"/><path fill="#dc2f34" d="m0 3h9v1h-9z"/><path fill="#dc2f34" d="m4 0h1v6h-1z"/><path fill="#dc2f34" d="m0 0h1v1h-1z"/><path fill="#dc2f34" d="m1 1h1v1h-1z"/><path fill="#dc2f34" d="m2 2h1v1h-1z"/><path fill="#dc2f34" d="m7 4h1v1h-1z"/><path fill="#dc2f34" d="m8 5h1v1h-1z"/><path fill="#262d62" d="m6 5h1v1h-1z"/><path fill="#262d62" d="m2 5h1v1h-1z"/><path fill="#262d62" d="m6 0h1v1h-1z"/><path fill="#262d62" d="m2 0h1v1h-1z"/><path fill="#dc2f34" d="m0 5h1v1h-1z"/><path fill="#dc2f34" d="m1 4h1v1h-1z"/><path fill="#dc2f34" d="m8 0h1v1h-1z"/><path fill="#dc2f34" d="m7 1h1v1h-1z"/><path fill="#dc2f34" d="m6 2h1v1h-1z"/></g><path fill="#fff" d="m11 9h3v1h-3z"/><path fill="#fff" d="m10 4h5v5h-5z"/><path fill="#dc2f34" d="m10 4h5v2h-5z"/><path fill="#dc2f34" d="m12 6h1v4h-1z"/><path fill="#dc2f34" d="m10 7h5v1h-5z"/><path fill="#fdc300" d="m13 8h1v1h-1z"/><path fill="#009647" d="m13 6h1v1h-1z"/><path fill="#009647" d="m10 6h1v1h-1z"/></g></switch></svg>