<svg xmlns="http://www.w3.org/2000/svg" viewBox="0 0 16 12" enable-background="new 0 0 16 12"><path fill="#e40520" d="m0 0h16v12h-16z"/><path fill="#fff" d="m5 0h6v12h-6z"/><g fill="#317622"><path d="m8.201 4.848c-.029.004-.069-.001-.11-.025-.027-.017-.02-.031.013-.034.033-.002.074-.001.11.017.059.028.033.036-.013.042"/><path d="m7.632 4.706c.049-.01.108.002.152.035.044.032.005.03-.012.035-.04.011-.099.001-.142-.03-.033-.024-.029-.034.002-.04"/><path d="m8.02 4.048c-.052 0-.06.057-.003.054.071-.002.035-.055.003-.054"/><path d="m8.105 4.07c-.022-.004-.067.008-.085.02-.018.013-.018.025.01.03.028.004.059-.004.08-.023.015-.014.012-.023-.005-.027"/><path d="m7.945 4.02c-.025.002-.05.019-.061.04-.01.019-.004.043.027.039.028-.002.049-.02.062-.046.009-.018-.012-.033-.028-.033"/><path d="m8 4.062c-.024-.007-.062.002-.081.018-.016.013-.018.027.012.036.027.008.054 0 .075-.019.016-.013.01-.029-.006-.035"/><path d="m8.02 4.04c-.017-.017-.055-.026-.079-.021-.021.004-.026.009-.003.03.02.02.048.023.075.017.02-.005.019-.014.007-.026"/><path d="m8.094 4.051c-.014-.02-.05-.036-.074-.035-.021 0-.028.004-.01.029.017.023.043.033.071.031.022-.002.022-.011.013-.025"/><path d="m7.768 4.071c.026-.041.078-.064.132-.067.055-.002.023.02.013.034-.024.035-.063.054-.115.057-.042.004-.042-.006-.03-.024"/><path d="m7.671 4.129c.006-.049.043-.093.09-.119.048-.026.03.008.026.026-.006.041-.033.075-.078.101-.036.021-.04.013-.038-.008"/><path d="m7.565 4.208c-.001-.051.035-.119.08-.146.051-.031.058-.027.047.018-.009.041-.048.1-.089.132-.033.024-.038.016-.038-.004"/><path d="m7.664 4.154c.04-.029.097-.03.148-.012.051.018.014.027-.001.037-.036.022-.079.025-.128.009-.04-.013-.036-.022-.019-.034"/><path d="m7.797 4.113c.038-.031.094-.037.147-.023.052.014.015.026.002.037-.034.026-.077.032-.127.02-.041-.012-.038-.021-.022-.034"/><path d="m7.719 4.117c.03-.04.125-.073.179-.071s.021.022.01.036c-.027.032-.109.063-.161.062-.041 0-.04-.01-.028-.027"/><path d="m7.576 4.244c.036-.034.092-.047.146-.036.053.011.017.029.003.041-.032.026-.075.036-.126.026-.04-.007-.038-.016-.023-.031"/><path d="m7.546 4.245c.021-.053.09-.114.149-.129.06-.015.04.024.031.042-.018.045-.084.092-.141.107-.045.013-.046.003-.039-.02"/><path d="m7.477 4.344c-.019-.046-.007-.117.023-.164.03-.045.051-.038.059.022.006.042-.001.088-.029.132-.021.036-.046.029-.053.01"/><path d="m7.543 4.403c.031.039.037.095.022.148-.014.053-.025.015-.035.001-.026-.033-.032-.077-.02-.128.011-.041.02-.037.033-.021"/><path d="m7.496 4.405c.004-.05.049-.118.095-.146.047-.027.039.01.037.029-.005.041-.049.096-.094.124-.035.022-.039.014-.038-.007"/><path d="m7.489 4.411c-.013-.048.011-.133.046-.175s.041-.003.044.014c.009.041-.02.115-.053.155-.026.033-.032.027-.037.006"/><path d="m7.452 4.309c.034.036.049.107.039.161-.01.054-.024.017-.036.004-.027-.032-.042-.09-.033-.141.007-.041.016-.039.03-.024"/><path d="m7.438 4.432c.04.029.069.095.069.149 0 .055-.021.022-.034.011-.033-.025-.059-.078-.06-.13-.001-.043.008-.042.025-.03"/><path d="m7.609 4.599c.041.029.066.074.066.128s-.034.025-.049.014c-.033-.025-.06-.058-.061-.11 0-.042.027-.045.044-.032"/><path d="m7.416 4.561c.048-.002.109.031.141.073.032.042-.003.029-.02.03-.04 0-.091-.026-.123-.065-.025-.032-.018-.037.002-.038"/><path d="m7.636 4.369c-.001.054-.035.105-.084.138-.048.034-.032-.005-.031-.025.003-.045.028-.085.073-.118.037-.026.042-.017.042.005"/><path d="m7.558 4.656c-.028-.042-.028-.114-.005-.165.022-.05.029-.012.039.003.021.037.024.097.003.145-.017.04-.026.035-.037.017"/><path d="m7.535 4.354c.023.044.018.1-.007.149-.024.049-.028.011-.036-.005-.017-.038-.015-.082.007-.129.018-.037.026-.033.036-.015"/><path d="m7.535 4.65c-.036-.033-.058-.102-.053-.156.006-.054.023-.02.036-.007.03.029.05.086.045.138-.003.041-.012.039-.028.025"/><path d="m7.495 4.663c.052-.01.125.014.168.053.043.039.004.036-.02.039-.044.003-.103-.016-.144-.052-.033-.029-.026-.036-.004-.04"/><path d="m7.708 4.683c.05.002.104.029.138.072.035.042-.002.031-.02.031-.042 0-.096-.024-.13-.064-.027-.033-.02-.041.012-.039"/><path d="m7.625 4.759c.043-.025.104-.03.155-.014.052.018.015.027 0 .037-.034.024-.093.032-.143.016-.04-.012-.039-.023-.012-.039"/><path d="m7.663 4.604c.037.032.062.088.062.143.001.054-.021.022-.035.011-.032-.026-.059-.079-.061-.132-.001-.042.01-.044.034-.022"/><path d="m7.707 4.811c.033-.038.088-.063.143-.063.054 0 .022.021.011.035-.026.032-.079.059-.131.06-.042.001-.044-.009-.023-.032"/><path d="m7.854 4.783c-.046.02-.106.019-.156-.004-.049-.024-.01-.029.005-.036.038-.02.097-.021.145 0 .038.017.036.027.006.04"/><path d="m8.09 4.03c.042-.012.089.004.125.035.038.03.004.026-.011.03-.035.008-.073-.003-.109-.031-.029-.023-.023-.029-.005-.034"/><path d="m8.251 4.04c.031.014.06.036.083.083.017.034.006.042-.027.024-.032-.018-.065-.037-.088-.076-.038-.064-.015-.053.032-.031"/><path d="m8.226 4.129c.03-.016.065-.025.116-.015.036.008.035.021.002.036-.033.015-.062.029-.107.023-.074-.009-.059-.02-.011-.044"/><path d="m8.08 4.116c.033-.029.082-.036.128-.025.047.011.016.022.002.032-.029.023-.066.03-.111.021-.035-.008-.032-.016-.019-.028"/><path d="m8.099 4.071c.043-.019.096-.009.141.019.045.027.008.028-.009.034-.038.014-.079.008-.122-.018-.035-.02-.029-.026-.01-.035"/><path d="m8.36 4.062c.03.015.058.038.08.086.015.034-.002.042-.034.023-.031-.018-.064-.038-.086-.078-.036-.066-.007-.055.04-.031"/><path d="m8.313 4.104c.034.004.068.017.104.056.025.028.012.04-.025.033-.036-.007-.072-.017-.106-.048-.055-.05-.024-.05.027-.041"/><path d="m8.424 4.217c.032.015.063.037.088.086.018.035.001.044-.033.027-.035-.018-.069-.038-.094-.079-.043-.066-.011-.056.039-.034"/><path d="m8.332 4.17c.032-.008.069-.009.117.013.034.016.025.033-.01.04-.037.007-.074.012-.117-.003-.07-.025-.041-.036.01-.05"/><path d="m8.49 4.134c.023.027.041.061.042.116 0 .039-.02.04-.042.009-.024-.031-.045-.064-.05-.113-.007-.078.016-.055.05-.012"/><path d="m8.463 4.179c.029.02.06.056.077.109.011.037-.007.043-.039.02-.03-.024-.065-.058-.083-.102-.029-.073-.001-.059.045-.027"/><path d="m8.508 4.341c.021.029.032.081.03.138-.003.038-.023.037-.044.005-.02-.033-.041-.077-.043-.125-.002-.078.025-.063.057-.018"/><path d="m8.58 4.228c.015.031.025.078.013.132-.009.038-.028.034-.044-.002-.014-.036-.028-.083-.021-.13.011-.078.028-.05.052 0"/><path d="m8.625 4.38c.002.035-.008.082-.041.127-.022.031-.039.02-.039-.019 0-.038.006-.087.031-.128.04-.067.046-.035.049.02"/><path d="m8.568 4.349c.016.035.025.089.01.149-.011.043-.033.037-.048-.002-.016-.041-.03-.095-.021-.148.014-.087.033-.056.059.001"/><path d="m8.633 4.51c-.007.034-.027.078-.069.114-.029.025-.043.011-.033-.027.009-.037.027-.083.059-.118.056-.056.053-.023.043.031"/><path d="m8.509 4.499c.012.032.017.081.001.133-.011.037-.031.032-.043-.006-.012-.036-.021-.084-.01-.13.017-.078.032-.049.052.003"/><path d="m8.573 4.51c.001.035-.008.083-.04.128-.023.031-.039.02-.039-.019 0-.039.006-.088.03-.128.04-.068.045-.035.049.019"/><path d="m8.609 4.601c-.015.025-.044.054-.088.069-.03.012-.037-.004-.019-.031.019-.026.045-.058.082-.075.06-.028.049-.003.025.037"/><path d="m8.523 4.748c-.028.008-.068.01-.112-.008-.03-.012-.024-.028.007-.035.032-.008.073-.013.112-.001.062.019.037.03-.007.044"/><path d="m8.53 4.708c-.029.024-.075.046-.135.046-.042 0-.042-.021-.009-.045.033-.025.08-.05.131-.055.084-.008.06.016.013.054"/><path d="m8.452 4.649c-.017.031-.05.066-.1.088-.036.015-.044-.003-.024-.036s.05-.071.093-.094c.069-.037.057-.007.031.042"/><path d="m8.485 4.679c-.021.028-.059.057-.112.071-.037.01-.042-.01-.018-.039.025-.03.061-.063.105-.079.074-.026.058.002.025.047"/><path d="m8.328 4.741c-.028.027-.074.051-.134.055-.041.002-.044-.018-.011-.046.033-.026.077-.055.128-.063.083-.013.06.014.017.054"/><path d="m8.417 4.798c-.036.013-.088.014-.144-.007-.039-.016-.031-.037.009-.046.04-.011.093-.017.143-.002.08.024.049.038-.008.055"/><path d="m8.36 4.829c-.036.011-.088.013-.144-.009-.038-.015-.031-.035.01-.046.04-.009.093-.017.143-.001.08.024.048.039-.009.056"/><path d="m8.277 4.798c-.035.021-.09.036-.155.027-.045-.007-.043-.031-.002-.051.041-.021.096-.041.152-.037.093.006.061.029.005.061"/></g><g fill="#e40520"><path d="m8.514 7.871c-.007-.002-.013-.004-.018-.007.053-.151.038-.23-.031-.199.015-.006.029-.01.043-.014.057-.008.054.092.006.22"/><path d="m8.534 7.877c.007.001.013.002.019.003.036-.081.067-.179.035-.217-.012-.008-.026-.012-.042-.014.044.015.029.122-.012.228"/></g><path fill="#fff" d="m8.534 7.877c-.008-.002-.014-.004-.02-.006.048-.128.051-.229-.005-.22.013-.002.025-.003.038-.002.043.015.028.122-.013.228"/><path fill="#e40520" d="m7.549 7.9c.005-.003.009-.005.012-.008-.076-.137.015-.209.049-.181-.012-.012-.024-.021-.035-.027-.047.008-.096.097-.026.216"/><path fill="#fff" d="m7.545 7.672c-.049.037-.095.115-.016.238.007-.002.015-.006.02-.01-.07-.119-.021-.208.026-.216-.01-.006-.02-.01-.03-.012"/><path fill="#e40520" d="m7.529 7.91c-.004.003-.007.004-.01.005-.088-.103-.055-.192-.006-.241.01-.003.02-.004.032-.002-.049.037-.095.115-.016.238"/><path fill="#ffed00" d="m8.04 7.38c.12-.205.454-.289.661-.289s.458-.153.454-.398c-.005-.318-.196-.54-.196-.721 0-.141.091-.352.306-.546-.182-.129-.256-.321-.329-.52-.395.166-.685.115-.896-.035-.21.151-.501.202-.897.035-.07.199-.145.391-.327.52.215.194.306.405.306.546 0 .181-.193.402-.197.721-.003.245.247.398.454.398.208 0 .54.084.661.289"/><path fill="#e40520" d="m8.885 5.999c.006.085.044.173.083.266.052.124.11.264.113.428 0 .092-.045.159-.083.199-.074.074-.189.123-.295.123-.125 0-.267.026-.39.072-.113.042-.204.1-.271.167-.066-.067-.158-.125-.271-.167-.123-.046-.265-.072-.39-.072-.105 0-.22-.048-.293-.123-.04-.04-.085-.106-.083-.199.002-.165.061-.305.113-.429.038-.092.075-.18.082-.265h1.685"/><path fill="#a9c6e9" d="m7.198 5.915c-.009-.073-.035-.151-.079-.232-.045-.086-.108-.173-.185-.252.134-.123.204-.282.258-.425.17.062.33.088.478.078.12-.009.232-.042.335-.098v.929h-.807"/><path fill="#fff" d="m8.887 5.915c.009-.073.035-.151.078-.232.046-.086.108-.173.185-.252-.133-.123-.204-.282-.256-.425-.17.062-.331.088-.479.078-.12-.009-.232-.042-.334-.098v.929h.806"/><path fill="#317622" d="m8.601 7.515c.1-.011.216-.049.276-.093.021-.017.038-.027.048-.057.011-.028.045-.027.052 0 .006.026.006.049.028.069.023.021.025.061-.026.047s-.078-.008-.12.019c-.042.026-.193.1-.342.077l.084-.062"/><path fill="#fff" d="m8.199 7.559c.063-.019.123-.039.159-.053.045-.017.165-.031.222-.011-.041.052-.27.084-.381.064"/><g fill="#317622"><path d="m8.811 7.842c-.211-.088-.591-.243-.719-.298-.002.028.001.059.011.072-.001.002-.001.004-.002.005.131.056.482.194.708.293.037.017.061-.046.002-.072"/><path d="m7.936 7.567c-.21.099-.677.314-.753.347-.064.028-.049.107.008.081.205-.093.625-.299.757-.363-.003-.005-.006-.01-.008-.016-.008-.017-.006-.032-.004-.049"/></g><path fill="#e40520" d="m7.997 7.647c-.066.155-.231.217-.315.102-.05-.068-.132-.107-.16-.086-.003.003-.006.007-.009.011.061-.018.108.052.141.085.097.1.252.112.358-.104-.005-.003-.01-.005-.015-.008"/><path fill="#317622" d="m6.461 5.534c.12-.215.259-.487.289-.55-.067.062-.106.1-.14.157.124-.232.181-.366.227-.483-.108.168-.197.326-.259.394.082-.225.234-.502.28-.556-.069.071-.127.148-.151.194.019-.052.042-.123.06-.152-.109.154-.205.327-.223.378.011-.116.022-.289.027-.364-.051.196-.087.362-.098.431 0-.096.006-.255.013-.311-.033.135-.084.423-.089.512 0-.083-.018-.212-.015-.284-.018.087-.018.202-.023.226-.002-.04-.022-.106-.015-.154-.031.183-.04.304-.047.349-.014-.107-.048-.241-.068-.298.024.218-.006.467.067.885-.077-.137-.21-.452-.228-.58.003.329.164.667.244.808-.133-.181-.283-.446-.336-.58.113.352.277.687.351.831-.148-.164-.292-.342-.375-.472.083.175.24.456.287.533-.053-.053-.127-.137-.184-.221.15.278.364.563.461.677-.21-.161-.43-.442-.547-.557.173.255.384.496.47.597-.143-.107-.24-.181-.32-.271.2.231.41.426.541.536-.238-.147-.417-.255-.517-.346.264.266.55.46.725.544-.218-.07-.345-.108-.495-.171.157.113.384.234.5.278-.076-.007-.173-.01-.253-.034.344.117.754.204 1.084.127l-.105-.056c-.288.056-.545.104-.719-.527-.009.051-.023.221-.017.255-.036-.167-.063-.429-.063-.543-.029.104-.063.282-.057.355-.029-.204-.026-.422-.023-.566-.037.151-.086.379-.09.5-.05-.232.037-.664.067-.862-.077.245-.127.429-.171.627-.03-.251.071-.684.11-.834-.08.197-.166.492-.18.583.011-.228.15-.718.208-.832-.104.147-.164.259-.208.369.034-.171.168-.473.217-.563-.123.154-.187.265-.22.345.014-.033.023-.08.037-.114-.03.037-.074.114-.094.168.077-.232.217-.503.291-.634-.07.074-.183.198-.226.256"/><path fill="#e40520" d="m7.689 7.726c.09.103.206.041.282-.076-.005-.001-.01-.004-.015-.008-.064.104-.17.151-.243.07-.055-.061-.112-.08-.155-.068.028-.007.071.012.131.082"/><path fill="#fff" d="m7.682 7.749c.084.115.25.053.315-.102-.008.003-.018.004-.026.002-.076.118-.192.179-.282.077-.064-.075-.11-.092-.139-.08-.01.004-.019.01-.028.017.028-.021.11.018.16.086"/><g fill="#e40520"><path d="m8.327 7.703c.071-.059.16-.108.222-.078-.064-.045-.139-.015-.235.06-.094.074-.169.073-.236-.038-.005.003-.01.005-.016.007.068.136.165.133.265.049"/><path d="m8.573 7.645c-.067-.038-.173.023-.233.076-.107.094-.226.103-.295-.063-.005.001-.011.001-.017 0 .067.198.212.188.325.081.05-.048.166-.122.235-.076-.005-.007-.01-.013-.015-.018"/></g><path fill="#fff" d="m8.327 7.703c-.1.084-.197.087-.265-.049-.005.002-.011.003-.017.004.069.166.188.157.295.063.06-.053.166-.114.233-.076-.008-.008-.015-.015-.024-.02-.062-.03-.151.02-.222.078"/><g fill="#e40520"><path d="m8.612 7.528c0-.002 0-.003 0-.004 0-.001 0-.001 0-.002-.002-.006-.005-.012-.01-.016-.002 0-.003 0-.003 0-.001-.001-.002-.002-.002-.003-.002-.001-.003-.001-.003-.002-.002-.001-.004-.001-.005-.002-.001-.001-.002-.001-.003-.002-.001 0-.002 0-.003 0 0-.001-.001-.001-.003-.002-.041.052-.27.084-.381.064-.035.01-.072.021-.105.03 0 .006.002.014.004.019.05-.006.233.004.29 0 .06-.005.225-.01.225-.076-.001-.003-.001-.004-.001-.004"/><path d="m8.091 7.567c0 .007 0 .014.002.021 0-.001.002-.001.004-.002.094-.024.204-.06.261-.081.045-.016.165-.03.222-.01.009.004.013.006.014.007s.002.002.002.002c.001.001.002.002.002.002.001 0 .001.001.002.001.005.004.008.01.01.016 0 .002 0 .006 0 .009 0-.021-.007-.039-.011-.056-.128-.076-.366.031-.508.091"/><path d="m8.6 7.414c0-.016.002-.032.005-.042.004-.02-.016-.041-.042-.048-.107-.026-.217.026-.277.074-.05.041-.119.076-.183.097-.004.007-.009.022-.01.039.14-.035.37-.214.507-.12"/></g><path fill="#fff" d="m8.093 7.534c-.002.011-.002.022-.002.033.142-.06.38-.167.51-.091-.003-.01-.005-.02-.004-.028.001-.01.001-.022.003-.034-.137-.094-.367.085-.507.12"/><path fill="#e40520" d="m7.9 7.541c-.122.081-.466.041-.401-.022-.015.01-.024.025-.024.042-.004.1.338.069.46.027 0-.009.001-.019.003-.028-.012-.006-.025-.014-.038-.019"/><path fill="#fff" d="m7.499 7.519c-.065.063.279.103.401.022-.142-.066-.335-.074-.401-.022"/><path fill="#e40520" d="m7.625 7.369c.098.001.207.04.314.123.002-.008.006-.014.012-.018-.177-.181-.342-.189-.468-.143-.052.02-.06.042-.026.081.049-.029.105-.043.168-.043"/><path fill="#fff" d="m7.94 7.527c0-.006 0-.013-.001-.019-.001-.007 0-.012 0-.017-.174-.135-.355-.154-.481-.08.014.015.014.036.015.069.121-.072.241-.061.467.047"/><g fill="#e40520"><path d="m7.721 7.49c.002 0 .006.001.011.002.07.01.145.033.205.067.002-.009.003-.02.003-.032-.226-.108-.346-.119-.467-.046.002.027.002.056.002.079.002-.064.118-.086.246-.07"/><path d="m8.07 7.648c.013-.007.023-.018.028-.032-.018-.026-.013-.11.002-.124-.008-.013-.019-.018-.03-.018-.016.024-.027.13 0 .174"/></g><path fill="#fff" d="m8.03 7.659c.015.001.03-.003.043-.011-.027-.044-.016-.15 0-.174-.01-.001-.021.003-.029.007-.005.003-.01.007-.015.008-.021.032-.029.118.001.17"/><path fill="#e40520" d="m8.03 7.659c-.012-.001-.023-.005-.034-.012-.021.008-.043.005-.058-.031-.009-.02-.005-.036-.002-.056.001-.014.004-.03.001-.051-.006-.039.031-.048.06-.026.011.009.022.009.032.006-.021.032-.029.118.001.17"/><g fill="#317622"><path d="m9.468 7.427c-.147.055-.25.009-.403-.04-.018.005-.034.01-.048.016.084.001.122.038.199.075.192.095.289-.005.362-.007-.032-.002-.066-.023-.11-.044"/><path d="m9.351 7.305c.115-.049.136-.092.187-.17.048-.076-.007-.05-.038-.038-.032.011-.072.008-.134.015-.103.009-.238.131-.381.287.001.005.004.014.006.017.07-.042.251-.065.36-.111"/><path d="m9.355 7.113c.021-.034.032-.076.029-.125-.064.027-.106.058-.135.093-.004.029-.01.061-.02.091.045-.031.087-.052.126-.059"/><path d="m9.229 7.172c.025-.074.028-.15.022-.193-.011.035-.166.142-.229.38.073-.077.143-.142.207-.187"/><path d="m9.481 7.215c-.019.024-.043.045-.08.065.037 0 .076.004.115.01.029-.029.044-.066.075-.093-.028.016-.068.016-.11.018"/><path d="m9.401 7.28c-.014.008-.031.016-.05.025-.08.033-.2.056-.286.082.208.066.322.128.587-.063-.089-.029-.173-.043-.251-.044"/><path d="m9.693 6.689s0 .001 0 0c.003-.008.003-.017.002-.026-.025-.065-.089-.086-.175-.164-.028-.026-.043-.053-.054-.082-.038-.024-.075-.042-.104-.053.014.051.046.125.1.188.054.062.155.031.231.137"/><path d="m9.909 6.201c-.036.028-.073.073-.101.122.003.041.001.08-.003.114.002 0 .003 0 .005-.001.023-.035.052-.063.082-.088.011-.051-.007-.106.017-.147"/><path d="m9.662 6.303c-.023-.05-.062-.093-.072-.127-.015.042-.025.084-.021.128.033.034.062.073.084.115-.002-.036 0-.075.009-.116"/><path d="m9.804 6.445c-.006.041-.017.076-.033.104-.03.054-.044.091-.05.121-.003.013-.005.025-.006.037s-.004.033-.01.058c0 .002 0 .004 0 .006.069-.108.157-.118.216-.212.109-.175.082-.257.115-.311-.07.049-.173.102-.232.197"/><path d="m9.688 6.585c-.014-.049-.031-.104-.035-.166-.055-.104-.149-.192-.257-.23.069.115.031.225.124.31.089.08.154.101.177.171.001-.031-.001-.06-.009-.085"/><path d="m9.992 6.414c-.014.04-.035.087-.071.145-.059.094-.147.104-.216.212 0-.002 0-.004 0-.006 0 .007-.002.015-.005.023.036-.053.089-.076.138-.098.052-.022.194-.099.21-.327-.015.013-.033.031-.056.051"/><path d="m9.693 6.689c-.024-.034-.051-.054-.079-.067.008.042.03.074.077.103.002-.013.004-.025.002-.036"/><path d="m9.726 6.149c-.111.185-.07.325-.037.436.033.11-.033.295-.067.342-.026.038-.035.08-.085.157.019-.005.03 0 .01.036.059-.052.075-.15.105-.189.022-.03.043-.109.054-.167.006-.025.009-.047.01-.058.003-.037.014-.081.057-.158.044-.078.05-.225.014-.379-.01-.031-.043-.053-.061-.02"/><path d="m10.01 5.386c-.067.115-.203.173-.232.337-.023.139-.014.203-.001.241.014-.053.06-.069.097-.089.12-.065.183-.269.136-.489"/><path d="m9.656 5.843c-.044-.036-.101-.093-.152-.199-.038-.01-.075-.019-.105-.044.085.214.168.253.241.277.032.011.059.02.079.029-.013-.018-.032-.038-.063-.063"/><path d="m9.647 5.598c-.048-.023-.171-.085-.203-.114.061.214.149.308.212.359.062.052.082.083.088.112.019-.129.042-.294-.097-.357"/><path d="m9.777 5.964c-.013-.038-.022-.102.001-.241.007-.04.02-.074.037-.103-.004-.082-.031-.186-.097-.271-.041.095-.056.186-.053.257.119.07.098.225.079.349 0 .046 0 .132-.001.179.009-.002.017 0 .023.006.012-.094.014-.145.012-.18 0 .001-.001.003-.001.004"/><path d="m9.382 4.751c-.002-.033-.004-.069-.005-.105-.031-.031-.069-.06-.114-.087.026.044.026.081.032.121.026.014.057.039.087.071"/><path d="m9.182 4.732c-.025-.017-.052-.03-.082-.046.016.055.035.1.058.134.019.004.038.006.06.01-.017-.032-.027-.063-.036-.098"/><path d="m9.55 5.077c.002.012.005.024.01.038.006.014.011.025.013.035.036-.226.003-.386-.06-.454-.062-.066-.122-.113-.137-.14 0 .058.001.132.006.195.068.072.138.183.168.326"/><path d="m9.277 4.922c-.028-.033-.047-.064-.06-.093-.047-.007-.087-.011-.122-.031.062.071.08.194.19.254.124.069.202.062.251.084-.048-.061-.163-.099-.259-.214"/><path d="m9.55 5.077c-.045-.215-.179-.358-.264-.403-.084-.044-.142-.078-.162-.104.073.163.055.234.153.353.108.127.237.159.273.236.036.083.094.225.129.312.003-.014.007-.029.011-.044-.066-.161-.127-.277-.14-.35"/><path d="m9.601 6.964c.004-.01.009-.018.012-.022-.012-.012-.032-.037-.036-.041-.003-.005.003-.01.007-.015.005-.005-.007-.021-.016-.011-.006.006-.012.021-.018.029s.005.023.02.032c.013.009.022.019.031.028"/><path d="m9.667 6.901c.016-.011.041-.026.055-.035.013-.01.031.016.009.025-.021.01-.071.035-.082.045.008-.015.013-.022.018-.035"/></g><g fill="#e40520"><path d="m9.74 6.854c-.025-.004-.049.043-.009.051.027.004.04-.044.009-.051"/><path d="m9.59 6.845c-.031 0-.039.047-.014.047.027 0 .041-.047.014-.047"/><path d="m9.562 6.888c-.025 0-.03.043.004.043.033 0 .03-.043-.004-.043"/></g><g fill="#317622"><path d="m9.775 6.06c.016-.018.031-.038.04-.05.01-.013.033-.002.016.018s-.051.061-.06.072c.001-.019.004-.032.004-.04"/><path d="m9.744 6.04c0 .011 0 .026 0 .035-.021-.011-.04-.023-.053-.05-.008-.019.007-.028.022-.009.014.019.022.023.031.024"/></g><g fill="#e40520"><path d="m9.691 5.991c.047 0 .029.05.003.05s-.035-.05-.003-.05"/><path d="m9.839 5.983c.031-.001.034.047-.009.047-.039 0-.023-.047.009-.047"/></g><g fill="#317622"><path d="m9.626 5.278c.005.011.013.028.019.042.004-.026.021-.074.028-.088.007-.015.011-.013.023.001s.026.008.014-.007c-.012-.014-.022-.019-.028-.026-.008-.007-.016.008-.021.017-.005.01-.029.052-.035.061"/><path d="m9.625 5.341c.005.01.012.026.014.035-.027-.024-.063-.031-.082-.035-.02-.003-.023-.023.002-.02.026.002.045.011.066.02"/></g><g fill="#e40520"><path d="m9.546 5.297c.031 0 .031.056-.003.056s-.032-.056.003-.056"/><path d="m9.675 5.181c.026.001.037.047 0 .047-.027 0-.03-.048 0-.047"/><path d="m9.71 5.209c.025 0 .036.047-.001.047-.026.001-.03-.047.001-.047"/></g><g fill="#ffed00"><path d="m7.858 6.141c.062-.065.174.081.201.177.026.098.05.165.074.188-.039.015-.088-.055-.124-.157-.037-.102-.109-.178-.151-.208"/><path d="m7.994 6.194c.058-.035.113.04.153.169.02.064.046.149.06.161-.037.028-.083.03-.113-.074-.03-.104-.057-.181-.1-.256"/><path d="m8.094 6.238c.053-.034.105.089.117.153.011.063.037.143.06.163-.025.024-.069.03-.092-.059-.023-.089-.049-.18-.085-.257"/><path d="m8.164 6.271c.03-.021.082.038.1.157.009.054.018.131.047.15-.032.029-.08-.023-.098-.125-.019-.102-.032-.149-.049-.182"/><path d="m8.238 6.327c.04-.034.073.016.083.071.009.057.026.169.065.208-.067.028-.108-.041-.119-.107-.011-.068-.012-.132-.029-.172"/><path d="m8.311 6.365c.042.002.057.054.063.105.005.051.021.13.061.148-.034.02-.085-.008-.104-.108-.018-.099-.013-.127-.02-.145"/><path d="m8.364 6.419c.031-.015.069.041.071.097.002.056.026.108.05.121-.03.014-.1-.013-.106-.118-.001-.02-.009-.081-.015-.1"/><path d="m8.425 6.468c.024-.013.065.02.073.081.008.06.025.094.039.096-.04.017-.101.004-.104-.087-.001-.043-.003-.069-.008-.09"/><path d="m8.492 6.519c.02-.017.048.016.057.054.008.039.024.075.042.074-.036.029-.066.024-.078-.013-.012-.039-.016-.093-.021-.115"/><path d="m8.545 6.556c.009-.012.043-.02.061.023.018.043.038.054.05.053-.036.03-.074.027-.091.002-.017-.025-.021-.056-.02-.078"/><path d="m8.589 6.556c.014-.017.048-.019.064.009.016.027.028.031.04.031-.004.036-.03.055-.066.026-.035-.028-.035-.051-.038-.066"/><path d="m8.627 6.544c.006-.018.029-.021.045-.006.015.015.03.035.051.03.004.035-.032.047-.05.026-.019-.021-.024-.035-.046-.05"/><path d="m8.649 6.528c.005-.02.037-.022.047-.005.01.018.026.026.04.02.011.034-.02.047-.038.03s-.029-.039-.049-.045"/><path d="m8.669 6.511c.008-.02.034-.031.053-.018.014.011.025.014.042.005.018.027-.011.056-.039.047-.027-.006-.044-.035-.056-.034"/><path d="m8.692 6.489c-.004-.016.005-.032.021-.028.018.006.039 0 .046-.008.014.014.014.05-.003.055-.018.006-.048-.022-.064-.019"/><path d="m8.698 6.464c-.009-.008-.008-.03.006-.029.012 0 .038-.012.042-.029.02.004.027.04.014.051-.023.019-.055.003-.062.007"/><path d="m8.696 6.437c-.018-.012-.013-.027 0-.031.013-.004.04-.014.036-.033.018.006.021.028.015.04-.009.017-.031.029-.051.024"/><path d="m8.688 6.41c-.02-.006-.022-.032-.003-.034.02-.002.025-.016.023-.033.028.004.034.033.024.049-.01.018-.029.023-.044.018"/><path d="m8.67 6.389c-.018-.003-.024-.025-.008-.03.017-.006.02-.019.016-.033.024 0 .035.024.029.04-.006.016-.022.025-.037.023"/><path d="m8.663 6.381c-.017.005-.032-.012-.019-.024s.009-.024 0-.035c.029-.015.042.004.044.021.001.017-.011.033-.025.038"/><path d="m8.646 6.377c-.012.004-.027-.005-.021-.02.005-.014.009-.025 0-.032.007-.011.023-.01.033.002.011.016.003.046-.012.05"/><path d="m8.643 6.378c-.005.012-.024.012-.032-.005-.008-.019 0-.029-.01-.035.01-.018.022-.014.033-.004.01.009.013.036.009.044"/><path d="m8.579 6.363c-.002-.023.016-.035.032-.022.017.012.022.037.017.05-.006.015-.026.007-.03-.009-.004-.016-.013-.021-.019-.019"/><path d="m8.57 6.401c-.013-.007-.015-.029-.001-.037.018-.011.049.011.052.03.003.018-.008.029-.021.019-.013-.01-.02-.02-.03-.012"/><path d="m8.571 6.425c-.014-.004-.022-.023-.012-.033.014-.015.047-.003.055.013.007.016 0 .029-.014.023-.014-.006-.022-.013-.029-.003"/><path d="m8.576 6.45c-.014 0-.022-.016-.016-.027.011-.015.042-.01.051.004.01.013.005.026-.008.023-.014-.004-.023-.009-.027 0"/><path d="m8.578 6.472c-.012 0-.021-.016-.013-.026.009-.014.039-.008.048.004.008.013.003.024-.009.021-.012-.003-.021-.008-.026.001"/><path d="m8.588 6.46c-.024 0-.023.034.007.034.031 0 .024-.034-.007-.034"/><path d="m7.722 6.169c.003-.077.104-.069.177-.001.135.124.105.242.193.329-.004.025-.038.039-.06.01-.022-.029-.16-.304-.31-.338"/><path d="m7.579 6.202c.021-.108.165-.061.338.073.118.092.162.3.092.283-.059-.183-.301-.321-.43-.356"/><path d="m7.461 6.282c-.003-.104.199-.109.357-.015.154.091.246.268.177.318-.098-.033-.507-.243-.534-.303"/><path d="m7.364 6.402c.004-.193.282-.179.422-.098.175.1.276.313.159.323-.108-.03-.552-.216-.581-.225"/><path d="m7.604 6.313c-.216 0-.29.067-.29.194 0 .127.106.212.287.232.183.021.35-.024.35-.136 0-.138-.167-.29-.347-.29"/></g><path fill="#d3c000" d="m7.565 6.36c.352 0 .475.394.074.355-.325-.031-.378-.355-.074-.355"/><g fill="#ffed00"><path d="m7.523 6.505c-.119.005-.182.087-.071.168.112.08.318.051.372.026.053-.024.04-.058 0-.116-.04-.058-.242-.081-.301-.078"/><path d="m7.585 6.44c-.04 0-.064.096.009.096.074 0 .073-.096-.009-.096"/><path d="m7.702 6.541c-.061.018-.047.122.025.113s.042-.133-.025-.113"/><path d="m7.69 6.456c-.075 0-.066.098.011.098s.054-.098-.011-.098"/><path d="m7.791 6.476c-.069 0-.086.073-.009.073.078 0 .058-.073.009-.073"/><path d="m7.655 6.406c-.061 0-.09.071-.007.071s.059-.071.007-.071"/><path d="m7.564 6.391c-.051 0-.062.058-.011.058s.062-.058.011-.058"/><path d="m7.526 6.436c-.069 0-.062.103.007.103.069 0 .06-.103-.007-.103"/><path d="m7.451 6.572c.064.031.113-.049.04-.083-.062-.028-.105.052-.04.083"/><path d="m7.544 6.465c-.069 0-.062.103.006.103s.06-.103-.006-.103"/><path d="m7.446 6.471c-.045 0-.058.05 0 .05s.042-.05 0-.05"/><path d="m8.196 6.822c-.08 0-.116.094-.044.094.07 0 .104-.094.044-.094"/><path d="m8.233 6.845c-.058 0-.055.062-.002.062.054 0 .031-.062.002-.062"/><path d="m8.105 6.749c-.042 0-.074.079.004.079.078-.001.058-.079-.004-.079"/><path d="m8.177 6.773c-.054 0-.067.069 0 .069.066 0 .037-.069 0-.069"/><path d="m7.958 6.777c-.069-.002-.076.09 0 .094.076.005.076-.091 0-.094"/><path d="m8.01 6.749c-.044 0-.062.067.006.067.07 0 .052-.067-.006-.067"/><path d="m8.03 6.831c-.036 0-.056.103.004.103s.042-.103-.004-.103"/><path d="m8.106 6.811c-.042 0-.066.09-.01.09.073 0 .095-.09.01-.09"/><path d="m8.02 6.793c-.052.011-.058.088.017.077.076-.012.059-.093-.017-.077"/><path d="m8.08 6.708c-.059-.009-.084.074-.018.092s.092-.081.018-.092"/><path d="m8.03 6.684c-.05-.015-.076.051-.018.073.058.023.072-.058.018-.073"/><path d="m7.787 6.76c-.064-.013-.099.078-.016.1s.084-.087.016-.1"/><path d="m7.775 6.847c-.051-.023-.076.047-.017.069.057.022.057-.051.017-.069"/><path d="m7.924 6.802c-.073-.034-.12.091-.046.11.073.018.116-.079.046-.11"/><path d="m7.904 6.715c-.052-.011-.073.08.007.098.08.018.073-.083-.007-.098"/></g><path fill="#fff" d="m7.955 6.707c-.049-.003-.058.077.003.082s.082-.079-.003-.082"/><g fill="#ffed00"><path d="m7.955 6.854c-.048-.018-.062.053-.015.067.046.013.071-.047.015-.067"/><path d="m7.873 6.769c-.058-.007-.08.081-.011.082.069.003.098-.074.011-.082"/><path d="m7.844 6.727c-.07-.014-.082.073-.025.082.058.008.082-.072.025-.082"/><path d="m7.688 6.773c-.041-.011-.089.083-.024.101.064.017.111-.077.024-.101"/><path d="m7.717 6.825c-.033-.007-.07.04-.01.062s.084-.047.01-.062"/><path d="m7.722 6.707c-.064-.005-.064.087 0 .096.065.008.065-.093 0-.096"/><path d="m7.782 6.702c-.049.001-.058.069.002.075s.062-.078-.002-.075"/></g><path fill="#fff" d="m7.829 6.831c-.058-.01-.051.074-.002.081.048.006.07-.07.002-.081"/><g fill="#ffed00"><path d="m7.644 6.73c-.063-.008-.096.081-.016.097.08.015.082-.088.016-.097"/><path d="m7.613 6.693c-.05-.01-.092.069-.025.087.067.017.071-.078.025-.087"/><path d="m7.648 6.605c-.071 0-.1.099-.009.11s.091-.11.009-.11"/><path d="m7.537 6.762c-.04.012-.051.092.025.072.075-.021.046-.092-.025-.072"/><path d="m7.533 6.675c-.052-.017-.114.067-.03.096.085.029.096-.074.03-.096"/><path d="m7.577 6.625c-.043-.018-.071.079-.027.094.044.016.065-.077.027-.094"/><path d="m7.655 6.657c-.047.027-.042.09.031.067s.027-.101-.031-.067"/><path d="m7.824 6.552c-.063-.02-.1.069-.025.091.076.023.09-.071.025-.091"/><path d="m7.771 6.652c-.052.002-.064.075.008.076.074.002.054-.078-.008-.076"/></g><path fill="#fff" d="m7.851 6.734c.083.001.077-.083-.006-.09-.054-.003-.074.089.006.09"/><path fill="#ffed00" d="m7.506 6.75c-.075-.002-.075.069 0 .074.076.005.087-.071 0-.074"/><path fill="#fff" d="m7.714 6.733c-.076-.002-.076.069 0 .073.075.005.086-.07 0-.073"/><g fill="#ffed00"><path d="m7.435 6.601c-.05-.007-.074.067-.015.081.057.013.061-.074.015-.081"/><path d="m7.379 6.637c-.052-.027-.097.069-.047.09.089.035.105-.061.047-.09"/><path d="m7.417 6.702c-.062-.009-.069.078-.002.091.066.013.066-.083.002-.091"/></g><path fill="#fff" d="m7.33 6.552c-.074-.02-.113.069-.009.094.105.024.082-.074.009-.094"/><g fill="#ffed00"><path d="m7.428 6.521c-.049-.025-.094.073-.045.104s.103-.076.045-.104"/><path d="m7.521 6.549c-.063-.021-.102.065-.038.099.065.034.099-.079.038-.099"/></g><g fill="#fff"><path d="m7.487 6.627c-.034-.025-.117.058-.057.099.049.033.1-.068.057-.099"/><path d="m7.512 6.539c-.049-.025-.094.073-.045.104s.103-.076.045-.104"/></g><g fill="#ffed00"><path d="m7.635 6.549c-.067-.019-.105.083-.022.105s.085-.087.022-.105"/><path d="m7.463 6.415c-.035.006-.033.076.02.061.054-.016.045-.072-.02-.061"/></g><path fill="#ffed00" d="m7.82 5.243c.027.019.077.024.092.024.012-.007.019-.018.023-.027.005-.009.003-.022-.009-.026-.033-.017-.062-.034-.089-.068 0-.01-.002-.03-.003-.039-.007.012-.02.023-.022.03-.006-.004-.023-.004-.034-.003-.009-.006-.02-.019-.028-.026 0 .014-.002.05.002.059-.029.064-.061.176-.047.262.003.02.001.042-.013.046-.058.011-.15 0-.222-.014-.072-.014-.212-.042-.25.146.001.009.015.019.019.025.007-.004.022-.015.027-.025.026.051.03.121.004.148-.013.012-.01.019-.005.03.02.041.029.108.032.131h.046c-.022-.027-.027-.039-.027-.05 0-.009-.008-.045-.011-.057-.004-.011-.009-.028.001-.033.01-.005.035-.03.043-.049.014.009.015.02.018.026.003.005.001.02-.006.026-.007.007.001.013.006.026.009.026.017.063.02.075.003.012.004.026-.006.035h.054c-.02-.049-.024-.085-.029-.096-.005-.01 0-.025.008-.034.024-.024.065-.047.062-.105l.015-.013c.055.05.103.068.174.068l.016.022c.007.045.018.113.023.123.005.01.003.027-.001.035h.083c-.017-.02-.026-.025-.026-.038 0-.012-.005-.032-.007-.04 0-.008 0-.019.002-.028.005-.009.011-.062.008-.079.102-.082.088-.18.072-.263-.017-.085-.04-.175-.015-.224"/><path d="m7.834 5.196c-.011 0-.009.016-.001.016.007 0 .013-.016.001-.016"/><path fill="#b16510" d="m8.468 5.714c.02.035.015.156-.018.201h.118c-.032-.049-.043-.144-.015-.196-.022-.02-.065-.032-.085-.005"/><path fill="#317622" d="m8.468 5.179c-.045-.023-.102-.001-.089.049-.06 0-.077.034-.066.055-.031.003-.04.035-.036.054-.043-.014-.09.021-.088.052-.03.008-.045.043-.025.065-.02.015-.017.077.023.056.04-.022.066-.03.079 0l-.012.015c-.035-.019-.063.02-.057.037.006.017.029.025.044.015-.007.023.005.055.036.049-.009.03.007.058.047.05.006.024.056.042.086.02.015.019.06.032.085.022.011.02.025.02.039.012.027.015.035.014.052.007.017.015.025.015.042.005.017-.011.049-.023.075-.02.027.003.064-.02.074-.039.01-.019.017-.032.037-.042.02-.01.037-.042.03-.058.009-.007.021-.026.015-.037.038-.029.038-.067-.026-.058.042-.027.042-.042.011-.07.024-.035.016-.06 0-.058-.016.003-.047-.019-.062-.01.038-.022.033-.042.024-.058s-.04-.02-.054-.013c0 0-.021-.022-.03-.024.015-.04-.021-.07-.054-.065.006-.045-.069-.05-.094-.019-.04-.036-.084-.021-.106.008"/><path fill="#e40520" d="m7.975 4.818c-.039.014-.076.046-.118.085-.048.047-.097.071-.164.062l-.011.011c.065.015.125-.003.183-.06.049-.046.086-.075.119-.086-.003-.003-.005-.007-.009-.012"/><path fill="#fff" d="m7.857 4.903c.042-.039.079-.072.117-.085-.003-.004-.005-.007-.008-.012-.044.015-.08.052-.116.085-.042.038-.083.067-.156.06l.006.005-.007.009c.067.009.116-.015.164-.062"/><g fill="#e40520"><path d="m7.85 4.891c.036-.033.073-.07.117-.085-.002-.004-.003-.009-.003-.014-.053.016-.09.059-.122.086-.038.033-.072.07-.166.058l.018.016c.073.006.114-.023.156-.061"/><path d="m7.968 4.809c-.002-.004-.003-.007-.004-.011-.048-.008-.073-.037-.088-.067-.032-.064-.017-.088.014-.092-.024 0-.039 0-.053.01-.016.016-.001.152.131.16"/></g><path fill="#fff" d="m7.975 4.817c-.003-.003-.005-.005-.007-.008-.132-.008-.147-.144-.131-.16-.007.005-.014.012-.021.021-.003.004-.005.007-.006.009-.02.035.047.158.165.138"/><g fill="#e40520"><path d="m7.975 4.817c-.118.02-.185-.103-.165-.138-.019.029-.018.047-.003.076.014.031.045.065.092.069.038.003.065 0 .079-.003-.001-.001-.002-.002-.003-.004"/><path d="m8.339 4.967c-.063.009-.124-.041-.164-.08-.03-.031-.068-.057-.107-.07 0 .005-.002.009-.004.011.034.012.07.034.104.068.048.048.123.114.19.085l-.019-.014"/></g><path fill="#fff" d="m8.185 4.878c-.027-.028-.067-.059-.114-.074 0 .001 0 .001 0 .002-.001.005-.001.008-.002.011.039.014.077.039.107.07.04.04.1.089.164.08l-.013-.008.009-.011c-.063.006-.118-.036-.151-.07"/><g fill="#e40520"><path d="m8.07 4.804c.047.015.087.046.114.074.034.034.089.076.151.07l.019-.021c-.073.011-.13-.025-.162-.058-.024-.026-.066-.062-.121-.077 0 .004 0 .008-.001.012"/><path d="m8.227 4.647c-.013-.021-.073-.034-.124.003.04-.027.085-.018.102.002.018.021.006.102-.133.146 0 .002 0 .004 0 .006 0 .001 0 .001 0 .001.095-.025.185-.11.155-.158"/></g><path fill="#fff" d="m8.185 4.659c.016.02.011.092-.113.135 0 .001 0 .003 0 .004.139-.044.15-.125.133-.146-.017-.019-.062-.028-.102-.002 0 .001-.001.001-.002.002.04-.026.071-.008.084.007"/><g fill="#e40520"><path d="m8.07 4.794c.124-.042.129-.115.113-.135-.013-.015-.044-.033-.084-.007.04-.02.06.004.066.018.015.031-.005.086-.095.119 0 0 0 .001 0 .003 0 .001 0 .001 0 .002"/><path d="m8.158 4.658c-.033-.017-.083.045-.111.104.004 0 .008.001.011.003.03-.064.077-.129.11-.091-.001-.005-.004-.01-.01-.016"/></g><g fill="#fff"><path d="m8.04 4.77c.001 0 .001 0 0 0"/><path d="m8.04 4.768c.001 0 .001 0 0 0"/><path d="m8.04 4.765s0 0 0 0"/><path d="m8.04 4.767s.001 0 0 0"/><path d="m8.04 4.763c.001 0 .001 0 0 0"/><path d="m8.04 4.764s0 0 0 0"/><path d="m8.03 4.763c.001 0 .001 0 .002 0 .005-.001.009-.001.012-.001.028-.059.078-.121.111-.104-.004-.004-.009-.009-.015-.012-.046.001-.088.064-.11.117"/></g><g fill="#e40520"><path d="m8.03 4.763c.022-.053.064-.116.11-.117-.011-.002-.025-.002-.042.006-.034.023-.059.058-.075.096 0 .006.001.011.001.017.002-.001.004-.001.006-.002"/><path d="m7.994 4.761c-.006-.035-.017-.061-.051-.073-.032-.012-.081-.007-.081.011.004.011.009.023.014.032-.005-.02.001-.03.026-.03.028.002.057.011.068.038.003.009.006.018.007.024.005-.002.011-.003.017-.002"/></g><g fill="#fff"><path d="m8.01 4.784c-.004-.012-.008-.021-.01-.021.002 0 .006.009.01.021"/><path d="m7.943 4.688c.034.012.045.038.051.073.005.001.01.003.017.005-.005-.046-.016-.085-.063-.099-.056-.017-.09-.001-.09.007 0 .008.001.017.004.025 0-.018.049-.023.081-.011"/></g><g fill="#e40520"><path d="m7.948 4.667c.047.014.058.053.062.099.006.001.011.001.017 0-.004-.078-.037-.131-.137-.127-.024.004-.032.017-.032.035 0-.008.034-.024.09-.007"/><path d="m8 4.763c-.015-.006-.035.001-.037.023-.002.021.009.028.017.041.009.012.021.013.03.008.015-.009-.004-.072-.01-.072"/><path d="m8.04 4.763c.001 0 .001 0 0 0s.002.001.003.002c0 0 0 0 0 .001.002.002.003.002.003.003 0 .001.001.004.002.006 0 .001.001.001.001.002.001.006.003.014.004.021.001.01.001.019 0 .025 0 .001 0 .001 0 .002v.001c-.002.005-.004.006-.007.006.019.007.027.002.031-.025 0-.001 0-.001 0-.002 0-.003 0-.007 0-.01 0-.001 0-.001 0-.002 0-.021-.011-.036-.036-.03"/></g><path fill="#fff" d="m8.05 4.827s.001-.001.001-.001c0-.001 0-.001 0-.002.001-.006.001-.015 0-.025 0-.007-.002-.014-.004-.021-.001-.008-.003-.01-.004-.012 0 0 0-.001 0-.001-.001-.002-.002-.002-.002-.002-.002 0-.005.001-.009.002-.009.002-.015.003-.027-.002.006 0 .025.063.01.072.01-.005.017-.008.029-.003.003 0 .005-.001.006-.005"/></svg>