<?xml version="1.0" encoding="utf-8"?>
<!-- Generator: Adobe Illustrator 18.0.0, SVG Export Plug-In . SVG Version: 6.00 Build 0)  -->
<!DOCTYPE svg PUBLIC "-//W3C//DTD SVG 1.1//EN" "http://www.w3.org/Graphics/SVG/1.1/DTD/svg11.dtd">
<svg version="1.1" id="Layer_1" xmlns="http://www.w3.org/2000/svg" xmlns:xlink="http://www.w3.org/1999/xlink" x="0px" y="0px"
	 viewBox="0 0 56 56" enable-background="new 0 0 56 56" xml:space="preserve">
<path fill="#FFFFFF" d="M25.8,13.6l-2.2-8.1L21.7,6l2.2,8.1C24.5,13.9,25.1,13.7,25.8,13.6z"/>
<path fill="#FFFFFF" d="M14.8,23.1L6.7,21l-0.5,1.9l8.1,2.2C14.4,24.4,14.6,23.7,14.8,23.1z"/>
<path fill="#FFFFFF" d="M19,16.9L13.1,11l-1.4,1.4l5.9,5.9C18,17.7,18.5,17.3,19,16.9z"/>
<path fill="#FFFFFF" d="M33.3,14.1L35.5,6l-1.9-0.5l-2.2,8.1C32,13.7,32.7,13.9,33.3,14.1z"/>
<path fill="#FFFFFF" d="M42.8,25.1l8.2-2.2L50.5,21l-8.2,2.2C42.5,23.8,42.6,24.4,42.8,25.1z"/>
<path fill="#FFFFFF" d="M39.5,18.3l6-6l-1.4-1.4l-6,6C38.6,17.4,39.1,17.8,39.5,18.3z"/>
<path fill="#FFFFFF" d="M38.1,38.7l6,6l1.4-1.4l-6-6C39,37.8,38.6,38.3,38.1,38.7z"/>
<path fill="#FFFFFF" d="M42.2,32.5l8.2,2.2l0.5-1.9l-8.2-2.2C42.6,31.3,42.5,31.9,42.2,32.5z"/>
<path fill="#FFFFFF" d="M14.3,30.6l-8.1,2.2l0.5,1.9l8.1-2.2C14.6,31.9,14.4,31.3,14.3,30.6z"/>
<path fill="#FFFFFF" d="M31.4,42l2.2,8.2l1.9-0.5l-2.2-8.2C32.7,41.7,32,41.9,31.4,42z"/>
<path fill="#FFFFFF" d="M23.9,41.6l-2.2,8.2l1.9,0.5l2.2-8.2C25.2,41.9,24.5,41.8,23.9,41.6z"/>
<path fill="#FFFFFF" d="M17.6,37.4l-6,6l1.4,1.4l6-6C18.5,38.4,18.1,37.9,17.6,37.4z"/>
<path fill="#FFFFFF" d="M34.3,17.9c-5.5-3.2-12.5-1.3-15.7,4.2s-1.3,12.5,4.2,15.7s12.5,1.3,15.7-4.2S39.8,21.1,34.3,17.9z
	 M35.9,32.1c-2.3,4-7.5,5.4-11.5,3.1c-4-2.3-5.4-7.5-3.1-11.5s7.5-5.4,11.5-3.1C36.8,22.9,38.2,28,35.9,32.1z"/>
<path opacity="0.4" fill="#FFFFFF" enable-background="new    " d="M35.9,32.1c-2.3,4-7.5,5.4-11.5,3.1c-4-2.3-5.4-7.5-3.1-11.5
	s7.5-5.4,11.5-3.1C36.8,22.9,38.2,28,35.9,32.1z"/>
</svg>
