<svg xmlns="http://www.w3.org/2000/svg" viewBox="0 0 16 12" enable-background="new 0 0 16 12"><switch><g><g><g><path fill="#fff" d="m0 0h16v12h-16z"/><path fill="#00a651" d="m3.993 0v12h12.01v-12h-12.01"/></g><path fill="#fff" d="m11.08 7.963c-1.573 0-2.851-1.276-2.851-2.851s1.277-2.85 2.851-2.85c.163 0 .321.022.477.048-.479-.202-1-.314-1.557-.314-2.211 0-4 1.793-4 4s1.793 4 4 4 4-1.793 4-4c0-.277-.029-.548-.082-.809-.043 1.536-1.295 2.771-2.843 2.771"/></g><path fill="#fff" d="m11.571 2.438h2.512v2.512h-2.512z" transform="matrix(.1326-.99117.99117.1326 7.465 15.917)"/></g></switch></svg>