<?xml version="1.0" encoding="utf-8"?>
<!-- Generator: Adobe Illustrator 18.0.0, SVG Export Plug-In . SVG Version: 6.00 Build 0)  -->
<!DOCTYPE svg PUBLIC "-//W3C//DTD SVG 1.1//EN" "http://www.w3.org/Graphics/SVG/1.1/DTD/svg11.dtd">
<svg version="1.1" id="Layer_1" xmlns="http://www.w3.org/2000/svg" xmlns:xlink="http://www.w3.org/1999/xlink" x="0px" y="0px"
	 viewBox="0 0 56 56" enable-background="new 0 0 56 56" xml:space="preserve">
<path opacity="0.4" fill="#FFFFFF" enable-background="new    " d="M26.2,28.3H12.1c-0.2,0-0.4,0.1-0.6,0.1c-1.4,0-2.5-1.1-2.5-2.5
	c0-1.4,1.1-2.5,2.5-2.5c1.2,0,2.2,0.9,2.5,2l1.3-0.6c-0.4-0.7-0.6-1.4-0.6-2.2c0-2.4,2-4.4,4.4-4.4c1.3,0,2.4,0.5,3.2,1.4
	c0-0.3,0-0.5,0-0.8c0-4.5,3.6-8.1,8.1-8.1s8.1,3.6,8.1,8.1c0,1.4-0.4,2.7-1,3.9l1.6,0.8c0.3-2.1,2.1-3.7,4.3-3.7
	c2.4,0,4.4,2,4.4,4.4s-2,4.4-4.4,4.4c-0.2,0-0.3,0-0.5-0.1H32.4"/>
<path fill="#FFFFFF" d="M43.4,16.5c-0.7,0-1.4,0.1-2,0.3c-0.9-5.3-5.5-9.3-11.1-9.3c-4.9,0-9.1,3.2-10.6,7.6c-0.2,0-0.4,0-0.7,0
	c-3.4,0-6.3,2.3-7.2,5.4l-0.3,0c-3.1,0-5.6,2.5-5.6,5.6c0,3.1,2.5,5.5,5.5,5.6l0,0h31.7l0,0l0.2,0c4.1,0,7.5-3.4,7.5-7.5
	S47.5,16.5,43.4,16.5z M43.3,28.4c-0.2,0-0.3,0-0.5-0.1H12.1c-0.2,0-0.4,0.1-0.6,0.1c-1.4,0-2.5-1.1-2.5-2.5s1.1-2.5,2.5-2.5
	c1.2,0,2.2,0.9,2.5,2l1.3-0.6c-0.4-0.7-0.6-1.4-0.6-2.2c0-2.4,2-4.4,4.4-4.4c1.3,0,2.4,0.5,3.2,1.4c0-0.3,0-0.5,0-0.8
	c0-4.5,3.6-8.1,8.1-8.1s8.1,3.6,8.1,8.1c0,1.4-0.4,2.7-1,3.9l1.6,0.8c0.3-2.1,2.1-3.7,4.3-3.7c2.4,0,4.4,2,4.4,4.4
	S45.8,28.4,43.3,28.4z"/>
<path fill="#FFFFFF" d="M32.7,34.6L34,35l-2.1,8l-1.3-0.4L32.7,34.6z"/>
<path fill="#FFFFFF" d="M36.1,37.1l0.4,1.3l-8,2.1l-0.4-1.3C28.1,39.2,36.1,37.1,36.1,37.1z"/>
<path fill="#FFFFFF" d="M28.8,36.4l1-1l5.9,5.9l-1,1C34.7,42.2,28.8,36.4,28.8,36.4z"/>
<path fill="#FFFFFF" d="M22.2,39.9l1.3,0.4l-2.1,8l-1.3-0.4C20.1,47.9,22.2,39.9,22.2,39.9z"/>
<path fill="#FFFFFF" d="M25.6,42.3l0.4,1.3l-8,2.1l-0.4-1.3C17.6,44.5,25.6,42.3,25.6,42.3z"/>
<path fill="#FFFFFF" d="M18.4,41.6l1-1l5.9,5.9l-1,1C24.2,47.5,18.4,41.6,18.4,41.6z"/>
</svg>
