<svg xmlns="http://www.w3.org/2000/svg" viewBox="0 0 16 12" enable-background="new 0 0 16 12"><switch><g><path fill="#fff" d="m0 0h16v12h-16z"/><path fill="#fdb814" d="m5.951 2.577c-.156.272-.12.774-.234 1.076-.229.608-.693.112-1.052.152-.593.066-1.297.762-1.776.68-.083-.014-.785-.437-.699-.014.003.016.336.79.299.766.33.207.428 1.237.76 1.584.847.884 1.748-.075 2.489 1.042.18.27.503-.648.612-.729.443-.329 1.216.037 1.734-.208.174-.083.991-.394 1.038-.455.248-.324.101-.842.563-1.031.545-.223 1.438.476 2 .212.321-.15-1.812-1.732-.099-2.294.29-.095 1.273-.851 1.523-1.09.403-.388.975-.805 1.431-1.109-.795.203-1.357.622-2.152.707-.224.023-.262.478-.591.523-.391.053-.741.347-1.156.346-.76-.002-1.698.588-2.441.3-.516-.202-1.918.06-2.251-.456"/><path fill="#16b475" d="m11.271 8.03c-.895.605-1.855 1.118-2.864 1.507-1.095.421-3-.721-3.8-1.351-.656-.517-1.591.403-.927.927 1.146.904 2.555 1.567 4.01 1.788 1.412.215 3.154-.997 4.245-1.739.695-.471.041-1.608-.66-1.132"/></g></switch></svg>