<svg xmlns="http://www.w3.org/2000/svg" viewBox="0 0 16 12" enable-background="new 0 0 16 12"><switch><g><g><path fill="#ed1c2e" d="m0 0h16v12h-16z"/><g><path fill="#fff200" d="m10.313 6.983c.195-.282.467-.279.788-.101-.044-.455-.555-.743-.787-.781.095-.336.398-.503.757-.455-.185-.411-.804-.424-1.034-.375-.018-.351.214-.619.567-.707-.305-.318-.891-.102-1.091.029-.128-.322.005-.661.31-.873-.388-.187-.869.233-1.017.43-.222-.256-.204-.623.015-.935-.424-.032-.743.541-.819.78-.29-.158-.391-.507-.284-.88-.408.126-.525.782-.521 1.035-.323-.042-.528-.333-.548-.724-.342.27-.245.929-.16 1.165-.316.08-.603-.119-.744-.479-.236.38.064.964.219 1.154-.271.192-.604.112-.851-.174-.103.444.365.882.571 1-.195.281-.313.488-.635.31.045.455.403.533.635.57l4.629.006"/><path fill="#fff200" d="m9.642 6.54l1.591-.614-1.688.01 1.298-1.165-1.583.632.851-1.574-1.288 1.179.301-1.794-.836 1.582-.286-1.795-.285 1.795-.837-1.583.301 1.794-1.288-1.179.852 1.574-1.584-.632 1.299 1.165-1.688-.01 1.591.614z"/><ellipse fill="#fff200" cx="8" cy="6.541" rx="1.642" ry="1.771"/></g><path fill="#004990" d="m16 6.905c-.445-.113-.899-.237-1.336-.229-.897.019-1.793.745-2.713.741-.887-.004-1.697-.858-2.565-.868-.935-.01-1.896.735-2.764.72-.828-.016-1.74-.678-2.465-.698-2.149-.061-1.521 1.058-4.157.042v5.387h16v-5.095"/><path fill="#fff" d="m16 6.273c-.166-.026-.334-.061-.501-.106-.797-.218-1.18-.223-2.267.087-.815.234-1.938.207-2.764-.045-.846-.259-1.22-.293-2.651-.014-.963.188-1.737.197-2.745-.055-.786-.195-1.195-.17-2.185.053-1.558.35-2.389-.231-2.887-.179v.585c.498-.051 1.329.527 2.887.178.99-.223 1.399-.246 2.185-.051 1.01.25 1.782.242 2.745.055 1.432-.279 1.806-.246 2.651.012.825.254 1.948.279 2.764.047 1.087-.311 1.47-.305 2.267-.088.167.045.335.08.501.107v-.586"/><path fill="#fff" d="m16 8.273c-.166-.025-.334-.06-.501-.106-.797-.217-1.18-.222-2.267.088-.815.232-1.938.207-2.764-.046-.846-.259-1.22-.292-2.651-.014-.963.188-1.737.196-2.745-.054-.786-.195-1.195-.171-2.185.051-1.558.35-2.389-.229-2.887-.178v.585c.498-.052 1.329.528 2.887.179.99-.222 1.399-.247 2.185-.052 1.01.251 1.782.242 2.745.055 1.432-.279 1.806-.245 2.651.013.825.253 1.948.279 2.764.046 1.087-.31 1.47-.304 2.267-.087.167.045.335.079.501.106v-.586"/><path fill="#fff" d="m16 10.243c-.166-.04-.334-.092-.501-.16-.797-.325-1.18-.333-2.267.132-.815.348-1.938.309-2.764-.068-.846-.388-1.22-.438-2.651-.021-.963.28-1.737.294-2.745-.081-.786-.293-1.195-.256-2.185.077-1.558.523-2.389-.345-2.887-.267v.876c.498-.077 1.329.79 2.887.267.99-.332 1.399-.369 2.185-.077 1.01.375 1.782.362 2.745.081 1.432-.418 1.806-.367 2.651.021.825.378 1.948.417 2.764.068 1.087-.464 1.47-.456 2.267-.132.167.068.335.12.501.16v-.876"/></g><path fill="#fff200" d="m6.5 1h3v1h-3z"/></g></switch></svg>