<?xml version="1.0" encoding="utf-8"?>
<!-- Generator: Adobe Illustrator 18.0.0, SVG Export Plug-In . SVG Version: 6.00 Build 0)  -->
<!DOCTYPE svg PUBLIC "-//W3C//DTD SVG 1.1//EN" "http://www.w3.org/Graphics/SVG/1.1/DTD/svg11.dtd">
<svg version="1.1" id="Layer_1" xmlns="http://www.w3.org/2000/svg" xmlns:xlink="http://www.w3.org/1999/xlink" x="0px" y="0px"
	 viewBox="0 0 56 56" enable-background="new 0 0 56 56" xml:space="preserve">
<path opacity="0.4" fill="#FFFFFF" enable-background="new    " d="M44.7,38.7c-0.2,0-0.3,0-0.5,0H13.3c-0.1,0-0.3,0-0.4,0
	c-1.3,0-2.4-1.1-2.4-2.4s1.1-2.4,2.4-2.4c1.1,0,2.1,0.8,2.3,1.9l1.4-0.7c-0.5-0.7-0.7-1.5-0.7-2.4c0-2.4,2-4.4,4.4-4.4
	c1.2,0,2.4,0.5,3.2,1.4c0-0.2,0-0.5,0-0.7c0-4.5,3.6-8.1,8.1-8.1s8.1,3.6,8.1,8.1c0,1.5-0.4,2.9-1.1,4l1.8,0.8
	c0.3-2.1,2.1-3.7,4.3-3.7c2.4,0,4.3,1.9,4.3,4.3C49,36.8,47.1,38.7,44.7,38.7z"/>
<path fill="#FFFFFF" d="M12.8,13.9L7.9,9l-1.2,1.2l4.9,4.9C12,14.7,12.4,14.3,12.8,13.9z"/>
<path fill="#FFFFFF" d="M24.5,11.6l1.7-6.4l-1.6-0.4l-1.7,6.5C23.4,11.3,23.9,11.4,24.5,11.6z"/>
<path fill="#FFFFFF" d="M29.8,15.2l5-5L33.6,9l-5,5C29,14.4,29.4,14.8,29.8,15.2z"/>
<path fill="#FFFFFF" d="M9.3,19.1l-6.7-1.8l-0.4,1.6l6.7,1.8C9,20.2,9.2,19.6,9.3,19.1z"/>
<path fill="#FFFFFF" d="M18.4,11.2l-1.8-6.7l-1.6,0.4l1.8,6.7C17.4,11.5,17.9,11.3,18.4,11.2z"/>
<path fill="#FFFFFF" d="M8.9,25.4l-6.7,1.8l0.4,1.6l6.7-1.8C9.2,26.4,9,25.9,8.9,25.4z"/>
<path fill="#FFFFFF" d="M24.2,17c0.4,0.2,0.8,0.5,1.1,0.8c0.8-0.4,1.6-0.8,2.5-1.1c-0.7-0.7-1.4-1.4-2.3-1.9
	c-4.5-2.6-10.4-1.1-13,3.5c-1.8,3.1-1.6,6.9,0.1,9.7c0.5-0.8,1.1-1.5,1.7-2.1c-0.9-2-0.8-4.3,0.3-6.3C16.6,16.2,20.9,15.1,24.2,17z"
	/>
<path fill="#FFFFFF" d="M44.6,27c-0.7,0-1.3,0.1-2,0.3c-0.8-5.4-5.4-9.6-11-9.6c-4.9,0-9,3.1-10.6,7.5c-0.2,0-0.4,0-0.7,0
	c-3.5,0-6.4,2.4-7.2,5.7l-0.2,0c-3.1,0-5.5,2.5-5.5,5.5c0,3,2.4,5.5,5.5,5.5l0,0h31.5l0,0l0.2,0c4.1,0,7.5-3.3,7.5-7.5
	S48.8,27,44.6,27z M44.7,38.7c-0.2,0-0.3,0-0.5-0.1H13.3c-0.1,0-0.3,0-0.4,0c-1.3,0-2.4-1.1-2.4-2.4s1.1-2.4,2.4-2.4
	c1.1,0,2.1,0.8,2.3,1.9l1.4-0.7c-0.5-0.7-0.7-1.5-0.7-2.4c0-2.4,2-4.4,4.4-4.4c1.2,0,2.4,0.5,3.2,1.4c0-0.2,0-0.5,0-0.7
	c0-4.5,3.6-8.1,8.1-8.1s8.1,3.6,8.1,8.1c0,1.5-0.4,2.9-1.1,4l1.8,0.8c0.3-2.1,2.1-3.7,4.3-3.7c2.4,0,4.3,1.9,4.3,4.3
	S47.1,38.7,44.7,38.7z"/>
</svg>
