<svg xmlns="http://www.w3.org/2000/svg" viewBox="0 0 16 12" enable-background="new 0 0 16 12"><switch><g><g><path fill="#0060a9" d="m0 4h16v4h-16z"/><path fill="#ed1c2e" d="m0 8h16v4h-16z"/><path fill="#fff" d="m9.188 4c.027.458-.028 2.052-.328 2.875-.417 1.145-1.481 2.029-2.739 2.5-1.258-.471-2.328-1.496-2.745-2.641-.3-.823-.37-2.276-.344-2.734h-3.03v-4h16v4h-6.813"/><path fill="#ed1c2e" d="m8.659 2.469c.047.954.129 2.417.094 3.143-.025.526-.375 2.447-2.633 3.359-2.259-.912-2.608-2.832-2.634-3.359-.035-.725.047-2.189.094-3.143h5.079"/><path fill="#0060a9" d="m6.12 6.37c-1.33 0-1.961.631-2.073.913.383.62 1.02 1.263 2.073 1.688 1.052-.425 1.689-1.067 2.073-1.688-.113-.282-.814-.908-2.073-.913"/></g><path fill="#fff" d="m5.167 3.419h1.907v1.907h-1.907z" transform="matrix(.70711.70711-.70711.70711 4.884-3.047)"/></g></switch></svg>