<?xml version="1.0" encoding="utf-8"?>
<!-- Generator: Adobe Illustrator 18.0.0, SVG Export Plug-In . SVG Version: 6.00 Build 0)  -->
<!DOCTYPE svg PUBLIC "-//W3C//DTD SVG 1.1//EN" "http://www.w3.org/Graphics/SVG/1.1/DTD/svg11.dtd">
<svg version="1.1" id="Layer_1" xmlns="http://www.w3.org/2000/svg" xmlns:xlink="http://www.w3.org/1999/xlink" x="0px" y="0px"
	 viewBox="0 0 56 56" enable-background="new 0 0 56 56" xml:space="preserve">
<path fill="#FFFFFF" d="M39.3,36.2c0.9-1.2,1.7-2.6,2.2-4.2H37c-0.9,1.8-2.3,3.3-4,4.2H39.3z"/>
<path fill="#FFFFFF" d="M25,41.1c0.7,0.2,1.4,0.3,2.1,0.4H30c2.2-0.2,4.3-1,6.1-2.2H20.9C22.1,40,23.5,40.7,25,41.1z"/>
<path fill="#FFFFFF" d="M23.9,36.2c-1.8-1-3.1-2.4-4-4.2h-4.5c0.5,1.5,1.2,2.9,2.2,4.2H23.9z"/>
<path fill="#FFFFFF" d="M37.5,31h4.3c0.3-1.4,0.4-2.8,0.3-4.2h-4.2c0.1,1.2,0.1,2.4-0.3,3.6C37.6,30.6,37.5,30.8,37.5,31z"/>
<path fill="#FFFFFF" d="M19.5,31c-0.5-1.3-0.6-2.7-0.5-4.2h-4.2c-0.1,1.4,0,2.8,0.3,4.2H19.5z"/>
<path fill="#FFFFFF" d="M42,25.8c-0.2-1.5-0.7-2.9-1.4-4.2h-5c1.1,1.2,1.8,2.6,2.2,4.2H42z"/>
<path fill="#FFFFFF" d="M19.3,25.8l0.1-0.3c0.4-1.5,1.1-2.8,2.1-3.9h-5c-0.5,0.9-0.8,1.8-1.1,2.8c-0.1,0.5-0.2,0.9-0.3,1.4
	C15,25.8,19.3,25.8,19.3,25.8z"/>
<path fill="#FFFFFF" d="M33.7,15.3c-0.5-0.2-1.1-0.4-1.7-0.6c-3-0.8-6.1-0.5-8.8,0.6H33.7z"/>
<path fill="#FFFFFF" d="M35.8,16.3H21.2c-1.7,1.1-3.1,2.5-4.2,4.2h5.5c2.3-1.8,5.4-2.6,8.4-1.8c1.3,0.4,2.5,1,3.5,1.8H40
	C38.9,18.9,37.5,17.4,35.8,16.3z"/>
<path fill="#FFFFFF" d="M8.1,47.8h27.5c0.5,0,1,0.4,1,1s-0.4,1-1,1H8.1c-0.5,0-1-0.4-1-1S7.5,47.8,8.1,47.8z"/>
<path fill="#FFFFFF" d="M11.3,42.6h31.5c0.7,0,1.2,0.4,1.2,1s-0.6,1-1.2,1H11.3c-0.7,0-1.2-0.4-1.2-1S10.6,42.6,11.3,42.6z"/>
<path fill="#FFFFFF" d="M7.4,32h42.1c0.8,0,1.5,0.4,1.5,1c0,0.5-0.7,1-1.5,1H7.4c-0.8,0-1.5-0.4-1.5-1C5.9,32.5,6.5,32,7.4,32z"/>
<path fill="#FFFFFF" d="M8.4,21.6h40.2c0.8,0,1.5,0.4,1.5,1c0,0.5-0.7,1-1.5,1H8.4c-0.8,0-1.5-0.4-1.5-1C6.9,22,7.6,21.6,8.4,21.6z"
	/>
<path fill="#FFFFFF" d="M10.5,16.3h36.2c0.8,0,1.4,0.4,1.4,1s-0.6,1-1.4,1H10.5c-0.8,0-1.4-0.4-1.4-1S9.8,16.3,10.5,16.3z"/>
<path fill="#FFFFFF" d="M15.3,11.2h29.5c0.6,0,1.2,0.4,1.2,1s-0.5,1-1.2,1H15.3c-0.6,0-1.2-0.4-1.2-1S14.7,11.2,15.3,11.2z"/>
<path fill="#FFFFFF" d="M23.7,5.9H49c0.5,0,0.9,0.4,0.9,1s-0.4,1-0.9,1H23.7c-0.5,0-0.9-0.4-0.9-1S23.2,5.9,23.7,5.9z"/>
<path fill="#FFFFFF" d="M7.4,26.8h42.1c0.8,0,1.5,0.4,1.5,1s-0.7,1-1.5,1H7.4c-0.8,0-1.5-0.4-1.5-1S6.5,26.8,7.4,26.8z"/>
<path fill="#FFFFFF" d="M9.8,37.3c-0.7,0-1.4,0.4-1.4,1c0,0.5,0.6,1,1.4,1h11.2c-0.8-0.6-1.6-1.2-2.3-2L9.8,37.3
	C9.8,37.3,9.8,37.3,9.8,37.3z"/>
<path fill="#FFFFFF" d="M47.7,37.3h-9.3c-0.7,0.7-1.5,1.4-2.4,2h11.6c0.7,0,1.4-0.4,1.4-1S48.4,37.3,47.7,37.3z"/>
<path fill="#FFFFFF" d="M30,37.3c-1,0.2-2,0.2-3.1,0h-8.3c0.7,0.7,1.5,1.4,2.3,2h15.1c0.9-0.6,1.6-1.2,2.4-2H30z"/>
</svg>
