<svg xmlns="http://www.w3.org/2000/svg" viewBox="0 0 16 12" enable-background="new 0 0 16 12"><switch><g><path fill="#008357" d="m0 0h16v12h-16z"/><path fill="#fff" d="m4 0h8v12h-8z"/><path fill="#008357" d="m7.965.607c0 .098-.005.451-.019.618-.004.059-.039.064-.088.035-.049-.03-.191-.01-.093.034.098.044.161.059.167.137.004.079-.04.088-.123.049-.084-.04-.191-.025-.039.068.151.093.162.098.156.196-.005.098-.054.089-.151.044-.118-.054-.216-.01-.079.054.138.064.231.147.226.235-.005.089-.068.133-.171.005-.104-.127-.269-.191-.393-.177s-.059.074.083.127c.143.054.373.162.427.221s.024.108-.103.054c-.128-.054-.412-.162-.505-.127-.094.034-.133.088.024.093.156.005.429.05.544.093.143.054.162.167.024.127s-.519-.118-.632-.049c-.113.068-.147.137.043.107.191-.029.433-.03.54.015.059.024.107.029.103.113-.005.083-.068.083-.186.034-.118-.049-.471-.142-.579-.054-.108.088-.083.103.068.078.152-.024.384-.002.495.019.229.044.211.083.064.083-.147 0-.584.019-.686-.019-.104-.039-.255-.064-.314-.039-.06.024-.01.049.039.049s.088.04.054.074-.054.098.083.073c.138-.024.334-.024.436.015.103.04.259.084.388.098.137.015.142.02.137.123-.004.076-.162.029-.314-.068-.152-.098-.446-.152-.583-.059-.138.093-.06.113.068.088.127-.024.481.039.612.083.133.044.214.015.206.137-.004.073-.078.035-.191-.01-.343-.138-.756-.15-.892-.132-.096.012-.11.022-.079.049.023.019.006.057-.051.071-.06.015-.135.04-.172.069-.037.03-.034.059.071.049s.21.007.149.049c-.061.042-.14.098-.018.108.314.027.769.223.927.312.157.088.198.095.196.176s-.088.068-.179.019c-.287-.152-.571-.118-.719-.221-.147-.103-.362-.216-.5-.127s-.112.142.01.127c.123-.015.255.005.206.069s-.083.104.117.132c.279.039.736.216.888.279.152.064.211.108.083.128-.127.019-.132-.071-.333-.079-.127-.005-.289-.074-.378-.142-.088-.069-.146-.103-.294-.088-.146.015-.357.039-.436.083-.078.044-.107.107.019.112.128.005.186.083.089.118-.099.034-.201.054-.235.093-.034.04.015.074.146.074.133 0 .339.044.521.132.181.088.706.353.848.363.143.01.157.03.152.103-.005.074-.054.059-.172.024-.117-.034-.45-.137-.559-.231-.108-.093-.218-.181-.316-.186-.098-.005-.071.027-.036.064.033.037.03.127-.035.066-.106-.098-.182-.204-.321-.206s-.271 0-.343.04c-.071.039-.063.096.071.115.156.022.326.071.404.117.078.047.044.093-.029.088s-.057.037.024.086.131.115.068.13c-.088.022-.242-.155-.314-.144-.049.007-.01.042.032.069.041.027.042.117-.025.066-.093-.071-.218-.165-.359-.113-.143.052-.211.113-.092.164.121.052.207.099.15.172-.027.034-.053.086.117.098.106.007.223.049.274.105.052.057-.015.079-.078.052s-.206-.042-.274.022c-.068.064.001.109.14.125.392.047.809.174 1.039.194s.423.074.521.113c.129.051.061.196-.035.147-.135-.069-.228-.11-.279-.12-.051-.01-.051.01-.041.057.01.046-.05.071-.106.017-.057-.054-.229-.157-.334-.174-.106-.017-.091.002-.073.037.017.034.01.093-.059.024-.069-.069-.284-.167-.412-.159-.083.005-.066.032-.049.066.017.034-.027.108-.079.037-.051-.071-.16-.17-.291-.093-.055.032-.108.076-.186.09-.079.015-.061.06.046.083.282.061.393-.018.579.057.142.056.267.073.321.078.054.005.093.037.031.057-.061.019-.056.066.01.125.066.059.014.15-.044.081-.106-.128-.26-.083-.315-.145-.057-.061-.082-.054-.082-.005 0 .049-.026.061-.08.02-.189-.147-.424-.118-.525-.049-.1.069-.078.091.104.12.513.081 1.149.189 1.699.419.297.124.279.151.265.189s-.072.046-.191-.034c-.135-.091-.495-.144-.654-.243-.159-.098-.206-.046-.162.016.044.061.027.125-.064.044s-.279-.185-.388-.186c-.107-.003-.026.044.027.081.054.036.065.149-.027.091-.093-.06-.37-.214-.586-.16-.216.054-.184.086-.073.157s.213.122.448.115.461.037.566.106.008.086-.064.044c-.071-.041-.263-.073-.341-.064-.079.01-.042.047-.01.083.032.037-.005.152-.069.081-.064-.071-.237-.154-.343-.179-.231-.054-.332.053-.233.088.061.022.094.055.057.104-.036.049-.057.104.069.086.292-.045.829-.035 1.125.059.255.08.198.135.132.13-.065-.005-.137-.04-.103.024.034.064.031.121-.054.061-.177-.123-.422-.169-.535-.165-.061.003-.034.035-.007.069s-.013.093-.078.042c-.066-.052-.189-.125-.271-.128-.08-.003-.078.024-.041.061.037.036.028.101-.047.047-.112-.082-.291-.168-.422-.157-.13.01-.071.073.047.122.223.094.459.152.625.167.167.015.314.061.383.066s.098.043.005.054c-.128.015-.333-.076-.436-.029-.054.024.014.06.022.078.017.034.009.125-.057.071-.201-.164-.326-.142-.397-.193s-.144-.022-.098.036-.052.042-.128-.005c-.075-.046-.203-.078-.284-.054s-.117.054.049.143c.167.088.302.154.471.185.17.032.191.133.099.121-.094-.013-.109.041-.047.088.029.021.049.083.044.12-.005.036-.061.029-.135-.052-.177-.196-.566-.211-.76-.154s-.113.149.027.282c.139.132.269.271.632.227.363-.044 1-.182 1.3-.102.294.078.261.212.172.226-.162.024-.157-.133-.324-.143s-.221.074-.274.133-.095.11-.265.029c-.216-.104-.383.044-.476.024.088.049.235.161.196.206-.039.044-.104-.045-.236-.094-.132-.049-.328-.059-.475.029-.147.089.004.177.166.217.162.039.516.039.805-.04.289-.078.646-.134.779-.138.098-.002.143.052.076.113.101.029.219.001.281-.039.162-.104.141 0 .106.063.106.008.29-.125.363-.075.021.443-.008 1.34-.008 1.649 0 .054.039.044.31.044.326 0 .343.024.333-.133-.01-.153-.102-1.068-.073-1.402.029-.333.122-.309.24-.284s.398.113.534.108c-.088-.094-.098-.157-.015-.138s.191-.015.265-.078c-.063-.005-.107-.089.005-.108.113-.02.152.039.349.104.195.063.934.209 1.354-.059.122-.079.024-.113-.128-.113s-.23.034-.304.065c-.074.029-.141.051-.125-.008.015-.059-.118-.081-.236-.027-.117.055-.218.078-.188.015.03-.063-.017-.078-.174-.068-.137.009-.544-.036-.527-.102.01-.039.088-.059.224-.029.32.068 1.037.088 1.253.073.352-.024.25-.133.115-.172-.136-.039-.287-.01-.321.032-.035.041-.15.068-.123.002.039-.093-.154-.115-.326-.021-.117.063-.14.031-.098-.02.041-.052-.027-.087-.159-.076-.188.015-.532.02-.665-.037-.145-.062-.109-.081.141-.101.377-.029.965.133 1.396.093.432-.039.363-.068.221-.181-.142-.113-.265-.03-.338.044-.074.073-.201.068-.143-.005s.006-.108-.137-.099-.245.06-.339.084c-.093.024-.196-.039-.122-.074.073-.034.063-.063.005-.068-.06-.005-.063-.044.098-.068.162-.024.274.02.368.054.093.034.201.005.27-.044s.107-.104.191-.098c.083.004.132-.039.024-.113-.108-.073-.265-.078-.358-.034-.093.044-.137.015-.172-.029-.033-.044-.166-.039-.299.019-.132.059-.222.135-.299.029-.039-.054-.309.01-.476.059-.167.05-.197 0-.059-.064.181-.083.292-.025.563-.127.182-.069.441.043.868-.201.102-.06.2-.118-.083-.128-.143-.005-.211.01-.26.073-.05.064-.108.049-.104 0s-.127-.083-.24-.01c-.113.074-.196.138-.25.152s-.066.002-.054-.039c.012-.042-.027-.037-.076-.005s-.133.073-.187.068-.113-.049.039-.128c.152-.078.297-.175.527-.156.304.024.373-.101.52-.096.148.005.226-.107.027-.11-.199-.003-.258.042-.302.073-.044.032-.132.055-.118-.012.016-.066-.02-.066-.09-.034-.071.031-.245.054-.329.029-.083-.024-.161-.069.037-.079s.337-.104.505-.061c.152.039.232-.039.289-.032s.125-.042.025-.123c-.102-.081-.354-.086-.441-.071-.089.015-.135 0-.118-.035s-.007-.049-.083-.046c-.076.002-.288.051-.378.091-.118.051-.206-.028-.11-.091.063-.042.232-.093.326-.081.093.012.135.023.107-.042-.012-.029-.017-.066.084-.041.101.024.304.029.416-.035.113-.064.03-.137-.151-.132s-.573.059-.73.162c-.157.103-.179-.008-.115-.042s.073-.059.039-.081c-.034-.022-.032-.042.062-.076.182-.066.372-.046.598-.149.168-.077.344-.167.398-.299.054-.133-.029-.088-.128-.049-.098.04-.156.069-.156.137 0 .069-.084.069-.078-.015.004-.083-.045-.123-.178-.068-.132.054-.465.176-.583.162-.117-.015-.167-.088-.044-.093s.289-.054.388-.088c.098-.035.156-.088.083-.128-.073-.039-.02-.088.063-.088s.182-.074.29-.059c.107.015.229-.021.088-.103-.059-.034-.113-.078-.039-.117.073-.04.029-.147-.084-.162-.112-.015-.215.01-.274.029-.059.019-.107.015-.122-.034-.016-.049-.206-.044-.285-.024-.078.019-.23.01-.117-.044.113-.054.354-.088.471-.088s.24-.029.304-.054.079-.152-.063-.152-.328.01-.294-.044c.034-.054-.089-.088-.226-.059-.138.029-.324.059-.216-.015.107-.074.328-.152.432-.147.102.005.177-.015.107-.098-.068-.083-.024-.113.044-.123.068-.01.084-.093-.015-.113-.098-.019-.35-.077-.471-.01-.167.093-.294.088-.24.034s.017-.053-.068-.029c-.196.054-.618.176-.735.167-.059-.005-.128.007-.127-.064.002-.065.049-.07.22-.097.344-.054.721-.162.883-.143.162.02.23-.005.187-.073-.045-.069-.172-.015-.118-.103s-.044-.079-.117-.083c-.074-.005-.149-.034-.191-.073-.06-.057-.263-.024-.365.015s-.33.092-.419.086c-.108-.008-.114-.008-.119-.086-.003-.041.011-.057.06-.076.112-.045.57-.062.712-.034.279.054.29-.05.232-.101-.076-.066-.318-.037-.471-.01s-.315.057-.355.019c-.042-.037.004-.07.11-.091.127-.024.427-.007.473-.029.047-.022.094-.091-.01-.118-.102-.027-.346 0-.458.04-.113.039-.238.027-.265-.013-.027-.039-.018-.137.171-.123.19.015.535.01.596 0 .062-.01.069-.054.037-.095-.031-.042-.071-.086-.034-.118.037-.032.023-.059.003-.085s0-.049.02-.066.045-.059-.025-.046c-.119.022-.306-.039-.401-.002s-.313.062-.383.051c-.032-.005-.049-.068.01-.076.102-.013.307-.042.383-.081.075-.04.154-.069.25-.066s.157-.034.063-.079c-.093-.044-.245-.032-.333.01-.089.042-.248.123-.334.11-.085-.012-.094-.062-.062-.169.018-.056.131-.061.209-.046s.309-.044.396-.025c.089.02.167-.015.069-.088-.099-.074-.187-.049-.284-.01-.099.039-.315.093-.373.039s-.072-.191.037-.142c.12.054.419-.044.5-.002.081.042.123-.037.044-.074-.078-.037-.31-.002-.388.015-.132.03-.185.04-.185-.037 0-.052.15-.043.193-.032.107.029.268-.106.365-.081s.081-.029.029-.069c-.051-.039-.245-.019-.313.025-.069.044-.187.071-.23.068s-.063-.015-.063-.093c0-.078.042-.102.1-.13.096-.046.112-.118.04-.101-.113.027-.152.064-.152-.088 0-.069.01-.13.101-.149.091-.02.107-.081.078-.096s-.066.022-.11.039-.074.035-.078-.088c-.003-.071.039-.093.081-.095.041-.003.083-.032.102-.059s0-.064-.063-.037c-.063.027-.124.034-.125-.037-.002-.159-.023-.524-.027-.61s-.066-.108-.066-.01z"/><g><path fill="#fff" d="m7.877 2.983c.004-.085-.078-.09-.117-.076s-.065.051.015.085c.034.015.101.042.103-.01"/><path fill="#fff" d="m8.098 3.076c-.002-.056.059-.051.096-.039s.117.022.169.01.114.027.032.049c-.145.039-.294.071-.297-.019"/><path fill="#fff" d="m8.105 3.248c0-.054.054-.032.09-.027.037.005.088.022 0 .047-.044.012-.09.032-.09-.019"/><path fill="#fff" d="m7.789 3.628c-.185-.115-.471-.093-.613-.147-.113-.043-.193 0-.005.064.231.079.363.054.476.098.113.044.221.034.143-.015"/><path fill="#fff" d="m7.838 3.812c-.104.015-.229-.007-.318-.051-.091-.044-.138.029-.019.064.117.034.231.066.279.11.049.044.086.037.091-.042.002-.044.021-.088-.032-.081"/><path fill="#fff" d="m7.83 4.373c.007-.085-.034-.091-.228-.154-.11-.036-.267-.076-.279-.049-.013.027.056.078.226.14.169.061.277.132.281.064"/><path fill="#fff" d="m8.174 4.04c.08.017.326.007.424-.002.099-.01.18.027.013.059-.167.032-.292.066-.363.096-.071.029-.164.064-.159-.049s.015-.118.086-.103"/><path fill="#fff" d="m8.151 4.788c.003.064.052.051.152.019.067-.022.224-.074.27-.103.047-.029.042-.052-.034-.022-.076.029-.24.06-.292.059-.085-.002-.098-.01-.096.047"/><path fill="#fff" d="m7.828 4.81c.003-.064-.055-.082-.154-.13-.144-.069-.356-.167-.527-.167s-.159.018.008.086c.166.069.512.172.561.206.05.034.111.059.113.005"/><path fill="#fff" d="m7.848 5.067c.012-.102-.139-.094-.182-.123-.09-.061-.372-.167-.502-.191-.131-.024-.193-.039-.238-.066-.071-.042-.172.017-.041.059.129.042.271.143.389.162.241.039.42.174.491.174.039 0 .078.03.083-.015"/><path fill="#fff" d="m7.838 5.658c0-.108-.039-.101-.091-.101s-.173-.054-.245-.09c-.13-.066-.274-.098-.38-.083s-.044.051.066.074c.11.021.407.115.495.181.088.066.154.135.154.019"/><path fill="#fff" d="m8.14 5.275c0-.083.015-.096.12-.091s.307 0 .373-.039c.065-.04.154-.037.19-.032.037.005.023.03-.042.069-.063.039-.286.042-.359.088-.074.046-.182.056-.229.059s-.054 0-.054-.054"/><path fill="#fff" d="m8.205 5.483c.138 0 .368-.107.459-.11s.137.049.027.064c-.11.015-.346.074-.395.106-.05.032-.152.069-.15.012.003-.056.008-.071.059-.071"/><path fill="#fff" d="m8.208 5.808c.145-.012.27-.095.346-.101.118-.01.184-.02.115.032-.068.051-.267.083-.321.118-.054.034-.172.051-.169 0 .003-.052 0-.047.029-.049"/><path fill="#fff" d="m7.828 6.104c.005-.108-.089-.125-.167-.137-.348-.054-.677-.201-.789-.201s-.151.022.01.059c.388.088.515.196.657.216.138.019.284.172.289.064"/><path fill="#fff" d="m8.176 6.06c.008.078.039.073.128.059.182-.029.167-.079.029-.098s-.161-.01-.157.039"/><path fill="#fff" d="m8.686 6.295c-.049.025-.244.02-.348.01-.102-.01-.146-.034-.146.049s.068.088.211.054c.142-.035.244-.074.283-.113"/><path fill="#fff" d="m8.191 6.634c0 .112.034.137.215.054.22-.101.584-.167.652-.24.068-.074.01-.118-.107-.054-.118.064-.506.103-.569.146-.063.044-.19-.029-.19.094"/><path fill="#fff" d="m8.537 6.847c-.052.015-.199.045-.268.042-.098-.005-.135.068-.024.081.11.012.257-.049.315-.081.06-.032.069-.069-.023-.042"/><path fill="#fff" d="m8.265 7.105c-.075.047-.102.146.083.083.187-.064.295-.127.412-.143.117-.015.123-.068-.02-.059s-.398.068-.476.118"/><path fill="#fff" d="m8.27 7.345c-.092.042-.152.167.039.083.191-.083.417-.177.544-.172.128.005.216.035.294-.059.079-.093.079-.112-.034-.098-.112.015-.226.015-.377.073-.152.059-.412.147-.466.172"/><path fill="#fff" d="m8.932 7.522c-.069.021-.068.064.054.059s.151-.039.117-.064c-.034-.024-.122-.01-.171.006"/><path fill="#fff" d="m7.774 7.678c0-.107-.26-.103-.344-.156-.083-.055-.151-.035-.064.043.088.079.226.133.289.133.064 0 .118.029.118-.019"/><path fill="#fff" d="m8.27 7.85c-.055 0-.068.054-.005.073s.127-.024.171-.049c.045-.024.05-.064-.01-.044-.059.019-.107.019-.156.019"/><path fill="#fff" d="m7.686 8.134c-.104 0-.269-.01-.367-.049s-.25 0-.084.068c.167.069.358.143.446.143.133 0 .123-.162.005-.162"/><path fill="#fff" d="m8.289 8.188c-.098-.024-.107.068-.01.089.098.02.206-.06.279-.06.074 0 .084-.093-.024-.068s-.167.059-.245.039"/><path fill="#fff" d="m7.695 8.457c-.067.016-.117.016-.171 0-.054-.015-.186.016-.064.084.122.068.287.138.299.039.015-.123 0-.138-.064-.123"/><path fill="#fff" d="m8.216 8.486c0 .069.044.123.107.108s.108-.01.172.01.144-.036.083-.068c-.143-.079-.299 0-.362-.05"/><path fill="#fff" d="m6.639 8.605c.003-.042-.047-.076-.098-.091-.086-.024-.14-.063-.098-.002.041.06.19.164.195.093"/></g></g></switch></svg>