<svg xmlns="http://www.w3.org/2000/svg" viewBox="0 0 16 12" enable-background="new 0 0 16 12"><switch><g><path fill="#262d62" d="m0 0h16v12h-16z"/><g><path fill="#fff" d="m0 0h9v6h-9z"/><path fill="#dc2f34" d="m0 3h9v1h-9z"/><path fill="#dc2f34" d="m4 0h1v6h-1z"/><path fill="#dc2f34" d="m0 0h1v1h-1z"/><path fill="#dc2f34" d="m1 1h1v1h-1z"/><path fill="#dc2f34" d="m2 2h1v1h-1z"/><path fill="#dc2f34" d="m7 4h1v1h-1z"/><path fill="#dc2f34" d="m8 5h1v1h-1z"/><path fill="#262d62" d="m6 5h1v1h-1z"/><path fill="#262d62" d="m2 5h1v1h-1z"/><path fill="#262d62" d="m6 0h1v1h-1z"/><path fill="#262d62" d="m2 0h1v1h-1z"/><path fill="#dc2f34" d="m0 5h1v1h-1z"/><path fill="#dc2f34" d="m1 4h1v1h-1z"/><path fill="#dc2f34" d="m8 0h1v1h-1z"/><path fill="#dc2f34" d="m7 1h1v1h-1z"/><path fill="#dc2f34" d="m6 2h1v1h-1z"/></g><path fill="#fff" d="m12 10.355c-1.298 0-2.355-1.057-2.355-2.355 0-1.298 1.057-2.355 2.355-2.355s2.355 1.056 2.355 2.355c0 1.298-1.057 2.355-2.355 2.355m0-4c-.907 0-1.646.738-1.646 1.646s.738 1.646 1.646 1.646 1.646-.738 1.646-1.646-.738-1.646-1.646-1.646"/></g></switch></svg>