<svg xmlns="http://www.w3.org/2000/svg" viewBox="0 0 16 12" enable-background="new 0 0 16 12"><switch><g><g><path fill="#ffe01b" d="m0 0h16v12h-16z"/><path fill="#006a53" d="m1 1h1v10h-1z"/><path fill="#f5822b" d="m2 1h1v10h-1z"/><path fill="#aa273e" d="m4 1h11v10h-11z"/><g><path fill="#ffe01b" d="m10.207 5.32c.263-.056.702.072 1.043-.035.306-.095.644.056.908-.056.127-.053.399-.067.414-.398.011-.247-.2-.41-.645-.297-.443.112-.869.112-1.127-.062-.259-.174-.288.113-.259.213-.229-.207-.161-.398-.073-.516-.507-.646.093-1.168.625-1.168.521 0 .762.197 1.171.545.12.102.378.423.464.365-.088-.222.194-.348.261-.087.051.199-.091.368-.29.322-.313-.07-.279-.252-.625-.505.078.07-.024.244.176.328-.171.025-.361-.118-.415-.306-.024.213-.15.309-.303.281.215-.292.088-.517-.141-.601.19.298-.015.595-.283.595.215-.258.117-.505-.082-.617-.07-.039-.161-.045-.117.011.043.056.004.235-.088.269.004-.208-.257-.153-.309 0-.041.123-.033.238.112.342.102-.264.405-.208.401-.079-.255.051-.211.286-.102.398.004-.112.12-.213.19-.174-.049.292.313.281.575.247.264-.034.586-.157.878.011.294.169.391.731-.019 1 .409.549.233 1.133.059 1.706-.172.564.01.921.116.921.073 0 .113.027.088.119-.054.199-.263.184-.273.425-.011.241.229.355.126.472-.175 0-.195-.029-.245-.109-.038.07-.044.109-.129.109-.086 0-.126-.033-.154-.109-.043.085-.08.109-.149.109-.078 0-.095-.037-.116-.109-.045.074-.101.109-.185.109 0-.297.292-.354.395-.374.102-.023.127-.092.127-.165 0-.072-.004-.225-.016-.37-.013-.208-.231-.331-.445-.489-.054.116-.169.181-.08.333.065.112.199.077.214.017.088.269-.326.354-.194.716.046.125.036.19-.024.329-.135 0-.179-.01-.239-.094-.039.076-.042.108-.146.108-.093 0-.101-.069-.119-.123-.035.065-.037.108-.135.108-.085 0-.093-.029-.127-.108-.059.088-.126.112-.202.108 0-.213.139-.335.295-.313.155.023.229-.03.258-.139.03-.105-.023-.207 0-.398.051-.387-.49-.674-.39-1.146-.56 0-.968.432-1.315.517-.067.142-.133.262-.169.337-.117.241.137.303.269.263-.039.195-.173.31-.298.339-.125.027-.127.101-.082.2.043.102.029.169-.076.343-.209 0-.213-.05-.234-.092-.033.03-.049.092-.146.092-.119 0-.121-.021-.165-.092-.047.06-.052.092-.145.092s-.099-.023-.128-.092c-.039.057-.063.092-.175.092.104-.724.474-.1.683-.55.09-.19-.027-.459-.109-.773-.146-.072-.281-.163-.383-.255-.366.579-.552.089-.668-.027-.129-.129-.178.008-.156.088-.076-.098-.11-.162-.083-.369.026-.207-.069-.247-.264-.275-.195-.027-.2-.319-.21-.589-.01-.269.356-.19.39-.151.185.212.435.488.602.699-.143-.561.135-1.17.587-1.454.155-.099.183-.214.106-.273-.054-.043-.158.083-.134.16-.151-.086-.101-.21-.164-.269.013.059-.034.152-.017.208-.024-.07-.1-.048-.129-.202-.084.075-.169.093-.252.079.106-.05.057-.135.098-.16-.125.087-.263.031-.326.079.095-.079.045-.309.166-.424-.047-.034-.079-.073-.093-.118-.031-.094-.002-.168.166-.054.176.121.43.219.693.231-.089-.158-.204-.226-.227-.396-.034.082-.034.143-.01.217-.033-.079-.131-.057-.196-.208.023.062 0 .124.03.177-.203-.082-.15-.174-.308-.32-.192-.18-.114-.25-.161-.34-.042-.082-.051-.294.132-.331.15-.03.232.19.146.281.065-.063.199-.016.297-.076.139-.087.235.067.387-.168.054-.084-.031-.144-.007-.2.015.079.28-.08.396.098.105.163.168-.084.088-.216.074.087.233-.009.375.284-.005-.076.1-.146.055-.261.146.048.255.119.294.193.057.106.234.07.306-.137.023.193-.039.331-.176.499.141.157.124.405.1.551.026.121-.026.353-.01.439-.004-.025-.023-.049-.052-.078-.021.211.102.291.057.445.01-.042-.043-.091-.112-.146-.021.155.056.328.122.339-.016.006-.031.011-.046.015.009.025.021.047.035.068"/><g><path fill="#ffe01b" d="m7.131 6.687c.022-.063.127-.085.15-.153.037.143-.028.15-.057.225-.011.027-.086.114-.144.036-.012-.017.032-.058.051-.107"/><path fill="#ffe01b" d="m6.95 6.544c.138.064.201.086.183.192-.019.118-.135.064-.206.032-.069-.032-.192-.05-.185-.189.005-.088.117-.078.208-.036"/><path fill="#ffe01b" d="m7.131 6.898c.022-.064.127-.086.15-.153.037.143-.028.149-.057.225-.011.027-.086.114-.144.035-.012-.016.032-.057.051-.106"/><path fill="#ffe01b" d="m6.95 6.754c.138.064.201.086.183.193-.019.117-.135.064-.206.032-.069-.032-.238-.028-.227-.226.008-.132.159-.041.25 0"/><path fill="#ffe01b" d="m7.131 7.107c.022-.063.127-.085.15-.153.037.144-.028.15-.057.226-.011.027-.086.114-.144.035-.012-.016.032-.057.051-.107"/><path fill="#ffe01b" d="m6.95 6.965c.138.064.201.086.183.193-.019.117-.135.064-.206.032-.069-.032-.18-.008-.175-.189.003-.088.107-.078.198-.036"/><path fill="#ffe01b" d="m7.131 7.301c.022-.063.127-.086.15-.153.037.143-.028.149-.057.225-.011.027-.086.114-.144.036-.012-.017.032-.058.051-.107"/><path fill="#ffe01b" d="m6.95 7.176c.138.064.201.086.183.193-.019.117-.135.064-.206.031-.069-.031-.146-.046-.146-.175 0-.088.078-.092.169-.05"/></g></g></g><path fill="#ffe01b" d="m5 2h1v1h-1z"/><path fill="#ffe01b" d="m13 2h1v1h-1z"/><path fill="#ffe01b" d="m13 9h1v1h-1z"/><path fill="#ffe01b" d="m5 9h1v1h-1z"/><path fill="#ffe01b" d="m6 3h1v4h-1z"/><path fill="#ffe01b" d="m8 5h5v3h-5z"/><path fill="#ffe01b" d="m8 8h1v1h-1z"/></g></switch></svg>