<svg xmlns="http://www.w3.org/2000/svg" viewBox="0 0 16 12" enable-background="new 0 0 16 12"><switch><g><path fill="#0060a9" d="m0 0h16v12h-16z"/><g><ellipse fill="#0060a9" cx="8" cy="6" rx="3.166" ry="3.292"/><path fill="#fff" d="m8 10c-2.137 0-3.874-1.795-3.874-4 0-2.206 1.738-4 3.874-4s3.875 1.794 3.875 4c0 2.205-1.738 4-3.875 4m0-6.583c-1.355 0-2.457 1.159-2.457 2.583 0 1.424 1.103 2.582 2.457 2.582 1.355 0 2.457-1.158 2.457-2.582 0-1.424-1.102-2.583-2.457-2.583"/></g><path fill="#babcbe" d="m7 6h2v3h-2z"/><path fill="#f7946c" d="m5 2h1v1h-1z"/><path fill="#f7946c" d="m9 2h1v1h-1z"/><path fill="#f0492f" d="m4 8h1v1h-1z"/><path fill="#d55862" d="m10 9h1v1h-1z"/><path fill="#82bb7a" d="m11 8h1v1h-1z"/></g></switch></svg>