<?xml version="1.0" encoding="utf-8"?>
<!-- Generator: Adobe Illustrator 18.0.0, SVG Export Plug-In . SVG Version: 6.00 Build 0)  -->
<!DOCTYPE svg PUBLIC "-//W3C//DTD SVG 1.1//EN" "http://www.w3.org/Graphics/SVG/1.1/DTD/svg11.dtd">
<svg version="1.1" id="Layer_1" xmlns="http://www.w3.org/2000/svg" xmlns:xlink="http://www.w3.org/1999/xlink" x="0px" y="0px"
	 viewBox="0 0 56 56" enable-background="new 0 0 56 56" xml:space="preserve">
<path opacity="0.4" fill="#FFFFFF" enable-background="new    " d="M45.9,36.1c-0.2,0-0.3,0-0.5,0H14.6c-0.1,0-0.3,0-0.4,0
	c-1.3,0-2.4-1.1-2.4-2.4c0-1.3,1.1-2.4,2.4-2.4c1.1,0,2.1,0.8,2.3,1.9l1.4-0.7c-0.5-0.7-0.7-1.5-0.7-2.4c0-2.4,2-4.4,4.4-4.4
	c1.2,0,2.4,0.5,3.2,1.4c0-0.2,0-0.5,0-0.7c0-4.5,3.6-8.1,8.1-8.1s8.1,3.6,8.1,8.1c0,1.5-0.4,2.9-1.1,4l1.8,0.8
	c0.3-2.1,2.1-3.7,4.3-3.7c2.4,0,4.3,1.9,4.3,4.3C50.2,34.2,48.3,36.1,45.9,36.1z"/>
<path fill="#FFFFFF" d="M10.6,17.6l-6.7-1.8l-0.4,1.6l6.7,1.8C10.2,18.6,10.4,18.1,10.6,17.6z"/>
<path fill="#FFFFFF" d="M14.1,12.4L9.1,7.5L8,8.6l4.9,4.9C13.2,13.1,13.6,12.7,14.1,12.4z"/>
<path fill="#FFFFFF" d="M31,13.6l5-5l-1.2-1.2l-5,5C30.3,12.8,30.6,13.2,31,13.6z"/>
<path fill="#FFFFFF" d="M25.7,10.1l1.7-6.4l-1.6-0.4l-1.7,6.4C24.6,9.8,25.2,9.9,25.7,10.1z"/>
<path fill="#FFFFFF" d="M19.7,9.7l-1.8-6.7l-1.6,0.4l1.8,6.7C18.6,9.9,19.1,9.8,19.7,9.7z"/>
<path fill="#FFFFFF" d="M10.2,23.8l-6.7,1.8l0.4,1.6l6.7-1.8C10.4,24.9,10.3,24.3,10.2,23.8z"/>
<path fill="#FFFFFF" d="M15.9,18c1.9-3.3,6.2-4.5,9.5-2.6c0.1,0.1,0.2,0.2,0.4,0.2c0.8-0.5,1.6-1,2.5-1.3c-0.5-0.4-1-0.8-1.6-1.1
	c-4.5-2.6-10.4-1.1-13,3.5c-1.7,2.9-1.6,6.4-0.2,9.2c0.4-0.9,1-1.7,1.7-2.3C14.7,21.8,14.9,19.8,15.9,18z"/>
<path fill="#FFFFFF" d="M45.9,24.4c-0.7,0-1.3,0.1-2,0.3c-0.8-5.4-5.4-9.6-11-9.6c-4.9,0-9,3.1-10.6,7.5c-0.2,0-0.4,0-0.7,0
	c-3.5,0-6.4,2.4-7.2,5.7l-0.2,0c-3.1,0-5.5,2.5-5.5,5.5c0,3,2.4,5.5,5.5,5.5l0,0h31.5l0,0l0.2,0c4.1,0,7.5-3.3,7.5-7.5
	C53.3,27.7,50,24.4,45.9,24.4z M45.9,36.1c-0.2,0-0.3,0-0.5,0H14.6c-0.1,0-0.3,0-0.4,0c-1.3,0-2.4-1.1-2.4-2.4s1.1-2.4,2.4-2.4
	c1.1,0,2.1,0.8,2.3,1.9l1.4-0.7c-0.5-0.7-0.7-1.5-0.7-2.4c0-2.4,2-4.4,4.4-4.4c1.2,0,2.4,0.5,3.2,1.4c0-0.2,0-0.5,0-0.7
	c0-4.5,3.6-8.1,8.1-8.1s8.1,3.6,8.1,8.1c0,1.5-0.4,2.9-1.1,4l1.8,0.8c0.3-2.1,2.1-3.7,4.3-3.7c2.4,0,4.3,1.9,4.3,4.3
	S48.3,36.1,45.9,36.1z"/>
<path fill="#FFFFFF" d="M29.6,46.8c-1.6-0.7-3.4-0.1-4.2,1.5c-0.7,1.6-0.1,3.4,1.5,4.2c1.6,0.7,3.4,0.1,4.2-1.5
	C31.8,49.4,31.1,47.5,29.6,46.8z"/>
<path fill="#FFFFFF" d="M31.4,42.7l0,6.7l-5.2-2.2L31.4,42.7z"/>
</svg>
