<svg xmlns="http://www.w3.org/2000/svg" viewBox="0 0 16 12" enable-background="new 0 0 16 12"><switch><g><path fill="#008348" d="m0 0h16v12h-16z"/><path fill="#fff" d="m0 9h16v1h-16z"/><path fill="#fff" d="m0 6h16v1h-16z"/><path fill="#fff" d="m0 3h16v1h-16z"/><path fill="#ed1c2e" d="m0 0h9v7h-9z"/><path fill="#fff" d="m1 4h1v1h-1z"/><path fill="#fff" d="m5 2h1v1h-1z"/><path fill="#fff" d="m6 3h1v1h-1z"/><path fill="#fff" d="m3 2h1v1h-1z"/><path fill="#fff" d="m2 3h1v1h-1z"/><path fill="#fff" d="m4 1h1v1h-1z"/><path fill="#fff" d="m7 4h1v1h-1z"/><path fill="#fff" d="m4 4h1v2h-1z"/></g></switch></svg>