<svg xmlns="http://www.w3.org/2000/svg" viewBox="0 0 16 12" enable-background="new 0 0 16 12"><switch><g><path fill="#fff" fill-rule="evenodd" d="m0 0h16v12h-16v-12"/><path fill="#24b34b" fill-rule="evenodd" d="m0 5.931h16v6.069h-16v-6.069"/><path fill="#ed1c24" stroke="#000" fill-rule="evenodd" stroke-linejoin="round" stroke-linecap="round" stroke-width=".057" d="m2.417 6.071c-.232.247-.26.595-.44.87-.005-.159-.009-.314-.058-.467.117-.195.216-.4.305-.609-.216-.342-.11-.788-.311-1.136.139 0 .231-.065.304-.181-.01.196.029.475.2.603.054-.25.12-.508-.019-.746.147.019.27.002.381-.104-.093.271.022.513-.032.785.039-.175.237-.279.22-.467.033.121.107.226.239.247-.094.154-.218.283-.358.395-.205.164.029.455.09.693.076.295.058.305.329.466.231.138.458.294.625.508.005 0 .065-.643.059-.665-.029-.107-.008-.256.078-.334.101-.093.014-.232.06-.389.045-.151.166-.169.157-.311-.01-.149.088-.393.262-.41-.03-.15.033-.398.194-.461-.036-.203.037-.405.213-.519-.257-.11-.381.154-.466.357-.094-.059-.161-.166-.155-.279-.085.169-.188.384-.188.578-.136-.228-.277-.687.039-.757.292-.066.564-.231.866-.248-.007-.272-.366-.54-.609-.382-.318.207-.605.333-.768-.131-.186-.099-.669 0-.886 0 .371-.287.888-.431 1.348-.476.217-.022.252-.193.526-.218.29-.026.578.022.863.065-.029-.313.539-.451.738-.578.079.1-.009.234-.019.338.159-.03.291-.118.407-.227.112.088.029.207-.023.299-.093.164.045.123.095.224.047.094-.253.165-.317.223-.077.068-.087.177-.143.26.224.05.513.234.562.474-.105-.066-.234-.138-.362-.143-.156-.006-.077.143-.077.246.244.064.404.309.498.526-.201-.181-.343-.028-.498-.124-.037.164-.08.241.064.313.185.093.324.295.408.479-.18-.157-.463-.031-.594-.163-.042.134-.132.269.015.328.168.067.301.195.406.341-.179-.082-.51.043-.452.225.087.273.251.273.523.191.804-.242.581-1.032.868-1.655.628-.963 2.01-1.263 2.91-1.889-.06.273-.266.971.231.922.681-.067 1.38-.453 2.026-.655-.309.394-1.566 1.101-.472 1.401-.749.26-1.646 1.029-.822 1.765-.405-.059-.706.1-1.062.26.787.159 1.536.669 2.31.201-.527.116-1.326-.301-.988-.932.306-.571 1.166-.541 1.577-.1.102-.168.115-.408.097-.598-.225.059-.449.153-.685.091.498-.487.94-1.029 1.326-1.609-.025.691.019 1.411.266 2.063-.195-.132-.403-.275-.512-.493-.029.301-.235.703-.154.968.107.353-.056.75-.26 1.035-.352.49-1.09.738-1.668.794.428.306.966.401 1.325.81-.164-.086-.321-.197-.505-.239.074.571-.039 1.02-.182 1.565-.185.707.696.44.797.882-.238-.126-.359.005-.578-.041-.185-.038-.329-.201-.471-.313-.255-.199-.285.066-.525.188-.227.115-.488.117-.723.211.039-.074.029-.142-.032-.202.163 0 .317-.054.472-.099-.014-.133-.678-.065-.801-.083.128-.043.012-.222-.014-.285.211.038.426.179.646.123-.156-.114-.346-.179-.531-.227.08-.071.09-.185.078-.285.203.154.412.324.664.387.234.057.31-.294.451-.465.334-.409.031-.999-.461-1.09-.512-.081-1.095.03-1.553-.271-.32-.211-.816-.359-1.016-.729-.044.151-.145.29-.285.364.164.097.156.253.316.332.143.07.258.207.36.32.062.065.095.142.1.23.1.029.198.062.295.099.233.089.472.208.644.394 0-.125-.379-.068-.445-.043-.131.145-.275.275-.434.389-.313.225-.654.475-1.016.616.191.12.424.149.645.162-.08.031-.168.13-.102.22-.383-.216-.699-.283-1.137-.234-.162.019-.345.049-.5.1-.211.067-.266-.057-.493-.065.06-.231.729-.031.828-.255-.292.036-.593.036-.885.007.042-.105-.032-.172-.11-.227.271-.073.524.169.796.104-.16-.138-.365-.219-.57-.26.13-.049.101-.207.078-.312.216.226.441.444.754.38.186-.039.309.031.489-.048.194-.086.371-.217.51-.378-.151-.217-.606-.17-.816-.35-.416-.354-.06-.463.047-.811-.368-.017-.757.129-1.101.239-.187.061-.373.124-.558.188-.341.116-.189.184-.32.477-.083-.176-.197-.203-.127-.381.152-.39-.285.005-.358.136-.248.444-.582.818-.931 1.185.178.154.519.122.644.278.022.027.288.271.269.286-.031.024-.391-.131-.435-.139-.238-.044-.458-.146-.609-.342-.071.355-.944.245-1.17.422.035-.117-.031-.141-.11-.199.063 0 .77-.066.698-.188-.078-.132-.788-.077-.847.063.006-.123-.044-.215-.123-.305.248.045.498.085.75.104-.172-.166-.418-.211-.648-.227.126-.029.259-.1.259-.248.183.158.48.409.728.348.33-.084.277-.432.605-.489-.051-.206.079-.285.071-.454-.008-.179.148-.075.072-.26-.042-.102.056-.199.115-.266-.177.131-.41.163-.608.058.08.278-.203.687-.472.754.344-.519-.228-.886-.526-1.271-.328-.425-.542-.895-.664-1.417zm10.577-.746c.089-.423-.64-.398-.848-.201-.229.419.639.502.848.201zm-2.219 4.705c.182.23-.144.115-.246.207.037-.118.121-.194.246-.207zm-.355-.435c.229.252-.197.168-.324.259.047-.157.156-.254.324-.259zm.207-.409c.139.278-.27.176-.389.194.109-.104.232-.188.389-.194zm-3.83-.227c.042.088.03.168-.033.24-.119-.099-.29-.123-.439-.097.126-.106.309-.155.472-.144zm-.278.48c.064.039.088.096.072.169-.122-.043-.258-.024-.369.038.063-.119.16-.195.297-.207zm.201.473c.105.002.203.03.292.086-.155-.011-.298.018-.44.078.01-.09.059-.145.149-.164zm-3.733 0c.076.028.102.084.077.17-.167-.037-.29 0-.44.078.077-.148.203-.216.362-.248zm-.213-.193c-.166-.076-.32-.074-.485.006.115-.262.654-.303.485-.006zm.285-.674c-.11.299-.361.144-.576.277.138-.184.351-.266.576-.277zm-.039-4.46c.006.129.084.189.194.234.077-.246-.006-.484-.214-.637.063.128.068.269.019.403zm-.277-.298c.008-.246-.243-.339-.447-.363.195.085.281.259.148.441.109.014.208-.011.298-.078zm-.563.24c-.008-.229-.308-.246-.472-.221.178.06.282.158.226.351.086.055.198-.088.246-.13zm2.304-1.356c.122-.034.305.087.252.228-.068.182-.499.233-.656.255-.276.039-.557.033-.833.004-.11-.012-.22-.027-.329-.046-.067.128-.014.235.071.338-.413-.261-.796-.615-.938-1.098.204.204.728.341 1.01.332-.131.494 1.194.109 1.424-.014z" stroke-miterlimit="2.613"/></g></switch></svg>