<svg xmlns="http://www.w3.org/2000/svg" viewBox="0 0 16 12" enable-background="new 0 0 16 12"><switch><g><path fill="#233168" d="m0 0h16v12h-16z"/><g><path fill="#fff" d="m0 0h9v6h-9z"/><path fill="#e03a3e" d="m0 3h9v1h-9z"/><path fill="#e03a3e" d="m4 0h1v6h-1z"/><path fill="#e03a3e" d="m0 0h1v1h-1z"/><path fill="#e03a3e" d="m1 1h1v1h-1z"/><path fill="#e03a3e" d="m2 2h1v1h-1z"/><path fill="#e03a3e" d="m7 4h1v1h-1z"/><path fill="#e03a3e" d="m8 5h1v1h-1z"/><path fill="#233168" d="m6 5h1v1h-1z"/><path fill="#233168" d="m2 5h1v1h-1z"/><path fill="#233168" d="m6 0h1v1h-1z"/><path fill="#233168" d="m2 0h1v1h-1z"/><path fill="#e03a3e" d="m0 5h1v1h-1z"/><path fill="#e03a3e" d="m1 4h1v1h-1z"/><path fill="#e03a3e" d="m8 0h1v1h-1z"/><path fill="#e03a3e" d="m7 1h1v1h-1z"/><path fill="#e03a3e" d="m6 2h1v1h-1z"/></g><path fill="#fff" d="m10 4h4v4h-4z"/><path fill="#0d74bb" d="m10 8h4v1h-4z"/><path fill="#0d74bb" d="m11 9h2v1h-2z"/><path fill="#e7742a" d="m11 5h2v2h-2z"/></g></switch></svg>