<svg xmlns="http://www.w3.org/2000/svg" viewBox="0 0 16 12" enable-background="new 0 0 16 12"><switch><g><g><g><path fill="#009a66" d="m0 0h16v12h-16z"/><g><path fill="#fff" d="m3.799 3.375c.063-.174.066-.323-.004-.268-.059.048-.095-.001-.05-.056.06-.073.141-.098.154.036.011.101-.062.226-.101.288"/><path fill="#fff" d="m4.316 4.313c.019.216.076.621.08.76.002.14.022.101.059.023.037-.078.027-.164.021-.276-.008-.119-.016-.32-.038-.587.043-.039.09-.096.108-.135.045-.091.056-.081.075-.009.04.144.183.238.374.1.177-.127.104-.391.021-.678.069.013.089-.042.052-.113-.021-.042-.055-.082-.084-.117s-.063-.065-.091-.029-.056.067-.073.089-.017.047.008.106c.068.168.119.35.132.45s-.022.12-.087.121c-.065.002-.158-.016-.193-.159s-.05-.213-.044-.307c.005-.094.015-.16-.053-.255-.067-.096-.074-.083-.091-.031-.017.055-.037.129-.016.218.031.133.051.251.067.326.013.054-.039.168-.122.227-.015-.177-.046-.418-.061-.613.107-.031.048-.17-.031-.32-.061-.116-.088-.07-.129.002-.042.073-.012.106.021.163-.023.051.014.123.031.252.012.086.027.328.043.536-.084 0-.131-.054-.162-.127-.064-.15-.047-.292-.017-.378.03-.087.058-.229.007-.264-.051-.035-.114.007-.156.073-.07.109-.141.262-.147.428-.002.061-.023.191-.051.239-.028.047-.067.054-.111-.018-.071-.114-.092-.404-.088-.552.003-.074-.019-.089-.042-.002-.077.289.013.598.077.73.064.132.152.101.213-.005.09-.16.053-.307.135-.543.052-.15.064-.037.049.053-.041.239-.027.626.313.621"/><path fill="#fff" d="m4.573 3.053c-.018.049-.007.11.023.148.029.038.089.041.119.008.033-.035.034-.042.061.005.021.037.079.029.096-.008.017-.035.034-.063.016-.104-.018-.041-.021-.027-.031.021-.016.075-.086.055-.088-.037s-.019-.046-.047.018c-.039.089-.097.068-.097-.01 0-.063-.023-.121-.052-.041"/><path fill="#fff" d="m3.596 4.857c.172-.207.398-.316.508-.35.076-.023.111-.052.113.016.001.068-.002.071-.064.088-.139.039-.425.183-.521.257-.048.037-.106.073-.036-.011"/><path fill="#fff" d="m3.72 5.24c.011.057.006.097.007.126 0 .04-.022.084-.037.138-.07.254.037.381.096.286.06-.095.086-.081.083-.009-.009.26-.253.276-.272.064-.03-.341.047-.394.072-.513.016-.076.043-.138.052-.091"/><path fill="#fff" d="m4.988 4.721c-.025.009-.049.017-.069.023-.103.034-.125-.01-.119-.076.006-.065.017-.086.085-.056.029.013.068.054.104.108l.162-.062c-.027-.065-.071-.119-.141-.186-.108-.104-.193-.109-.283.021-.089.127-.083.155-.076.271.008.115-.016.154.071.186s.124.019.178.001c.041-.013.099-.033.162-.056.012.063.005.125-.033.172-.218.268-.564.46-.715.282-.081-.096-.117-.247-.093-.427.021-.147-.026-.082-.043-.028-.055.174-.07.427.002.553.102.177.265.254.521.138.258-.116.508-.319.497-.602-.002-.052-.005-.097-.008-.137.028-.011.069-.043.096-.056.006.096-.003.215.001.315.012.303-.104.395-.214.481-.151.12-.354.198-.531.224-.409.06-.508-.203-.501-.554.001-.059.021-.09.021-.174-.003-.149-.022-.123-.067.027-.043.146-.098.482.043.758.14.276.627.198 1 .017s.416-.523.399-.864c-.004-.09-.01-.186-.016-.288.012-.009.021-.017.028-.024.052.172.302.127.381.027.04-.05.041-.058.081-.002.055.076.238.104.283-.007.046-.112.038-.219.026-.305-.011-.086-.029-.079-.087-.035-.057.044-.011.055-.004.115.026.224-.172.208-.195-.027-.014-.143-.037-.088-.058-.022-.085.279-.328.333-.304.008.008-.091-.051-.064-.087-.027-.025.026-.052.051-.08.073-.018-.263-.04-.566-.066-.924.07.088.14-.014.091-.114-.037-.077-.092-.254-.126-.351s-.052-.067-.126.014c-.074.081-.059.102-.028.184-.008.106.009.207.032.418.018.15.064.461.091.854-.038.021-.09.055-.126.071l-.162.062"/><path fill="#fff" d="m5.846 5.141c.013.045.008.139-.011.183-.022.054 0 .078.036.009.037-.071.057-.153.043-.237-.01-.064-.009-.079-.064-.104-.056-.025-.074.014-.095.062-.024.058.01.127.091.087"/><path fill="#fff" d="m6.01 3.821c-.069.093-.127.22-.026.304.056.045.169-.011.21-.102.042-.091.025-.107-.047-.024-.099.114-.201.011-.097-.146.072-.109.033-.13-.04-.032"/><path fill="#fff" d="m6.165 3.288c.013-.026.022-.053.031-.08.011-.035-.023-.068-.047-.013-.017.037-.023.067.016.093l-.067.113c-.076-.063-.079-.162-.047-.248.068-.182.311-.16.247.078-.011.04-.025.084-.048.132.031.05.016.109-.053.095-.084.127-.229.265-.492.383-.117.053-.137.01-.048-.046.175-.11.336-.248.44-.395l.067-.113"/><path fill="#fff" d="m6.441 3.313c-.097.267-.092.527.104.747.115.128.201.067.252-.067.051-.135.084-.269.122-.356s.067-.069.058.013c-.018.166-.024.437.144.538s.426-.074.512-.253c.274.362.513.191.54-.153.009-.108-.042-.344-.072-.412s-.009-.072.031-.033c.041.039.117.066.078-.052-.038-.118-.09-.182-.152-.234s-.076-.024-.101.017c-.024.04-.019.052-.054.085s-.028.051-.001.119c.102.261.204.646.036.682-.147.032-.244-.29-.25-.438-.007-.191-.028-.353-.066-.457-.039-.103-.055-.121-.085-.063-.021.041-.027.069-.052.113-.023.044-.002.056.016.136.092.423.083.612-.109.724s-.294.003-.297-.13-.005-.292.011-.411c.015-.12.041-.142 0-.202-.041-.061-.074-.041-.132.038-.12.166-.239.447-.279.583-.041.135-.13.087-.186-.027-.065-.133-.058-.381-.036-.478s.01-.14-.029-.029"/><path fill="#fff" d="m7.253 3.078c-.038.044-.042.05-.003.1.033.042.088.179.073.313-.008.065.007.123.033.015s.019-.26-.012-.35c-.03-.089-.064-.11-.092-.077"/><path fill="#fff" d="m8.126 4.633c.043-.011.087-.022.131-.032.128-.029.057-.04-.031-.096-.087-.056-.121-.055-.115.007.004.036.003.072.016.12l-.157.045c-.102-.149-.036-.258.041-.37.099-.142.253-.097.434.029s.107.324-.063.424c-.046.027-.102.05-.162.072.013.045-.008.057-.065.022-.153.052-.361.132-.502.206.174.016.893-.001 1.037-.014.144-.013.12.012.08.133-.041.121-.089.109-.214.131-.191.033-.469.115-.674.201-.205.086-.134.233.074.31.164.044.144.062.116.156s-.025.116-.222.084c-.483-.077-.661-.345-.737-.554-.305.427-.594.658-.87.588-.138-.035-.206-.157-.219-.317-.19.093-.413.169-.698.257-.066.021-.121-.009-.034-.052.192-.095.495-.259.74-.428.023-.113.075-.259.132-.369.032-.064.047-.04.049.013 0 .043-.013.15-.01.229.048-.036.106-.077.136-.104.167-.153.354-.245.227-.489-.056-.104-.096-.181-.116-.233-.106-.041-.074-.1-.027-.201.045-.102.064-.127.162-.013.139.16.154.232.059.22.152.386.115.582-.117.815-.111.111-.225.199-.353.274-.013.104.027.204.222.175.248-.037.532-.368.652-.621-.053-.21-.174-.585-.247-.777-.038-.1 0-.139.032-.217.031-.078.055-.126.096-.021.04.105.171.362.234.668.064.307.051.571.208.717.07.065.161.103.256.128-.069-.206.078-.358.28-.433-.121-.112-.311-.096-.518-.105-.159-.007-.137-.023-.097-.163s.091-.158.206-.204c.152-.061.309-.12.471-.169l.157-.045"/><path fill="#fff" d="m7.428 4.388c-.013.082.008.137.037.177.03.04.091.035.108-.01.021-.056.031-.063.069-.021.041.045.18.008.111-.201-.028-.086-.043-.068-.042.031.001.148-.047.147-.1.005-.021-.055-.045-.056-.048.016-.006.139-.063.156-.096.021-.016-.064-.027-.107-.041-.018"/><path fill="#fff" d="m9.207 3.079c-.025.045-.042.083.008.12.047.035.119.128.089.241-.023.084-.002.147.052.025.056-.123.012-.275-.043-.371-.049-.084-.078-.064-.105-.016"/><path fill="#fff" d="m9.655 5.269c-.051-.269-.296-.702-.663-1.267-.012-.147-.02-.289-.02-.413.052.057.091.023.071-.052-.037-.141-.092-.256-.153-.411-.026-.068-.091-.083-.126.014-.04.112-.044.138.009.212-.003.089.023.231.034.362-.063-.094-.148-.216-.216-.316.102.041.163.011.074-.088-.088-.099-.215-.202-.294-.272-.078-.071-.116-.026-.104.041.011.067.012.115.008.168-.003.053.011.087.091.118.154.207.313.419.457.631.02.183.054.38.072.542.044.381.118.881.058 1.099-.045.161.004.232.078-.015.073-.247.065-.478.021-.845-.018-.146-.025-.325-.044-.493.252.393.479.763.581 1.019.055.138.104.168.066-.034"/><path fill="#fff" d="m9.255 3.756c.021.07.056.108.07.02.013-.077.036-.102.05-.018.014.084.063.071.077-.006.016-.077.043-.123.055-.035s.003.118-.007.144c-.009.026-.052.059-.091.021s-.054-.037-.084-.008c-.063.062-.09.018-.101-.065-.008-.072.018-.099.03-.054"/><path fill="#fff" d="m8.288 5.795c.063-.036.093-.063.139-.086.047-.022.083-.017.049.089-.037.116-.021.154.057.125.071-.027.114-.053.179-.08.053-.021.112-.025.029.043-.066.056-.162.125-.217.138-.121.031-.18-.018-.157-.112.023-.094.043-.127-.03-.097-.086.034-.08-.002-.048-.021"/><path fill="#fff" d="m9.795 3.502c.045.042.102.046.071-.044-.03-.091-.052-.201-.083-.301s-.051-.124-.088-.075-.07.069-.099.103-.034.1.001.157c.129.909.137 1.31.154 1.645.019.335.065.492-.143.718-.229.25-.37.307-.469.333-.128.034-.173.088.016.078.286-.016.323-.026.557-.293.129-.147.194-.335.185-.782-.018-.778-.121-1.118-.104-1.539"/><path fill="#fff" d="m10.209 3.531c.083.046.17.068.105-.031s-.116-.262-.157-.381c-.041-.12-.05-.113-.115-.012-.102.156-.015.304.01.487.086.642.169 1.297.191 1.469.025.194.056.319.005.532-.015.064.011.084.051.006.166-.32.053-.598.034-.779-.027-.273-.122-1.01-.144-1.302"/><path fill="#fff" d="m10.625 4.02c-.014.055-.09.055-.083-.005.006-.06.001-.052 0-.1-.001-.048.056-.076.088-.033.032.042.095.171.115.221.021.05.032.039.03-.032-.002-.079-.015-.15-.009-.2.005-.031.021-.068.06-.097.04-.03.062-.038.08.015.018.053.053.058.035.101-.024.06-.083-.063-.114.021-.023.06-.005.231-.006.287-.002.055-.025.137-.069.042-.027-.059-.074-.163-.128-.219"/><path fill="#fff" d="m10.605 4.755c-.003-.037.016-.052.091-.112.058-.045.224-.168.28-.222.057-.054.099-.103.107-.036.009.067.021.093-.047.125-.066.033-.239.138-.297.183-.057.044-.133.109-.135.063"/><path fill="#fff" d="m12.245 5.235c-.007-.089-.032-.168-.142-.331-.104-.157-.205-.302-.301-.438-.031-.362-.071-.748-.074-.95.052.046.087.002.063-.077-.023-.079-.071-.29-.104-.376-.035-.086-.07-.067-.115.009-.046.077-.074.113-.047.174.014.346.065.684.117.993-.096-.134-.185-.258-.27-.374-.008-.133-.016-.267-.023-.399.055.042.076.035.049-.048-.026-.082-.092-.254-.122-.333s-.051-.081-.092-.017c-.065.101-.083.17-.028.265.008.089.016.174.023.257-.051-.073-.098-.144-.142-.211.054.028.096-.022.037-.073-.059-.052-.171-.146-.221-.211-.049-.066-.102-.065-.101-.003.001.058.007.115-.001.164-.009.048-.009.097.06.181.141.169.273.343.396.508.051.596.08.981.068 1.224-.006.142-.058.225-.134.25s-.154-.026-.229-.134c-.13-.19-.179-.155-.278.011-.098.16-.167.292-.218.403-.051.111-.135.205-.21.062s-.084-.306-.081-.421c.002-.115-.015-.206-.059-.022-.105.444-.044.537.076.638.151.127.199.139.279.027.154-.214.198-.408.287-.516.069-.084.075-.018.106.022.089.114.172.155.297.176s.354-.085.335-.502c-.011-.253-.033-.596-.056-.965.121.169.229.321.315.438.039.242.065.457.054.63-.013.202.028.201.069-.006.017-.082.012-.255-.003-.465.161.214.257.355.323.462.074.121.111.229.093-.023"/><path fill="#fff" d="m11.9 3.249c-.035.055-.031.069.01.137.041.067.08.2.078.305-.001.104.035.089.055-.005s.012-.271-.041-.399c-.054-.128-.074-.081-.102-.037"/><path fill="#fff" d="m12.387 3.437c.066.063.102.041.057-.059-.045-.1-.091-.208-.137-.307-.045-.1-.059-.078-.115-.005-.056.073-.063.124-.039.167.113.956.165 1.453.181 1.741.023.418-.076.655-.484.926-.136.089-.284.193.031.115s.651-.288.616-1.16c-.03-.778-.132-1.122-.109-1.418"/><path fill="#fff" d="m11.545 5.722c-.023.061-.146.014-.098-.056.037-.053.125-.061.162-.014.092.114-.045.268-.109.312-.063.045-.113.043-.019-.039.06-.052.101-.15.063-.203"/><path fill="#fff" d="m4.639 8.443c1.994.023 4.373.049 6.399.006.22-.004.313.027.332.219.017.162-.032.294-.146.301-.093.007-.197-.107-.139-.3-2.553.076-4.447.084-5.04.074-.595-.009-1.211.015-1.405-.3"/><path fill="#fff" d="m10.79 8.833c-.001-.033-.048-.054-.068-.054-.021.001-.066.023-.065.057l-.275.006c-.009-.018-.024-.038-.051-.067l-.008-.391c.073-.091.065-.101.009-.18-.026-.038-.046-.08-.097.002-.052.081-.06.091.017.18l.008.391c-.073.091-.063.101-.009.18.055.08.072.037.098-.002.01-.016.018-.028.024-.04l.285-.006c.001.033.048.055.068.054.021 0 .066-.023.065-.058l.412-.008-.002-.072-.411.009"/></g></g><path fill="#d1d1d1" d="m4.5 8.5h7v.5h-7z"/><path fill="#d1d1d1" d="m10 8h.5v.5h-.5z"/></g><path fill="#c4c4c4" d="m4 8h8v1h-8z"/></g></switch></svg>