<svg xmlns="http://www.w3.org/2000/svg" viewBox="0 0 16 12"><path fill="#003976" d="M0 0h16v12H0z"/><circle fill="#fff" cx="12.867" cy="2.289" r=".689"/><circle fill="#fff" cx="12.79" cy="9.106" r=".747"/><circle fill="#fff" cx="4.425" cy="9.106" r="1.292"/><circle fill="#fff" cx="10.883" cy="4.891" r=".583"/><circle fill="#fff" cx="14.739" cy="4.595" r=".686"/><circle fill="#fff" cx="13.628" cy="6.187" r=".467"/><path d="M0 2.045h1.853L0 .747V0h1.06l2.591 1.805V0h1.46v1.805L7.702 0h1.069v.746L6.909 2.045h1.862v2.047H6.909L8.771 5.39v.746H7.702L5.111 4.332v1.805H3.65V4.332L1.06 6.137H0v-.746l1.853-1.3H0z" fill="#fff"/><g fill="#e03a3e"><path d="M8.08.001L5.152 2.047h.701L8.769 0zm.69 6.136L5.853 4.092h.703l2.216 1.557zm-5.837-4.09L0 0v.49l2.226 1.557zm-.006 2.045L0 6.137h.7l2.928-2.045z"/><path d="M0 2.47h3.962V0h.858v2.47h3.95v1.198H4.82v2.469h-.858V3.668H0z"/></g></svg>