<svg xmlns="http://www.w3.org/2000/svg" viewBox="0 0 16 12" enable-background="new 0 0 16 12"><switch><g><path fill="#ed1c2e" d="m0 0h16v12h-16z"/><path fill="#ffe252" d="m1.946 2.055h2.772v2.772h-2.772z" transform="matrix(.70711.70711-.70711.70711 3.409-1.348)"/><path fill="#ffe252" d="m6.24.652h1.292v1.292h-1.292z" transform="matrix(.70711.70711-.70711.70711 2.935-4.489)"/><path fill="#ffe252" d="m7.781 2.1h1.292v1.292h-1.292z" transform="matrix(.70711.70711-.70711.70711 4.41-5.154)"/><path fill="#ffe252" d="m7.78 4.44h1.292v1.292h-1.292z" transform="matrix(.70711.70711-.70711.70711 6.06-4.468)"/><path fill="#ffe252" d="m6.439 5.963h1.293v1.292h-1.293z" transform="matrix(.70654.70767-.70767.70654 6.757-3.075)"/></g></switch></svg>