<svg xmlns="http://www.w3.org/2000/svg" viewBox="0 0 16 12" enable-background="new 0 0 16 12"><switch><g><path fill="#fff" d="m0 0h16v12h-16z"/><path fill="#0060a9" d="m10.513 7.635c-.869 1.41-2.763 1.783-4.151.879s-1.781-2.762-.877-4.151c-.866 1.402.996 3.194 2.514 1.637 1.518-1.559 3.379.232 2.515 1.636"/><path fill="#ed1c2e" d="m5.483 4.363c.869-1.411 2.763-1.783 4.151-.879s1.781 2.762.878 4.151c.865-1.401-.997-3.194-2.515-1.636-1.518 1.558-3.379-.233-2.515-1.636"/><g><path fill="#474747" d="m3.423 4.751l-1.648-1.117 1.648-2.488 1.665 1.109z"/><path fill="#474747" d="m12.568 10.887l-1.649-1.117 1.649-2.488 1.664 1.109z"/><path fill="#474747" d="m12.584 4.751l1.648-1.117-1.648-2.488-1.664 1.109z"/><path fill="#474747" d="m3.422 10.818l1.648-1.117-1.648-2.488-1.664 1.109z"/></g></g></switch></svg>