<?xml version="1.0" encoding="utf-8"?>
<!-- Generator: Adobe Illustrator 18.0.0, SVG Export Plug-In . SVG Version: 6.00 Build 0)  -->
<!DOCTYPE svg PUBLIC "-//W3C//DTD SVG 1.1//EN" "http://www.w3.org/Graphics/SVG/1.1/DTD/svg11.dtd">
<svg version="1.1" id="Layer_1" xmlns="http://www.w3.org/2000/svg" xmlns:xlink="http://www.w3.org/1999/xlink" x="0px" y="0px"
	 viewBox="0 0 56 56" enable-background="new 0 0 56 56" xml:space="preserve">
<path fill="#FFFFFF" d="M13.4,12.7L8.5,7.8L7.4,8.9l4.9,4.9C12.6,13.4,13,13,13.4,12.7z"/>
<path fill="#FFFFFF" d="M9.9,17.8l-6.7-1.8l-0.4,1.6l6.7,1.8C9.6,18.9,9.8,18.4,9.9,17.8z"/>
<path fill="#FFFFFF" d="M19.1,9.9l-1.8-6.7l-1.6,0.4l1.8,6.7C18,10.2,18.5,10,19.1,9.9z"/>
<path fill="#FFFFFF" d="M25.1,10.3l1.7-6.4l-1.6-0.4l-1.7,6.5C24,10,24.6,10.2,25.1,10.3z"/>
<path fill="#FFFFFF" d="M30.4,13.9l5-5l-1.2-1.2l-5,5C29.7,13.1,30,13.5,30.4,13.9z"/>
<path fill="#FFFFFF" d="M9.5,24.1l-6.7,1.8l0.4,1.6l6.7-1.8C9.8,25.1,9.7,24.6,9.5,24.1z"/>
<path fill="#FFFFFF" d="M14.7,23.8c-0.6-1.8-0.4-3.8,0.6-5.6c1.9-3.3,6.2-4.5,9.5-2.6c0.1,0.1,0.2,0.1,0.3,0.2
	c0.8-0.5,1.6-0.9,2.5-1.3c-0.5-0.4-1-0.8-1.6-1.1c-4.5-2.6-10.4-1.1-13,3.5c-1.7,2.9-1.6,6.4-0.2,9.2C13.4,25.3,14,24.5,14.7,23.8z"
	/>
<path fill="#FFFFFF" d="M45.3,24.6c-0.7,0-1.3,0.1-2,0.3c-0.8-5.4-5.4-9.6-11-9.6c-4.9,0-9,3.1-10.6,7.5c-0.2,0-0.4,0-0.7,0
	c-3.5,0-6.4,2.4-7.2,5.7l-0.2,0C10.5,28.5,8,30.9,8,34c0,3,2.4,5.6,5.5,5.6l0,0.1H45l0-0.1l0.2,0c4.1,0,7.5-3.4,7.5-7.5
	S49.4,24.6,45.3,24.6z M45.3,36.4l-0.5,0H14l-0.4,0c-1.3,0-2.4-1.1-2.4-2.4s1.1-2.4,2.4-2.4c1.1,0,2.1,0.8,2.3,1.9l1.4-0.7
	c-0.5-0.7-0.7-1.5-0.7-2.4c0-2.4,2-4.4,4.4-4.4c1.2,0,2.4,0.5,3.2,1.4c0-0.2,0-0.5,0-0.7c0-4.5,3.6-8.1,8.1-8.1s8.1,3.6,8.1,8.1
	c0,1.5-0.4,2.9-1.1,4l1.8,0.8c0.3-2.1,2.1-3.7,4.3-3.7c2.4,0,4.3,2,4.3,4.4S47.7,36.4,45.3,36.4z"/>
<path fill="#FFFFFF" d="M44.3,45.4L44,44l-2.8,0.8l0.8-2.8l-1.3-0.4l-0.8,2.8l-2.1-2.1l-1,1l2.1,2.1L36,46.2l0.4,1.3l2.8-0.8
	l-0.8,2.8l1.3,0.4l0.8-2.8l2.1,2.1l1-1l-2.1-2.1L44.3,45.4z"/>
<path fill="#FFFFFF" d="M23,44l-2.8,0.8L21,42l-1.3-0.4l-0.8,2.8l-2.1-2.1l-1,1l2.1,2.1L15,46.2l0.4,1.3l2.8-0.8l-0.8,2.8l1.3,0.4
	l0.8-2.8l2.1,2.1l1-1l-2.1-2.1l2.8-0.8L23,44z"/>
<path fill="#FFFFFF" d="M33.5,47.2l-2.8,0.8l0.8-2.8l-1.3-0.4l-0.8,2.8l-2.1-2.1l-1,1l2.1,2.1l-2.8,0.8l0.4,1.3l2.8-0.8l-0.8,2.8
	l1.3,0.4l0.8-2.8l2.1,2.1l1-1L31,49.3l2.8-0.8L33.5,47.2z"/>
<path opacity="0.4" fill="#FFFFFF" enable-background="new    " d="M45.3,36.4l-0.5,0H14l-0.4,0c-1.3,0-2.4-1.1-2.4-2.4
	s1.1-2.4,2.4-2.4c1.1,0,2.1,0.8,2.3,1.9l1.4-0.7c-0.5-0.7-0.7-1.5-0.7-2.4c0-2.4,2-4.4,4.4-4.4c1.2,0,2.4,0.5,3.2,1.4
	c0-0.2,0-0.5,0-0.7c0-4.5,3.6-8.1,8.1-8.1s8.1,3.6,8.1,8.1c0,1.5-0.4,2.9-1.1,4l1.8,0.8c0.3-2.1,2.1-3.7,4.3-3.7
	c2.4,0,4.3,2,4.3,4.4S47.7,36.4,45.3,36.4z"/>
</svg>
