<svg xmlns="http://www.w3.org/2000/svg" viewBox="0 0 16 12" enable-background="new 0 0 16 12"><switch><g><g><path fill="#fff" d="m0 4h16v4h-16z"/><g><path fill="#53b7e8" fill-rule="evenodd" d="m0 12h16v-12h-16v12"/><path fill="#fff" fill-rule="evenodd" d="m0 8.09h16v-4.184h-16v4.184"/></g></g><circle fill="#ffcb05" cx="8" cy="6" r="1.828"/><path d="m8 7.9c-1.047 0-1.899-.852-1.899-1.899 0-1.047.853-1.899 1.899-1.899s1.899.852 1.899 1.899c0 1.047-.852 1.899-1.899 1.899m0-3.656c-.969 0-1.757.789-1.757 1.757s.788 1.756 1.757 1.756 1.757-.788 1.757-1.756-.788-1.757-1.757-1.757"/></g></switch></svg>