<svg xmlns="http://www.w3.org/2000/svg" viewBox="0 0 16 12" enable-background="new 0 0 16 12"><switch><g><g><path fill="#03795f" d="m0 0h16v12h-16z"/><path fill="#fff" d="m8 3.84c-.431.372-.703.922-.703 1.535 0 .417.126.805.342 1.127-.265-.343-.423-.773-.423-1.239 0-.311.069-.604.194-.867-.086-.091-.151-.201-.189-.324-.167.294-.263.635-.263.998 0 .451.148.868.397 1.205-.435-.455-1.047-.739-1.726-.739-.036 0-.072.001-.108.003.068.064.126.139.169.222.675.001 1.283.283 1.717.735-.414-.346-.946-.554-1.527-.554-.324 0-.634.065-.916.183.29.766 1.03 1.311 1.898 1.311.057 0 .112-.003.167-.007-.117.021-.237.031-.36.031-.548 0-1.044-.217-1.409-.569-.076.029-.157.048-.242.053.372.421.915.686 1.519.686.575 0 1.094-.239 1.463-.624.369.385.888.624 1.463.624.604 0 1.148-.265 1.52-.686-.085-.005-.166-.023-.242-.053-.365.353-.861.569-1.409.569-.123 0-.243-.011-.36-.031.055.004.11.007.167.007.867 0 1.607-.545 1.897-1.312-.282-.117-.592-.183-.916-.183-.581 0-1.113.208-1.527.554.434-.452 1.042-.734 1.717-.735.043-.083.101-.159.169-.222-.036-.002-.072-.003-.108-.003-.679 0-1.291.284-1.726.739.249-.337.398-.754.398-1.205 0-.363-.096-.703-.263-.998-.037.123-.102.233-.188.324.125.263.194.557.194.867 0 .467-.158.896-.423 1.239.216-.322.342-.71.342-1.127 0-.613-.273-1.163-.703-1.535m0 3.383c-.364.348-.857.561-1.4.561h-1.578c.047.068.096.136.146.2h1.525c.498 0 .953-.18 1.307-.477.354.297.809.477 1.307.477h1.525c.051-.064.1-.132.146-.2h-1.578c-.543 0-1.036-.214-1.4-.561m-2.657.968c.031.034.064.067.095.101h5.125c.031-.033.063-.066.095-.101h-5.315m.317.307c.064.054.128.106.195.156h2.146 2.146c.067-.05.132-.102.195-.156h-2.341-2.341m.423.313c.117.073.237.14.361.2h1.557 1.557c.124-.06.244-.127.361-.2h-1.918-1.918m.59.3c.411.163.859.253 1.328.253s.917-.09 1.328-.253h-1.328-1.328"/></g><path fill="#fad119" d="m5 4h1v1h-1z"/><path fill="#fad119" d="m6 3h1v1h-1z"/><path fill="#fad119" d="m9 3h1v1h-1z"/><path fill="#fad119" d="m10 4h1v1h-1z"/><path fill="#fad119" d="m8 2h1v1h-1z"/></g></switch></svg>