<?xml version="1.0" encoding="utf-8"?>
<!-- Generator: Adobe Illustrator 18.0.0, SVG Export Plug-In . SVG Version: 6.00 Build 0)  -->
<!DOCTYPE svg PUBLIC "-//W3C//DTD SVG 1.1//EN" "http://www.w3.org/Graphics/SVG/1.1/DTD/svg11.dtd">
<svg version="1.1" id="Layer_1" xmlns="http://www.w3.org/2000/svg" xmlns:xlink="http://www.w3.org/1999/xlink" x="0px" y="0px"
	 viewBox="0 0 56 56" enable-background="new 0 0 56 56" xml:space="preserve">
<path opacity="0.4" fill="#FFFFFF" enable-background="new    " d="M25.4,27.4H11.3c-0.2,0-0.4,0.1-0.6,0.1c-1.4,0-2.5-1.1-2.5-2.5
	c0-1.4,1.1-2.5,2.5-2.5c1.2,0,2.2,0.9,2.5,2l1.3-0.6c-0.4-0.7-0.6-1.4-0.6-2.2c0-2.4,2-4.4,4.4-4.4c1.3,0,2.4,0.5,3.2,1.4
	c0-0.3,0-0.5,0-0.8c0-4.5,3.6-8.1,8.1-8.1s8.1,3.6,8.1,8.1c0,1.4-0.4,2.7-1,3.9l1.6,0.8c0.3-2.1,2.1-3.7,4.3-3.7
	c2.4,0,4.4,2,4.4,4.4s-2,4.4-4.4,4.4c-0.2,0-0.3,0-0.5-0.1H31.7"/>
<path fill="#FFFFFF" d="M40,36.1c-1.6-0.7-3.4-0.1-4.2,1.5c-0.7,1.6-0.1,3.4,1.5,4.2c1.6,0.7,3.4,0.1,4.2-1.5
	C42.2,38.7,41.6,36.8,40,36.1z"/>
<path fill="#FFFFFF" d="M41.8,32l0,6.7l-5.2-2.2L41.8,32z"/>
<path fill="#FFFFFF" d="M32.1,22.5L20,36.6l6.8,0.5l-5.7,12l12-14.1l-6.5-0.6C26.6,34.4,32.1,22.5,32.1,22.5z"/>
<path fill="#FFFFFF" d="M25.2,30.6"/>
<path fill="#FFFFFF" d="M25.4,27.4H11.3c-0.2,0-0.4,0.1-0.6,0.1c-1.4,0-2.5-1.1-2.5-2.5c0-1.4,1.1-2.5,2.5-2.5c1.2,0,2.2,0.9,2.5,2
	l1.3-0.6c-0.4-0.7-0.6-1.4-0.6-2.2c0-2.4,2-4.4,4.4-4.4c1.3,0,2.4,0.5,3.2,1.4c0-0.3,0-0.5,0-0.8c0-4.5,3.6-8.1,8.1-8.1
	s8.1,3.6,8.1,8.1c0,1.4-0.4,2.7-1,3.9l1.6,0.8c0.3-2.1,2.1-3.7,4.3-3.7c2.4,0,4.4,2,4.4,4.4s-2,4.4-4.4,4.4c-0.2,0-0.3,0-0.5-0.1
	H31.7c0,0-0.1,0.5-0.5,1.5l-0.7,1.7h11.9l0,0l0.2,0c4.1,0,7.5-3.4,7.5-7.5c0-4.1-3.4-7.5-7.5-7.5c-0.7,0-1.4,0.1-2,0.3
	c-0.9-5.3-5.5-9.3-11.1-9.3c-4.9,0-9.1,3.2-10.6,7.6c-0.2,0-0.4,0-0.7,0c-3.4,0-6.3,2.3-7.2,5.4l-0.3,0c-3.1,0-5.6,2.5-5.6,5.6
	c0,3.1,2.5,5.5,5.5,5.6l0,0h11.9l2.3-2.6"/>
<path fill="#FFFFFF" d="M16.6,38.7L16.6,38.7l0-6.7l-5.2,4.5l0,0c-0.3,0.3-0.6,0.6-0.8,1c-0.7,1.5-0.1,3.4,1.5,4.1
	c1.5,0.7,3.4,0.1,4.1-1.4C16.6,39.7,16.6,39.2,16.6,38.7z"/>
</svg>
