<?xml version="1.0" encoding="utf-8"?>
<!-- Generator: Adobe Illustrator 18.0.0, SVG Export Plug-In . SVG Version: 6.00 Build 0)  -->
<!DOCTYPE svg PUBLIC "-//W3C//DTD SVG 1.1//EN" "http://www.w3.org/Graphics/SVG/1.1/DTD/svg11.dtd">
<svg version="1.1" id="Layer_1" xmlns="http://www.w3.org/2000/svg" xmlns:xlink="http://www.w3.org/1999/xlink" x="0px" y="0px"
	 viewBox="0 0 56 56" enable-background="new 0 0 56 56" xml:space="preserve">
<path fill="#FFFFFF" d="M26.8,15.3h4.3c-0.8-0.4-1.6-0.7-2.4-0.9c-1.8-0.5-3.7-0.6-5.5-0.3c0.3,0.1,0.7,0.1,1,0.2
	C25.2,14.5,26,14.9,26.8,15.3z"/>
<path fill="#FFFFFF" d="M31.8,20.5h5c-1-1.6-2.2-3-3.7-4.1h-4.5C30,17.6,31.1,19,31.8,20.5z"/>
<path fill="#FFFFFF" d="M38.7,25.8c-0.2-1.4-0.6-2.8-1.2-4.1h-5.1c0.5,1.3,0.7,2.7,0.7,4.1H38.7z"/>
<path fill="#FFFFFF" d="M38.4,31c0.4-1.4,0.5-2.7,0.4-4.1h-5.8c-0.1,0.6-0.2,1.2-0.3,1.8c-0.2,0.8-0.5,1.5-0.8,2.2
	C31.8,31,38.4,31,38.4,31z"/>
<path fill="#FFFFFF" d="M15.8,36.2c-0.8-0.4-1.6-0.9-2.3-1.5c0.3,0.5,0.7,1,1.1,1.5H15.8z"/>
<path fill="#FFFFFF" d="M35.7,36.2c1-1.2,1.8-2.5,2.3-4.1h-6.9c-1.1,1.7-2.7,3.1-4.5,4.1C26.6,36.2,35.7,36.2,35.7,36.2z"/>
<path fill="#FFFFFF" d="M22.9,37.4c-1.1,0.2-2.3,0.2-3.4,0h-3.8c1.6,1.6,3.6,2.7,5.9,3.4c4.8,1.3,9.7-0.2,13-3.4
	C34.6,37.4,22.9,37.4,22.9,37.4z"/>
<path fill="#FFFFFF" d="M7.9,47.8h27.5c0.5,0,1,0.4,1,1s-0.4,1-1,1H7.9c-0.5,0-1-0.4-1-1S7.3,47.8,7.9,47.8z"/>
<path fill="#FFFFFF" d="M11.1,42.6h31.5c0.7,0,1.2,0.4,1.2,1s-0.6,1-1.2,1H11.1c-0.7,0-1.2-0.4-1.2-1S10.4,42.6,11.1,42.6z"/>
<path fill="#FFFFFF" d="M9.5,37.3h37.9c0.7,0,1.4,0.4,1.4,1s-0.6,1-1.4,1H9.5c-0.7,0-1.4-0.4-1.4-1S8.7,37.3,9.5,37.3z"/>
<path fill="#FFFFFF" d="M7.2,32.1h42.1c0.8,0,1.5,0.4,1.5,1s-0.7,1-1.5,1H7.2c-0.8,0-1.5-0.4-1.5-1S6.3,32.1,7.2,32.1z"/>
<path fill="#FFFFFF" d="M8.2,21.6h40.2c0.8,0,1.5,0.4,1.5,1c0,0.5-0.7,1-1.5,1H8.2c-0.8,0-1.5-0.4-1.5-1C6.7,22,7.4,21.6,8.2,21.6z"
	/>
<path fill="#FFFFFF" d="M10.3,16.4h36.2c0.8,0,1.4,0.4,1.4,1c0,0.5-0.6,1-1.4,1H10.3c-0.8,0-1.4-0.4-1.4-1S9.6,16.4,10.3,16.4z"/>
<path fill="#FFFFFF" d="M15.1,11.2h29.5c0.6,0,1.2,0.4,1.2,1s-0.5,1-1.2,1H15.1c-0.6,0-1.2-0.4-1.2-1S14.5,11.2,15.1,11.2z"/>
<path fill="#FFFFFF" d="M23.5,5.9h25.3c0.5,0,0.9,0.4,0.9,1s-0.4,1-0.9,1H23.5c-0.5,0-0.9-0.4-0.9-1S23,5.9,23.5,5.9z"/>
<path fill="#FFFFFF" d="M7.2,26.9h42.1c0.8,0,1.5,0.4,1.5,1c0,0.5-0.7,1-1.5,1H7.2c-0.8,0-1.5-0.4-1.5-1S6.3,26.9,7.2,26.9z"/>
</svg>
