<svg xmlns="http://www.w3.org/2000/svg" viewBox="0 0 16 12" enable-background="new 0 0 16 12"><switch><g><g><path fill="#ffe01b" d="m0 8h16v2h-16z"/><path fill="#ffe01b" d="m0 2h16v2h-16z"/></g><g><path d="m0 0h16v2h-16z"/><path d="m0 6h16v2h-16z"/></g><g><path fill="#f15d2f" d="m0 4h16v2h-16z"/><path fill="#f15d2f" d="m0 10h16v2h-16z"/></g><g><circle fill="#fff" cx="8" cy="6" r="1.865"/><path fill="#f15d2f" d="m7.685 4.604l-.127-.245c.229-.159.685-.083.768.312l-.217.048-.424-.115"/><path fill="#ffe01b" d="m8.01 4.692l-.232-.063.021-.349c.138-.006.284.038.39.141l-.178.271"/><path d="m7.959 6.394c.099.321.003.407.051.602.036.147.025.376.023.491-.176-.022-.366.003-.452.082.089-.019.213-.013.293.004-.067.016-.141.099-.141.197.124-.131.398-.248.694-.201-.023-.051-.165-.104-.296-.086-.01-.082-.055-.33-.029-.449.035-.162-.013-.407.02-.493.031-.086.08-.141.083-.227"/><path d="m8.688 5.938c.486.162.402.484.274.535-.307.123-.775.047-1.172-.114-.172-.07-.396-.274-.345-.452.052-.179.414-.338.631-.229s.517.229.611.261"/><path d="m7.869 6.03c-.082.111-.057.394.093.471.13.066.197.121.255.217.057.096.076.16-.06.146-.335-.031-.717-.065-.828.042-.083.079-.083.181-.058.293.045-.058.013-.166.077-.204-.019.045-.014.137.031.191 0-.061.013-.207.055-.227.041.029.004.116.051.169.03-.05.001-.101.059-.154.053-.05.132-.078.298-.065.165.013.28.022.356.019.076-.004.105-.017.144 0 .038.016.073 0 .086-.025.013-.026.038-.07-.01-.118s-.142-.194-.076-.306c.045-.077.025-.189-.007-.236"/><path d="m7.407 4.912c.017.032.104.018.267-.011.003.028.078.066.046.106-.14.179-.325.375-.382.656-.032.156.016.366.159.494-.003-.049 0-.1-.007-.138.016.017.035.038.058.055.003-.019.016-.083.016-.099.025.013.058.021.086.035 0-.026-.013-.086-.019-.103.021.013.064.025.076.038-.01-.021-.038-.096-.051-.117.013.016.054.038.064.047-.016-.021-.019-.096-.025-.111.01.007.058.029.099.051-.016-.025-.022-.098-.028-.111.028.017.079.035.095.048-.019-.025 0-.069-.012-.083.028.01.086-.019.137.004-.042-.055-.106-.083-.118-.15-.037-.193.019-.432.121-.503.182-.127.21-.408-.054-.5-.155-.054-.354.064-.29.293-.185.032-.285.054-.276.115.012-.005.029-.014.04-.016"/><path fill="#bdc5c1" d="m7.854 5.639c-.043.17.031.427.356.548s.567.369.497.573c.051-.019.166-.169.096-.293.102.146-.012.376-.153.465-.051.032-.006.058.038.041-.038.017-.069.058-.035.058.035 0 .125-.038.16-.073-.025.025-.086.055-.055.083.032.028.086-.013.146-.073-.031.038-.079.099-.114.124s-.033.091.025.051c.149-.102.321-.251.356-.423.033-.16.102-.532-.306-.724-.407-.19-.604-.248-.726-.325-.121-.076-.256-.158-.287-.031"/><path fill="#fff" d="m8.669 5.98c-.089-.022-.338-.103-.446-.169-.107-.066-.238-.058-.229.051.009.108.254.144.312.252s.293.117.376.131c.083.012.351-.09-.013-.265"/><path fill="#f15d2f" d="m8.366 6.202c.086.054.172.077.271.214.078.108.104.244.07.344.051-.019.166-.169.096-.293.102.146-.012.376-.153.465-.051.032-.006.058.038.041-.038.017-.069.058-.035.058.035 0 .125-.038.16-.073-.025.025-.086.055-.055.083.032.028.086-.013.146-.073-.031.038-.079.099-.114.124s-.033.091.025.051c.149-.102.321-.251.356-.423.033-.16.108-.517-.306-.724-.07-.035-.265-.076-.309-.086.089.035.197.185.229.217-.058-.032-.249-.124-.303-.134.041.038.082.064.121.144-.067-.035-.211-.058-.249-.061.052.019.089.073.115.102-.063-.041-.187-.025-.105.025"/><path fill="#f15d2f" d="m7.674 4.901c-.065.043-.121.119-.082.18.04.061.146-.001.163-.044.035-.093-.083-.091-.081-.136"/><path fill="#bdc5c1" d="m7.78 5.063c-.2.232-.277.512-.283.693-.003.09.038.141.076.179.007-.022-.003-.086-.013-.108.016.016.054.029.07.045-.004-.022-.025-.083-.032-.092.013.016.056-.002.063.008-.007-.019-.021-.053-.027-.063.01.006.083.012.096.018-.01-.019-.045-.073-.045-.073.01.003.076.008.096.015-.038-.039-.144-.15.019-.57.028-.072.025-.103-.019-.051"/><path fill="#bdc5c1" d="m7.927 6.084c-.048.106-.019.236.007.277-.019-.048.133-.089.241.007-.044-.061-.235-.204-.248-.284"/><path fill="#fff" d="m7.766 4.734c-.05 0-.051.077 0 .077s.051-.077 0-.077"/><path fill="none" d="m7.407 4.912c.093-.036.19-.019.255-.059-.012-.012-.014-.021-.019-.04"/><path fill="#bdc5c1" d="m7.949 4.667c.028.108-.019.163-.076.182-.066.022-.063.112.031.096.159-.029.169-.175.09-.306-.021-.033-.059-.021-.045.028"/></g></g></switch></svg>