<svg xmlns="http://www.w3.org/2000/svg" viewBox="0 0 16 12" enable-background="new 0 0 16 12"><switch><g><path fill="#ed1c24" fill-rule="evenodd" d="m.001 12h16v-5.662h-16v5.662"/><path fill="#0072bc" fill-rule="evenodd" d="m.001 8.03h16v-4.02h-16v4.02"/><path fill="#0072bc" fill-rule="evenodd" d="m5.37.911c.689 0 1.699.177 2.425.531 0 0 0 0-.141 2.284-.071 1.31-.621 2.391-2.284 2.921-1.682-.53-2.213-1.611-2.302-2.921-.141-2.284-.141-2.284-.141-2.284.726-.354 1.735-.531 2.443-.531"/><path fill="#fff" fill-rule="evenodd" d="m3.138 4.283c.002.027-.072-.585-.07-.557.089 1.31.621 2.391 2.302 2.921 1.664-.53 2.212-1.611 2.285-2.921.002-.027-.076.637-.074.61l-2.22-1.414-2.223 1.361"/></g></switch></svg>