<svg xmlns="http://www.w3.org/2000/svg" viewBox="0 0 16 12" enable-background="new 0 0 16 12"><switch><g><path fill="#ed1c2e" d="m6.373 0h9.627v12h-9.627z"/><path fill="#24923c" d="m0 0h6.434v12h-6.434z"/><g><circle fill="#fff200" cx="6.433" cy="6.095" stroke="#000" r="2.99" stroke-width=".085"/><g><path fill="#ed1c2e" stroke="#000" stroke-width=".113" d="m4.664 6.498c0 2.196 3.367 2.331 3.535.139.039-.504.006-1.021.006-1.525 0-.211.141-.9-.121-.9-1.086 0-2.172 0-3.258 0-.324 0-.162.539-.162.805 0 .494 0 .988 0 1.482z"/><path fill="#fff" stroke="#000" stroke-width=".125" d="m5.662 6.235c0 1.01 1.418 1.131 1.543.115.019-.158.022-1.215-.014-1.215-.494 0-.988 0-1.482 0-.1 0-.047.946-.047 1.1z"/></g></g></g></switch></svg>