<svg xmlns="http://www.w3.org/2000/svg" viewBox="0 0 16 12" enable-background="new 0 0 16 12"><switch><g><g><path fill="#158341" d="m0 0h16v12h-16z"/><g><circle fill="#fade00" cx="3.5" cy="3.5" fill-rule="evenodd" r="2.5"/><path fill="#158341" fill-rule="evenodd" d="m2.575 2.766c.063-.119.001-.135-.098-.117-.12.022-.177.134-.281.224-.033-.171.016-.28.133-.353.276-.172.522-.058.761.102.029-.095-.042-.114-.096-.144-.106-.06-.211-.118-.317-.178-.039-.022-.086-.044-.069-.1.014-.049.063-.059.107-.064.312-.038.566.06.754.35.043-.06-.025-.229.127-.128.06.04.07-.023.079-.067.034-.188.129-.362.123-.561.09.03.052.114.094.178.128-.179.294-.245.506-.161-.064.1-.122.193-.181.285.053.041.082.006.112-.014.063-.04.146-.083.18-.002.019.046.004.134-.052.206-.072.092-.217.019-.258.164.032.029.143-.016.127.088-.012.078-.071.117-.119.168-.03.033-.098.069-.041.123.052.048.113-.003.127-.041.116-.318.369-.213.596-.2.008.092-.106.054-.134.149.003.031.256.13-.019.166-.034.004-.016.069.021.091.019.011.05.012.074.008.144-.022.295-.074.377.115.055.124.111.247.078.388-.004.018-.002.037-.005.079-.201-.228-.456-.006-.688-.15.035.147.123.199.204.235.147.067.11.163.057.26-.035.063-.075.118-.044.195.015.036.059.085-.015.107-.051.015-.106.005-.138-.043-.174-.26-.47-.408-.63-.682-.068-.079-.159-.088-.149.028.018.218-.085.409-.09.618-.129.058-.246-.027-.268-.195-.015-.111.014-.217.055-.318.026-.066.063-.127.002-.211-.147.141-.135.323-.143.495-.005.095.032.195-.106.225-.036.008-.039.05-.036.081.013.127-.056.132-.154.113-.11-.021-.115-.076-.065-.16.012-.021.018-.051.013-.074-.071-.298.165-.515.188-.783-.251.038-.516.076-.78.121-.039.006-.072.016-.108-.003-.131-.074-.225-.005-.327.073-.045.035-.107.252-.199.015-.02-.053-.11.073-.195.013.169-.184.384-.313.547-.498.04-.045.122-.057.182-.034.185.069.346.017.513-.086-.092-.076-.189-.096-.299-.068-.012-.01-.023-.019-.035-.029m1.016-.201c-.026-.042-.042-.095-.139-.121.044.074.07.118.097.162.037.097.082.188.225.248-.056-.134-.115-.215-.183-.289"/><path fill="#83331a" fill-rule="evenodd" d="m3.79 4.09c.005-.209.108-.4.09-.618-.01-.117.081-.107.149-.028-.027.415-.054.829-.082 1.243-.01.147-.028.294-.084.431-.035.088-.052.157.06.2.036.014.061.053.044.095-.017.041-.058.046-.097.046-.153.001-.307.002-.46 0-.041 0-.096.014-.112-.046-.012-.046.012-.083.042-.12.283-.35.383-.771.45-1.202"/></g></g><path fill="#fff200" d="m11 5h1v1h-1z"/><path fill="#fff200" d="m12 3h1v1h-1z"/><path fill="#fff200" d="m14 5h1v1h-1z"/><path fill="#fff200" d="m12 9h1v1h-1z"/><path fill="#fff200" d="m13 7h1v1h-1z"/><path fill="#fade00" d="m7 5h1v2h-1z"/><path fill="#fade00" d="m8 7h2v1h-2z"/><path fill="#fade00" d="m8 4h2v1h-2z"/></g></switch></svg>