<svg xmlns="http://www.w3.org/2000/svg" viewBox="0 0 16 12" enable-background="new 0 0 16 12"><switch><g><path fill="#ed1c24" d="m0 0h16v12h-16z"/><path fill="#034ea2" d="m1 1h14v10h-14z"/><path fill="#ed1c24" d="m0 5h16v1h-16z"/><path fill="#ed1c24" d="m8 0h1v12h-1z"/><path fill="#ed1c24" d="M12.75,6 8,9.167 3.25,6 8,2.8335z"/><path fill="#fff" d="M11.75,6.083 8,8.584 4.25,6.083 8,3.5835z"/><path fill="#0c8943" d="m9.625 5.88c-.08.034-.156.042-.225.017-.055-.021-.169-.038-.254-.038-.144 0-.194.038-.69.555l-.529.554-.443-.024c-.779-.043-.859-.064-1.032-.271-.144-.165-.17-.177-.36-.177-.182 0-.215.016-.296.131-.051.067-.118.117-.147.106-.068-.025-.148.055-.148.147 0 .051.144.148.444.309l.444.237 1.573.038 1.574.038.731-.385c.402-.216.729-.398.732-.41 0-.025-.745-.613-.99-.779-.182-.121-.207-.126-.385-.046"/><path fill="#fff200" d="m8 4l-.215.668h-.707l.574.415-.221.667.568-.414.568.414-.218-.672.571-.408h-.704z"/></g></switch></svg>