<?xml version="1.0" encoding="utf-8"?>
<!-- Generator: Adobe Illustrator 18.0.0, SVG Export Plug-In . SVG Version: 6.00 Build 0)  -->
<!DOCTYPE svg PUBLIC "-//W3C//DTD SVG 1.1//EN" "http://www.w3.org/Graphics/SVG/1.1/DTD/svg11.dtd">
<svg version="1.1" id="Layer_1" xmlns="http://www.w3.org/2000/svg" xmlns:xlink="http://www.w3.org/1999/xlink" x="0px" y="0px"
	 viewBox="0 0 56 56" enable-background="new 0 0 56 56" xml:space="preserve">
<path fill="#FFFFFF" d="M9.5,23.1c1.4,0.8,3,1.2,4.5,1.3c1.5-1.4,3.6-2.3,5.8-2.4c1.2-2.6,3.2-4.7,5.7-6c1.1-4.6-1-9.6-5.3-12
	c-0.9-0.5-1.9-0.9-2.8-1.1c4.6,2.8,6.3,8.8,3.6,13.6c-2.7,4.9-8.9,6.6-13.8,3.9C6.5,20,6,19.7,5.5,19.2C6.4,20.8,7.8,22.1,9.5,23.1z
	"/>
<path fill="#FFFFFF" d="M44.3,25.4c-0.7,0-1.3,0.1-2,0.3c-0.8-5.4-5.4-9.6-11-9.6c-4.9,0-9,3.1-10.6,7.5c-0.2,0-0.4,0-0.7,0
	c-3.5,0-6.4,2.4-7.2,5.7l-0.2,0c-3.1,0-5.5,2.5-5.5,5.5c0,3,2.4,5.5,5.5,5.5l0,0h31.5l0,0l0.2,0c4.1,0,7.5-3.3,7.5-7.5
	C51.8,28.7,48.5,25.4,44.3,25.4z M44.4,37.1c-0.2,0-0.3,0-0.5,0H13c-0.1,0-0.3,0-0.4,0c-1.3,0-2.4-1.1-2.4-2.4s1.1-2.4,2.4-2.4
	c1.1,0,2.1,0.8,2.3,1.9l1.4-0.7c-0.5-0.7-0.7-1.5-0.7-2.4c0-2.4,2-4.4,4.4-4.4c1.2,0,2.4,0.5,3.2,1.4c0-0.2,0-0.5,0-0.7
	c0-4.5,3.6-8.1,8.1-8.1s8.1,3.6,8.1,8.1c0,1.5-0.4,2.9-1.1,4l1.8,0.8c0.3-2.1,2.1-3.7,4.3-3.7c2.4,0,4.3,1.9,4.3,4.3
	S46.8,37.1,44.4,37.1z"/>
<path fill="#FFFFFF" d="M29.2,44.4l1.3,0.4l-2.1,8L27,52.4C27,52.4,29.2,44.4,29.2,44.4z"/>
<path fill="#FFFFFF" d="M32.6,46.9l0.4,1.3l-8,2.1L24.6,49L32.6,46.9z"/>
<path fill="#FFFFFF" d="M25.4,46.2l1-1l5.9,5.9l-1,1L25.4,46.2z"/>
<path opacity="0.4" fill="#FFFFFF" enable-background="new    " d="M44.4,37.1c-0.2,0-0.3,0-0.5,0H13.1c-0.1,0-0.3,0-0.4,0
	c-1.3,0-2.4-1.1-2.4-2.4s1.1-2.4,2.4-2.4c1.1,0,2.1,0.8,2.3,1.9l1.4-0.7c-0.5-0.7-0.7-1.5-0.7-2.4c0-2.4,2-4.4,4.4-4.4
	c1.2,0,2.4,0.5,3.2,1.4c0-0.2,0-0.5,0-0.7c0-4.5,3.6-8.1,8.1-8.1s8.1,3.6,8.1,8.1c0,1.5-0.4,2.9-1.1,4l1.8,0.8
	c0.3-2.1,2.1-3.7,4.3-3.7c2.4,0,4.3,1.9,4.3,4.3S46.8,37.1,44.4,37.1z"/>
</svg>
