<svg xmlns="http://www.w3.org/2000/svg" viewBox="0 0 16 12" enable-background="new 0 0 16 12"><path fill="#239e46" d="m0 0h16v12h-16z"/><path fill="#010202" d="m0 0h16v9h-16z"/><path fill="#e40d1a" d="m0 0h16v3h-16z"/><g fill="#fff"><path d="m8.437 4.939c-.586-.418-1.4-.282-1.818.304s-.282 1.4.304 1.818c.452.323 1.061.323 1.514 0-.586.586-1.536.586-2.121 0-.586-.586-.586-1.536 0-2.121.585-.586 1.535-.586 2.121-.001m-.332 1.061l2.02-.655-1.248 1.716v-2.122l1.248 1.716-2.02-.655z"/><path d="m6 5h1v2h-1z"/><path d="m7 4h1v1h-1z"/><path d="m7 7h1v1h-1z"/></g></svg>