<svg xmlns="http://www.w3.org/2000/svg" viewBox="0 0 16 12" enable-background="new 0 0 16 12"><switch><g><path fill="#fff" d="m0 0h16v12h-16z"/><path fill="#ed1c2e" d="m9.05 6l6.951 5.214v.786h-1.047l-6.952-5.214-6.953 5.214h-1.048v-.786l6.953-5.214-6.953-5.214v-.786h1.048l6.953 5.214 6.952-5.214h1.047v.786z"/><g><path fill="#ed1c2e" d="m8.894 1.365c.22.89.1 1.988-.893 2.598-.993-.61-1.113-1.709-.894-2.598.234-.213 1.297-.344 1.786 0"/><path fill="#fff200" d="m7.999 1.186c.364 0 .703.096.902.221.04-.307.179-.613.343-.846-.171-.003-.248.087-.25.182-.043-.122-.21-.114-.262-.048.188.127.043.352-.127.305-.079-.022-.121-.077-.137-.158.019-.001.037-.008.053-.02.039-.032.045-.09.013-.13-.032-.039-.09-.045-.129-.013-.04.032-.046.09-.014.129.011.013.023.022.038.028-.053.087-.149.114-.219.094-.089-.025-.126-.105-.126-.176 0-.186.179-.214.231-.182-.003-.125-.199-.225-.26-.121.067-.121.065-.293-.058-.407-.121.114-.124.286-.057.407-.061-.103-.257-.004-.261.121.054-.032.232-.003.232.182 0 .071-.038.151-.127.176-.068.019-.165-.007-.219-.094.015-.005.028-.015.039-.028.031-.04.025-.097-.014-.129-.04-.032-.098-.026-.13.013-.032.04-.026.098.014.13.015.012.033.019.052.02-.015.081-.057.136-.137.158-.17.046-.314-.178-.127-.305-.051-.066-.219-.073-.262.048-.002-.095-.078-.186-.25-.182.164.232.304.539.343.846.2-.125.538-.221.902-.221"/><path fill="#fff200" d="m7.272 1.731c-.028-.017-.047-.005-.059-.002.037.009.038.056.122.079-.019-.005-.029.005-.047-.004.034.027.073.059.155.06.045 0 .014.024-.016.01.03.032.092.006.13.064.008-.045-.072-.116-.035-.167-.113-.005-.122-.067-.188-.117-.053-.04-.058-.081-.081-.159-.011-.035-.052-.056-.074-.048-.019.007-.027.024-.01.037.017.013.039.015.043.047-.021-.026-.055-.036-.07-.02-.01.01-.006.034.015.036.034.003.009.037.048.069-.034-.039-.064-.042-.082-.021-.011.013 0 .035.023.033.034-.003.074.083.125.105"/><path fill="#fff200" d="m8.182 2.055c-.018.003-.013.032-.037.034.059 0 .088-.014.114-.036-.013.007-.018.026-.019.037.03-.026.102-.028.141-.021.037.007.044-.01.057-.035.014-.024-.005-.038-.023-.056-.019-.019-.023-.045-.019-.089-.101-.134-.28-.069-.282-.01.065.075.072.066.127.077s.088.011.051.04c-.012.011-.065.006-.105.007-.091.004-.133-.063-.16-.028-.021.028.001.041.047.04-.031 0-.073-.002-.066.028.012.049.059-.009.077.011-.016-.004-.04.006-.041.021s.035.034.074.003c.021-.017.049-.023.065-.023"/><path fill="#fff200" d="m8.754 2.059c-.021.005-.021.033-.033.033.057-.001.085-.017.102-.046-.012.012-.001.034-.006.039.043-.014.063-.05.048-.074.009.014.036.021.045.022-.029-.023-.009-.075-.056-.103.016-.001.046.017.055.038-.008-.047-.015-.078-.054-.104.005.005.026.009.036 0-.025-.016-.033-.042-.031-.059.004-.023-.012-.028-.041-.021-.027.007-.087.011-.123.011-.073 0-.137 0-.197-.042.091.038.207-.042.207-.107 0-.074-.09-.133-.273-.094-.182.04-.403.023-.403-.038 0-.061.158-.069.24-.056s.141.02.293-.034c-.037.015-.159.019-.255-.008-.097-.027-.333-.027-.335.101-.002.127.252.116.471.083.128-.019.194-.006.194.036 0 .04-.117.057-.207.046-.09-.01-.183-.008-.289.023-.089.026-.15 0-.249.017-.047.008-.163 0-.221-.094-.034.025-.141.078-.158.129-.025.047-.008.094.025.14.042.058-.021.049-.066.051-.061.003-.144-.006-.188-.055-.037-.044-.088-.078-.129-.046-.021.017-.001.039.016.032s.035.006.053.014c-.027-.012-.059-.002-.07.008-.017.015.004.043.023.033.016-.008.048-.013.069.006-.022-.004-.046-.003-.058.009-.012.012-.003.03.021.028.039-.002.049.026.088.02-.023.003-.037.016-.043.025.036-.017.076.028.124.018-.019.007-.048.025-.048.04.028-.033.217.025.222-.046.005.015.004.037-.011.056.024-.015.103-.02.127-.076.002.017-.001.039-.016.044.025.008.059-.011.092-.061.014-.02.017-.033.015-.048.033.002.058-.007.084-.029.026-.023.057.019.103-.011.046-.029.086-.004.111-.019.024-.015.059.005.086-.012.027-.017.07.008.115-.027.07.026.153.074.356.037.116-.021.152.018.152.071 0 .037-.021.04-.037.041-.065.004-.093-.024-.118-.016-.018.006-.027.034-.003.044-.021.01-.018.03-.008.037.011.007.038.001.056-.008-.023.011-.047.03-.033.05.008.012.029.022.049-.003.021-.026.057-.048.08-.044"/><g><path fill="#fff200" d="m7.465 1.506c-.059-.024-.078-.024-.064.023.006.02.019.049.034.063 0-.02.008-.075.03-.085"/><path fill="#fff200" d="m7.648 1.506c.059-.024.078-.024.064.023-.006.02-.019.049-.033.063-.001-.02-.008-.075-.031-.085"/><path fill="#fff200" d="m7.557 1.474c.111 0 .125.052.125.117-.001.07-.039.046-.061.136-.008.035-.035.037-.064.037-.027 0-.056-.002-.064-.037-.021-.09-.059-.066-.06-.136 0-.065.014-.117.124-.117"/></g><path fill="#fff200" d="m7.321 2.496c-.026-.015-.042-.004-.053-.002.033.008.034.051.11.07-.018-.004-.027.005-.043-.003.031.024.066.053.14.054.041.001.013.022-.015.009.028.029.083.005.118.057.007-.04-.065-.104-.032-.15-.102-.004-.109-.06-.168-.106-.048-.037-.053-.073-.073-.143-.01-.031-.046-.051-.067-.043-.018.006-.023.022-.008.034.015.011.034.013.038.042-.019-.023-.05-.032-.064-.017-.009.009-.006.03.014.032.03.003.008.033.043.062-.031-.034-.058-.038-.074-.019-.01.011 0 .031.021.029.031-.003.066.075.112.094"/><path fill="#fff200" d="m8.141 2.787c-.016.003-.012.029-.033.031.052 0 .078-.012.102-.032-.011.006-.016.023-.017.033.027-.023.092-.025.126-.019.034.006.04-.01.052-.031.013-.022-.004-.034-.021-.051-.017-.017-.021-.041-.017-.08-.091-.121-.253-.063-.255-.009.059.068.066.06.115.069s.079.009.046.037c-.011.01-.058.005-.095.007-.082.003-.12-.057-.144-.025-.019.025.001.037.041.036-.027 0-.064-.002-.059.024.011.044.053-.008.07.01-.015-.003-.037.005-.037.019-.002.013.031.031.066.002.02-.016.044-.021.059-.022"/><path fill="#fff200" d="m8.656 2.791c-.021.005-.021.03-.03.03.051-.002.076-.016.092-.042-.012.01-.002.03-.006.035.038-.013.056-.045.043-.066.009.012.032.019.04.019-.026-.021-.008-.068-.05-.092.015-.001.042.015.049.034-.007-.042-.013-.069-.048-.093.004.004.023.008.032 0-.023-.014-.029-.038-.027-.053.003-.021-.012-.025-.038-.019-.023.006-.078.009-.109.009-.066 0-.124 0-.179-.038.082.034.187-.038.187-.097 0-.065-.081-.12-.244-.083-.164.036-.364.021-.364-.034 0-.054.144-.062.217-.051s.126.019.264-.03c-.034.013-.144.017-.229-.008-.087-.024-.3-.024-.302.09s.227.104.424.075c.114-.017.175-.005.175.032 0 .036-.105.051-.185.042-.082-.01-.164-.007-.261.021-.08.024-.136 0-.224.015-.043.007-.147 0-.199-.084-.031.022-.126.07-.143.116-.022.042-.007.084.023.126.037.052-.019.044-.06.046-.056.002-.13-.006-.169-.05-.034-.039-.08-.07-.116-.042-.019.015-.001.035.014.029.015-.005.032.006.048.013-.025-.011-.053-.002-.064.007-.015.014.003.039.021.03.014-.007.043-.012.061.006-.019-.004-.041-.003-.051.007-.011.011-.003.027.019.026.035-.002.044.023.079.018-.021.003-.034.015-.04.023.033-.015.07.025.112.016-.017.007-.044.023-.043.036.025-.029.195.022.199-.042.005.013.004.033-.009.05.021-.013.092-.018.113-.068.002.015-.001.034-.014.039.022.008.053-.009.083-.054.012-.018.015-.03.013-.043.03.001.052-.006.076-.026.023-.021.051.017.092-.01.041-.026.077-.003.1-.017.023-.013.054.005.078-.011.024-.015.063.008.104-.024.063.023.138.067.32.033.104-.019.138.016.138.064 0 .033-.02.036-.034.037-.059.004-.083-.022-.105-.014-.016.006-.025.031-.003.04-.019.009-.017.027-.007.033s.033.001.051-.007c-.021.01-.044.027-.031.045.008.011.027.021.045-.003s.051-.043.072-.04"/><g><path fill="#fff200" d="m7.496 2.294c-.053-.022-.07-.022-.059.021.005.019.018.044.03.056.001-.018.007-.067.028-.077"/><path fill="#fff200" d="m7.66 2.294c.053-.022.071-.022.059.021-.005.019-.018.044-.03.056-.001-.018-.007-.067-.028-.077"/><path fill="#fff200" d="m7.578 2.265c.1 0 .112.047.112.106-.001.063-.034.042-.054.123-.008.032-.033.033-.059.033s-.051-.002-.058-.033c-.019-.081-.054-.06-.054-.123-.001-.059.012-.106.111-.106"/></g><path fill="#fff200" d="m7.498 3.168c-.019-.012-.031-.004-.039-.001.024.006.025.041.081.057-.013-.003-.019.004-.031-.003.022.02.049.043.103.044.031 0 .01.018-.01.008.021.023.061.004.087.046.005-.033-.048-.085-.023-.123-.075-.003-.081-.049-.125-.085-.035-.03-.038-.06-.054-.116-.008-.025-.035-.042-.05-.035-.013.005-.018.018-.007.027.012.01.026.011.029.035-.015-.019-.037-.026-.047-.014-.007.007-.004.024.01.026.022.002.006.026.031.05-.022-.028-.042-.03-.054-.015-.008.009 0 .025.015.023.023-.002.05.061.084.077"/><path fill="#fff200" d="m8.104 3.404c-.012.002-.008.024-.023.025.037 0 .057-.01.075-.026-.009.005-.012.019-.013.027.021-.019.068-.021.094-.016.025.005.029-.008.038-.025s-.003-.027-.016-.041-.016-.033-.013-.065c-.066-.098-.187-.051-.188-.008.043.055.048.049.084.057.037.007.059.007.035.03-.009.008-.044.004-.071.005-.06.003-.089-.046-.106-.021-.015.021.001.03.031.029-.021 0-.049-.001-.045.021.009.036.04-.007.053.008-.012-.002-.027.004-.027.016-.001.011.023.024.049.002.014-.013.032-.018.043-.018"/><path fill="#fff200" d="m8.485 3.407c-.015.004-.015.024-.023.024.038-.001.057-.012.067-.033-.008.008-.001.024-.003.028.027-.011.041-.037.031-.055.006.01.023.016.029.017-.02-.017-.006-.055-.037-.075.011-.001.031.012.037.027-.006-.034-.01-.057-.036-.076.003.003.018.006.024 0-.018-.011-.023-.031-.021-.042.002-.018-.009-.021-.028-.016-.018.005-.058.008-.081.008-.049 0-.092 0-.132-.031.06.027.138-.03.138-.079 0-.054-.06-.097-.181-.068-.121.029-.27.017-.27-.027s.105-.051.16-.041c.055.009.094.015.195-.025-.025.011-.105.014-.17-.006s-.222-.02-.223.073c-.002.093.168.085.313.061.085-.014.13-.004.13.026 0 .029-.078.041-.139.034-.06-.008-.121-.006-.192.017-.06.019-.101 0-.165.012-.032.006-.109 0-.147-.068-.023.018-.094.057-.106.094-.017.034-.005.069.017.103.028.042-.014.036-.044.037-.041.002-.096-.004-.124-.04-.025-.032-.06-.058-.087-.034-.014.013-.001.028.011.024.011-.004.023.004.035.01-.019-.009-.039-.002-.047.006-.011.011.002.031.016.024.011-.006.032-.009.046.004-.015-.003-.03-.002-.038.006s-.002.022.014.021c.026-.001.033.019.06.015-.017.002-.025.012-.029.019.024-.013.052.021.083.013-.013.006-.032.019-.032.029.019-.024.144.018.147-.034.004.011.003.027-.007.041.017-.011.068-.015.085-.056.001.012-.001.028-.011.032.017.006.038-.008.061-.045.008-.014.011-.024.009-.035.022.002.038-.005.056-.021.019-.017.038.014.068-.008.031-.022.058-.003.074-.014.018-.011.04.004.059-.008.018-.013.046.006.076-.02.047.019.102.054.236.027.078-.016.102.013.102.052 0 .027-.014.029-.024.03-.043.002-.062-.018-.079-.012-.011.005-.018.025-.002.032-.014.008-.012.022-.004.027.007.005.024 0 .037-.006-.016.008-.032.022-.023.036.006.009.021.017.033-.002.014-.019.038-.035.054-.033"/><g><path fill="#fff200" d="m7.627 3c-.039-.018-.053-.019-.043.017.004.015.013.036.022.045 0-.014.005-.055.021-.062"/><path fill="#fff200" d="m7.749 3c.039-.018.052-.019.043.017-.004.015-.013.036-.022.045 0-.014-.006-.055-.021-.062"/><path fill="#fff200" d="m7.688 2.98c.074 0 .084.038.083.085 0 .052-.025.034-.04.1-.005.026-.023.027-.043.027-.019 0-.037-.002-.043-.027-.014-.066-.039-.048-.039-.1 0-.047.009-.085.082-.085"/></g><g><path fill="none" d="m8.26 1.85c-.033-.012-.063-.019-.102-.011"/><path fill="none" d="m7.768 1.835c-.027.058-.012.086-.007.113"/></g><g><path fill="none" d="m7.481 1.561c.019.009.029-.017.057.011-.008-.008-.017.021-.037.002"/><path fill="none" d="m7.632 1.561c-.019.009-.029-.017-.056.011.007-.008.016.021.037.002"/><path fill="none" d="m7.576 1.572c-.007.005-.008-.004-.002.02.008.045.019.066-.018.066-.037 0-.026-.021-.018-.066.005-.025.004-.015-.002-.02"/></g><path fill="#ed1c2e" d="m7.557 1.746c.029 0 .047 0 .043-.042-.002-.017.019-.023.012-.051.009.034-.055.03-.055.016 0 .015-.063.018-.055-.016-.008.027.015.034.013.051-.005.042.013.042.042.042"/><g><path fill="none" d="m7.53 1.661l-.071-.02"/><path fill="none" d="m7.53 1.665h-.08"/><path fill="none" d="m7.531 1.669l-.068.018"/><path fill="none" d="m7.584 1.661l.071-.02"/><path fill="none" d="m7.584 1.665h.08"/><path fill="none" d="m7.583 1.669l.067.018"/></g><g><path fill="none" d="m8.211 2.604c-.029-.011-.057-.018-.092-.01"/><path fill="none" d="m7.768 2.59c-.024.052-.01.077-.006.102"/></g><g><path fill="none" d="m7.51 2.343c.017.008.025-.015.051.01-.007-.007-.016.019-.034.002"/><path fill="none" d="m7.646 2.343c-.017.008-.026-.015-.05.01.006-.007.015.019.033.002"/><path fill="none" d="m7.596 2.353c-.006.005-.007-.004-.002.019.008.041.018.06-.016.06-.034 0-.023-.019-.016-.06.004-.022.004-.014-.002-.019"/></g><path fill="#ed1c2e" d="m7.578 2.51c.027 0 .043-.001.038-.039-.002-.015.019-.021.011-.045.008.03-.049.027-.049.014 0 .014-.057.017-.049-.014-.008.024.013.03.011.045-.005.038.011.039.038.039"/><g><path fill="none" d="m7.554 2.433l-.064-.018"/><path fill="none" d="m7.554 2.437h-.071"/><path fill="none" d="m7.555 2.44l-.061.017"/><path fill="none" d="m7.603 2.433l.064-.018"/><path fill="none" d="m7.603 2.437h.071"/><path fill="none" d="m7.602 2.44l.061.017"/></g><g><path fill="none" d="m8.156 3.255c-.023-.009-.042-.014-.067-.008"/><path fill="none" d="m7.828 3.244c-.018.042-.008.063-.005.083"/></g><g><path fill="none" d="m7.638 3.044c.012.006.019-.013.037.008-.005-.006-.011.016-.025.002"/><path fill="none" d="m7.737 3.044c-.012.006-.019-.013-.037.008.005-.006.011.016.025.002"/><path fill="none" d="m7.7 3.052c-.004.004-.005-.003-.001.015.006.033.013.048-.012.048-.025 0-.018-.016-.012-.048.004-.018.003-.011-.001-.015"/></g><path fill="#ed1c2e" d="m7.688 3.179c.021 0 .031-.001.029-.031-.002-.012.013-.017.008-.037.006.024-.037.022-.037.011 0 .011-.042.013-.036-.011-.005.02.01.025.009.037-.004.031.008.031.027.031"/><g><path fill="none" d="m7.67 3.117l-.048-.015"/><path fill="none" d="m7.67 3.12h-.053"/><path fill="none" d="m7.67 3.123l-.045.013"/><path fill="none" d="m7.705 3.117l.049-.015"/><path fill="none" d="m7.705 3.12h.054"/><path fill="none" d="m7.705 3.123l.045.013"/></g><g><g><path fill="#006bb6" d="m7.186 1.447c-.021-.026-.072-.004-.073.028.018-.021.046.009.061.002.012-.004.021-.02.012-.031"/><path fill="#006bb6" d="m7.159 1.508c-.021-.026-.073-.004-.074.028.018-.02.046.009.063.003.011-.004.021-.02.012-.031"/><path fill="#006bb6" d="m7.146 1.591c-.023-.023-.073.004-.07.036.015-.022.047.004.061-.004.011-.006.019-.023.009-.032"/><path fill="#006bb6" d="m7.17 1.846c-.025-.02-.071.013-.065.044.013-.024.048-.002.061-.011.01-.007.015-.024.004-.033"/><path fill="#006bb6" d="m7.169 1.902c-.031-.011-.064.034-.049.063.005-.027.044-.016.055-.03.007-.009.007-.028-.006-.033"/><path fill="#006bb6" d="m7.209 1.944c-.031-.012-.064.034-.049.062.004-.027.045-.016.055-.029.007-.009.007-.028-.006-.033"/><path fill="#006bb6" d="m8.03 2.024c-.031-.011-.064.034-.049.063.004-.027.044-.016.055-.029.007-.01.007-.028-.006-.033"/><path fill="#006bb6" d="m8.07 2.063c-.032-.008-.06.041-.041.067.001-.027.042-.021.051-.036.006-.01.004-.028-.01-.032"/><path fill="#006bb6" d="m8.04 1.971c-.029-.017-.069.022-.059.053.008-.026.046-.008.059-.019.009-.008.012-.027 0-.033"/><path fill="#006bb6" d="m8.62 2.037c-.032-.008-.06.041-.041.067.001-.027.042-.021.051-.035.006-.01.003-.028-.01-.032"/><path fill="#006bb6" d="m8.621 1.985c-.029-.016-.068.025-.057.055.008-.026.046-.01.059-.022.008-.008.01-.027-.002-.033"/><path fill="#006bb6" d="m8.645 2.083c-.033-.007-.059.043-.039.069 0-.027.041-.022.049-.038.006-.01.003-.029-.01-.031"/><path fill="#006bb6" d="m7.56 1.721c.021 0 .028.006.028.043 0 .078-.001.112-.026.112-.024 0-.023-.032-.023-.089 0-.03 0-.045-.006-.042 0-.02.009-.023.027-.023"/></g><g><path fill="#006bb6" d="m7.244 2.241c-.019-.023-.065-.004-.066.025.016-.019.042.008.057.002.01-.004.018-.019.01-.028"/><path fill="#006bb6" d="m7.221 2.296c-.019-.023-.066-.004-.067.025.017-.019.042.008.056.002.01-.004.019-.019.012-.028"/><path fill="#006bb6" d="m7.208 2.37c-.021-.021-.065.004-.064.032.014-.02.043.004.056-.003.009-.005.017-.021.008-.029"/><path fill="#006bb6" d="m7.231 2.6c-.023-.018-.064.012-.06.04.012-.022.043-.002.056-.01.008-.006.014-.022.004-.03"/><path fill="#006bb6" d="m7.229 2.65c-.027-.011-.058.03-.043.056.004-.024.039-.014.049-.026.006-.008.006-.025-.006-.029"/><path fill="#006bb6" d="m7.266 2.688c-.029-.01-.059.031-.045.057.004-.024.041-.015.05-.027.007-.008.006-.025-.005-.03"/><path fill="#006bb6" d="m8 2.761c-.028-.01-.059.031-.044.056.004-.024.04-.014.049-.026.006-.008.006-.025-.005-.029"/><path fill="#006bb6" d="m8.04 2.795c-.029-.007-.055.037-.037.061 0-.024.037-.019.045-.032.006-.009.004-.025-.008-.028"/><path fill="#006bb6" d="m8.01 2.712c-.025-.015-.063.02-.053.047.008-.023.042-.007.053-.018.008-.007.011-.023 0-.03"/><path fill="#006bb6" d="m8.535 2.772c-.029-.007-.055.037-.037.06.001-.024.038-.019.046-.032.005-.009.003-.025-.009-.028"/><path fill="#006bb6" d="m8.536 2.725c-.026-.014-.062.022-.052.049.008-.023.042-.009.053-.019.008-.007.01-.024-.001-.03"/><path fill="#006bb6" d="m8.557 2.813c-.029-.006-.053.04-.035.063 0-.024.037-.021.045-.034.005-.009.002-.026-.01-.028"/><path fill="#006bb6" d="m7.58 2.487c.019 0 .026.005.026.039 0 .071-.001.101-.023.101s-.021-.029-.021-.081c0-.027 0-.041-.005-.038 0-.018.007-.021.023-.021"/></g><g><path fill="#006bb6" d="m7.441 2.96c-.014-.019-.049-.003-.05.021.012-.015.031.007.042.002.007-.003.013-.016.008-.023"/><path fill="#006bb6" d="m7.423 3c-.014-.019-.048-.002-.05.021.013-.015.031.006.042.002.007-.003.014-.016.008-.023"/><path fill="#006bb6" d="m7.414 3.065c-.016-.017-.049.003-.047.026.01-.017.031.003.041-.003.007-.004.012-.017.006-.023"/><path fill="#006bb6" d="m7.43 3.252c-.017-.015-.047.009-.043.032.008-.018.031-.001.041-.008.006-.005.01-.018.002-.024"/><path fill="#006bb6" d="m7.43 3.293c-.021-.008-.043.025-.033.045.004-.019.03-.012.037-.022.004-.007.004-.021-.004-.024"/><path fill="#006bb6" d="m7.456 3.324c-.021-.008-.043.025-.032.045.003-.02.029-.012.036-.022.005-.007.005-.021-.004-.024"/><path fill="#006bb6" d="m8 3.383c-.021-.008-.043.025-.032.045.003-.02.03-.012.036-.022.005-.007.005-.021-.004-.024"/><path fill="#006bb6" d="m8.03 3.411c-.021-.006-.04.03-.027.049.001-.019.028-.015.034-.026.004-.007.002-.021-.007-.023"/><path fill="#006bb6" d="m8.01 3.344c-.019-.013-.046.017-.039.039.006-.019.031-.006.039-.015.006-.006.008-.019 0-.024"/><path fill="#006bb6" d="m8.397 3.392c-.023-.006-.041.03-.028.049.001-.019.028-.015.034-.025.004-.008.002-.022-.006-.023"/><path fill="#006bb6" d="m8.397 3.354c-.02-.011-.046.018-.038.04.006-.019.031-.007.039-.016.005-.006.007-.019-.001-.024"/><path fill="#006bb6" d="m8.412 3.425c-.021-.004-.039.032-.026.051.001-.02.028-.017.033-.028.004-.007.001-.021-.007-.023"/><path fill="#006bb6" d="m7.69 3.16c.014 0 .019.005.019.032 0 .057-.001.082-.018.082-.018 0-.016-.023-.016-.065 0-.022 0-.033-.004-.031 0-.014.006-.017.018-.017"/></g></g></g></g></switch></svg>