<svg xmlns="http://www.w3.org/2000/svg" viewBox="0 0 16 12" enable-background="new 0 0 16 12"><path fill="#d51224" d="m0 0h16v12h-16z"/><path fill="#005ca9" d="m6 0h5v12h-5z"/><g fill="#ffd500"><path d="m3.515 7.189c.169.494-.134.672-.438.756-.303.085-.691.354-.352.77.359.442 1.834-.451.79-1.526"/><path d="m2.499 8.652c-.169-.495.148-.714.452-.798.303-.084.689-.304.338-.707-.43-.494-1.961.446-.79 1.505"/><path d="m1 5.678h.857v4.376h-.857z"/><path d="m3 5.106c-.328 0-.698-.085-.952-.498.127.509.497.858.952.858"/><path d="m3.836 9.566l-.836.541-.836-.541z"/><path d="m2.101 8.994h1.799v.34h-1.799z"/><path d="m2.101 6.409h1.799v.339h-1.799z"/><path d="m4.143 5.678h.857v4.376h-.857z"/><path d="m3.783 5.668l-.783.529-.783-.529z"/><path d="m3 5.106c.328 0 .698-.085.952-.498-.127.509-.497.858-.952.858"/><circle cx="3" cy="4.216" r=".704"/><path d="m3.02 1.871c-.069.102-.057.217-.038.287.019.071.024.109-.051.198-.076.09-.09.198-.019.278.071.08.052.212-.033.222-.085.009-.183-.086-.132-.189.028-.057.019-.137.005-.169-.015-.033.004-.085.019-.118.014-.033.014-.075.009-.104-.005-.028-.018-.028-.043.01-.042.066-.051.103-.037.141.014.038-.007.084-.052.146-.155.212-.038.631.353.631s.508-.341.442-.48c-.047-.099-.085-.194-.08-.278.004-.085-.038-.141-.071-.188-.032-.048-.046-.029-.027.037.019.066.023.123 0 .16-.024.038-.019.108.018.16s0 .165-.094.169c-.094.006-.169-.094-.108-.24.061-.146.08-.334.024-.419s-.085-.174-.066-.221c.019-.047 0-.061-.019-.033"/></g></svg>