<?xml version="1.0" encoding="utf-8"?>
<!-- Generator: Adobe Illustrator 18.0.0, SVG Export Plug-In . SVG Version: 6.00 Build 0)  -->
<!DOCTYPE svg PUBLIC "-//W3C//DTD SVG 1.1//EN" "http://www.w3.org/Graphics/SVG/1.1/DTD/svg11.dtd">
<svg version="1.1" id="Layer_1" xmlns="http://www.w3.org/2000/svg" xmlns:xlink="http://www.w3.org/1999/xlink" x="0px" y="0px"
	 viewBox="0 0 56 56" enable-background="new 0 0 56 56" xml:space="preserve">
<path opacity="0.4" fill="#FFFFFF" enable-background="new    " d="M44.5,34.2c-0.2,0-0.3,0-0.5,0H13.1c-0.1,0-0.3,0-0.4,0
	c-1.3,0-2.4-1.1-2.4-2.4c0-1.3,1.1-2.4,2.4-2.4c1.1,0,2.1,0.8,2.3,1.9l1.4-0.7c-0.5-0.7-0.7-1.5-0.7-2.4c0-2.4,2-4.4,4.4-4.4
	c1.2,0,2.4,0.5,3.2,1.4c0-0.2,0-0.5,0-0.7c0-4.5,3.6-8.1,8.1-8.1s8.1,3.6,8.1,8.1c0,1.5-0.4,2.9-1.1,4l1.8,0.8
	c0.3-2.1,2.1-3.7,4.3-3.7c2.4,0,4.3,1.9,4.3,4.3S46.9,34.2,44.5,34.2z"/>
<path fill="#FFFFFF" d="M12.6,12.2L7.7,7.3L6.6,8.4l4.9,4.9C11.8,12.9,12.2,12.5,12.6,12.2z"/>
<path fill="#FFFFFF" d="M18.2,9.5l-1.8-6.7l-1.6,0.4l1.8,6.7C17.2,9.7,17.7,9.6,18.2,9.5z"/>
<path fill="#FFFFFF" d="M9.1,17.4l-6.7-1.8L2,17.1l6.7,1.8C8.8,18.4,8.9,17.9,9.1,17.4z"/>
<path fill="#FFFFFF" d="M24.3,9.8L26,3.4L24.4,3l-1.7,6.5C23.2,9.5,23.7,9.7,24.3,9.8z"/>
<path fill="#FFFFFF" d="M31.3,11.7l3.2-3.2l-1.2-1.2l-4.6,4.6C29.6,11.7,30.4,11.7,31.3,11.7z"/>
<path fill="#FFFFFF" d="M8.7,23.6L2,25.4L2.4,27l6.7-1.8C9,24.6,8.8,24.1,8.7,23.6z"/>
<path fill="#FFFFFF" d="M12,24.4c0.4-0.9,1-1.7,1.6-2.4c-0.2-1.4,0.1-2.9,0.9-4.2c1.8-3,5.4-4.2,8.6-3c0.7-0.6,1.5-1.2,2.4-1.6
	L25.3,13c-4.5-2.6-10.4-1.1-13,3.5c-1.5,2.5-1.6,5.4-0.7,8C11.7,24.5,11.8,24.4,12,24.4z"/>
<path fill="#FFFFFF" d="M44.4,22.5c-0.7,0-1.3,0.1-2,0.3c-0.8-5.4-5.4-9.6-11-9.6c-4.9,0-9,3.1-10.6,7.5c-0.2,0-0.4,0-0.7,0
	c-3.5,0-6.4,2.4-7.2,5.7l-0.2,0c-3.1,0-5.5,2.5-5.5,5.5c0,3,2.4,5.5,5.5,5.5l0,0h31.5l0,0l0.2,0c4.1,0,7.5-3.3,7.5-7.5
	S48.5,22.5,44.4,22.5z M44.5,34.2c-0.2,0-0.3,0-0.5-0.1H13.1c-0.1,0-0.3,0-0.4,0c-1.3,0-2.4-1.1-2.4-2.4s1.1-2.4,2.4-2.4
	c1.1,0,2.1,0.8,2.3,1.9l1.4-0.7c-0.5-0.7-0.7-1.5-0.7-2.4c0-2.4,2-4.4,4.4-4.4c1.2,0,2.4,0.5,3.2,1.4c0-0.2,0-0.5,0-0.7
	c0-4.5,3.6-8.1,8.1-8.1s8.1,3.6,8.1,8.1c0,1.5-0.4,2.9-1.1,4l1.8,0.8c0.3-2.1,2.1-3.7,4.3-3.7c2.4,0,4.3,1.9,4.3,4.3
	S46.9,34.2,44.5,34.2z"/>
<path fill="#FFFFFF" d="M35.2,42.8c-1.6-0.7-3.4-0.1-4.2,1.5c-0.7,1.6-0.1,3.4,1.5,4.2c1.6,0.7,3.4,0.1,4.2-1.5
	C37.4,45.4,36.8,43.6,35.2,42.8z"/>
<path fill="#FFFFFF" d="M37,38.7l0,6.7l-5.2-2.2L37,38.7z"/>
<path fill="#FFFFFF" d="M21.6,47c-1.6-0.7-3.4-0.1-4.2,1.5c-0.7,1.6-0.1,3.4,1.5,4.2c1.6,0.7,3.4,0.1,4.2-1.5
	C23.8,49.6,23.2,47.8,21.6,47z"/>
<path fill="#FFFFFF" d="M23.4,42.9l0,6.7l-5.2-2.2L23.4,42.9z"/>
</svg>
