<svg xmlns="http://www.w3.org/2000/svg" viewBox="0 0 16 12" enable-background="new 0 0 16 12"><path fill="#fff" d="m0 0h5.833v12h-5.833z"/><path fill="#ffcc07" d="m10.666 0h5.334v12h-5.334z"/><path fill="#0769aa" d="m5 0h6v12h-6z"/><g transform="matrix(2.82226 0 0 2.82222-315.49-783.53)"><path fill="#fff" d="m114.74 279.43c.001-.001.001-.001.001-.002h.001c0 .001-.001.001-.002.001m-.192-.053c0 .001-.001.001-.001.002 0 0 0-.001.001-.002m-.049.052l.001-.002c.001.001.001.002.002.002-.001.001-.002 0-.003 0m-.351.723c0-.001 0-.001 0-.001s0-.001.001-.002c-.001.001 0 .002-.001.003m.231-.708c0 0 0 0 0 0m.484 0c0 0 0 0 0 0m.472.665c.018-.019.027-.043.027-.067s-.009-.049-.027-.068l-.024-.011-.024.011c-.012.013-.012.035 0 .048.01.011.01.028 0 .039-.004.005-.01.007-.017.007-.002 0-.007-.002-.008-.008-.008-.037-.029-.068-.059-.089-.057-.041-.091-.11-.091-.183l.001-.114c0-.056-.036-.104-.087-.119-.001 0-.036-.007-.036-.007l-.028.009h-.001c-.009-.003-.021-.008-.021-.008-.002-.001-.003-.003-.006-.003 0 0-.005 0-.008 0-.003-.001-.008-.002-.008-.002-.01-.001-.019.002-.026.011-.006.009-.009.021-.009.036 0 .006.001.015.002.022-.005-.001-.009-.003-.013-.003-.023 0-.043.016-.05.037h-.028c.016-.031.03-.06.034-.064.001 0 .017-.001.017-.001.007 0 .013-.004.016-.011.001-.002.002-.006.002-.008 0-.002-.001-.003-.001-.006.009-.007.015-.017.015-.029 0 0-.001-.003-.001-.004.008-.007.015-.017.015-.028 0-.004-.001-.009-.002-.013-.001-.003-.003-.005-.005-.008.001-.004.003-.009.003-.013 0-.009-.003-.018-.01-.026-.004-.004-.008-.007-.013-.009-.002-.011-.008-.022-.019-.027-.006-.003-.012-.003-.018-.003-.006-.009-.015-.016-.027-.016-.005 0-.01.002-.014.003-.003-.003-.005-.006-.005-.006l-.029-.002c-.004.001-.007.004-.01.007-.005-.003-.01-.005-.01-.005s-.002.001-.003.001c-.007-.011-.017-.02-.03-.02-.005 0-.009.002-.013.005-.006-.005-.013-.008-.021-.008-.001 0-.001.001-.003.001 0-.002 0-.017 0-.017 0-.009-.006-.014-.013-.017-.003-.008-.009-.014-.017-.014h-.018c-.009 0-.015.006-.017.014-.008.003-.013.008-.013.017 0 0 0 .015 0 .017-.001 0-.002-.001-.003-.001-.008 0-.015.003-.021.008-.004-.002-.008-.005-.013-.005-.013 0-.023.009-.03.02-.001 0-.003-.001-.003-.001s-.005.003-.01.005c-.003-.002-.006-.006-.01-.007l-.029.002c0 0-.003.004-.005.006-.004-.002-.009-.004-.014-.003-.012.001-.02.008-.027.017-.006-.001-.012 0-.018.003-.011.006-.017.016-.019.027-.005.002-.01.005-.013.009-.007.007-.01.017-.01.026 0 .005.001.009.002.013-.002.002-.004.005-.005.008-.002.004-.002.009-.002.013 0 .011.006.02.014.028 0 .001-.002.004-.002.004 0 .012.006.022.015.029-.001.002-.002.003-.002.006 0 .003.001.006.002.008.003.006.009.01.016.011h.016c.004.004.019.033.035.064h-.029c-.007-.021-.027-.037-.05-.037-.005 0-.009.002-.013.003.001-.009.003-.018.003-.024 0-.02-.005-.028-.007-.031-.008-.011-.018-.015-.028-.014 0 0-.005.001-.008.002-.002 0-.007 0-.007 0-.002 0-.003.002-.005.003 0 0-.013.005-.022.008 0 0-.001 0-.001 0l-.028-.009-.034.007c-.054.015-.09.064-.09.119l.001.063v.016c0 0 0 .036 0 .036 0 .073-.034.142-.091.182-.029.021-.05.053-.059.089-.002.007-.006.009-.008.009-.006 0-.012-.002-.017-.007-.005-.005-.007-.012-.007-.019 0-.007.003-.014.007-.02.006-.007.01-.015.01-.024 0-.009-.003-.018-.01-.024l-.024-.011-.024.011c-.035.037-.035.098 0 .135.025.027.061.034.093.024 0 .002.001.01.001.01 0 .015-.008.028-.021.033-.007.003-.012.009-.012.016l-.001.012c0 .025.007.049.021.07.008.012.014.026.016.039.006.027.028.039.046.039h.054c.011 0 .019-.009.019-.019 0-.033-.023-.06-.053-.066-.006-.007-.01-.016-.01-.026 0-.017.009-.032.024-.039.026-.011.044-.035.051-.062.012.002.014.004.014.011-.002.009 0 .018-.007.016 0 .001-.001.003-.001.004 0 .007.005.011.012.015.012.006.031.034.039.055.008.019.025.03.044.03h.046c.011 0 .019-.009.019-.019 0-.033-.022-.061-.052-.067-.01-.002-.016-.012-.016-.022 0-.006.002-.012.006-.016.009-.01.015-.024.015-.037l-.007-.027c-.013-.022-.031-.037-.051-.05.017-.018.036-.033.058-.044.036-.017.063-.049.076-.088.006-.006.021-.02.021-.021v.228c0 .163.26.165.271.165.011 0 .271-.002.271-.165v-.228c0 0 .016.015.022.021.013.039.04.071.076.088.021.01.04.026.057.043-.02.012-.038.028-.051.049-.001.001-.008.028-.008.028 0 .014.005.027.015.037.004.004.006.01.006.016 0 .011-.007.02-.016.022-.03.006-.052.035-.052.067 0 .01.008.019.019.019h.046c.019 0 .035-.011.044-.029.009-.021.028-.049.039-.055.007-.003.011-.008.011-.015 0-.002 0-.004-.001-.006l-.006-.013c0 0 0-.001-.001-.002 0-.005.003-.007.014-.01.007.028.025.051.05.062.015.007.025.022.025.039 0 .01-.005.018-.01.026-.03.006-.053.033-.053.066 0 .011.009.019.019.019h.054c.018 0 .04-.012.046-.039.003-.015.008-.028.016-.039.015-.021.022-.045.022-.071v-.012c-.001-.008-.006-.014-.012-.016-.013-.005-.021-.018-.021-.033 0 0 .001-.007.001-.01.03.009.066.001.091-.025m-1.188.044c-.003.007-.01.009-.01.011 0 .001.001.002.003.003 0 0 .001 0 .001 0 0-.001 0-.001.001-.002l.005-.012m1.188-.179c.002.001 0-.001 0 0m-1.133-.655c.009.02.025.034.044.045-.005.006-.012.01-.024.015-.007.003-.012.01-.012.018 0 .009.006.016.013.018.031.01.17.016.26-.076.004-.004.006-.01.006-.016 0-.003-.001-.006-.002-.009 0 0-.001-.001-.001-.001.044-.006.088-.009.132-.009.046 0 .091.004.135.009 0 0-.001.001-.001.001-.002.002-.002.006-.002.009 0 .006.003.012.006.016.09.091.229.086.26.076.008-.002.013-.009.013-.017 0-.009-.005-.016-.012-.019-.012-.005-.019-.01-.024-.015.019-.011.035-.025.044-.045l.005-.013c.001-.002.001-.005.001-.007 0-.005-.002-.01-.006-.014-.006-.005-.014-.006-.021-.003-.008.003-.016.005-.026.006-.021 0-.08-.011-.096-.039-.001-.035-.026-.065-.06-.071-.071-.013-.143-.019-.214-.019-.074 0-.146.006-.216.019-.035.007-.06.037-.061.072-.015.028-.074.039-.096.039-.01 0-.018-.002-.026-.006-.007-.003-.015-.002-.021.003-.004.004-.006.009-.006.014 0 .002 0 .004.001.007l.007.012"/><g fill="#ecd21b"><path d="m114.45 279.54c-.014-.008-.032-.034-.032-.048 0-.024.028-.043.063-.043l.014-.006.006-.021c0 0-.078-.01-.1.028s-.01.063-.001.082.029.03.029.03l.021-.022"/><path d="m114.53 279.47c-.005-.005-.007-.011-.007-.017 0-.017.02-.031.044-.031.009 0 .026.002.033.005l.002-.036c0 0-.066-.008-.092.021-.025.029-.019.059-.017.065.002.007.007.017.007.017l.036-.011-.006-.013"/><path d="m114.79 279.54c.014-.008.033-.034.033-.048 0-.024-.028-.043-.063-.043l-.014-.006-.006-.021c0 0 .078-.01.1.028s.01.063.002.082c-.009.02-.029.03-.029.03l-.023-.022"/><path d="m114.71 279.47c.005-.005.007-.011.007-.017 0-.017-.02-.031-.045-.031-.009 0-.026.002-.033.005l-.002-.036c0 0 .066-.008.091.021.026.029.019.059.017.065-.002.007-.007.017-.007.017l-.036-.011.008-.013"/></g><path fill="#be172a" d="m114.44 279.54c.041-.043.105-.07.177-.07.072 0 .136.027.176.07l-.049.135h-.258l-.046-.135"/><path fill="#ecd21b" d="m114.65 279.52l-.033-.022-.032.022.013-.111h.04l.012.111"/><g fill="#fff"><path d="m114.62 279.42c-.006-.001-.012.003-.013.009-.001.007.003.013.009.014.007.001.012-.003.014-.009.001-.006-.003-.012-.01-.014"/><path d="m114.62 279.44c-.008-.002-.016.003-.017.012-.002.008.003.016.011.018s.016-.003.018-.012c.001-.008-.004-.016-.012-.018"/><path d="m114.63 279.47c-.01-.002-.02.004-.022.015-.002.01.004.02.015.023.01.002.02-.005.022-.015.001-.011-.005-.021-.015-.023"/><path d="m114.42 279.53c0-.01-.008-.019-.018-.019-.01 0-.018.009-.018.019s.008.019.018.019c.01 0 .018-.009.018-.019"/><path d="m114.51 279.45c0-.01-.008-.019-.018-.019-.01 0-.018.008-.018.019s.008.019.018.019c.009 0 .018-.008.018-.019"/><path d="m114.52 279.48c0-.01-.008-.019-.018-.019-.01 0-.018.009-.018.019s.008.019.018.019c.01 0 .018-.008.018-.019"/><path d="m114.41 279.5c.004-.01-.001-.02-.011-.024-.01-.004-.02.001-.024.011-.004.01.001.021.011.024.01.004.021-.001.024-.011"/><path d="m114.41 279.47c.007-.008.006-.019-.001-.027-.007-.007-.019-.007-.026.001-.007.008-.007.02.001.027.007.007.019.007.026-.001"/><path d="m114.42 279.45c.009-.004.013-.016.009-.025-.004-.009-.015-.013-.024-.009-.009.004-.013.016-.009.025.004.009.015.013.024.009"/><path d="m114.45 279.44c.01-.001.018-.009.017-.02-.001-.01-.009-.018-.019-.018-.01 0-.018.009-.017.02 0 .01.009.018.019.018"/><path d="m114.47 279.43c.01.003.02-.002.023-.012.003-.01-.002-.02-.012-.024-.01-.003-.02.002-.023.012-.002.01.003.02.012.024"/><path d="m114.5 279.43c.008.007.019.005.026-.003.006-.008.005-.02-.002-.027-.008-.007-.019-.005-.026.003s-.006.021.002.027"/><path d="m114.56 279.4c0-.01-.008-.019-.018-.019-.01 0-.018.008-.018.019 0 .01.008.019.018.019.01 0 .018-.009.018-.019"/><path d="m114.6 279.39c0-.01-.008-.019-.018-.019-.01 0-.018.008-.018.019s.008.019.018.019c.009 0 .018-.009.018-.019"/><path d="m114.82 279.53c0-.01.008-.019.018-.019.01 0 .018.009.018.019s-.008.019-.018.019c-.01 0-.018-.009-.018-.019"/><path d="m114.73 279.45c0-.01.008-.019.018-.019.01 0 .018.008.018.019s-.008.019-.018.019c-.009 0-.018-.008-.018-.019"/><path d="m114.72 279.48c0-.01.008-.019.019-.019.01 0 .018.009.018.019s-.008.019-.018.019c-.011 0-.019-.008-.019-.019"/><path d="m114.84 279.5c-.003-.01.001-.02.011-.024.009-.004.02.001.024.011.004.01-.001.021-.011.024-.009.004-.02-.001-.024-.011"/><path d="m114.83 279.47c-.007-.008-.007-.019.001-.027.007-.007.019-.007.026.001.007.008.006.02-.001.027-.007.007-.019.007-.026-.001"/><path d="m114.82 279.45c-.009-.004-.013-.016-.009-.025.004-.009.015-.013.025-.009.009.004.013.016.009.025-.005.009-.016.013-.025.009"/><path d="m114.8 279.44c-.01-.001-.018-.009-.017-.02.001-.01.009-.018.019-.018.01 0 .018.009.017.02-.001.01-.01.018-.019.018"/><path d="m114.77 279.43c-.01.003-.02-.002-.023-.012-.003-.01.002-.02.011-.024.009-.003.02.002.023.012.003.01-.002.02-.011.024"/><path d="m114.74 279.43c-.008.007-.019.005-.026-.003-.007-.008-.006-.02.002-.027.008-.007.019-.005.026.003.007.008.006.021-.002.027"/><path d="m114.68 279.4c0-.01.008-.019.018-.019s.018.008.018.019c0 .01-.008.019-.018.019s-.018-.009-.018-.019"/><path d="m114.64 279.39c0-.01.008-.019.018-.019.01 0 .019.008.019.019s-.008.019-.019.019c-.009 0-.018-.009-.018-.019"/></g><path fill="#010202" d="m114.84 279.55c-.005-.008-.012-.012-.021-.013-.003 0-.006 0-.009.001 0 0 0 0-.001-.001l-.005-.003-.004.003c-.001.001-.002.001-.002.002 0 0 0 0-.001 0l-.005-.003c0 0-.004.003-.004.003-.004-.002-.009-.003-.014-.003h-.006c0 0 0 .001 0 .001-.003-.003-.008-.006-.013-.008 0 0-.001-.006-.001-.006h-.006c0-.001 0-.003 0-.004l-.001-.005c0 0-.005-.001-.006-.001-.001-.005-.003-.01-.007-.013l-.004-.004-.006.002c-.004.002-.008.005-.012.009h-.005l-.003.005c-.001.001-.001.002-.002.003 0 0 0 0-.001 0h-.005c0 0-.003.004-.003.005-.005 0-.01 0-.015.002 0 0-.001.001-.003.001-.001-.001-.003-.002-.003-.002-.004-.003-.01-.005-.015-.005l-.002-.005h-.006-.001c0-.001-.001-.003-.001-.004l-.002-.005h-.006c-.002-.005-.006-.009-.01-.012l-.005-.003-.005.003c-.004.003-.008.008-.01.012h-.005l-.002.005c-.001.001-.001.003-.001.004 0 0-.001 0-.001 0h-.005l-.002.005c-.005 0-.011.002-.015.005 0 0-.002.001-.003.002-.002 0-.003-.001-.003-.001-.004-.002-.009-.002-.015-.002 0 0-.003-.005-.003-.005h-.006c0 0 0 0-.001 0-.001-.001-.001-.002-.002-.003l-.003-.005c0 0-.005.001-.005.001-.003-.004-.007-.008-.012-.009l-.006-.002-.004.004c-.003.003-.006.008-.007.013h-.005l-.001.005c0 .001 0 .003 0 .004 0 0-.001 0-.001 0h-.005c0 0-.001.005-.001.006-.005.001-.009.004-.013.008h-.006c-.005 0-.01.001-.014.003 0 0-.004-.003-.004-.003l-.005.003c-.001-.001-.002-.002-.003-.002l-.005-.003-.005.003c0 0-.001 0-.001.001-.003-.001-.006-.001-.009-.001-.008.001-.015.005-.021.013l-.009.014h.016c0 0 .009.001.015.007.004.005.05.094.05.094l.008-.003c.045-.019.089-.028.135-.028.046 0 .091.009.136.028l.008.003c0 0 .045-.09.049-.094.006-.007.015-.007.015-.007h.016l-.008-.014m-.104-.005c0 .001 0 .002 0 .002s.007 0 .009 0c-.002.001-.008.003-.008.003s.001.001.001.002c-.001 0-.003-.001-.004-.001h-.003-.003c.003-.002.005-.003.008-.004m-.015-.013c0 0 .002-.006.003-.008 0 .002 0 .009 0 .009s.001 0 .002 0c-.001.002-.003.005-.006.01-.001-.006-.001-.01-.002-.011.001-.001.003 0 .003 0m-.016.009c0 0 0-.001.001-.002.001.002.003.004.007.008 0 0-.004-.001-.004-.001h-.003c-.001 0-.003 0-.004-.001 0 0 .001-.001.001-.001s-.004-.005-.006-.007c.002.002.008.004.008.004m-.063-.01c0 .001 0 .003 0 .003h.01c0 0 0 0 .001 0 0 0-.001 0-.001.001l-.008.006c0 0 .001.001.001.002-.002 0-.004 0-.006 0h-.003-.004c0 0-.001 0-.001 0 .005-.007.009-.01.011-.011m-.019-.01l.002-.01c0 0 0 0 0-.001l.002.011c0 0 .002-.001.003-.001-.001.002-.003.007-.005.014-.003-.007-.004-.012-.005-.014.001 0 .003.001.003.001m-.025.011h.01c0 0 0-.002 0-.003.002.002.006.004.011.009 0 0-.005 0-.005 0h-.003c-.002 0-.004 0-.006 0 .001-.001.002-.002.002-.002l-.009-.005c0 0 0 0 0 0m-.054.007c0 .001 0 .002 0 .002s.006-.002.008-.003c-.002.002-.006.007-.006.007s.001.001.001.001c-.002 0-.003 0-.004.001h-.003-.003c0 0-.001 0-.001 0 .005-.005.006-.007.008-.008m-.019-.007c0 0 0-.007 0-.009.001.002.003.008.003.008s.001-.001.002-.001c0 .002-.001.006-.002.011-.003-.005-.005-.008-.006-.01.002.001.003.001.003.001m-.011.015c0 0 0-.002 0-.002.002.001.005.002.01.005h-.004-.003c-.001 0-.003.001-.004.001 0 0 .001-.002.001-.002s-.006-.002-.008-.003c.002 0 .008-.001.008-.001m-.054.023c0 0-.003.001-.005.002 0 0-.001 0-.001-.001.001-.003.002-.006.003-.007 0 .001.001.002.001.002s.004-.003.006-.005c-.001.003-.003.007-.003.007s.001 0 .001.001c0 0-.001.001-.002.001m.334.003c-.003-.001-.005-.003-.005-.003-.001 0-.001-.001-.002-.001h.001s-.002-.004-.003-.007c.002.002.006.005.006.005s.001-.001.001-.002c.001.002.001.004.003.007-.001.001-.001.002-.001.002"/><path fill="#4e86c6" d="m114.61 279.42c-.014-.004-.022-.019-.018-.034.004-.014.019-.022.033-.018s.022.019.018.033c-.005.015-.02.023-.033.019"/><g fill="#ecd21b"><path d="m114.62 279.59c-.053 0-.105.011-.154.031l.015.03c.045-.018.09-.028.139-.028.049 0 .095.01.14.029l.015-.03c-.049-.022-.101-.032-.155-.032"/><path d="m114.83 279.55c-.008-.012-.019-.011-.023-.007-.001-.001-.002-.002-.004-.003-.003.002-.005.006-.006.011-.001-.003-.003-.007-.006-.008-.001.001-.003.002-.003.004-.005-.004-.01-.006-.015-.006-.002.005-.001.011.001.016-.002 0-.003.001-.005.003.001.006.008.01.014.013-.003.005-.009.013-.012.018-.006-.002-.009-.007-.009-.013 0-.001 0-.003.001-.005 0-.001.001-.002.001-.003 0-.003-.002-.006-.005-.007-.003-.001-.007 0-.009.004-.002.006-.008.01-.015.01-.008 0-.016-.007-.016-.016l.001-.008c.001 0 .002.001.004.001.008.002.017.006.024.002 0-.002-.001-.004-.001-.006.006-.002.01-.006.012-.011-.003-.004-.009-.006-.015-.007 0-.002 0-.004 0-.006-.003-.001-.007 0-.01.002.002-.004.004-.008.003-.012-.002-.001-.004-.001-.006 0 0-.006-.002-.012-.006-.016-.005.002-.009.006-.011.012-.002-.001-.003-.001-.005-.002-.002.003-.003.008-.002.013-.002-.003-.005-.006-.009-.006-.001.002-.002.003-.002.005-.006-.002-.011-.002-.016 0 0 .005.003.011.007.015-.001.001-.002.002-.003.004.004.006.014.007.022.008.001 0 .001 0 .002 0l-.001.006c0 .001-.001.001-.001.002-.002.006-.008.011-.015.011-.009 0-.016-.007-.016-.016 0-.004-.003-.007-.007-.007h-.001c-.003 0-.006.002-.007.005-.002.007-.008.012-.015.012-.008 0-.016-.007-.016-.016v-.004c.001 0 .002 0 .004 0 .008 0 .019.002.025-.004-.001-.002-.002-.003-.003-.005.006-.003.009-.009.01-.014-.004-.003-.01-.004-.017-.003 0-.002-.001-.004-.001-.006-.003 0-.007.001-.01.004.002-.005.003-.009.001-.013-.002 0-.004 0-.006.001-.001-.006-.005-.012-.009-.015-.005.003-.008.009-.009.015-.002-.001-.004-.001-.006-.001-.002.004-.001.009.001.013-.003-.002-.007-.004-.01-.004-.001.002-.001.004-.001.006-.006-.001-.012 0-.017.003.001.005.005.01.01.014-.001.002-.002.003-.003.005.005.006.016.004.024.004.001 0 .002 0 .003 0v.004c0 .009-.007.016-.016.016-.007 0-.013-.005-.015-.012-.001-.003-.004-.005-.007-.005h-.001c-.004 0-.007.003-.007.007 0 .009-.007.016-.016.016-.007 0-.013-.005-.015-.011 0-.001-.001-.001-.001-.002l-.001-.006c.001 0 .002 0 .002 0 .008-.001.018-.002.022-.008-.001-.002-.002-.003-.004-.004.004-.004.007-.01.007-.015-.005-.002-.01-.002-.016 0 0-.002-.001-.003-.002-.005-.003 0-.006.003-.009.006.001-.005.001-.009-.002-.013-.002 0-.004.001-.005.002-.002-.006-.006-.01-.011-.012-.003.004-.006.009-.006.016-.002 0-.004 0-.006 0-.001.004.001.008.003.012-.003-.002-.007-.003-.01-.002 0 .002 0 .004 0 .006-.006 0-.011.003-.015.007.002.005.006.009.012.011-.001.002-.002.003-.002.006.006.004.016 0 .023-.002.001 0 .003-.001.004-.001l.001.008c0 .009-.007.016-.016.016-.006 0-.012-.004-.015-.01-.001-.003-.006-.005-.009-.004-.003.001-.004.004-.004.007 0 .001 0 .002.001.003.001.001.001.003.001.005 0 .006-.004.011-.009.013-.003-.004-.008-.012-.012-.018.006-.003.013-.007.014-.013-.001-.001-.003-.002-.005-.003.002-.006.003-.011.001-.016-.005 0-.01.002-.015.006-.001-.002-.002-.003-.004-.004-.003.002-.005.005-.006.008-.001-.005-.003-.009-.006-.011-.002.001-.003.002-.004.003-.004-.004-.016-.005-.024.007 0 0 .012 0 .021.01.005.006.009.011.012.015 0 0 0 .001.001.001l.015.025c.001.002.003.004.006.004.012 0 .022-.008.025-.019.005.003.009.004.015.004.011 0 .021-.006.026-.015.005.005.012.008.019.008.011 0 .02-.006.025-.015.005.005.012.008.02.008.009 0 .017-.005.022-.011.006.007.014.011.023.011.008 0 .015-.003.02-.008.005.009.014.015.025.015.007 0 .014-.003.019-.008.005.009.015.015.026.015.006 0 .01-.001.015-.004.004.011.014.019.026.019.003 0 .006-.002.006-.004l.015-.025c.001 0 .001-.001.001-.001.003-.004.007-.01.012-.015.013-.01.025-.01.025-.01"/></g><g fill="#be172a"><path d="m114.68 279.61c0-.005-.004-.009-.009-.009-.005 0-.009.004-.009.009 0 .005.004.009.009.009.005 0 .009-.004.009-.009"/><path d="m114.75 279.63c0-.005-.004-.009-.009-.009-.005 0-.009.004-.009.009s.004.009.009.009c.005.001.009-.004.009-.009"/><path d="m114.58 279.61c0-.005-.004-.009-.009-.009-.005 0-.009.004-.009.009 0 .005.004.009.009.009.005 0 .009-.004.009-.009"/><path d="m114.51 279.63c0-.005-.004-.009-.009-.009-.005 0-.009.004-.009.009s.004.009.009.009c.005.001.009-.004.009-.009"/><path d="m114.62 279.6l-.026.009.026.009.027-.009-.027-.009"/><path d="m114.77 279.63l-.007.017-.011-.014.018-.003"/><path d="m114.47 279.63l.007.017.011-.014-.018-.003"/></g><g fill="#4e86c6"><path d="m114.56 279.61c.001.005-.002.01-.007.011l-.018.004c-.005.001-.01-.002-.011-.007-.001-.005.002-.01.007-.011l.018-.004c.005-.001.01.003.011.007"/><path d="m114.69 279.61c-.001.005.002.01.007.011l.018.004c.005.001.01-.002.011-.007.001-.005-.002-.01-.007-.011l-.018-.004c-.005-.001-.01.003-.011.007"/></g><g fill="#fff"><path d="m114.63 279.53c0-.005-.004-.009-.009-.009-.005 0-.009.004-.009.009 0 .005.004.009.009.009.005 0 .009-.004.009-.009"/><path d="m114.72 279.54c0-.005-.004-.009-.009-.009-.005 0-.009.004-.009.009s.004.009.009.009c.005 0 .009-.004.009-.009"/><path d="m114.81 279.57c0-.005-.004-.009-.009-.009-.005 0-.009.004-.009.009 0 .005.004.009.009.009.005 0 .009-.004.009-.009"/><path d="m114.52 279.54c0-.005.004-.009.009-.009.005 0 .009.004.009.009s-.004.009-.009.009c-.005 0-.009-.004-.009-.009"/><path d="m114.43 279.57c0-.005.004-.009.009-.009.005 0 .009.004.009.009 0 .005-.004.009-.009.009-.004 0-.009-.004-.009-.009"/></g><path fill="#ecd21b" d="m114.63 279.39v-.034h.011v-.019h-.011v-.012h-.018v.012h-.012v.019h.011v.034h-.016v.012h.05v-.012h-.015"/><path fill="#4e86c6" d="m114.37 279.66h.503s0 .296 0 .441c0 .146-.251.146-.251.146s-.252 0-.252-.146c0-.145 0-.441 0-.441"/><g fill="#c09b5a"><path d="m114.17 280.04c.026.01.048.029.063.054.003.005.005.011.005.018 0 .01-.004.018-.009.024-.007.008-.011.018-.011.029 0 .02.013.037.031.041.021.005.037.025.037.048 0 0-.036 0-.046 0s-.021-.006-.026-.018c-.008-.02-.03-.055-.048-.064.001-.003.007-.013.007-.017 0-.028-.018-.028-.043-.034l-.008-.002c0 0 .005-.019.017-.041.01-.019.031-.038.031-.038"/><path d="m114.27 279.75l.066-.102c.006-.009.016-.015.028-.015.019 0 .034.016.034.036h-.034l-.027.052-.018.077-.01.015-.001.002"/><path d="m114.02 280.1c-.001.005-.001.01-.001.015 0 .006.001.013.001.019 0 .003.001.006.001.008 0 .024-.014.044-.034.051 0 .003-.001.007-.001.01 0 .022.007.042.018.059h.001c.009.013.015.029.019.046.004.017.017.024.027.024h.054c0-.027-.021-.049-.046-.049-.01-.011-.016-.026-.016-.043 0-.025.015-.047.035-.056.025-.011.042-.037.042-.068.022-.066.067-.119.125-.148.043-.02.073-.066.073-.119 0-.041-.018-.077-.046-.101 0 0 0-.047 0-.059.006-.006.011-.009.025-.021.019-.015.033-.026.037-.048.003-.015.01-.062-.009-.06-.019.003-.047.015-.047.015-.011-.005-.014-.011-.027-.011-.008 0-.024.005-.031.007-.042.011-.073.052-.073.1l.001.114c0 .083-.039.155-.099.199-.025.018-.044.045-.051.077-.003.016-.016.024-.027.024s-.022-.004-.031-.013c-.017-.018-.017-.047 0-.065.006-.006.006-.016 0-.022-.006-.006-.015-.006-.021 0-.028.03-.028.079 0 .109.03.03.072.031.101.005.002-.014.005-.028.011-.04-.006.013-.01.026-.011.04"/></g><path fill="#a5a7a9" d="m114.15 279.72c.018.006.038.01.058.01.023 0 .045-.004.065-.012v.031c-.02.008-.042.012-.065.012-.02 0-.04-.003-.058-.01v-.031"/><path fill="#c09b5a" d="m114.18 279.64s-.007.021.003.043c.007.015.021.024.035.024.009-.012.011-.029.004-.044-.001-.001-.016-.035-.016-.035"/><path fill="#010202" d="m114.26 279.61c-.004.001-.009.002-.013.001.002-.003.006-.006.01-.008l.003.007"/><path fill="#c09b5a" d="m114.26 279.83c.028.016.06 0 .076-.027.005-.009.002-.025.006-.034.003-.011.012-.018.023-.018v.076c0 0-.007.007-.025.026-.018.019-.038.046-.058.04-.021-.006-.088-.023-.088-.023"/><g fill="#010202"><path d="m114.31 279.56c0 .017.013.03.029.03v-.01-.01c0-.008-.003-.012-.01-.011h-.009-.01z"/><path d="m114.18 279.74c0 .006-.004.01-.009.01-.005 0-.009-.004-.009-.01 0-.005.004-.01.009-.01.005.001.009.005.009.01"/><path d="m114.22 279.75c0 .006-.004.01-.009.01s-.009-.005-.009-.01c0-.005.004-.01.009-.01s.009.005.009.01"/><path d="m114.26 279.74c0 .006-.004.01-.009.01-.005 0-.009-.005-.009-.01 0-.005.004-.01.009-.01.005 0 .009.004.009.01"/><path d="m114.33 279.62s-.019.02-.043.027"/></g><g fill="#fff"><path d="m114.7 280.19l-.059-.065c-.01-.011-.027-.011-.037 0l-.059.065h.155"/><path d="m114.59 279.8l-.059-.065c-.01-.012-.027-.012-.037 0l-.059.065h.155"/><path d="m114.81 279.8l-.059-.065c-.01-.012-.027-.012-.037 0l-.059.065h.155"/><path d="m114.59 279.93l-.059-.065c-.01-.011-.027-.011-.037 0l-.059.065h.155"/><path d="m114.81 279.93l-.059-.065c-.01-.011-.027-.011-.037 0l-.059.065h.155"/><path d="m114.59 280.06l-.059-.065c-.01-.012-.027-.012-.037 0l-.059.065h.155"/><path d="m114.81 280.06l-.059-.065c-.01-.012-.027-.012-.037 0l-.059.065h.155"/></g><g fill="#a5a7a9"><path d="m114.88 279.26c.019.04.091.051.114.051.012 0 .023-.002.033-.007-.001.003-.003.007-.004.01-.01.022-.029.039-.053.046.008.024.025.033.044.04-.02.006-.155.017-.242-.073"/><path d="m114.36 279.26c-.02.04-.09.051-.114.051-.012 0-.023-.002-.033-.007.001.003.002.007.004.01.01.022.029.039.053.046-.008.024-.025.033-.044.04.021.006.156.017.242-.073"/><path d="m114.78 279.3l-.014.024s.017.004.033.008.025.001.037-.012c.014-.016.029-.039.029-.039.006-.009.009-.019.009-.031 0-.027-.019-.049-.044-.055h-.001c-.068-.012-.138-.019-.21-.019h-.003c-.071 0-.142.007-.21.019h-.001c-.025.005-.045.028-.045.055 0 .011.003.022.009.031 0 0 .015.023.029.039.012.013.02.016.037.012.017-.004.033-.008.033-.008l-.014-.024-.002-.004-.027.004c.061-.011.125-.017.189-.017h.003c.065 0 .128.006.19.017l-.026-.004-.001.004"/></g><g fill="#010202"><path d="m114.46 279.27c-.011.002-.022-.002-.026-.019-.003-.015.006-.026.016-.028.011-.002.022.002.026.019.003.015-.006.026-.016.028m-.009-.041c-.005.001-.008.005-.005.02.003.015.009.016.014.015.005-.001.008-.005.005-.02-.004-.014-.009-.016-.014-.015"/><path d="m114.54 279.26c-.002.001-.006.003-.011.003-.015.002-.026-.007-.028-.02-.002-.015.008-.025.023-.027.003-.001.007-.001.009 0 .001 0 .001.001.001.001l.001.011c0 0 0 .001-.001.001h-.003c-.001 0-.001 0-.001-.001l-.001-.004c-.001-.002-.003-.003-.006-.002-.01.001-.012.01-.011.018.001.01.007.018.019.016.002 0 .005-.001.007-.002.001 0 .001 0 .002 0l.001.004c-.001.001-.001.001-.001.002"/><path d="m114.6 279.25c0 .001 0 .001-.001.001l-.035.002c-.001 0-.001 0-.001-.001v-.002c0-.001 0-.001.001-.001h.003c.001 0 .001-.001.001-.002l-.002-.031c0-.001-.001-.002-.001-.002h-.003c-.001 0-.001-.001-.001-.001v-.002c0-.001 0-.001.001-.001l.034-.002c.001 0 .001 0 .001.001l.001.009c0 .001 0 .001-.001.001h-.002c-.001 0-.001-.001-.001-.001l-.001-.002c0-.001-.001-.002-.003-.002h-.011c-.001 0-.001 0-.001.001l.001.011c0 .001 0 .001.001.001h.015c.001 0 .001 0 .001.001v.004c0 .001 0 .001-.001.001h-.015c0 0-.001.001-.001.001l.001.012c0 .002.001.002.002.002h.011c.001 0 .002-.001.002-.002l.001-.002c0-.001.001-.001.001-.001h.003c.001 0 .001 0 .001.001v.007z"/><path d="m114.68 279.26h-.019c-.001 0-.001 0-.001-.001v-.002c0-.001 0-.001.001-.001h.003c.001 0 .001-.001.001-.002l-.001-.005c0 0 0-.001-.001-.001h-.017c0 0-.001.001-.001.001l-.002.005c-.001.001 0 .002.001.002h.003c.001 0 .001 0 .001.001v.002c0 .001 0 .001-.001.001h-.017c0 0-.001 0-.001-.001v-.002c0-.001 0-.001.001-.001h.002c.001 0 .001-.001.002-.002l.017-.039c0 0 0 0 .001 0h.01c0 0 0 0 0 .001l.014.039c.001.002.001.002.002.002h.002c.001 0 .001.001.001.001v.002c0 .001 0 .001-.001.001m-.023-.033c-.001-.003-.001-.005-.002-.006 0 .001-.001.003-.002.006l-.005.013c0 0 0 .001.001.001h.012c.001 0 .001 0 0-.001l-.004-.013"/><path d="m114.75 279.22h-.003c-.001 0-.001.001-.001.002l-.005.038c0 0 0 .001-.001 0h-.006c-.001 0-.001 0-.001-.001l-.016-.026c-.001-.002-.002-.005-.003-.006l-.003.023c0 .001 0 .002.001.002h.004c.001 0 .001.001.001.001v.002c0 .001 0 .001-.001.001l-.018-.002c0 0-.001 0-.001-.001v-.002c0-.001 0-.001.001-.001h.003c.001 0 .001-.001.001-.002l.004-.031c0-.002 0-.002-.001-.002h-.003c-.001 0-.001-.001-.001-.001v-.002c0-.001.001-.001.001-.001h.015c.001 0 .001.001.001.001l.012.021c.001.003.002.005.003.006l.002-.019c0-.002-.001-.002-.001-.002h-.004c0 0-.001-.001-.001-.001l.001-.002c0-.001 0-.001.001-.001l.018.002c.001 0 .001.001.001.001v.003c.001 0 .001 0 0 0"/><path d="m114.79 279.27c-.011-.002-.02-.01-.017-.028.003-.015.016-.021.026-.019.011.002.02.01.017.027-.003.015-.016.021-.026.02m.008-.042c-.005-.001-.01.001-.013.016-.003.015.001.018.007.019s.01-.002.013-.016c.002-.014-.002-.018-.007-.019"/></g><g fill="#c09b5a"><path d="m115.07 280.04c-.026.01-.048.029-.062.054h-.001c-.003.005-.004.011-.004.018 0 .009.003.018.009.024.007.007.011.018.011.029 0 .02-.013.037-.031.041-.021.005-.037.025-.037.048 0 0 .036 0 .046 0 .01 0 .02-.006.026-.018.009-.02.03-.055.048-.064 0-.003-.007-.013-.007-.016 0-.028.019-.028.044-.034l.008-.002c0 0-.005-.019-.017-.041-.011-.02-.033-.039-.033-.039"/><path d="m114.97 279.75l-.066-.102c-.006-.009-.017-.016-.028-.016-.019 0-.034.017-.034.037h.034l.027.052.018.077.01.015.001.002"/><path d="m115.22 280.1c0 .005.001.01.001.015 0 .007 0 .013-.001.019 0 .003 0 .006 0 .008 0 .024.014.044.034.051 0 .004.001.007.001.011 0 .022-.007.042-.018.059h-.001c-.009.013-.015.029-.019.046-.004.017-.017.024-.027.024h-.054c0-.027.021-.049.046-.049h.001c.01-.011.016-.026.016-.043 0-.025-.015-.047-.036-.056-.025-.011-.042-.037-.042-.068-.022-.066-.067-.119-.126-.148-.043-.02-.073-.066-.073-.119 0-.041.018-.077.046-.101 0 0 0-.047 0-.059-.006-.005-.011-.009-.026-.02-.019-.015-.032-.026-.037-.048-.002-.015-.01-.062.009-.06.019.003.046.015.046.015.011-.005.014-.011.027-.011.008 0 .024.004.031.006.042.012.073.052.073.1l-.001.114c0 .083.039.155.099.199.025.018.044.045.051.077.003.016.016.024.027.024.011 0 .022-.004.031-.013.017-.018.017-.047 0-.065-.006-.006-.006-.016 0-.022.006-.006.015-.006.02 0 .028.03.028.079 0 .109-.027.028-.069.03-.098.004-.001-.014-.005-.028-.011-.04.006.013.01.026.011.04"/></g><path fill="#a5a7a9" d="m115.09 279.72c-.018.006-.038.01-.058.01-.023 0-.044-.004-.064-.012v.031c.02.008.042.012.064.012.02 0 .039-.003.058-.01v-.031"/><path fill="#c09b5a" d="m115.06 279.64s.007.022-.002.043c-.007.015-.021.024-.036.024-.009-.012-.011-.029-.004-.044.001-.001.016-.035.016-.035"/><path fill="#c0a151" d="m114.98 279.61c.004.002.009.002.012.001-.002-.003-.006-.007-.01-.008l-.002.007"/><path fill="#c09b5a" d="m114.98 279.83c-.028.016-.06 0-.075-.027-.006-.009-.003-.025-.006-.034-.003-.01-.012-.017-.023-.017v.076c0 0 .007.007.025.026.018.019.037.046.058.04.02-.007.088-.023.088-.023"/><g fill="#010202"><path d="m114.93 279.56c0 .017-.012.031-.028.031v-.01-.01c0-.008.003-.012.01-.011h.009.009"/><path d="m115.06 279.74c0 .006.004.01.009.01.005 0 .009-.004.009-.01 0-.005-.004-.01-.009-.01-.005.001-.009.005-.009.01"/><path d="m115.02 279.75c0 .006.004.01.009.01.005 0 .009-.005.009-.01 0-.005-.004-.01-.009-.01-.004 0-.009.005-.009.01"/><path d="m114.98 279.74c0 .006.004.01.009.01.005 0 .009-.004.009-.01 0-.006-.004-.01-.009-.01-.005 0-.009.004-.009.01"/></g></g></svg>