<svg xmlns="http://www.w3.org/2000/svg" viewBox="0 0 16 12" enable-background="new 0 0 16 12"><switch><g><path fill="#009b67" d="m0 0h16v12h-16z"/><path fill="#ef3e42" d="m16 0h-16l8 6z"/><path fill="#ef3e42" d="m16 12h-16l8-6z"/><path fill="#fff" d="m8 9.389c.789 0 1.506-.34 2.045-.899l4.676 3.511h1.279v-.958l-5.17-3.884c.118-.36.182-.752.182-1.158 0-.412-.065-.805-.184-1.17l5.172-3.884v-.945h-1.297l-4.667 3.503c-.536-.554-1.252-.892-2.037-.892s-1.5.338-2.036.892l-4.667-3.503h-1.297v.945l5.172 3.884c-.12.365-.185.758-.185 1.17 0 .406.065.798.182 1.158l-5.169 3.884v.958h1.278l4.677-3.511c.538.56 1.254.899 2.044.899"/><circle fill="#fff" cx="8" cy="6" r="3.5"/><g><path fill="#009b67" d="m8.02 5.389l.275-.47h.541l-.27-.475.27-.475h-.541l-.275-.469-.273.469h-.542l.269.475-.269.475h.542z"/><path fill="#009b67" d="m6.504 7.865l.274-.469h.541l-.269-.475.269-.475h-.541l-.274-.47-.274.47h-.542l.269.475-.269.475h.542z"/><path fill="#009b67" d="m9.486 7.865l.275-.469h.541l-.27-.475.27-.475h-.541l-.275-.47-.273.47h-.541l.268.475-.268.475h.541z"/></g><g><path fill="#ef3e42" d="m8 4h1v1h-1z"/><path fill="#ef3e42" d="m9 7h1v1h-1z"/><path fill="#ef3e42" d="m6 7h1v1h-1z"/></g></g></switch></svg>