<svg xmlns="http://www.w3.org/2000/svg" viewBox="0 0 16 12" enable-background="new 0 0 16 12"><path fill="#dc2f34" d="m0 0h16v12h-16z"/><path fill="#fff" d="m0 0h9v6h-9z"/><g fill="#dc2f34"><path d="m0 3h9v1h-9z"/><path d="m4 0h1v6h-1z"/><path d="m0 0h1v1h-1z"/><path d="m1 1h1v1h-1z"/><path d="m2 2h1v1h-1z"/><path d="m7 4h1v1h-1z"/><path d="m8 5h1v1h-1z"/></g><g fill="#262d62"><path d="m6 5h1v1h-1z"/><path d="m2 5h1v1h-1z"/><path d="m6 0h1v1h-1z"/><path d="m2 0h1v1h-1z"/></g><g fill="#dc2f34"><path d="m0 5h1v1h-1z"/><path d="m1 4h1v1h-1z"/><path d="m8 0h1v1h-1z"/><path d="m7 1h1v1h-1z"/><path d="m6 2h1v1h-1z"/></g><path fill="#fff" d="m10 4h4v4h-4z"/><g fill="#74b95b"><path d="m10 8h4v1h-4z"/><path d="m11 9h2v1h-2z"/></g><path fill="#dc2f34" d="m11 5h2v2h-2z"/><path fill="#3e98d4" d="m11 7h2v1h-2z"/></svg>