<svg xmlns="http://www.w3.org/2000/svg" viewBox="0 0 16 12" enable-background="new 0 0 16 12"><switch><g><g><g><path fill="#003976" d="m0 0h16v12h-16z"/><path fill="#fff" d="m.04.001h8.771v6.136h-8.771z"/></g><path fill="#e03a3e" d="m7.153.001l-7.133 6.152h1.706l7.104-6.152z"/><path fill="#e03a3e" d="m1.697.001l7.133 6.152h-1.707l-7.103-6.152z"/><path fill="#e03a3e" d="m.04 2.477h3.962v-2.469h.857v2.469h3.951v1.199h-3.951v2.469h-.857v-2.469h-3.962z"/></g><g><circle fill="#fff" cx="12.614" cy="2.827" r=".913"/><circle fill="#fff" cx="12.614" cy="9.781" r=".947"/><circle fill="#fff" cx="10.69" cy="5.59" r=".737"/><circle fill="#fff" cx="14.336" cy="5.213" r=".72"/><circle fill="#e03a3e" cx="12.614" cy="9.781" r=".66"/><circle fill="#e03a3e" cx="12.614" cy="2.827" r=".606"/><circle fill="#e03a3e" cx="14.336" cy="5.213" r=".455"/><circle fill="#e03a3e" cx="10.69" cy="5.59" r=".444"/></g></g></switch></svg>