<svg xmlns="http://www.w3.org/2000/svg" viewBox="0 0 16 12" enable-background="new 0 0 16 12"><switch><g><path fill="#62bb46" d="m0 6h16v6h-16z"/><path fill="#ce1141" d="m0 0h16v6h-16z"/><path d="m0 0l9.607 5.146v1.717l-9.607 5.138z"/><path d="m9 4h7v3h-7z"/><path fill="#ffe252" d="m9.518 5.717h-.057l-9.461-5.05v.648l8.785 4.689-8.785 4.69v.646l9.461-5.05h.057z"/><path fill="#ffe252" d="m8 5h8v1h-8z"/><path fill="#e1c767" d="m7 6h1v1h-1z"/><path fill="#e1c767" d="m7 4h1v1h-1z"/><path fill="#e1c767" d="m5 3h1v1h-1z"/><path fill="#e1c767" d="m3 2h1v1h-1z"/><path fill="#e1c767" d="m1 1h1v1h-1z"/><path fill="#e1c767" d="m3 9h1v1h-1z"/><path fill="#e1c767" d="m5 8h1v1h-1z"/><path fill="#e1c767" d="m7 5h1v1h-1z"/><path fill="#e1c767" d="m0 0h1v1h-1z"/><path fill="#e1c767" d="m0 11h1v1h-1z"/><path fill="#e1c767" d="m1 10h1v1h-1z"/><path fill="#e1c767" d="m2 6h1v1h-1z"/><path d="m9 6h7v1h-7z"/></g></switch></svg>