<svg xmlns="http://www.w3.org/2000/svg" viewBox="0 0 16 12" enable-background="new 0 0 16 12"><path fill="#fff" d="m0 0h16v12h-16z"/><g fill="#e30613"><path d="m8.537 7.48c-1.343-.042-2.362-1.277-1.054-2.699-.932 1.604.2 2.324 1.054 2.699"/><path d="m7.259 7.257c-1.203-.48-1.537-1.884.245-2.482-1.516.855-.865 1.923-.245 2.482"/><path d="m8.357 4.355c-.27.556-.562.527-.803.001.269.328.544.275.803-.001"/><path d="m7.411 7.48c1.343-.042 2.362-1.277 1.055-2.699.931 1.604-.199 2.324-1.055 2.699"/><path d="m8.69 7.257c1.202-.479 1.536-1.884-.246-2.481 1.517.854.867 1.922.246 2.481"/><path d="m7.98 7.385c.074 0 .135-.061.135-.135v-2.154c-.166.003-.073-.596-.121-.391h-.052c-.022-.013.058.381-.096.391v2.154c0 .074.06.135.134.135"/><path d="m7.872 7.244l.256.026-.038.255c-.013.103-.167.116-.18.013l-.038-.294"/></g><path fill="#008237" d="m0 0h16v4h-16z"/><path fill="#e30613" d="m0 8h16v4h-16z"/><path fill="#5db77a" d="m0 2h16v1h-16z"/><path fill="#f6a322" d="m0 9h16v1h-16z"/></svg>