<svg xmlns="http://www.w3.org/2000/svg" viewBox="0 0 16 12" enable-background="new 0 0 16 12"><switch><g><g><path fill="#dc1f26" d="m0 0h16v12h-16z"/><path fill="#0e9a48" d="m0 5h16v2h-16z"/><path fill="#ffd700" d="m2.802 1.99c.356.273.635.514.674.937.044.178-.004.347-.106.472l-.869-.853.263-.234-.383-.104-.441.436.234.234.188-.195c.277.286.554.572.832.858-.222.117-.531.095-.798-.187l-.066.067-.049-.008-.055.056-.063-.005c-.034.152-.235.208-.322.332-.111.138.044.258.147.144.093-.072.214-.331.333-.319l-.011-.066.039-.028c.313.358.727.383 1.017.191.087.09.174.18.262.27.094-.022.144-.058.174-.166l-.265-.261c.112-.141.184-.33.183-.553-.003-.346-.356-.818-.918-1.021"/></g><path fill="#ffd700" d="m3 1h1v1h-1z"/></g></switch></svg>