<svg xmlns="http://www.w3.org/2000/svg" viewBox="0 0 16 12" enable-background="new 0 0 16 12"><switch><g><path fill="#fff" d="m0 3.987h16v4.076h-16z"/><path fill="#0073bd" d="m0 8.06h16v3.938h-16z"/><path fill="#ed1c24" d="m0 0h16v3.987h-16z"/><path fill="#2c77bd" d="m9.481 3.646l.26-1.236.896-.299.233.897-.663 1.012z"/><path d="m9.354 1.579l-.777.619-.061 1.38.997.262.398-1.38z"/><path fill="#2c77bd" d="m8.1 1.535l-.618.704.111 1.3.926.015.199-1.315z"/><path stroke="#000" stroke-width=".2" d="m6.844 1.644l-.598.811.418 1.237.997-.256-.021-1.323z"/><path fill="#2c77bd" d="m5.887 3.867l-.642-1.059.403-.775.771.31.266 1.185z"/><path fill="#f5b8d4" stroke="#ed1c24" d="m10.397 4l.031 2.972c-.377 3.101-4.674 2.459-4.62-.075.031-1.49-.04-2.91-.04-2.91l4.629.013z"/></g></switch></svg>