<svg xmlns="http://www.w3.org/2000/svg" viewBox="0 0 16 12" enable-background="new 0 0 16 12"><switch><g><path fill="#262d62" d="m0 0h16v12h-16z"/><g><path fill="#fff" d="m0 0h9v6h-9z"/><path fill="#dc2f34" d="m0 3h9v1h-9z"/><path fill="#dc2f34" d="m4 0h1v6h-1z"/><path fill="#dc2f34" d="m0 0h1v1h-1z"/><path fill="#dc2f34" d="m1 1h1v1h-1z"/><path fill="#dc2f34" d="m2 2h1v1h-1z"/><path fill="#dc2f34" d="m7 4h1v1h-1z"/><path fill="#dc2f34" d="m8 5h1v1h-1z"/><path fill="#262d62" d="m6 5h1v1h-1z"/><path fill="#262d62" d="m2 5h1v1h-1z"/><path fill="#262d62" d="m6 0h1v1h-1z"/><path fill="#262d62" d="m2 0h1v1h-1z"/><path fill="#dc2f34" d="m0 5h1v1h-1z"/><path fill="#dc2f34" d="m1 4h1v1h-1z"/><path fill="#dc2f34" d="m8 0h1v1h-1z"/><path fill="#dc2f34" d="m7 1h1v1h-1z"/><path fill="#dc2f34" d="m6 2h1v1h-1z"/></g><path fill="#ffe000" d="m10 5h4v3h-4z"/><path fill="#ffe000" d="m10 8h4v1h-4z"/><path fill="#ffe000" d="m11 9h2v1h-2z"/><path fill="#003671" d="m12 6h1v1h-1z"/><path fill="#086" d="m12 8h1v1h-1z"/><path fill="#f8ae4c" d="m11 6h1v1h-1z"/></g></switch></svg>