<svg xmlns="http://www.w3.org/2000/svg" viewBox="0 0 16 12" enable-background="new 0 0 16 12"><path fill="#e52629" d="m0 0h16v12h-16z"/><path fill="#fff" d="m0 3h16v6h-16z"/><path fill="#00904a" d="m7.417 3.156c-.109.12-.365.289-.424.404-.057.115-.245.232-.345.275-.1.043-.012.111.097.043s.2-.065.265-.127.157-.003.066.039c-.09.042-.123.114-.162.165-.04.051-.06.077-.15.079s-.172.025-.236.117c-.063.092-.142.2-.176.251-.034.052-.008.092.077.029s.18-.115.222-.045c.041.07.04.104-.073.148-.24.096-.31.153-.353.25-.044.097-.018.127-.168.176-.152.049-.395.226-.554.346s-.068.126.053.12c.187-.009.427-.136.55-.083.036.07.078.16.136.225-.197.277-.23.383-.431.388-.204.004-.331.209-.424.313-.094.102-.175.2-.273.243-.085.037-.104.068-.038.102s.125-.048.187-.019c.061.029.101.017.196-.045s.193-.146.346-.164c.072.084.108.129.19.173-.142.194-.356.346-.542.411-.185.064-.215.135-.348.305s-.126.225-.262.228c-.136.003-.13.033-.059.088.072.054.127.027.233.05.107.023.244.046.382-.104.139-.15.478-.412.765-.386.137.012.234.04.07.195-.163.156-.398.274-.559.306-.312.063-.446.187-.536.184-.092-.004-.176.059-.037.142.137.083.183.102.338.033s.41-.186.511-.213c.101-.028.176-.069.246-.052.071.02.127-.002.207-.055.079-.051.196-.059.294-.152.116-.109.238-.016.315.049.077.063.229.318.091.492-.138.176-.29.36-.339.453-.048.092-.076.098-.133.119-.186.069-.375.185-.43.231s-.034.062.042.076.086-.002.156-.06c.068-.057.153-.144.325-.139.091.004.166-.048.245-.131.079-.082.249-.156.336-.139.086.019.111-.002.161-.038.05-.037.09-.053.167.011.077.064.143.053.222.006.08-.047.167-.029.188.021.021.05.033.095.104.144.072.05.328.2.41.244.081.044.135-.038.073-.093-.062-.055-.093-.098-.084-.144.01-.046.057-.064.196-.045.218.031.53.186.643.254s.215.127.306.125.12-.024.038-.098c-.083-.073-.184-.066-.22-.142-.063-.13-.173-.036-.231-.167-.043-.091-.099-.103-.17-.096s-.165-.058-.23-.157c-.23-.349-.293-.66-.217-.895s.297-.305.425-.206c.129.098.282.16.347.153.066-.006.122-.007.209.041.087.049.234.081.414.007.181-.075.244-.017.358-.013.097.002.213.021.29.084.077.064.194.107.372.134s.298-.021.154-.104-.266-.131-.317-.205c-.053-.075-.129-.089-.204-.087-.076.002-.198-.052-.302-.155s-.185-.122-.266-.11c-.08.012-.172-.012-.229-.081.078-.093.16-.266.235-.318.091-.007.167.017.229.071.062.054.147.042.208.041s.147.027.199.061c.051.035.132.033.207.001.075-.032.059-.072-.033-.126s-.144-.088-.175-.138-.058-.074-.169-.072c-.11.003-.163-.051-.25-.146-.197-.213-.328-.226-.455-.208-.124.018-.25.04-.354-.109.13-.063.235.083.403-.044.089-.067.149-.084.262-.046s.243.025.278-.001c.034-.026.079-.067.135-.074.055-.006.048-.079-.032-.07-.156.019-.184-.077-.335-.048-.15.028-.207.004-.305-.064-.098-.069-.18-.128-.467-.082.014-.091.007-.187.147-.215.108.063.209.051.295.049.086-.002.379-.003.465.01.087.013.106-.027-.021-.095-.128-.068-.311-.095-.377-.098-.066-.004-.098-.049-.14-.134-.043-.085-.17-.152-.357-.153-.152-.001-.264-.071-.342-.14-.077-.069-.148-.123-.24-.136s-.174-.077-.135-.154.189-.11.297-.042c.108.069.174.073.238.036.066-.037.106-.053.202-.02s.195.031.044-.082c-.216-.162-.426-.097-.5-.186-.072-.089-.132-.053-.181-.031-.051.021-.141-.029-.034-.086.08-.042.161-.064.232-.03.072.034.158.022.213-.004.056-.026.109-.078-.058-.11-.168-.032-.423-.133-.52-.221-.099-.089-.204-.107-.29-.09s-.157.029-.305-.064-.343-.185-.479-.374c-.134-.189-.148-.073-.231.02"/><g fill="#fff"><path d="m6.917 4.232c-.099-.011-.178.035-.127.101.051.067.077.025.141-.007s.123-.078-.014-.094"/><path d="m7.188 4.446c-.091.044-.177.095-.206.187-.028.091-.024.172.061.15.128-.033.136-.185.23-.202-.031-.045-.04-.105-.085-.135"/><path d="m7.345 4.367c.009.038.021.098.052.127.083-.04.293-.12.372-.137.006-.056-.009-.094-.026-.124-.113.01-.279.052-.398.134"/><path d="m8.05 4.724c.001.056.024.197.035.252.051.024.117.043.168.057.034-.066.042-.162.041-.223-.092-.059-.175-.122-.244-.086"/><path d="m7.872 4.804c.006.046.008.111.014.151-.066.002-.171.04-.237.061s-.143-.098-.028-.146.191-.059.251-.066"/><path d="m6.255 5.259c.12-.063.181-.024.292-.057.051.049.113.109.155.168-.063.108-.257.036-.322.083-.052-.055-.088-.109-.125-.194"/><path d="m6.742 5.137c.031.065.063.12.089.15.092.008.126-.043.165-.104s.037-.137-.063-.13c-.101.006-.157.028-.191.084"/><path d="m5.954 6.302c.026.064.103.088.124.138.085-.053.125-.048.196-.035.071.014.262-.051.37-.164.109-.114.039-.103-.087-.084-.125.018-.221.04-.307.022-.087-.019-.218.02-.296.123"/><path d="m7.07 5.771c-.06.037-.09.062-.043.117s.071.029.126-.002c.056-.032.08-.078.049-.118-.031-.039-.072-.033-.132.003"/><path d="m7.365 5.678c-.06.002-.055.039-.047.069.008.03.016.049.064.048.05-.001.057-.012.041-.062-.016-.048-.02-.056-.058-.055"/><path d="m7.549 5.731c.001.069-.01.065.058.075s.091.005.094-.059c.002-.064.005-.087-.074-.089-.08-.003-.079.024-.078.073"/><path d="m7.83 5.785c-.02.055-.047.1.037.132s.088.01.112-.062c.026-.073.029-.107-.036-.125-.065-.018-.088-.013-.113.055"/><path d="m8.13 5.806c-.003.03-.027.114-.038.14.034.015.08.032.115.055.034.022.082-.04.065-.096-.016-.057-.079-.146-.142-.099"/><path d="m8.485 4.899c-.011.038-.046.164-.06.198.099.025.176.039.244.033s.178-.027.23-.017c.054.01.083-.043-.006-.11-.088-.065-.141-.075-.198-.074-.057.001-.153-.069-.21-.03"/><path d="m8.863 5.369c-.068-.011-.104.044-.058.081.047.037.106.02.113-.014s.01-.057-.055-.067"/><path d="m9.02 5.35c.005.034.013.095.014.121.05.048.102-.002.156.046.054.048.095-.002.105-.052.011-.049.018-.076-.028-.075-.098.003-.164-.083-.247-.04"/><path d="m7.939 4.184c.012.026.043.086.044.116.046.029.153.062.183.008s.04-.077-.01-.103-.158-.118-.217-.021"/><path d="m8.347 4.277c-.032.037-.006.057.04.083s.079-.017.074-.051c-.004-.035-.065-.086-.114-.032"/><path d="m6.851 6.858c.035.03.062.074.054.125-.01.051.021.07.057.085.035.014.128.102.145.007.019-.097-.061-.247-.116-.256s-.081-.007-.106-.038c-.027-.029-.102.018-.034.077"/><path d="m9.965 6.457c-.024.086-.115.275-.175.312-.092-.043-.26-.08-.275-.13.033-.092.066-.169.09-.225.106-.022.273-.031.36.043"/><path d="m9.396 6.327c-.003.067-.041.214-.06.265-.106.012-.359-.038-.444-.006.003-.07.001-.162.021-.208.161-.003.31-.107.483-.051"/></g></svg>