<svg xmlns="http://www.w3.org/2000/svg" viewBox="0 0 16 12" enable-background="new 0 0 16 12"><switch><g><g><path fill="#fff200" d="m0 0h16v12h-16z"/><path fill="#fff" d="M16,9 0,3.3647 0,0 16,5.5903z"/><path d="M16,9.252 0,4 0,6.7529 16,12z"/></g><path fill="#ef3e42" d="m8 2h1v6h-1z"/><path fill="#ef3e42" d="m4 4h1v3h-1z"/><path fill="#ef3e42" d="m12 4h1v3h-1z"/><path fill="#ef3e42" d="m5 8h7v1h-7z"/><path fill="#ef3e42" d="m6 9h5v1h-5z"/><path fill="#ef3e42" d="m7 4h3v1h-3z"/><path fill="#ef3e42" d="m6 5h1v2h-1z"/><path fill="#ef3e42" d="m10 5h1v2h-1z"/><path fill="#ef3e42" d="m7 7h3v1h-3z"/></g></switch></svg>