<svg xmlns="http://www.w3.org/2000/svg" viewBox="0 0 16 12" enable-background="new 0 0 16 12"><switch><g><g><path fill="#ed1c2e" d="m0 0h16v12h-16z"/><path fill="#ffe01b" d="m8.182 3.684c.006-.403.361-.68.377-1.216.256.321-.167.923-.017 1.273.068-.397.464-.614.563-1.142.202.357-.31.886-.216 1.254.129-.381.554-.534.734-1.04.145.385-.444.827-.409 1.205.187-.356.631-.441.888-.912.082.402-.568.747-.593 1.126.241-.322.692-.337 1.02-.762.019.411-.678.649-.762 1.02.288-.281.736-.225 1.126-.593-.046.408-.771.535-.912.888.329-.232.763-.107 1.205-.41-.109.396-.845.408-1.039.734.361-.178.77.014 1.254-.216-.17.373-.898.27-1.142.563.385-.12.758.134 1.273-.018-.227.343-.93.127-1.215.377.398-.058.727.251 1.26.182-.277.303-.938-.021-1.26.183.402.005.679.362 1.215.377-.321.256-.923-.167-1.273-.017.396.068.614.463 1.142.563-.357.202-.886-.31-1.254-.216.381.129.534.554 1.039.734-.385.144-.826-.444-1.205-.409.356.188.441.631.912.888-.402.082-.747-.568-1.126-.593.322.24.337.691.762 1.02-.41.018-.649-.678-1.021-.762.281.288.225.736.594 1.126-.408-.046-.535-.771-.889-.912.232.329.107.763.41 1.205-.396-.109-.408-.845-.734-1.04.178.361-.014.77.216 1.255-.374-.17-.271-.898-.563-1.142.119.385-.135.758.017 1.273-.343-.227-.126-.93-.377-1.216.058.398-.251.729-.183 1.26-.303-.277.02-.938-.183-1.26-.005.402-.361.68-.377 1.216-.256-.321.168-.923.018-1.273-.068.396-.464.614-.563 1.142-.203-.357.309-.886.215-1.255-.129.382-.554.535-.733 1.04-.144-.385.444-.827.409-1.205-.188.356-.631.44-.888.912-.083-.402.567-.747.593-1.126-.241.322-.692.336-1.019.762-.019-.41.678-.649.762-1.019-.289.28-.736.224-1.127.592.047-.407.771-.534.912-.888-.328.232-.762.106-1.205.41.109-.396.846-.408 1.04-.735-.361.178-.769-.014-1.255.216.17-.374.898-.271 1.143-.563-.385.12-.759-.134-1.273.017.227-.343.93-.127 1.216-.377-.398.058-.728-.252-1.26-.183.277-.303.939.021 1.26-.183-.402-.005-.679-.361-1.216-.377.321-.256.924.167 1.273.017-.397-.068-.615-.464-1.143-.563.357-.203.887.309 1.255.215-.382-.129-.534-.554-1.04-.734.385-.144.827.444 1.205.409-.356-.187-.44-.631-.912-.888.403-.082.748.568 1.127.593-.322-.241-.337-.692-.762-1.019.41-.018.648.678 1.019.762-.281-.289-.225-.736-.593-1.127.408.046.534.772.888.912-.232-.329-.106-.762-.409-1.205.396.109.407.845.734 1.04-.179-.361.014-.769-.216-1.254.373.17.269.898.563 1.142-.119-.384.134-.758-.018-1.273.343.227.127.93.378 1.216-.058-.398.251-.728.182-1.26.304.277-.021.938.183 1.26"/><circle fill="#ed1c2e" cx="8" cy="6" r="1.89"/><g><path fill="#ffe01b" d="m8 4.352c.481 0 .915.207 1.217.537-.473.047-.875.159-1.217.329-.343-.17-.744-.282-1.217-.329.301-.33.734-.537 1.217-.537"/><path fill="#ffe01b" d="m7.875 5.285c-.038.021-.075.043-.111.066-.308-.164-.676-.269-1.112-.299.021-.028.041-.056.063-.082.454.04.837.149 1.161.316"/><path fill="#ffe01b" d="m8.125 5.285c.037.021.075.043.111.066.307-.164.675-.269 1.111-.299-.02-.028-.04-.056-.062-.082-.454.04-.838.149-1.161.316"/><path fill="#ffe01b" d="m6.596 5.136c-.018.028-.034.057-.05.086.407.01.749.104 1.028.258.029-.021.06-.043.09-.064-.293-.159-.646-.259-1.068-.28"/><path fill="#ffe01b" d="m6.575 6.829c-.142-.244-.224-.527-.224-.829 0-.247.054-.479.15-.689.394-.003.723.083.992.232-.398.326-.693.761-.919 1.285"/><path fill="#ffe01b" d="m7.406 7.538c-.074-.028-.146-.063-.214-.101.039-.62.241-1.21.646-1.638.029.029.059.059.086.09-.375.439-.538 1.042-.518 1.648"/><path fill="#ffe01b" d="m9.404 5.136c.018.028.033.057.05.086-.407.01-.749.104-1.028.258-.029-.021-.06-.043-.09-.064.293-.159.646-.259 1.068-.28"/><path fill="#ffe01b" d="m9.425 6.829c.142-.244.224-.527.224-.829 0-.247-.054-.479-.15-.689-.394-.003-.723.083-.992.232.398.326.693.761.919 1.285"/><path fill="#ffe01b" d="m8 5.981c.338.438.465 1.036.4 1.618-.128.032-.263.05-.4.05-.139 0-.272-.018-.4-.05-.064-.582.061-1.18.4-1.618"/><path fill="#ffe01b" d="m8.594 7.538c.074-.028.146-.063.214-.101-.039-.62-.242-1.21-.646-1.638-.029.029-.059.059-.086.09.375.439.538 1.042.518 1.648"/><path fill="#ffe01b" d="m7.739 5.712c-.035-.029-.075-.06-.113-.086-.418.371-.693.874-.868 1.458.064.074.136.142.213.203.107-.614.35-1.17.769-1.575"/><path fill="#ffe01b" d="m8.261 5.712c.035-.029.075-.06.113-.086.418.371.693.874.867 1.458-.065.074-.136.142-.212.203-.107-.614-.35-1.17-.769-1.575"/><path fill="#ffe01b" d="m8 5.355c.021.012.092.057.109.069-.027.017-.092.061-.109.073-.018-.012-.082-.056-.11-.073.019-.012.09-.057.11-.069"/><path fill="#ffe01b" d="m7.791 5.492c-.027.021-.07.054-.087.067.041.026.095.067.112.081.021-.018.063-.055.086-.072-.028-.021-.089-.064-.111-.077"/><path fill="#ffe01b" d="m8.208 5.492c.028.021.071.054.087.067-.04.026-.094.067-.111.081-.021-.018-.063-.055-.086-.072.027-.021.089-.064.11-.077"/><path fill="#ffe01b" d="m8 5.646c.018.015.071.063.086.077-.025.022-.065.06-.086.082-.021-.023-.061-.061-.086-.082.014-.015.067-.062.086-.077"/></g></g><path fill="#ffe01b" d="m7 5h2v2h-2z"/></g></switch></svg>