<svg xmlns="http://www.w3.org/2000/svg" viewBox="0 0 16 12" enable-background="new 0 0 16 12"><path fill="#e50040" d="m0 9h16v3h-16z"/><path fill="#0072bb" d="m0 6h16v3h-16z"/><path fill="#ffe400" d="m0 0h16v6h-16z"/><g fill="#585232"><path d="m5.386 6.01h5.02v.066h-5.02z" transform="matrix(.7597-.6503.6503.7597-2.033 6.586)"/><path d="m5.893 6.539h4.694v.066h-4.694z" transform="matrix(.7677-.6408.6408.7677-2.297 6.806)"/><path d="m5.586 6.01h5.02v.066h-5.02z" transform="matrix(-.7597-.6503.6503-.7597 10.312 15.896)"/><path d="m5.401 6.539h4.693v.066h-4.693z" transform="matrix(-.7677-.6408.6408-.7677 9.483 16.582)"/></g><g fill="#f4f4f4"><path d="m6.416 8.05l-.01.032-.028-.005-.117.146.164-.09.001-.029.033-.004z"/><path d="m5.966 7.648l-.009.034-.028-.005-.117.146.164-.092.001-.027.033-.006z"/><path d="m10.06 5.097l.058-.015.02-.049c.018.022.003.097-.025.12.043.011.115.001.15-.028s.058-.098.054-.141c-.027.025-.105.026-.124.005.024-.012.105-.044.141-.049.013-.057.062-.146.099-.197-.057.027-.157.06-.215.063-.011.034-.057.106-.073.127l-.026-.03-.051-.004-.002.048.028.031-.055.013-.023.052.044.054"/><path d="m9.822 4.44c.044-.035.141-.075.176-.081.013-.056.061-.147.097-.198-.057.028-.155.063-.213.067-.011.033-.066.122-.106.159l.046.053"/><path d="m9.779 4.429c.045.051.124.05.165-.017-.033.025-.088.029-.127-.016-.039-.043-.026-.095.003-.124-.074.03-.085.105-.041.157"/><path d="m9.57 8.05l.01.032.027-.005.119.146-.164-.09v-.029l-.034-.004z"/><path d="m10.02 7.648l.009.034.028-.005.116.146-.163-.092v-.027l-.033-.006z"/><path d="m5.921 5.097l-.056-.015-.02-.049c-.017.022-.004.097.026.12-.043.011-.117.001-.151-.028-.036-.03-.058-.098-.054-.141.028.025.105.026.125.005-.025-.013-.107-.045-.142-.05-.013-.057-.062-.146-.099-.197.057.028.155.061.214.064.012.034.057.106.073.127l.027-.03.05-.004v.047l-.026.032.055.013.024.052-.046.054"/><path d="m6.163 4.44c-.043-.035-.14-.075-.175-.081-.012-.056-.061-.147-.096-.198.056.029.154.063.212.067.011.033.065.122.106.159l-.047.053"/><path d="m6.206 4.429c-.043.051-.124.05-.164-.016.034.024.087.029.125-.016.039-.044.027-.096-.001-.125.074.03.084.105.04.157"/></g><g fill="#ffe85e"><path d="m7.403 7.669c-.009.12-.091.399-.134.472-.045.073-.055.112.16.104-.044.1-.04.193.007.223-.062-.046.017-.109.114-.171.097-.061.093-.298.093-.476l-.24-.152"/><path d="m8.583 7.669c.008.12.091.399.135.472.043.073.053.112-.161.104.044.1.04.193-.006.223.061-.045-.018-.107-.114-.17-.097-.062-.094-.299-.094-.477l.24-.152"/><path d="m9.658 5.507l-.73.566-.179-.807.939-.805c0 .387.009.853-.03 1.046"/><path d="m6.328 5.507l.73.566.179-.807-.94-.805c0 .387-.008.853.031 1.046"/><path d="m7.993 7.312c-.118.254-.513.458-.979.602-.165.052-.397.022-.538-.091-.619-.494-.495-1.85-.495-2.769l2.01 1.681 2.01-1.681c0 .918.124 2.275-.495 2.769-.14.113-.372.143-.538.091-.466-.144-.861-.348-.979-.602"/></g><g fill="#0072bb"><path d="m7.643 7.821c0 .178.003.415-.093.476-.097.062-.176.125-.114.17.024.015.06.012.107-.017.033-.021.064-.041.092-.059.001.086-.051.177.082.192-.098-.009-.077-.061-.004-.108.036-.021.069-.042.089-.062.04-.032.05-.085.044-.187-.007-.101-.028-.3-.013-.424l-.19.019"/><path d="m8.343 7.821c0 .178-.002.415.094.476.096.062.175.125.114.17-.025.015-.061.012-.108-.017-.033-.021-.064-.041-.092-.058-.002.086.05.177-.083.192.101-.01.079-.062.005-.109-.036-.022-.069-.042-.089-.062-.041-.032-.051-.085-.045-.186.007-.101.028-.3.013-.424l.191.018"/><path d="m9.392 5.683c.043-.176-.026-.789-.026-.943l-.604.515.175.785.455-.357"/><path d="m6.595 5.683c-.044-.177.026-.789.026-.944l.603.516-.175.785-.454-.357"/><path d="m8.438 7.701c.336.111.791-.045.848-.247.05-.175.215-.188.197-.338s.057-.18.035-.382c-.02-.176.078-.249.035-.408-.043-.158.094-.274.035-.484-.048-.172.087-.248.004-.441l-.725.604c-.022.3-.68 1.237-.841 1.365.087.136.249.245.412.331"/><path d="m7.548 7.701c-.337.111-.792-.045-.849-.247-.049-.175-.214-.187-.196-.338.018-.15-.057-.18-.035-.382.019-.176-.078-.249-.035-.408.043-.158-.094-.274-.035-.484.048-.172-.086-.248-.003-.441l.725.604c.022.3.68 1.237.841 1.365-.088.136-.25.245-.413.331"/></g><g fill="#e50040"><path d="m8.152 7.803c.015.124-.006.323-.013.424-.006.101.004.154.045.186.021.02.054.04.089.062.074.048.096.1-.005.109-.043.004-.275.033-.275-.044 0 .077-.232.048-.275.044-.099-.01-.078-.062-.005-.109.036-.021.069-.042.089-.062.04-.032.05-.085.044-.187-.007-.101-.028-.3-.013-.424h.319"/><path d="m9.15 5.889c.044-.177-.026-.789-.026-.944l-.356.305.181.761.201-.122"/><path d="m6.835 5.889c-.043-.177.026-.789.026-.944l.357.305-.18.761-.203-.122"/><path d="m8.169 7.527c.427.185.833-.09.859-.236.024-.132.21-.171.176-.291-.035-.12.096-.171.061-.288-.036-.115.105-.245.065-.386-.039-.141.079-.236.026-.347s.053-.215-.026-.36l-.437.366c-.018.379-.47 1.319-.859 1.397.03.048.098.118.135.145"/><path d="m7.817 7.527c-.428.185-.833-.09-.86-.236-.023-.132-.209-.171-.174-.291.034-.12-.096-.171-.062-.288.035-.116-.104-.245-.065-.386.039-.141-.078-.236-.027-.347.053-.111-.052-.215.027-.36l.437.367c.017.379.47 1.319.859 1.397-.03.047-.098.117-.135.144"/></g><path fill="#b2d7f3" d="m7.993 7.28c-.428 0-.949-.323-.949-1.281s.521-1.281.949-1.281c.427 0 .949.322.949 1.281s-.522 1.281-.949 1.281"/><path fill="#fff" d="m8.932 6.22c.005-.046.007-.093.008-.141-.061-.047-.186-.061-.331-.048-.144.012-.349-.147-.439-.227l-.031-.009c-.039-.039-.111-.127-.137-.157-.026-.031-.057-.032-.087-.015-.022-.03-.081-.086-.103-.103-.019.012-.094-.009-.169.038-.059-.031-.203-.08-.276-.102-.077.092-.237.186-.302.234-.014.094-.021.198-.021.309 0 .075.004.145.01.212.041-.02.087-.028.133-.017.046.01.175.012.21.009.035-.005.07.006.101.015s.074.008.106.002c.033-.006.119-.019.169-.009.087.017.33-.043.425-.026.096.018.529.035.734.035"/><g fill="#e8f4ef"><path d="m8.932 6.22c-.017.186-.057.343-.113.475-.018-.008-.045-.013-.079-.009-.033.003-.047-.01-.033-.02.013-.011.004-.021-.004-.033-.013-.021-.07-.019-.123-.01-.052.009-.111-.004-.135-.02-.024-.014-.087-.011-.118-.002-.042.012-.057 0-.041-.017.017-.016.031-.022.021-.035-.011-.012-.062-.002-.1.02-.037.021-.167.03-.247.03-.079 0-.124-.03-.035-.032.09-.001.05-.049.19-.052.088-.001.196-.015.193-.048-.002-.035-.241-.033-.312-.035-.073-.002-.192-.01-.2-.051-.007-.041-.065-.042-.08-.08-.006-.017-.024-.032-.066-.046-.043-.014-.053-.031-.046-.035.033-.006.119-.019.169-.009.087.017.33-.043.425-.026.096.018.529.035.734.035"/><path d="m7.05 6.211c.031.354.144.604.292.774.086-.013.113-.084.229-.123.053-.017.021-.038-.016-.04-.038 0-.044-.002-.081-.03-.038-.028-.132.002-.243-.017-.039-.007-.041-.039-.018-.051.025-.014.143-.022.204-.024.061-.002.061-.075.146-.079.043-.002.103-.013.092-.037-.011-.023-.13-.013-.184-.008-.054.004-.031-.029-.065-.035-.035-.006-.048-.023-.025-.043.025-.019.095-.019.166-.021.072-.002.103-.017.101-.049-.002-.032.027-.054.018-.078-.024-.062-.105-.109-.173-.133-.031-.009-.065-.02-.101-.015-.035.003-.164.001-.21-.009-.045-.01-.091-.002-.132.018"/></g><g fill="#b2e0f9"><path d="m7.405 5.861s.003.059-.002.078l-.096.11c.005.003.098-.099.098-.099l.016.055-.059.064-.017.055.085-.104.013.001-.007.085.03-.016-.012-.015.008-.053-.04-.072-.011-.09-.006.001"/><path d="m7.468 5.835l.039.08-.02.032.127.117-.139-.113.02-.036z"/><path d="m7.443 5.521l.083.072c.002.023.016.049.016.049l.065.046.054.035-.051-.021-.081-.002-.001.03.035.032-.018.028.059.015.002.022.114.143-.07-.064h-.044l-.015-.028-.026-.002-.009.032-.023-.101-.02-.021-.022-.095.017.026.014-.02-.009-.018-.042-.002-.005-.022-.03.023.026-.062-.019-.095"/><path d="m7.698 5.784l.075.081.041.123.016-.026.032-.005-.08-.096z"/><path d="m7.685 5.598l.066-.04.118.095.002-.03.089.073h.036l.019.034.042.007.015.027.045.179-.013.067v-.061l-.046-.178-.054-.013.002-.028-.018-.022-.038.013-.049-.049-.002.043.03.11-.102-.196-.024.017-.017-.04-.044.099-.011-.003.035-.101-.039-.01z"/><path d="m8.268 5.897l.09.062.092.081.052.014h-.06l-.093-.069v.02l-.038-.03-.017-.035-.023.013z"/><path d="m8.12 5.874l.005-.032.021.019.015-.04-.004.059-.024-.021z"/><path d="m7.06 5.782l.096-.097.014.013.022-.017-.003-.013.065-.04.022-.005.086-.086.008-.042.012.042-.013.016v.089l-.062.144.022.043-.002.097-.006-.052-.052-.069-.124.129.058-.103-.003-.039-.048.026.122-.133-.034.002.036-.041-.023-.001-.11.1-.009-.011-.067.05z"/><path d="m7.082 6.116l.045-.049-.002-.021h.036l-.085.095z"/></g><g fill="#d2e3ee"><path d="m7.993 7.28c-.428 0-.949-.323-.949-1.281s.521-1.281.949-1.281c.427 0 .949.322.949 1.281s-.522 1.281-.949 1.281v.136c.496 0 1.101-.356 1.101-1.417 0-1.059-.605-1.416-1.101-1.416-.496 0-1.1.357-1.1 1.416 0 1.061.604 1.417 1.1 1.417v-.136"/></g><g fill="#e50040"><path d="m10.04 5.096c-.015.005-.07-.019-.082-.055-.015-.035 0-.073.031-.083.03-.012.065.009.078.044.014.036-.012.089-.027.094l-.013-.035c.007-.002.019-.031.012-.049-.005-.017-.023-.026-.038-.021-.015.005-.022.024-.016.042.006.016.034.031.042.029l.013.034"/><path d="m9.955 5.756c.02.002.024-.022.03-.068l.061-.553c.005-.046.006-.071-.015-.074-.021-.001-.026.023-.032.069l-.061.553c-.004.046-.004.071.017.073"/><path d="m9.982 5.879c.006-.054-.004-.121-.027-.123-.024-.002-.048.061-.054.114-.004.022.078.031.081.009"/><path d="m9.959 5.716c-.037-.004-.045.064-.008.068.037.005.046-.063.008-.068"/><path d="m9.732 4.462c-.012.005-.064-.017-.076-.049-.011-.033.001-.068.03-.078.027-.009.06.008.072.041.012.032-.013.082-.026.086l-.011-.031c.006-.002.017-.029.011-.045s-.022-.025-.036-.02-.02.022-.014.038c.005.016.031.03.038.028l.012.03"/><path d="m9.656 5.07c.019.002.024-.021.028-.063l.056-.509c.005-.042.005-.066-.014-.068-.019-.002-.024.021-.029.063l-.056.51c-.003.042-.004.066.015.067"/><path d="m9.682 5.184c.006-.05-.004-.111-.026-.114-.022-.001-.045.056-.05.105-.002.021.074.03.076.009"/><path d="m9.66 5.03c-.034-.004-.042.059-.007.062.035.005.042-.058.007-.062"/><path d="m5.949 5.096c.014.005.07-.019.083-.055.013-.035 0-.073-.031-.083-.031-.011-.066.009-.079.045-.013.035.013.088.027.093l.013-.035c-.007-.002-.019-.031-.013-.049.006-.017.024-.026.039-.021.015.005.022.024.016.042-.007.016-.035.031-.042.029l-.013.034"/><path d="m6.03 5.756c-.02.002-.026-.022-.031-.068l-.061-.554c-.004-.046-.005-.071.016-.074.021-.001.026.023.031.069l.061.553c.005.047.005.072-.016.074"/><path d="m6 5.879c-.005-.054.004-.121.028-.123.024-.002.048.061.053.114.003.022-.078.031-.081.009"/><path d="m6.03 5.716c.038-.004.045.064.008.068-.038.005-.045-.063-.008-.068"/><path d="m6.254 4.462c.013.005.064-.018.076-.05.012-.033 0-.067-.029-.077-.028-.009-.061.009-.073.041s.013.082.026.086l.012-.031c-.007-.002-.017-.029-.012-.045.007-.016.022-.025.036-.02.014.005.02.022.014.037-.006.016-.032.03-.039.028l-.011.031"/><path d="m6.33 5.07c-.019.003-.024-.021-.029-.063l-.055-.509c-.005-.042-.005-.066.014-.068.02-.002.024.021.029.063l.056.51c.004.042.005.066-.015.067"/><path d="m6.305 5.184c-.006-.05.003-.111.025-.114.022-.001.044.056.049.105.003.021-.072.03-.074.009"/><path d="m6.326 5.03c.034-.004.042.059.007.062-.034.005-.041-.058-.007-.062"/></g><g fill="#0072bb"><path d="m10.06 5.087c.004.014-.022.067-.059.079-.036.011-.074-.004-.084-.035-.01-.03.012-.063.048-.076.037-.01.091.017.095.032l-.035.011c-.003-.007-.032-.021-.05-.015-.018.006-.029.023-.024.038.005.015.023.022.041.017.019-.006.033-.032.032-.04l.036-.011"/><path d="m10.07 5.769c.021-.001.022-.027.021-.073l-.021-.556c-.003-.046-.006-.072-.027-.071-.021 0-.022.026-.021.073l.021.555c.003.048.007.073.027.072"/><path d="m10.113 5.887c-.001-.054-.021-.119-.045-.118s-.038.067-.037.12c.002.023.083.02.082-.002"/><path d="m10.07 5.729c-.037.002-.035.07.003.069s.036-.071-.003-.069"/><path d="m10.03 5.05c-.038 0-.038.057 0 .057.039-.001.04-.057 0-.057"/><path d="m9.755 4.455c.004.013-.021.062-.054.072-.034.011-.068-.004-.077-.031-.009-.028.011-.06.044-.07.034-.011.083.014.087.029l-.032.01c-.002-.007-.03-.02-.046-.014-.017.005-.028.02-.023.034.005.014.022.021.038.017.017-.006.032-.03.03-.037l.033-.01"/><path d="m9.762 5.083c.019 0 .021-.024.019-.067l-.02-.512c-.002-.043-.005-.066-.025-.066-.02 0-.021.024-.019.067l.019.512c.003.043.005.066.026.066"/><path d="m9.803 5.19c-.001-.048-.02-.108-.041-.107-.023 0-.036.061-.034.11.001.02.076.019.075-.003"/><path d="m9.759 5.04c-.033.002-.031.064.004.063.034 0 .032-.063-.004-.063"/><path d="m9.729 4.423c-.036 0-.036.052 0 .052.035 0 .037-.052 0-.052"/><path d="m5.924 5.087c-.004.014.023.067.059.079.037.011.075-.004.084-.035.01-.03-.011-.063-.047-.076-.038-.01-.091.017-.096.032l.036.011c.002-.007.031-.021.05-.015.017.005.028.022.023.037-.005.016-.023.023-.041.018-.017-.006-.034-.033-.032-.04l-.036-.011"/><path d="m5.917 5.769c-.02-.001-.022-.027-.02-.073l.021-.556c.002-.045.006-.071.027-.07.021 0 .022.026.02.073l-.021.555c-.002.047-.006.072-.027.071"/><path d="m5.872 5.887c.002-.054.021-.119.045-.118s.039.067.037.12c-.001.023-.082.02-.082-.002"/><path d="m5.919 5.729c.038.002.035.07-.002.069-.038-.002-.036-.071.002-.069"/><path d="m5.953 5.05c.039 0 .039.057 0 .057-.038-.001-.039-.057 0-.057"/><path d="m6.231 4.455c-.004.012.021.062.055.072.033.011.068-.004.077-.031.009-.028-.011-.06-.044-.07-.034-.011-.084.014-.088.029l.033.01c.001-.007.028-.02.044-.014.017.005.027.02.023.034-.004.014-.021.021-.038.016-.016-.006-.031-.03-.028-.037l-.034-.009"/><path d="m6.225 5.083c-.02 0-.021-.024-.02-.067l.02-.512c.003-.043.005-.066.025-.066.02 0 .021.024.02.067l-.021.512c-.001.043-.005.066-.024.066"/><path d="m6.184 5.19c.001-.048.02-.108.042-.107.022.001.036.062.034.111-.002.019-.077.018-.076-.004"/><path d="m6.227 5.04c.035.001.032.064-.002.063-.036 0-.034-.063.002-.063"/><path d="m6.257 4.423c.035 0 .035.052 0 .052-.035 0-.036-.052 0-.052"/></g><path fill="#585232" d="m9.217 7.658h-2.158v-.055h2.158c.01 0 .009.055 0 .055"/><g fill="#f4f4f4"><path d="m7.06 7.603v.056l-.085.112-.084-.123-.101.047-.144-.065.144-.063.101.044c0-.021.028-.045.043-.056 0-.112-.102-.157-.191-.112.014-.083.145-.111.233-.111.087 0 .219.028.233.111-.089-.045-.19 0-.19.112.014.006.041.023.041.048"/><path d="m7.07 7.633c0 .049-.027.067-.094.067-.067 0-.094-.019-.094-.067s.026-.068.094-.068c.067-.001.094.019.094.068"/></g><path fill="#585232" d="m7.277 7.858h1.424c.03 0 .057-.127.057-.21 0-.084-.027-.211-.057-.211h-1.425c-.031 0-.058.127-.058.211.001.083.029.21.059.21"/><g fill="#dad000"><path d="m7.843 7.427h.094v.442h-.094z"/><path d="m7.275 7.648c0-.088.027-.222.059-.222h.094c.005 0 .009.006.011.011h-.026c-.025.033-.045.137-.045.211 0 .072.02.178.044.21h.027c-.002.005-.006.011-.011.011h-.094c-.032 0-.059-.134-.059-.221"/><path d="m7.419 7.427h.052c.082.124.234.313.372.394v.048h-.035c-.173-.088-.3-.26-.401-.421.004-.009.008-.016.012-.021"/><path d="m7.419 7.869h.052c.082-.124.233-.313.372-.396v-.046h-.035c-.173.088-.3.26-.401.421.004.007.008.016.012.021"/><path d="m8.05 7.427h.093v.442h-.093z"/><path d="m8.712 7.648c0-.088-.028-.222-.06-.222h-.094c-.004 0-.008.006-.011.011h.027c.025.033.044.137.044.211 0 .072-.019.178-.044.21h-.027c.002.005.007.011.011.011h.095c.031 0 .059-.134.059-.221"/><path d="m8.567 7.427h-.051c-.082.124-.234.313-.373.394v.048h.037c.172-.088.299-.26.4-.421-.005-.009-.009-.016-.013-.021"/><path d="m8.567 7.869h-.051c-.082-.124-.234-.313-.373-.395v-.047h.037c.172.088.299.26.4.421-.005.007-.009.016-.013.021"/></g><g fill="#007a4d"><path d="m9.546 5.438c-.009-.338-.03-.671-.151-.993.063.345.113.913.1 1.038l.051-.045"/><path d="m9.494 5.482c-.032-.435-.091-.782-.205-.999.086.323.158.76.167 1.03l.038-.031"/><path d="m9.494 5.482c-.074-.397-.187-.811-.375-1.067.136.299.321.867.321 1.112l.054-.045"/><path d="m9.456 5.514c-.061-.395-.27-.853-.517-1.117.175.253.437.834.479 1.149l.038-.032"/><path d="m9.337 5.613c-.083-.201-.313-.577-.498-.74.275.215.465.511.53.713l-.032.027"/><path d="m9.369 5.586c-.109-.257-.32-.614-.521-.811.271.232.463.527.56.78l-.039.031"/><path d="m9.393 5.567c-.109-.288-.348-.72-.518-.9.284.249.455.569.559.866l-.041.034"/><path d="m9.407 5.555c-.178-.501-.407-.896-.559-1.063.285.198.534.82.593 1.035l-.034.028"/><path d="m6.643 5.19c.013-.089-.015-.149-.115-.223.072-.02.15.04.131.176"/><path d="m6.754 5.299c.085-.056.118-.125.166-.183.047-.057.093-.109.216-.113-.056.088-.096.151-.206.196-.069.028-.167.111-.201.139l.025-.039"/><path d="m6.613 5.469c.137-.102.184-.13.215-.177.032-.047.085-.096.217-.107-.064.116-.168.162-.24.184-.072.021-.154.086-.196.15"/><path d="m6.72 5.304c.089-.143.216-.097.279.028-.079-.006-.136-.14-.279-.028"/><path d="m6.621 5.306c-.001-.146.063-.324.11-.401.038-.062.051-.08.048-.121-.01-.124.07-.225.086-.335.025.127.012.248-.059.348.147-.197.274-.149.33-.21-.031.199-.266.116-.351.261-.07.12-.152.299-.152.564-.01-.02-.018-.08-.012-.106"/><path d="m6.771 5.12c.084-.161.222-.266.294-.32.072-.054.119-.102.149-.158.03-.056.094-.139.153-.153-.02.05-.071.111-.12.152-.05.041-.082.119-.193.193-.104.068-.186.157-.256.28l-.027.006"/><path d="m7.19 4.691c.004-.072.013-.131.06-.205-.001.056-.026.146-.044.181.075-.05.18-.075.254-.049-.084.036-.231.032-.273.084"/><path d="m6.625 5.327c.032-.159.113-.252.151-.313s.159-.149.296-.126c-.071.066-.29.123-.362.263-.071.141-.07.19-.087.271l.002-.095"/><path d="m6.642 4.928c-.008-.104-.044-.266-.152-.313.003.091.04.235.152.313"/><path d="m6.653 5.116c-.006-.108-.034-.162-.046-.218-.042-.189.039-.273.01-.342.096.111.093.278.071.364-.021.088-.023.103-.02.147"/><path d="m6.798 4.796c.037-.053.085-.125.107-.173.023-.048.105-.178.253-.205-.103.156-.254.281-.304.334-.05.055-.075.099-.056.044"/><path d="m6.619 5.477c.074-.153.03-.335.247-.448-.063.121.071.128-.247.448"/><path d="m6.605 5.576c.099-.104.229-.038.328-.128.047-.044.045-.043-.025-.053-.1-.015-.213.044-.294.131.05-.129.008-.316-.057-.422-.05-.082-.047-.076-.066.005-.018.08.003.207.044.264.04.056.054.115.049.185l.021.018"/></g><g fill="#ffe85e"><path d="m6.752 5c-.011.014-.031.01-.033-.009s.015-.028.029-.017c-.014-.011-.009-.03.01-.033.018-.002.028.015.017.029.011-.014.03-.009.033.01.003.019-.016.027-.029.017.014.011.009.031-.01.032-.019.002-.028-.016-.017-.029"/><path d="m6.786 4.891c-.011.015-.031.01-.033-.009-.003-.017.016-.028.029-.017-.013-.011-.008-.03.01-.033.019-.001.028.016.018.029.01-.014.03-.009.032.01.003.019-.015.027-.029.017.014.01.009.031-.01.032-.018.003-.028-.014-.017-.029"/><path d="m6.705 4.894c-.012.013-.031.009-.033-.01s.016-.028.029-.018c-.013-.01-.009-.029.01-.031.019-.003.028.014.018.029.01-.015.03-.01.032.009.003.018-.015.028-.03.017.015.011.01.03-.009.032-.019.003-.029-.015-.017-.028"/><path d="m6.877 4.815c-.011.014-.03.009-.033-.01s.016-.027.03-.016c-.014-.01-.009-.03.01-.032s.028.015.018.029c.01-.015.03-.01.032.009s-.016.028-.03.017c.014.011.009.03-.01.032-.018.003-.028-.015-.017-.029"/><path d="m7.194 4.708c-.011.014-.031.009-.033-.01-.003-.017.015-.027.029-.017-.014-.01-.009-.03.01-.032.019-.002.028.016.018.029.01-.013.03-.009.032.009.002.019-.016.028-.029.018.014.011.009.03-.01.032-.018.002-.028-.015-.017-.029"/><path d="m7.08 4.733c-.01.014-.031.01-.033-.01-.003-.017.015-.027.029-.016-.014-.011-.009-.029.01-.033.019-.002.028.016.018.029.01-.014.03-.009.032.01.004.018-.015.027-.029.017.014.01.009.03-.009.032-.019.003-.028-.015-.018-.029"/><path d="m7.05 4.869c-.011.013-.031.008-.033-.009-.003-.019.015-.028.029-.018-.014-.01-.009-.03.01-.032s.028.016.018.029c.01-.014.03-.009.033.009.001.019-.017.028-.03.018.014.011.009.03-.009.033-.02.001-.029-.017-.018-.03"/><path d="m6.872 5.129c-.011.014-.03.009-.033-.01-.002-.017.016-.027.03-.016-.014-.011-.009-.03.009-.033s.029.016.018.03c.011-.014.03-.01.034.008.001.019-.017.028-.03.018.014.01.009.03-.01.031-.019.004-.029-.014-.018-.028"/><path d="m7.122 4.953c-.01.014-.03.01-.032-.009s.015-.028.029-.018c-.014-.01-.009-.03.009-.032.019-.002.029.016.018.029.011-.014.031-.009.033.009.002.018-.016.028-.029.017.013.011.008.03-.01.033-.019.002-.028-.016-.018-.029"/><path d="m6.965 5.081c-.012.014-.03.009-.033-.01-.002-.018.015-.027.03-.017-.015-.01-.01-.03.009-.032.019-.002.028.015.018.029.01-.015.03-.01.033.009.002.019-.016.028-.03.017.014.011.01.031-.009.032-.02.003-.029-.014-.018-.028"/><path d="m6.725 5.412c-.011.013-.031.009-.033-.01s.015-.027.029-.018c-.015-.01-.01-.029.01-.032.019-.001.028.017.017.029.011-.013.031-.009.033.01.001.018-.016.027-.029.017.014.01.009.03-.01.032-.019.003-.028-.015-.017-.028"/><path d="m6.83 5.375c-.01.013-.031.009-.033-.01-.002-.018.016-.027.029-.017-.013-.01-.009-.031.01-.032.02-.002.028.016.018.029.01-.014.031-.01.033.009.001.019-.016.027-.03.017.015.01.01.03-.009.033-.019.002-.029-.016-.018-.029"/><path d="m6.946 5c-.01.014-.031.01-.033-.009-.002-.018.017-.028.03-.017-.013-.011-.009-.03.009-.033.019-.002.028.015.018.029.01-.014.031-.009.032.01.003.019-.015.027-.029.017.014.01.009.03-.01.032-.017.003-.027-.015-.017-.029"/></g><g fill="#e50040"><circle cx="6.763" cy="4.985" r=".015"/><circle cx="6.797" cy="4.877" r=".014"/><circle cx="6.716" cy="4.878" r=".015"/><circle cx="6.889" cy="4.8" r=".015"/><circle cx="7.205" cy="4.693" r=".015"/><circle cx="7.092" cy="4.719" r=".015"/><circle cx="7.06" cy="4.854" r=".014"/><circle cx="6.885" cy="5.115" r=".015"/><circle cx="7.134" cy="4.937" r=".015"/><circle cx="6.977" cy="5.066" r=".015"/><circle cx="6.736" cy="5.397" r=".015"/><circle cx="6.842" cy="5.36" r=".015"/><circle cx="6.958" cy="4.99" r=".015"/></g><g fill="#d2e3ee"><path d="m7.993 4.564c.132 0 .233.021.314.047.034.011.102.03.09.053-.02-.007-.051.004-.066.044-.016.041-.015.073.005.082-.005.012-.015.021-.066-.001-.072-.029-.198-.048-.277-.048s-.206.019-.276.048c-.052.022-.061.013-.067.001.02-.009.02-.041.005-.081-.014-.041-.046-.052-.066-.044-.012-.023.056-.042.091-.053.08-.026.181-.048.313-.048"/><path d="m7.993 7.583c.059-.088.147-.14.231-.167.036-.012.043-.023.04-.036-.018.005-.046-.013-.056-.06-.008-.033 0-.067.026-.073-.004-.014-.008-.022-.033-.016-.053.017-.13.03-.208.03-.077 0-.154-.014-.208-.03-.025-.007-.03.002-.032.016.026.006.033.04.026.073-.011.047-.039.065-.056.06-.005.013.002.024.038.036.085.027.173.079.232.167"/></g><path fill="#585232" d="m5.733 3.804c.289-.061.197-.089.468-.136.271-.048.464-.138.586-.172.122-.035.336-.103.432-.086.097.018.299-.02.375.03.038.026.036.066.033.09-.001.024.014.03.04.03.055 0 .057.077.112.074.03-.002.037.014.039.042.096-.09.253-.088.48.013.046-.032.12-.062.186-.035.018-.021.065-.03.092-.023.027.006.05-.011.04-.046-.033-.107.093-.151.173-.124.079.028.133.026.24.028.107.002.169.015.273.043.199.053.29.152.5.218.312.099.464.185.57.208.107.024.075.084-.037.045.009.013-.084.039-.181 0 .094.061-.084.052-.155.026.032.021-.118.032-.247-.026.046.032-.035.075-.146.009.02.017-.043.052-.095.008.022.024-.023.045-.054.025.029.025.065.06.048.07-.018.011-.108-.018-.179-.073.018.022-.035.034-.081-.009.016.024-.06.011-.097-.023.005.026-.037.036-.076.006.018.03-.017.08-.059.053.011.031-.048.045-.081.024.025.025-.032.057-.087.016.02.02-.029.094-.085.058.037.022-.022.071-.073.036.033.022-.039.058-.092.022.033.023-.042.049-.092.004.021.016-.01.039-.03.023.074.097.144.191.17.223.027.033.03.042-.005.074-.021.02-.129.101-.189.14-.016-.008-.032-.015-.052-.024.02-.029-.129-.071-.239-.089.007-.061.002-.164.007-.219-.024-.033-.038-.044-.048-.004-.009.04-.039.051-.044.083-.006.03-.015.063-.062.074-.049.01-.055-.035-.053-.131-.008.023-.048-.022-.043-.075-.005.024-.068-.015-.063-.12-.018.051-.06.086-.075-.015-.044.054-.088.077-.11-.002-.035.036-.079.039-.092-.02-.042.033-.08.046-.089-.017-.033.032-.09.05-.111-.015-.044.046-.127.006-.119-.047-.032.029-.104.001-.091-.054-.029.022-.073.002-.056-.037-.055.034-.09.03-.093-.026-.085.042-.178.058-.197.036-.043.027-.132.062-.154.055-.022-.006.015-.053.056-.091-.026.005-.063-.007-.067-.026-.037.019-.123.047-.13.034-.005-.013.01-.039.069-.069-.057.032-.136.039-.149.028-.013-.011.017-.032.055-.053-.164.066-.199.032-.141 0-.128.057-.185.04-.137-.005-.068.023-.197.028-.249.022-.053-.007-.085-.024-.029-.056-.032.008-.17.006-.198.006-.029.001-.062-.017-.012-.028"/><path fill="#fff" d="m7.849 3.785c-.015-.014-.004-.043.023-.052-.005-.012.016-.04.033-.037.002-.023.031-.033.045-.023.009-.014.042-.02.053 0 .02-.013.048-.014.057.01.02 0 .046.011.047.03.021.004.044.023.038.049.022.009.024.049.01.066.015.019-.005.062-.028.071 0 .026-.016.048-.039.046-.005.025-.047.042-.068.029-.022.015-.07.006-.071-.016-.022.007-.054-.006-.05-.027-.021-.001-.041-.025-.039-.045-.023-.016-.028-.045-.015-.056-.014-.008-.009-.03.004-.045"/><g fill="#ffecc6"><path d="m7.472 3.852c-.012-.058.017-.083.079-.089.023-.036.056-.054.079-.048.035.007.061-.012.109.015.028.016.08.036.161.036s.164 0 .164.064c0 .047-.059.045-.113.045-.055 0-.101 0-.13-.014-.031-.014-.07-.02-.104-.005-.034.014-.125.019-.163-.028-.058-.002-.072-.003-.082.024"/><path d="m7.979 4.461c-.021.047-.076.113-.132.104-.068-.011-.089.02-.082.045.006.024.055.028.086.015-.037.034-.031.054-.018.067.015.014.05.012.059-.02.009-.033.042-.068.068-.072.027-.004.043.013.04.04-.002.027.028.039.048.032.019-.006.037-.057-.004-.073-.037-.014-.056-.031-.046-.069.006-.026.01-.052.019-.082.007-.029-.017-.031-.038.013"/><path d="m8.238 4.439c-.001.041.002.108-.04.12-.06.016-.046.03-.082.045-.028.012-.022.05-.012.056.011.005.04.013.051-.023.006-.016.018-.029.034-.035.017-.007.02.006.02.016s-.001.032-.009.043c-.009.011.007.034.027.036.021.004.028-.012.032-.026.009-.027-.009-.041-.005-.057.004-.016.018-.011.025.004.008.018.032.022.039.043.009.022.03.025.044.014.014-.01.027-.044-.023-.063-.049-.018-.065-.033-.066-.074-.001-.04-.018-.044-.019-.067-.001-.023-.015-.069-.016-.032"/></g><path d="m7.748 4.65c-.013-.027.008-.054.028-.055.011 0 .019.009.013.023-.005.011-.033.001-.041.032"/><path d="m7.838 4.731c-.022-.021-.013-.054.004-.062.01-.005.021 0 .022.016 0 .012-.031.015-.026.046"/><path d="m8.03 4.709c.028-.012.032-.046.02-.059-.009-.008-.021-.007-.027.007-.004.01.023.024.007.052"/><path d="m8.104 4.702c-.024-.021-.018-.054-.001-.063.011-.006.021 0 .023.015 0 .011-.03.015-.022.048"/><path d="m8.347 4.718c.028-.012.033-.046.02-.059-.009-.009-.021-.008-.027.007-.005.01.022.023.007.052"/><path d="m8.225 4.734c-.019-.021-.025-.046-.012-.059.008-.008.022-.007.026.008.006.018-.015.008-.014.051"/><path d="m7.666 3.761c-.008.003-.017.001-.024.012-.006.013-.025.011-.033.002-.008-.01-.004-.013-.015-.012.028-.027.049.002.072-.002"/><g fill="#9b6527"><path d="m8.334 6.893l.015-.304v.28z"/><path d="m8.459 6.869l.085-.132-.081.141"/><path d="m7.731 6.878c.058.014.129.051.154.135.046-.013.106.031.146.007.041-.023.072.015.103.002.031-.013.088.017.115.002.028-.016.116-.019.141 0 .043-.027.097-.113.07-.165-.002-.005-.002-.014-.094-.014l-.032.048h-.256v.027c-.056 0-.136 0-.162 0-.074 0-.103-.034-.185-.042"/><path d="m8.315 6.893c0-.039-.031-.069-.07-.069s-.071.03-.071.069h.141"/><path d="m8.02 6.92l-.006-.222h-.039l-.008.222z"/><path d="m8.104 6.893l.005-.413.006.413z"/></g><path d="m8.109 6.515c.007 0 .016-.004.021-.02.002-.009.022-.009.028-.004.007.005.022-.002.025-.012 0 .036-.026.044-.074.044-.049 0-.076-.008-.076-.044.004.01.018.017.026.012.007-.005.025-.005.028.004.006.016.015.02.022.02"/><path d="m8.08 6.542c-.03.015-.026.043 0 .071.039.038.054.045.014.085-.017.017-.035.037-.014.057.021.021.057.057.033.081.032-.006.005-.063-.01-.078-.015-.014-.021-.023.001-.045.041-.04.053-.055-.007-.114-.013-.013-.021-.031-.009-.034.011-.003.019-.011.014-.02-.004-.008-.013-.009-.022-.003"/><path d="m8.136 6.542c.028.015.026.043-.002.071-.039.038-.054.045-.014.085.018.018.038.037.016.057-.022.021-.058.057-.033.081-.033-.006-.005-.063.009-.078s.02-.023-.001-.045c-.042-.04-.054-.055.007-.114.012-.013.021-.031.009-.034-.011-.003-.019-.011-.014-.02.004-.008.012-.009.023-.003"/><path d="m8.109 6.477c-.023 0-.022.011 0 .011.021 0 .022-.011 0-.011"/><g fill="#9b6527"><path d="m8.428 6.848v-.259l-.013.257c.005.001.01.002.013.002"/><path d="m8.425 6.619l-.076.061v.007z"/><path d="m8.334 6.893c.022 0 .109 0 .117 0 .008 0 .016 0 .016-.006"/></g><path fill="#ffe85e" d="m8.551 6.899l.053-.085-.06-.077-.051.085z"/><path fill="#e50040" d="m8.551 6.899l-.058-.077.012-.021.059.077z"/><path fill="#0072bb" d="m8.564 6.878l-.059-.077.014-.022.059.077z"/><path fill="#b2e0f9" d="m7.993 5.203c.325 0 .639.104.871.224-.02-.063-.052-.149-.076-.192-.212-.11-.498-.195-.795-.195-.297 0-.583.085-.795.195-.024.043-.056.129-.075.192.231-.12.545-.224.87-.224"/><g fill="#ffe85e"><path d="m7.998 5.472l-.036-.162-.092.137.03-.163-.14.092.092-.14-.165.032.14-.093-.164-.032.164-.035-.14-.091.166.031-.093-.138.142.09-.032-.162.094.137.034-.161.034.161.093-.137-.031.163.141-.091-.092.139.165-.032-.141.093.166.033-.166.033.141.092-.166-.03.093.138-.142-.091.032.162-.094-.137z"/><circle cx="7.998" cy="5.142" r=".175"/></g><path d="m7.966 5.221c.01-.005.025-.008.032 0 .006-.008.021-.005.031 0s.023.001.03.006c-.004-.001-.02.006-.032.003-.011-.004-.011.002-.03.002-.02 0-.018-.006-.029-.002-.012.003-.028-.004-.031-.003.006-.005.019-.001.029-.006"/><path d="m7.998 5.248c.009 0 .018 0 .025-.004.003-.001.006-.006.006-.001 0 .005-.008.015-.031.015-.023 0-.032-.01-.031-.015 0-.004.002 0 .006.001.006.004.015.004.025.004"/><path d="m7.998 5.192c.005 0 .009-.002.011-.005.002-.003.006-.002.012-.002.006 0 .008-.002.01-.005 0-.005.001-.012-.007-.016.005.002.006.01.004.015-.002.003-.007.004-.01.003-.004 0-.01.001-.012.005-.003.001-.006.002-.008.002-.003 0-.006-.001-.007-.002-.003-.003-.01-.005-.014-.005-.003 0-.008 0-.01-.003-.002-.005-.001-.012.004-.015-.008.003-.008.011-.006.016.001.003.003.005.009.005.006 0 .011 0 .013.002.001.003.006.005.011.005"/><path d="m7.884 5.109c.015-.008.031-.013.056-.012.024.003.036.008.042.011.006.004.003.004-.002.004-.006 0-.023-.003-.036-.006-.012-.004-.037-.004-.059.004-.001.002-.005.001-.001-.001"/><path d="m7.962 5.11c-.002.012-.015.023-.026.023-.019 0-.035-.012-.035-.026.001.014.016.023.034.023.012 0 .023-.008.027-.02"/><path d="m7.919 5.111c.001.007.007.013.017.013.006 0 .017-.002.021-.016-.004-.003-.021-.005-.025-.005.004.007-.004.012-.013.008"/><path d="m7.985 5.086c-.025-.015-.062-.02-.087-.015-.008.002-.014.004-.008.009.005.004.008.002.017 0 .022-.003.054 0 .067.008.004.002.007.003.011.003.005 0 .008-.001 0-.005"/><path d="m8.113 5.109c-.016-.008-.031-.013-.056-.012-.026.003-.037.008-.043.011-.005.004-.003.004.003.004.006 0 .022-.003.035-.006.013-.004.038-.004.059.004.001.002.005.001.002-.001"/><path d="m8.03 5.11c.002.012.016.023.028.023.019 0 .034-.012.034-.026-.002.014-.016.023-.034.023-.013 0-.023-.008-.028-.02"/><path d="m8.05 5.107c.001.006.008.013.017.013.007 0 .02-.002.023-.019-.005-.004-.023-.003-.028-.002.004.007-.002.011-.012.008"/><path d="m8.01 5.086c.025-.015.062-.02.087-.015.008.002.015.004.008.009-.005.004-.008.002-.017 0-.022-.003-.053 0-.067.008-.004.002-.007.003-.01.003-.005 0-.009-.001-.001-.005"/></svg>