<svg xmlns="http://www.w3.org/2000/svg" viewBox="0 0 16 12" enable-background="new 0 0 16 12"><switch><g><g><path fill="#febe50" d="m0 0h16v12h-16z"/><path fill="#ed1c2e" d="m0 12h16v-12z"/></g><path fill="#fff" d="m12.647 4.709c-.415.502-1.165.469-1.854.311-.029-.086-.065-.164-.1-.244.139-.141.282-.273.435-.386.506.037 1.073-.026 1.396-.206.223.015.448-.006.671-.077.386-.123.424-.549.246-.801-.043-.201-.191-.368-.462-.348-.025.002-.049.002-.074.003-.02-.039-.032-.082-.058-.118.072-.042.146-.071.217-.12.455-.311.184-1.073-.385-.914-.784.22-1.583.266-2.21.6-.388.011-.782.092-1.2.272-.84.361-.357 1.537-.17 2.148-.067.48-.409.565-.824.669-.183-.096-.375-.2-.566-.284-.366-.162-1.079-.241-1.442.008-.464.319-.68.578-.915 1.114-.729 1.671-1.571 2.396-3.257 2.974-.193.066-.29.211-.324.368-.152.258-.301.509-.522.719-.469.444.239 1.15.707.707.239-.226.415-.496.583-.773.008 0 .013.004.022.003.218-.018.414-.071.602-.138.056.001.113-.003.177-.025.381-.135.707-.329 1.037-.554.547-.247 1.043-.521 1.472-.909-.191.46-.198 1.059-.141 1.522.077.632 1.078.64 1 0-.048-.393-.039-.785.066-1.168.068-.249.455-.434.642-.583.307-.246.108-.738-.221-.836-.079-.023-.243-.037-.39-.066.009-.007.018-.008.027-.015.138-.111.328-.266.536-.406.027.015.066.013.098.022.623.506 1.551.888 2.19.496.632.594 1.479 1.01 2.281 1.097.641.068.635-.933 0-1-.504-.054-1.051-.331-1.484-.705.188-.163.342-.401.442-.756.023-.084.026-.175.035-.264.902.142 1.845.069 2.423-.629.408-.493-.295-1.204-.707-.707"/></g></switch></svg>