<?xml version="1.0" encoding="utf-8"?>
<!-- Generator: Adobe Illustrator 18.0.0, SVG Export Plug-In . SVG Version: 6.00 Build 0)  -->
<!DOCTYPE svg PUBLIC "-//W3C//DTD SVG 1.1//EN" "http://www.w3.org/Graphics/SVG/1.1/DTD/svg11.dtd">
<svg version="1.1" id="Layer_1" xmlns="http://www.w3.org/2000/svg" xmlns:xlink="http://www.w3.org/1999/xlink" x="0px" y="0px"
	 viewBox="0 0 56 56" enable-background="new 0 0 56 56" xml:space="preserve">
<path fill="#FFFFFF" d="M8.7,23.1c1.2,0.6,2.4,1,3.6,1.2c1.6-2,4-3.2,6.7-3.3c1.2-2.6,3.3-4.8,5.9-6.1c0.5-4.3-1.5-8.6-5.5-10.9
	c-0.9-0.5-1.9-0.9-2.8-1.1c4.6,2.8,6.3,8.8,3.6,13.6c-2.7,4.9-8.9,6.6-13.8,3.9c-0.6-0.3-1.1-0.7-1.6-1.1C5.7,20.8,7,22.1,8.7,23.1z
	"/>
<path fill="#FFFFFF" d="M43.6,24.3c-0.7,0-1.3,0.1-2,0.3c-0.8-5.4-5.4-9.6-11-9.6c-4.9,0-9,3.1-10.6,7.5c-0.2,0-0.4,0-0.7,0
	c-3.5,0-6.4,2.4-7.2,5.7l-0.2,0c-3.1,0-5.5,2.5-5.5,5.5c0,3,2.4,5.5,5.5,5.5l0,0h31.5l0,0l0.2,0c4.1,0,7.5-3.3,7.5-7.5
	S47.7,24.3,43.6,24.3z M43.6,36.1c-0.2,0-0.3,0-0.5,0H12.3c-0.1,0-0.3,0-0.4,0c-1.3,0-2.4-1.1-2.4-2.4s1.1-2.4,2.4-2.4
	c1.1,0,2.1,0.8,2.3,1.9l1.4-0.7c-0.5-0.7-0.7-1.5-0.7-2.4c0-2.4,2-4.4,4.4-4.4c1.2,0,2.4,0.5,3.2,1.4c0-0.2,0-0.5,0-0.7
	c0-4.5,3.6-8.1,8.1-8.1s8.1,3.6,8.1,8.1c0,1.5-0.4,2.9-1.1,4l1.8,0.8c0.3-2.1,2.1-3.7,4.3-3.7c2.4,0,4.3,1.9,4.3,4.3
	C47.9,34.1,46,36.1,43.6,36.1z"/>
<path fill="#FFFFFF" d="M38.9,41.3l1.3,0.4l-2.1,8l-1.3-0.4C36.7,49.3,38.9,41.3,38.9,41.3z"/>
<path fill="#FFFFFF" d="M42.3,43.7l0.4,1.3l-8,2.1l-0.4-1.3C34.3,45.9,42.3,43.7,42.3,43.7z"/>
<path fill="#FFFFFF" d="M35.1,43l1-1l5.9,5.9l-1,1C40.9,48.9,35.1,43,35.1,43z"/>
<path fill="#FFFFFF" d="M18,41.3l1.3,0.4l-2.1,8l-1.3-0.4C15.8,49.3,18,41.3,18,41.3z"/>
<path fill="#FFFFFF" d="M21.4,43.7l0.4,1.3l-8,2.1l-0.4-1.3L21.4,43.7z"/>
<path fill="#FFFFFF" d="M14.1,43l1-1l5.9,5.9l-1,1C20,48.9,14.1,43,14.1,43z"/>
<path fill="#FFFFFF" d="M28.4,44.4l1.3,0.4l-2.1,8l-1.3-0.4C26.3,52.4,28.4,44.4,28.4,44.4z"/>
<path fill="#FFFFFF" d="M31.8,46.9l0.4,1.3l-8,2.1L23.8,49C23.8,49,31.8,46.9,31.8,46.9z"/>
<path fill="#FFFFFF" d="M24.6,46.2l1-1l5.9,5.9l-1,1C30.5,52,24.6,46.2,24.6,46.2z"/>
<path opacity="0.4" fill="#FFFFFF" enable-background="new    " d="M43.6,36.1c-0.2,0-0.3,0-0.5,0H12.3c-0.1,0-0.3,0-0.4,0
	c-1.3,0-2.4-1.1-2.4-2.4s1.1-2.4,2.4-2.4c1.1,0,2.1,0.8,2.3,1.9l1.4-0.7c-0.5-0.7-0.7-1.5-0.7-2.4c0-2.4,2-4.4,4.4-4.4
	c1.2,0,2.4,0.5,3.2,1.4c0-0.2,0-0.5,0-0.7c0-4.5,3.6-8.1,8.1-8.1s8.1,3.6,8.1,8.1c0,1.5-0.4,2.9-1.1,4l1.8,0.8
	c0.3-2.1,2.1-3.7,4.3-3.7c2.4,0,4.3,1.9,4.3,4.3S46,36.1,43.6,36.1z"/>
</svg>
