<svg xmlns="http://www.w3.org/2000/svg" viewBox="0 0 16 12" enable-background="new 0 0 16 12"><switch><g><path fill="#fff" d="m0 0h16v12h-16z"/><path fill="#be2228" d="m9.117 0h-2.234v4.826h-6.883v2.349h6.883v4.825h2.234v-4.825h6.883v-2.349h-6.883z"/><path fill="#be2228" d="m4.164 2.468c0-.196.029-.374.063-.434-.199.064-.575.112-.911.131.019-.337.066-.714.13-.914-.06.034-.238.063-.433.063s-.373-.029-.433-.063c.064.2.111.577.13.914-.336-.019-.712-.066-.912-.131.034.06.063.238.063.434s-.029.374-.063.434c.2-.064.575-.112.912-.131-.019.337-.066.714-.13.914.059-.034.237-.063.433-.063s.373.029.433.063c-.064-.2-.111-.577-.13-.914.336.019.712.066.911.131-.034-.06-.063-.238-.063-.434"/><path fill="#be2228" d="m11.838 2.468c0-.196-.029-.374-.063-.434.199.064.575.112.911.131-.019-.337-.066-.714-.13-.914.06.034.237.063.433.063s.373-.029.433-.063c-.065.2-.111.577-.13.914.336-.019.711-.066.911-.131-.034.06-.063.238-.063.434s.029.374.063.434c-.2-.064-.575-.112-.911-.131.019.337.065.714.13.914-.06-.034-.237-.063-.433-.063s-.373.029-.433.063c.063-.2.111-.577.13-.914-.336.019-.712.066-.911.131.034-.06.063-.238.063-.434"/><path fill="#be2228" d="m4.164 9.531c0 .196.029.375.063.435-.199-.065-.575-.112-.911-.131.019.337.066.714.13.914-.06-.034-.238-.063-.433-.063s-.373.029-.433.063c.064-.2.111-.577.13-.914-.336.019-.712.066-.912.131.034-.06.063-.238.063-.435 0-.195-.029-.374-.063-.434.2.065.575.111.912.131-.019-.338-.066-.714-.13-.914.059.034.237.063.433.063s.373-.029.433-.063c-.064.2-.111.576-.13.914.336-.02.712-.066.911-.131-.034.06-.063.238-.063.434"/><path fill="#be2228" d="m11.838 9.531c0 .196-.029.375-.063.435.199-.065.575-.112.911-.131-.019.337-.066.714-.13.914.06-.034.237-.063.433-.063s.373.029.433.063c-.065-.2-.111-.577-.13-.914.336.019.711.066.911.131-.034-.06-.063-.238-.063-.435 0-.195.029-.374.063-.434-.2.065-.575.111-.911.131.019-.338.065-.714.13-.914-.06.034-.237.063-.433.063s-.373-.029-.433-.063c.063.2.111.576.13.914-.336-.02-.712-.066-.911-.131.034.06.063.238.063.434"/></g></switch></svg>