<svg xmlns="http://www.w3.org/2000/svg" viewBox="0 0 16 12" enable-background="new 0 0 16 12"><path fill="#c3002f" d="m0 0h16v12h-16z"/><g fill="#fff"><path d="m7.138.985h8.862v1h-8.862z"/><path d="m7.138 2.989h8.862v1h-8.862z"/><path d="m0 5h16v1h-16z"/><path d="m0 6.996h16v1h-16z"/><path d="m0 9h16v1h-16z"/><path d="m0 11h16v1h-16z"/></g><path fill="#022169" d="m0 0h8.984v6.996h-8.984z"/><g fill="#fff"><path d="m1 1h1v1h-1z"/><path d="m3 1h1v1h-1z"/><path d="m4.998 1h1v1h-1z"/><path d="m1 2.989h1v1h-1z"/><path d="m3 2.989h1v1h-1z"/><path d="m4.998 2.989h1v1h-1z"/><path d="m1 5h1v1h-1z"/><path d="m3 5h1v1h-1z"/><path d="m4.998 5h1v1h-1z"/><path d="m7 1h1v1h-1z"/><path d="m7 2.989h1v1h-1z"/><path d="m7 5h1v1h-1z"/></g></svg>