<svg xmlns="http://www.w3.org/2000/svg" viewBox="0 0 319.5 127" enable-background="new 0 0 319.5 127"><path fill="#ED1C24" d="M52 0h-17c-16.8 0-31 12.7-31 37.4 0 14.8 6.9 25.8 19.1 31.2l-22.8 41.3c-.7 1.3 0 2.4 1.2 2.4h10.6c.9 0 1.5-.3 1.8-1l20.8-40.6h7.5v40.6c0 .4.4 1 1 1h9.3c.9 0 1.2-.4 1.2-1.2v-109.6c-.1-1.1-.7-1.5-1.7-1.5zm-9.9 61.1h-6.3c-9.9 0-19.4-7.2-19.4-25.2 0-18.7 9-26.4 18.1-26.4h7.6v51.6z"/><path d="M108.1 37.2h-9.3c-.7 0-1.2.6-1.2 1v28.6h-17.1v-28.5c0-.7-.3-1-1-1h-9.3c-.7 0-1.2.4-1.2 1v72.8c0 .7.3 1.2 1 1.2h9.4c.6 0 1-.4 1-1.2v-34.8h17.2v34.7c0 .7.4 1.2 1.2 1.2h9.3c.7 0 1-.6 1-1.2v-72.7c0-.6-.4-1.1-1-1.1zM319.5 107.5l-1.2-5.1c-.1-.4-.3-.6-.7-.6-.7 0-4.8 1.6-10.6 1.6-11.3 0-16.9-10.9-16.9-28.3 0-15.3 4.6-30.4 12.4-30.4 2.1 0 4.6.6 8.7 4.3.4.4.7.6 1.2.6.4 0 .9-.3 1.3-1.1l4-6.6c.3-.5.4-.9.4-1.4 0-.6-.6-1-1.5-1.5-6.1-3.1-10.3-3.7-13.9-3.7-14 0-24.9 16.8-24.9 43 0 22.6 10.5 35.6 25.4 35.6 6.3 0 13-3 15.7-4.9.6-.3.7-.9.6-1.5zM254.6 71.1l17.9-32.8c.3-.4.1-1-.4-1h-8.8c-2.5 0-3.4.9-4.3 2.8l-13.4 28c-.7 1.6-1.5 2.7-2.2 3.1v-33c0-.6-.3-1-.9-1h-9.7c-.4 0-.9.4-.9 1v72.9c0 .4.3 1 .9 1h9.7c.6 0 .9-.4.9-1v-37.5c.4.3.7.7 1 1.3l17 35c.9 1.8 2.2 2.2 4.2 2.2h9.6c.6 0 .7-.6.4-1l-21-40zM169 102.8h-1.8c-2.2 0-2.8-.9-2.8-2.7v-61.8c0-.7-.3-1-.9-1h-29.9c-.7 0-1.2.4-1.2 1v5.4c0 18.1-1 41.5-10.6 59.2h-3.3c-.9 0-1.2.5-1.2 1.2v21.9c0 .8.6 1 1 1h7.2c1.6 0 2.2-1.2 2.2-2.2v-12.4h32v13.6c0 .6.4 1 1 1h7.6c.9 0 1.8-.7 1.8-2.2v-20.8c.1-.7-.4-1.2-1.1-1.2zm-16.1 0h-21.7c7.6-13 10.6-27.7 11.6-45.7.3-3.9.4-7.9.4-10.5h9.6v56.2zM199.5 35.4c-16.1 0-23.3 20.4-23.3 42.5 0 22.6 10.2 36.1 25.1 36.1 7.3 0 13.7-2.8 17-4.9.6-.3.7-.7.6-1.3l-1.2-5.1c-.1-.6-.4-.9-1.2-.9-.6 0-4.9 1.6-11 1.6-11.5 0-16.9-10-16.9-23.2v-3.5s5.8.7 9.3.7h21.8v-6.3c-.1-23.2-8.3-35.7-20.2-35.7zm-1.7 32.5c-3.4 0-8.8.6-8.8.6s0-2.2.3-4.6c1.3-12.7 4.5-19.2 9.7-19.2 4.8 0 7.8 6.6 8.5 18.1.1 2.4.1 5.1.1 5.1h-9.8z"/></svg>