<svg xmlns="http://www.w3.org/2000/svg" viewBox="0 0 16 12" enable-background="new 0 0 16 12"><switch><g><g><path fill="#009b67" d="m0 .031h16v11.938h-16z"/><path fill="#8b105e" d="m1 0h5v12h-5z"/><g><g><path fill="#f8991d" d="m3.5 2.874l.085.087.116-.057v.404h.035v-.174h.27v.261l.024.023v-.161h.286v.242h.023v-.108h.313v.157h.103l-.074.131.074.13h-.103v.157h-.313v-.108h-.023v.243h-.286v-.162l-.024.024v.261h-.27v-.173h-.035v.403l-.116-.058-.085.087-.085-.087-.116.058v-.403h-.035v.173h-.27v-.261l-.024-.024v.162h-.286v-.243h-.024v.108h-.312v-.157h-.103l.074-.13-.074-.131h.103v-.157h.312v.108h.024v-.242h.286v.161l.024-.023v-.261h.27v.174h.035v-.404l.116.057z"/><path fill="#fff" d="m2.399 3.755h-.061l.042-.076-.042-.077h.061z"/><path fill="#fff" d="m4.601 3.755h.061l-.041-.076.041-.077h-.061z"/><path d="m2.399 3.916h.209v-.109h.127v.243h.184v-.232l.126.123v.232h.168v-.173h.137v.373l.076-.038.075.076.074-.076.076.038v-.373h.137v.173h.168v-.232l.126-.123v.232h.184v-.243h.126v.109h.21v-.475h-.21v.109h-.126v-.243h-.184v.232l-.126-.123v-.232h-.168v.174h-.137v-.373l-.076.038-.074-.076-.075.076-.076-.038v.373h-.137v-.174h-.168v.232l-.126.123v-.232h-.184v.243h-.127v-.109h-.209z"/><g><path fill="#f8991d" d="m3.129 3.327l.052-.074h-.104z"/><path fill="#f8991d" d="m3.129 4.03l.052.074h-.104z"/><path fill="#f8991d" d="m3.871 3.327l-.052-.074h.104z"/><path fill="#f8991d" d="m3.871 4.03l-.052.074h.104z"/></g><g><path fill="#fff" d="m2.509 3.807h.226v.243h.184v-.232l-.042-.038h-.092v-.048h-.193v-.106h.193v-.048h.092l.042-.038v-.232h-.184v.243h-.226z"/><path fill="#fff" d="m4.49 3.807h-.226v.243h-.184v-.232l.041-.038h.092v-.048h.193v-.106h-.193v-.048h-.092l-.041-.038v-.232h.184v.243h.226z"/><path fill="#fff" d="m3.574 3.404v-.113l.039.019v-.243l-.039.019-.074-.076-.075.076-.039-.019v.243l.039-.019v.113z"/><path fill="#fff" d="m3.574 3.953v.113l.039-.02v.243l-.039-.019-.074.076-.075-.076-.039.019v-.243l.039.02v-.113z"/></g><g><path fill="#8b105e" d="m2.827 3.451l.052-.074h-.104z"/><path fill="#8b105e" d="m2.827 3.906l.052.075h-.104z"/><path fill="#8b105e" d="m4.173 3.451l-.052-.074h.104z"/><path fill="#8b105e" d="m4.173 3.906l-.052.075h.104z"/><path fill="#8b105e" d="m3.5 3.203l-.052-.074h.104z"/><path fill="#8b105e" d="m3.5 4.154l-.052.075h.104z"/></g><path fill="#f8991d" d="m4.158 3.713h-.122v.077l-.165.163h-.742l-.165-.163v-.077h-.122v-.07h.122v-.075l.165-.164h.742l.165.164v.075h.122z"/><path fill="#8b105e" d="m3.985 3.766l-.136.135h-.699l-.136-.135v-.176l.136-.135h.699l.136.135z"/><g><path fill="#f8991d" d="m3.211 3.506l.122.165-.133.18h.082l.092-.125.046.062-.047.063h.081l.047-.063-.081-.109.081-.109-.046-.063h-.082l.041.055-.04.054-.081-.109z"/><path fill="#f8991d" d="m3.789 3.506l-.122.165.133.18h-.081l-.092-.125-.045.062.047.063h-.081l-.047-.063.081-.109-.081-.109.046-.063h.082l-.041.055.04.054.081-.109z"/></g><g><path fill="#fff" d="m3.241 3.679l-.081-.109v.218z"/><path fill="#fff" d="m3.758 3.679l.082-.109v.218z"/><path fill="#fff" d="m3.5 3.788l.081-.109-.081-.109-.081.109z"/></g></g><g><path fill="#f8991d" d="m3.789 6.121l.344-.162v-.043h.271v-.202h.218v-.536h-.218v-.201h-.271v-.044l-.344-.162h-.578l-.344.162v.044h-.271v.201h-.217v.536h.217v.202h.271v.043l.344.162z"/><path d="m3.777 6.072l.305-.145v-.061h.271v-.202h.218v-.436h-.218v-.202h-.271v-.062l-.305-.144h-.555l-.305.144v.062h-.271v.202h-.217v.436h.217v.202h.271v.061l.305.145z"/><path fill="#8b105e" d="m3.766 6.02l.266-.127v-.069h.271v-.212h.217v-.337h-.217v-.212h-.271v-.07l-.266-.125h-.532l-.266.125v.07h-.272v.212h-.217v.337h.217v.212h.272v.069l.266.127z"/><path d="m3.5 5.909l.397-.189h.311v-.548h-.311l-.397-.189-.397.189h-.311v.548h.311z"/><path fill="#f8991d" d="m2.48 5.446v-.168h.217v-.105h.096v.249h-.189l.043-.029v-.06z"/><path fill="#f8991d" d="m2.748 5.106h.168v.043h-.168z"/><path fill="#f8991d" d="m3.5 5.04v.407h.588v-.223h-.201z"/><path fill="#f8991d" d="m3.5 5.853v-.407h-.589v.223h.202z"/><path fill="#8b105e" d="m3.5 5.04v.407h-.589v-.223h.202z"/><path fill="#8b105e" d="m3.5 5.853v-.407h.588v.223h-.201z"/><path fill="#fff" d="m3.82 5.446l.129.068-.107.05-.056-.029.05-.024-.073-.038-.206.098.073.038.051-.025.056.029-.108.052-.129-.067-.129.067-.108-.052.056-.029.051.025.073-.038-.207-.098-.073.038.05.024-.056.029-.106-.05.129-.068-.129-.069.106-.05.056.029-.05.023.073.038.207-.098-.073-.037-.051.024-.056-.029.108-.051.129.067.129-.067.108.051-.056.029-.051-.024-.073.037.206.098.073-.038-.05-.023.056-.029.107.05z"/><path fill="#f8991d" d="m3.5 5.554l.208-.108h-.208z"/><path fill="#f8991d" d="m3.5 5.348l-.208.098h.208z"/><path d="m3.5 5.554l-.208-.108h.208z"/><path d="m3.5 5.348l.208.098h-.208z"/><path fill="#fff" d="m3.082 4.991v.182h.021l.397-.189v-.113h-.266v.085h.046v-.047h.182v.05l-.224.109z"/><path fill="#f8991d" d="m3.121 5.05v.059l.061-.029z"/><path fill="#f8991d" d="m3.082 5.172v-.182l.155.076.224-.109v-.05h-.182v.047h-.046v-.085l-.266.125v.177z"/><path fill="#fff" d="m3.917 5.901v-.181h-.021l-.397.189v.114h.266v-.086h-.046v.048h-.182v-.049l.225-.109z"/><path fill="#f8991d" d="m3.879 5.844v-.059l-.062.028z"/><path fill="#f8991d" d="m3.917 5.72v.181l-.154-.075-.225.109v.049h.182v-.048h.046v.086l.266-.127v-.176z"/><path fill="#8b105e" d="m3.917 4.991v.182h-.021l-.397-.189v-.113h.267v.085h-.046v-.047h-.182v.05l.224.109z"/><path fill="#fff" d="m3.878 5.05v.059l-.061-.029z"/><path fill="#fff" d="m3.917 5.172v-.182l-.155.076-.224-.109v-.05h.182v.047h.046v-.085l.266.125v.177z"/><path fill="#8b105e" d="m3.082 5.901v-.181h.021l.397.189v.114h-.266v-.086h.046v.048h.182v-.049l-.224-.109z"/><path fill="#fff" d="m3.121 5.844v-.059l.061.028z"/><path fill="#fff" d="m3.082 5.72v.181l.155-.075.224.109v.049h-.182v-.048h-.046v.086l-.266-.127v-.176z"/><path fill="#fff" d="m2.48 5.446v.169h.217v.106h.096v-.25h-.189l.043.028v.06z"/><path fill="#fff" d="m2.747 5.743h.169v.043h-.169z"/><path fill="#f8991d" d="m4.52 5.446v.169h-.217v.106h-.096v-.25h.189l-.044.028v.06z"/><path fill="#f8991d" d="m4.082 5.744h.168v.042h-.168z"/><path fill="#fff" d="m4.52 5.446v-.168h-.217v-.105h-.096v.249h.19l-.044-.029v-.059z"/><path fill="#fff" d="m4.083 5.106h.168v.042h-.168z"/></g><g><path fill="#f8991d" d="m3.5 8.05l.09-.104.102.054v-.113l.101.053v-.163h.459l.021-.02.061.061.029-.064h.085v-.083l.064-.03-.061-.061.049-.049v-.119h.112l-.047-.049h.138l-.056-.06.108-.088-.108-.089.056-.059h-.138l.047-.051h-.112v-.117l-.049-.049.061-.061-.064-.029v-.084h-.085l-.029-.063-.061.061-.021-.021h-.46v-.161l-.101.053v-.114l-.102.055-.09-.105-.09.105-.102-.055v.114l-.101-.053v.161h-.459l-.02.021-.062-.061-.029.063h-.085v.084l-.064.029.062.061-.049.049v.117h-.112l.047.051h-.138l.056.059-.108.089.108.088-.056.06h.138l-.047.049h.112v.119l.049.049-.062.061.064.03v.083h.085l.029.064.062-.061.02.02h.459v.163l.101-.053v.113l.102-.054z"/><path d="m3.5 6.455l.078.09.063-.033v.113l.102-.053v.129h.489l.217.216v.59l-.217.216h-.489v.129l-.102-.053v.113l-.063-.033-.078.091-.078-.091-.063.033v-.113l-.101.053v-.129h-.489l-.217-.216v-.59l.217-.216h.489v-.129l.101.053v-.113l.063.033z"/><path fill="#f8991d" d="m4.21 6.752l.188.186v.551l-.188.186h-1.421l-.187-.186v-.551l.187-.186z"/><path d="m4.169 7.573l.12-.119v-.483l-.12-.119h-1.337l-.119.119v.483l.119.119z"/><path d="m4.169 7.573l.12-.119"/><path d="m4.288 6.971l-.12-.119"/><path fill="#8b105e" d="m2.949 6.783h.136v.037h-.136z"/><path fill="#8b105e" d="m3.433 6.783h.135v.037h-.135z"/><path fill="#8b105e" d="m2.638 7.146h.038v.134h-.038z"/><path fill="#8b105e" d="m2.949 7.606h.136v.037h-.136z"/><path fill="#8b105e" d="m3.433 7.606h.135v.037h-.135z"/><path fill="#8b105e" d="m3.915 6.783h.135v.037h-.135z"/><path fill="#8b105e" d="m4.323 7.146h.038v.134h-.038z"/><path fill="#8b105e" d="m3.915 7.606h.135v.037h-.135z"/><path fill="#fff" d="m3.19 6.783h.136v.037h-.136z"/><path fill="#fff" d="m2.673 6.85h.135v.038h-.135z" transform="matrix(-.71072.70347-.70347-.71072 9.52 9.823)"/><path fill="#fff" d="m3.19 7.606h.136v.037h-.136z"/><path fill="#fff" d="m2.673 7.537h.135v.037h-.135z" transform="matrix(-.70711-.70711.70711-.70711-.664 14.836)"/><path fill="#fff" d="m3.673 6.783h.135v.037h-.135z"/><path fill="#fff" d="m4.192 6.851h.134v.037h-.134z" transform="matrix(.70711.70711-.70711.70711 6.105-.999)"/><path fill="#fff" d="m3.673 7.606h.135v.037h-.135z"/><path fill="#fff" d="m4.192 7.537h.135v.037h-.135z" transform="matrix(.70347-.71072.71072.70347-4.107 5.267)"/><path fill="#f8991d" d="m3.5 7h.553l.076.074v.138h-.628z"/><path fill="#8b105e" d="m3.5 7h-.554l-.075.074v.138h.629z"/><path fill="#f8991d" d="m3.259 6.967l-.068-.072h.136z"/><path fill="#f8991d" d="m2.871 6.904l.003.099-.099-.004z"/><path fill="#f8991d" d="m3.259 7.459l-.068.072h.136z"/><path fill="#f8991d" d="m2.871 7.522l.003-.099-.099.004z"/><path fill="#f8991d" d="m3.741 6.967l.067-.072h-.135z"/><path fill="#f8991d" d="m4.129 6.904l-.003.099.099-.004z"/><path fill="#f8991d" d="m3.741 7.459l.067.072h-.135z"/><path fill="#f8991d" d="m4.129 7.522l-.003-.099.099.004z"/><path fill="#fff" d="m3.085 6.895l-.068.072-.067-.072z"/><path fill="#fff" d="m3.567 6.895l-.067.072-.067-.072z"/><path fill="#fff" d="m2.751 7.146l.072.067-.072.066z"/><path fill="#fff" d="m3.085 7.531l-.068-.072-.067.072z"/><path fill="#fff" d="m3.567 7.531l-.067-.072-.067.072z"/><path fill="#fff" d="m3.915 6.895l.067.072.068-.072z"/><path fill="#fff" d="m4.248 7.146l-.072.067.072.066z"/><path fill="#fff" d="m3.915 7.531l.067-.072.068.072z"/><path fill="#fff" d="m2.551 7.06h-.047l.04.044h-.137l.047.051h-.065l-.066.053.066.053h.065l-.047.051h.137l-.04.044h.047z"/><path fill="#fff" d="m2.728 6.742l-.047-.047-.015.028h-.064v.064l-.028.015.046.046z"/><path fill="#fff" d="m2.728 7.684l-.047.046-.015-.027h-.064v-.063l-.028-.015.046-.047z"/><path fill="#fff" d="m4.448 7.06h.048l-.041.044h.138l-.047.051h.065l.064.053-.064.053h-.065l.047.051h-.138l.041.044h-.048z"/><path fill="#fff" d="m4.273 6.742l.046-.047.016.028h.064v.064l.028.015-.047.046z"/><path fill="#fff" d="m4.273 7.684l.046.046.016-.027h.064v-.063l.028-.015-.047-.047z"/><path fill="#fff" d="m3.705 6.701v-.066l-.102.052v-.114l-.058.031v-.038l-.046-.054-.046.054v.038l-.058-.031v.114l-.102-.052v.066z"/><path fill="#fff" d="m3.705 7.725v.066l-.102-.052v.113l-.058-.029v.037l-.046.054-.046-.054v-.037l-.058.029v-.113l-.102.052v-.066z"/><path fill="#f8991d" d="m3.5 7.425h-.554l-.075-.076v-.136h.629z"/><path fill="#8b105e" d="m3.5 7.425h.553l.076-.076v-.136h-.628z"/><path fill="#fff" d="m3.947 7.212l.073.077-.092.079h-.054l.096-.083-.045-.048h-.399v.052l.063.037.04-.037h.051l-.087.082-.093-.053-.093.053-.087-.082h.051l.04.037.063-.037v-.052h-.399l-.045.048.095.083h-.054l-.091-.079.073-.077-.073-.077.091-.078h.054l-.095.082.045.048h.399v-.052l-.063-.036-.04.038h-.051l.087-.084.093.054.093-.054.087.084h-.051l-.04-.038-.063.036v.052h.399l.045-.048-.096-.082h.054l.092.078z"/></g><g><path d="m2.065 3.43l.115-.076h-.071v-.106l.267-.169-.111-.083-.013.007v.096l-.036.023v-.139l.177-.113h.224l-.057.036h-.137l.104.077.298-.189-.298-.189-.104.078h.137l.057.036h-.224l-.177-.113v-.139l.036.023v.096l.013.008.111-.083-.267-.168v-.107h.071l-.115-.076z"/><path fill="#f8991d" d="m2.826 2.795l-.298.189-.104-.077h.137l.057-.036h-.224l-.177.113v.139l.036-.023v-.096l.013-.007.111.083-.267.169v.106h.071l-.115.076v.057l.24-.173h-.16v-.046l.296-.187-.143-.106.085-.054.142.106.37-.233-.37-.233-.142.106-.085-.053.143-.106-.296-.187v-.046h.16l-.24-.173v.057l.115.076h-.071v.107l.267.168-.111.083-.013-.008v-.096l-.036-.023v.139l.177.113h.224l-.057-.036h-.137l.104-.078z"/><path fill="#f8991d" d="m2.109 2.492v-.091l.056.034v.057z"/><path fill="#8b105e" d="m2.109 2.523h.056v.095h-.056z"/><path fill="#f8991d" d="m2.109 3.098v.092l.056-.035v-.057z"/><path fill="#8b105e" d="m2.109 2.971h.056v.096h-.056z"/><path fill="#f8991d" d="m2.094 2.921h.119l.137-.084v-.083l-.137-.084h-.119z"/><path fill="#f8991d" d="m2.647 2.852l.088-.057-.088-.057z"/><path fill="#8b105e" d="m2.394 2.756h.217v.078h-.217z"/></g><g><path d="m2.065 1v.671l.115-.076h-.071v-.106l.267-.169-.111-.083-.012.008v.096l-.036.022v-.139l.177-.113h.224l-.057.036h-.138l.104.078.356-.226z"/><path fill="#f8991d" d="m2.883 1l-.356.226-.104-.078h.138l.057-.036h-.224l-.177.113v.139l.036-.022v-.096l.012-.008.111.083-.267.169v.106h.071l-.115.076v.057l.24-.173h-.16v-.046l.295-.186-.143-.106.085-.053.143.106.427-.27z"/><path fill="#f8991d" d="m2.109 1.339v.091l.056-.034v-.057z"/><path fill="#8b105e" d="m2.109 1.212h.056v.096h-.056z"/><path fill="#f8991d" d="m2.093 1.037v.125h.12l.137-.084v-.041z"/><path fill="#f8991d" d="m2.647 1.037v.057l.087-.057z"/><path fill="#8b105e" d="m2.394 1.037h.218v.039h-.218z"/></g><g><path d="m4.935 3.43l-.115-.076h.071v-.106l-.268-.169.111-.083.013.007v.096l.036.023v-.139l-.177-.113h-.224l.057.036h.137l-.104.077-.298-.189.298-.189.104.078h-.137l-.057.036h.224l.177-.113v-.139l-.036.023v.096l-.013.008-.111-.083.268-.168v-.107h-.071l.115-.076z"/><path fill="#f8991d" d="m4.175 2.795l.298.189.104-.077h-.137l-.057-.036h.224l.177.113v.139l-.036-.023v-.096l-.013-.007-.111.083.268.169v.106h-.071l.115.076v.057l-.24-.173h.16v-.046l-.296-.187.144-.106-.085-.054-.143.106-.37-.233.37-.233.143.106.085-.053-.144-.106.296-.187v-.046h-.16l.24-.173v.057l-.115.076h.071v.107l-.268.168.111.083.013-.008v-.096l.036-.023v.139l-.177.113h-.224l.057-.036h.137l-.104-.078z"/><path fill="#f8991d" d="m4.891 2.492v-.091l-.056.034v.057z"/><path fill="#8b105e" d="m4.835 2.523h.056v.095h-.056z"/><path fill="#f8991d" d="m4.891 3.098v.092l-.056-.035v-.057z"/><path fill="#8b105e" d="m4.835 2.971h.056v.096h-.056z"/><path fill="#f8991d" d="m4.906 2.921h-.119l-.137-.084v-.083l.137-.084h.119z"/><path fill="#f8991d" d="m4.354 2.852l-.088-.057.088-.057z"/><path fill="#8b105e" d="m4.389 2.756h.217v.078h-.217z"/></g><g><path d="m4.935 1v.671l-.115-.076h.071v-.106l-.267-.169.111-.083.012.008v.096l.036.022v-.139l-.177-.113h-.224l.057.036h.138l-.104.078-.356-.226z"/><path fill="#f8991d" d="m4.117 1l.356.226.104-.078h-.138l-.057-.036h.224l.177.113v.139l-.036-.022v-.096l-.012-.008-.111.083.267.169v.106h-.071l.115.076v.057l-.24-.173h.16v-.046l-.296-.186.144-.106-.085-.053-.143.106-.427-.27z"/><path fill="#f8991d" d="m4.891 1.339v.091l-.056-.034v-.057z"/><path fill="#8b105e" d="m4.835 1.212h.056v.096h-.056z"/><path fill="#f8991d" d="m4.906 1.037v.125h-.119l-.137-.084v-.041z"/><path fill="#f8991d" d="m4.354 1.037v.057l-.088-.057z"/><path fill="#8b105e" d="m4.389 1.037h.218v.039h-.218z"/></g><g><path d="m2.065 7.461l.115.075h-.071v.106l.267.169-.111.084-.013-.008v-.097l-.036-.022v.139l.177.113h.224l-.057-.036h-.137l.104-.078.298.191-.298.189-.104-.078h.137l.057-.036h-.224l-.177.112v.14l.036-.022v-.097l.013-.008.111.084-.267.169v.105h.071l-.115.075z"/><path fill="#f8991d" d="m2.826 8.097l-.298-.191-.104.078h.137l.057.036h-.224l-.177-.113v-.139l.036.022v.097l.013.008.111-.084-.267-.169v-.106h.071l-.115-.075v-.057l.24.173h-.16v.047l.296.186-.143.106.085.054.142-.106.37.233-.37.232-.142-.106-.085.054.143.106-.296.186v.047h.16l-.24.173v-.058l.115-.075h-.071v-.105l.267-.169-.111-.084-.013.008v.097l-.036.022v-.14l.177-.112h.224l-.057.036h-.137l.104.078z"/><path fill="#f8991d" d="m2.109 8.399v.091l.056-.034v-.057z"/><path fill="#8b105e" d="m2.109 8.272h.056v.097h-.056z"/><path fill="#f8991d" d="m2.109 7.793v-.091l.056.033v.058z"/><path fill="#8b105e" d="m2.109 7.825h.056v.095h-.056z"/><path fill="#f8991d" d="m2.094 7.971h.119l.137.084v.083l-.137.083-.119.002z"/><path fill="#f8991d" d="m2.647 8.04l.088.058-.088.056z"/><path fill="#8b105e" d="m2.394 8.06h.217v.078h-.217z"/></g><g><path d="m4.935 7.461l-.115.075h.071v.106l-.268.169.111.084.013-.008v-.097l.036-.022v.139l-.177.113h-.224l.057-.036h.137l-.104-.078-.298.191.298.189.104-.078h-.137l-.057-.036h.224l.177.112v.14l-.036-.022v-.097l-.013-.008-.111.084.268.169v.105h-.071l.115.075z"/><path fill="#f8991d" d="m4.175 8.097l.298-.191.104.078h-.137l-.057.036h.224l.177-.113v-.139l-.036.022v.097l-.013.008-.111-.084.268-.169v-.106h-.071l.115-.075v-.057l-.24.173h.16v.047l-.296.186.144.106-.085.054-.143-.106-.37.233.37.232.143-.106.085.054-.144.106.296.186v.047h-.16l.24.173v-.058l-.115-.075h.071v-.105l-.268-.169.111-.084.013.008v.097l.036.022v-.14l-.177-.112h-.224l.057.036h.137l-.104.078z"/><path fill="#f8991d" d="m4.891 8.399v.091l-.056-.034v-.057z"/><path fill="#8b105e" d="m4.835 8.272h.056v.097h-.056z"/><path fill="#f8991d" d="m4.891 7.793v-.091l-.056.033v.058z"/><path fill="#8b105e" d="m4.835 7.825h.056v.095h-.056z"/><path fill="#f8991d" d="m4.906 7.971h-.119l-.137.084v.083l.137.083.119.002z"/><path fill="#f8991d" d="m4.354 8.04l-.088.058.088.056z"/><path fill="#8b105e" d="m4.389 8.06h.217v.078h-.217z"/></g><g><path d="m2.065 5.196l.115-.075h-.071v-.106l.267-.169-.111-.083-.013.007v.096l-.036.023v-.139l.177-.113h.224l-.057.036h-.137l.104.078.298-.189-.298-.189-.104.078h.137l.057.036h-.224l-.177-.113v-.14l.036.023v.096l.013.008.111-.083-.267-.168v-.106h.071l-.115-.076z"/><path fill="#f8991d" d="m2.826 4.562l-.298.189-.104-.078h.137l.057-.036h-.224l-.177.113v.139l.036-.023v-.096l.013-.007.111.083-.267.169v.106h.071l-.115.075v.058l.24-.173h-.16v-.046l.296-.186-.143-.106.085-.054.142.106.37-.233-.37-.233-.142.106-.085-.053.143-.106-.296-.186v-.046h.16l-.24-.173v.057l.115.076h-.071v.106l.267.168-.111.083-.013-.008v-.096l-.036-.023v.14l.177.113h.224l-.057-.036h-.137l.104-.078z"/><path fill="#f8991d" d="m2.109 4.259v-.091l.056.034v.057z"/><path fill="#8b105e" d="m2.109 4.291h.056v.095h-.056z"/><path fill="#f8991d" d="m2.109 4.865v.092l.056-.035v-.057z"/><path fill="#8b105e" d="m2.109 4.738h.056v.096h-.056z"/><path fill="#f8991d" d="m2.094 4.688h.119l.137-.083v-.083l-.137-.084h-.119z"/><path fill="#f8991d" d="m2.647 4.619l.088-.057-.088-.057z"/><path fill="#8b105e" d="m2.394 4.523h.217v.078h-.217z"/></g><g><path d="m4.935 5.196l-.115-.075h.071v-.106l-.268-.169.111-.083.013.007v.096l.036.023v-.139l-.177-.113h-.224l.057.036h.137l-.104.078-.298-.189.298-.189.104.078h-.137l-.057.036h.224l.177-.113v-.14l-.036.023v.096l-.013.008-.111-.083.268-.168v-.106h-.071l.115-.076z"/><path fill="#f8991d" d="m4.175 4.562l.298.189.104-.078h-.137l-.057-.036h.224l.177.113v.139l-.036-.023v-.096l-.013-.007-.111.083.268.169v.106h-.071l.115.075v.058l-.24-.173h.16v-.046l-.296-.186.144-.106-.085-.054-.143.106-.37-.233.37-.233.143.106.085-.053-.144-.106.296-.186v-.046h-.16l.24-.173v.057l-.115.076h.071v.106l-.268.168.111.083.013-.008v-.096l.036-.023v.14l-.177.113h-.224l.057-.036h.137l-.104-.078z"/><path fill="#f8991d" d="m4.891 4.259v-.091l-.056.034v.057z"/><path fill="#8b105e" d="m4.835 4.291h.056v.095h-.056z"/><path fill="#f8991d" d="m4.891 4.865v.092l-.056-.035v-.057z"/><path fill="#8b105e" d="m4.835 4.738h.056v.096h-.056z"/><path fill="#f8991d" d="m4.906 4.688h-.119l-.137-.083v-.083l.137-.084h.119z"/><path fill="#f8991d" d="m4.354 4.619l-.088-.057.088-.057z"/><path fill="#8b105e" d="m4.389 4.523h.217v.078h-.217z"/></g><g><path d="m2.065 6.965l.115-.076h-.071v-.106l.267-.17-.111-.083-.013.009v.096l-.036.021v-.139l.177-.112h.224l-.057.036h-.137l.104.078.298-.19-.298-.189-.104.077h.137l.057.036h-.224l-.177-.112v-.14l.036.023v.096l.013.008.111-.084-.267-.168v-.106h.071l-.115-.076z"/><path fill="#f8991d" d="m2.826 6.329l-.298.19-.104-.078h.137l.057-.036h-.224l-.177.112v.139l.036-.021v-.096l.013-.009.111.083-.267.17v.106h.071l-.115.076v.057l.24-.174h-.16v-.046l.296-.187-.143-.105.085-.053.142.106.37-.233-.37-.232-.142.106-.085-.053.143-.107-.296-.186v-.047h.16l-.24-.172v.057l.115.076h-.071v.106l.267.168-.111.084-.013-.008v-.096l-.036-.023v.14l.177.112h.224l-.057-.036h-.137l.104-.077z"/><path fill="#f8991d" d="m2.109 6.03v-.089l.056.033v.056z"/><path fill="#8b105e" d="m2.109 6.06h.056v.095h-.056z"/><path fill="#f8991d" d="m2.109 6.633v.091l.056-.034v-.057z"/><path fill="#8b105e" d="m2.109 6.506h.056v.095h-.056z"/><path fill="#f8991d" d="m2.094 6.455h.119l.137-.084v-.083l-.137-.083-.119-.002z"/><path fill="#f8991d" d="m2.647 6.387l.088-.058-.088-.057z"/><path fill="#8b105e" d="m2.394 6.291h.217v.077h-.217z"/></g><g><path d="m4.935 6.965l-.115-.076h.071v-.106l-.268-.17.111-.083.013.009v.096l.036.021v-.139l-.177-.112h-.224l.057.036h.137l-.104.078-.298-.19.298-.189.104.077h-.137l-.057.036h.224l.177-.112v-.14l-.036.023v.096l-.013.008-.111-.084.268-.168v-.106h-.071l.115-.076z"/><path fill="#f8991d" d="m4.175 6.329l.298.19.104-.078h-.137l-.057-.036h.224l.177.112v.139l-.036-.021v-.096l-.013-.009-.111.083.268.17v.106h-.071l.115.076v.057l-.24-.174h.16v-.046l-.296-.187.144-.105-.085-.053-.143.106-.37-.233.37-.232.143.106.085-.053-.144-.107.296-.186v-.047h-.16l.24-.172v.057l-.115.076h.071v.106l-.268.168.111.084.013-.008v-.096l.036-.023v.14l-.177.112h-.224l.057-.036h.137l-.104-.077z"/><path fill="#f8991d" d="m4.891 6.03v-.089l-.056.033v.056z"/><path fill="#8b105e" d="m4.835 6.06h.056v.095h-.056z"/><path fill="#f8991d" d="m4.891 6.633v.091l-.056-.034v-.057z"/><path fill="#8b105e" d="m4.835 6.506h.056v.095h-.056z"/><path fill="#f8991d" d="m4.906 6.455h-.119l-.137-.084v-.083l.137-.083.119-.002z"/><path fill="#f8991d" d="m4.354 6.387l-.088-.058.088-.057z"/><path fill="#8b105e" d="m4.389 6.291h.217v.077h-.217z"/></g><g><path fill="#f8991d" d="m4.261 9.662l.36-.357v-.65l-.36-.357h-1.521l-.36.357v.65l.36.357z"/><path d="m4.239 9.61l.331-.327v-.608l-.331-.327h-1.479l-.331.327v.608l.331.327z"/><path fill="#fff" d="m3.187 9.563h-.405l-.301-.3v-.284h.442v.296h.371l.124.091v.145h-.06v-.066z"/><path fill="#fff" d="m3.814 8.398h.405l.301.298v.283h-.442v-.294h-.371l-.124-.092v-.145h.06v.066z"/><path fill="#f8991d" d="m3.187 8.398h-.405l-.301.298v.283h.442v-.294h.371l.124-.092v-.145h-.06v.066z"/><path fill="#f8991d" d="m3.814 9.563h.405l.301-.3v-.284h-.442v.296h-.371l-.124.091v.145h.06v-.066z"/><path fill="#fff" d="m2.922 8.979v-.294h.371l.124-.092v-.145h-.06v.066l-.172-.117h.313v.198l-.19.139h-.336v.244z"/><path fill="#fff" d="m4.077 8.979v.296h-.371l-.125.091v.145h.06v-.066l.171.118h-.313v-.199l.19-.14h.337v-.245z"/><path fill="#f8991d" d="m3.5 8.596l-.19.139h-.336v.244h.078v-.086l.228-.108h.221z"/><path fill="#f8991d" d="m3.5 9.363l.189-.14h.337v-.245h-.078v.087l-.228.107h-.22z"/><g><path fill="#8b105e" d="m2.75 8.84v.08h.087v-.223h-.087v.08h-.089v-.08h-.087v.223h.087v-.08z"/><path fill="#8b105e" d="m3.042 8.565v.08h.087v-.224h-.087v.081h-.089v-.081h-.087v.224h.087v-.08z"/><path fill="#8b105e" d="m2.75 9.119v-.082h.087v.225h-.087v-.081h-.089v.081h-.087v-.225h.087v.082z"/><path fill="#8b105e" d="m3.042 9.395v-.082h.087v.224h-.087v-.08h-.089v.08h-.087v-.224h.087v.082z"/><path fill="#8b105e" d="m4.25 8.84v.08h-.087v-.223h.087v.08h.089v-.08h.087v.223h-.087v-.08z"/><path fill="#8b105e" d="m3.958 8.565v.08h-.087v-.224h.087v.081h.089v-.081h.087v.224h-.087v-.08z"/><path fill="#8b105e" d="m4.25 9.119v-.082h-.087v.225h.087v-.081h.089v.081h.087v-.225h-.087v.082z"/><path fill="#8b105e" d="m3.958 9.395v-.082h-.087v.224h.087v-.08h.089v.08h.087v-.224h-.087v.082z"/></g><g><path fill="#fff" d="m2.626 8.647h.147v-.145z"/><path fill="#fff" d="m4.373 9.311h-.146v.146z"/></g><g><path fill="#f8991d" d="m2.626 9.311h.147v.146z"/><path fill="#f8991d" d="m4.373 8.647h-.146v-.145z"/></g><path fill="#8b105e" d="m3.5 8.596l.19.139h.336v.244h-.078v-.086l-.228-.108h-.221z"/><path fill="#8b105e" d="m3.5 9.363l-.189-.14h-.337v-.245h.078v.087l.228.107h.22z"/><path fill="#f8991d" d="m3.917 9.04l-.204.097h-.154v-.052l.063-.045v.06l.091-.043-.091-.064-.122.087-.122-.087-.091.064.091.043v-.06l.063.045v.052h-.154l-.204-.097v-.132l.204-.097h.154v.052l-.063.046v-.061l-.091.043.091.066.122-.089.122.089.091-.066-.091-.043v.061l-.063-.046v-.052h.154l.204.097z"/><path fill="#fff" d="m3.579 8.979l-.079-.057-.08.057.08.058z"/><path fill="#fff" d="m3.231 9.04l.092-.058-.092-.057z"/><path fill="#fff" d="m3.77 9.04l-.092-.058.092-.057z"/></g><g><path fill="#f8991d" d="m4.621 2.142l-.171.112v.081l-.284.186-.076-.031-.17.111h-.84l-.17-.111-.076.031-.284-.186v-.081l-.17-.112v-.461l.17-.111v-.081l.284-.186.076.031.17-.111h.84l.17.111.076-.031.284.186v.081l.171.111z"/><path d="m4.565 2.126l-.16.103v.081l-.244.16-.076-.031-.159.105h-.851l-.159-.105-.076.031-.244-.16v-.081l-.16-.103v-.429l.16-.104v-.08l.244-.16.076.031.159-.105h.851l.159.105.076-.031.244.16v.08l.16.104z"/><path fill="#8b105e" d="m4.545 2.112l-.163.106v.08l-.224.147-.076-.031-.161.107h-.841l-.162-.107-.076.031-.224-.147v-.08l-.163-.106v-.402l.163-.105v-.08l.224-.147.076.03.162-.107h.841l.161.107.076-.03.224.147v.08l.163.105z"/><path d="m4.508 2.081l-.172.112.001.081-.184.12-.077-.031-.171.112h-.811l-.171-.112-.076.031-.185-.12v-.081l-.171-.112v-.34l.171-.112v-.081l.185-.12.076.031.171-.112h.811l.171.112.077-.031.184.12-.001.081.172.112z"/><path fill="#8b105e" d="m4.486 2.069l-.173.113v.081l-.162.106-.077-.031-.172.113h-.804l-.173-.113-.076.031-.163-.106v-.081l-.172-.113v-.316l.172-.112v-.081l.163-.106.076.031.173-.113h.804l.172.113.077-.031.162.106v.081l.173.112z"/><path d="m3.458 1.837l-.078.074h-.291l.105-.099v-.112h.195l.068-.061z"/><path fill="#fff" d="m3.5 1.817l-.099.095h.099z"/><path fill="#8b105e" d="m3.395 1.853l-.018-.017h-.052l.025-.024-.01-.035.036.009.025-.024v.05l.018.017.024-.022v-.135l-.048.04h-.185v.107l-.065.062c0-.001.133 0 .221 0l.028-.027"/><path d="m3.542 1.837l.079.074h.29l-.105-.099v-.112h-.195l-.068-.061z"/><path fill="#8b105e" d="m3.581 1.829l.018-.017v-.05l.025.024.036-.009-.01.035.025.024h-.052l-.018.017z"/><path d="m3.542 1.986l.078-.074h.291l-.105.099v.113h-.195l-.068.061z"/><path fill="#fff" d="m3.5 2.01l.099-.095h-.099z"/><path fill="#8b105e" d="m3.606 1.971l.018.017h.052l-.025.025.009.034-.036-.009-.025.024v-.05l-.018-.017-.024.023v.136l.048-.041h.185v-.106l.065-.061s-.132 0-.221 0l-.028.027"/><path d="m3.458 1.986l-.078-.074h-.291l.105.099v.113h.195l.068.061z"/><path fill="#8b105e" d="m3.419 1.994l-.018.017v.05l-.025-.024-.036.009.01-.034-.025-.025h.052l.018-.017z"/><path fill="#fff" d="m3.247 1.621l.098.061h-.127l-.166-.105-.019-.052-.029.022-.038-.024h-.081l.082.052-.04.031h.09l.154.097v.086l-.075-.047-.018-.053-.029.023-.038-.024h-.082l.083.052-.04.031h.09l.086.055-.055.052h-.418l-.027-.027.027-.027h.085v-.051h-.136l-.111.105v-.125l.172-.112v-.081l.163-.106.076.031.173-.113h.359l-.033.06h-.205l.143.121v-.062h.095v.124l-.057.051-.119-.075-.018-.053-.028.023-.038-.024h-.081l.083.052-.041.032z"/><path fill="#f8991d" d="m4.115 1.523l-.082.052.04.031h-.09l-.154.097v.086l.075-.047.018-.053.029.023.038-.024h.081l-.082.052.04.031h-.09l-.086.055.055.052h.419l.027-.027-.027-.027h-.085v-.051h.136l.111.105v-.125l-.173-.112v-.081l-.162-.106-.077.031-.172-.113h-.359l.033.06h.205l-.143.121v-.062h-.096v.124l.057.051.119-.075.018-.053.029.023.038-.024h.082l-.083.052.04.032h-.09l-.098.061h.127l.167-.105.018-.052.029.022.038-.024z"/><path fill="#fff" d="m4.115 2.301l-.08-.054.038-.03h-.09l-.154-.099v-.086l.075.048.018.052.029-.022.038.024h.081l-.082-.052.04-.031h-.09l-.086-.055.055-.052h.419l.027.027-.027.027h-.085v.052h.136l.111-.105v.124l-.173.113v.081l-.162.106-.077-.031-.172.113h-.359l.033-.06h.205l-.143-.121v.061h-.096v-.123l.057-.051.119.076.018.053.029-.023.038.023h.082l-.083-.052.04-.031h-.09l-.098-.062h.127l.167.107.018.052.029-.022.038.024z"/><path fill="none" d="m4.494 1.886l-.119-.113h-.136v.051h.085l.027.027-.027.027h-.419l-.077-.074v-.123h-.21l-.075-.067v-.124h.096v.062l.143-.121h-.205l-.041-.073"/><path fill="#f8991d" d="m2.886 2.301l.082-.053-.04-.031h.09l.154-.099v-.086l-.075.048-.018.052-.029-.022-.038.024h-.082l.083-.052-.04-.031h.09l.086-.055-.055-.052h-.418l-.027.027.027.027h.085v.052h-.136l-.111-.105v.124l.172.113v.081l.163.106.076-.031.173.113h.359l-.033-.06h-.205l.143-.121v.061h.095v-.123l-.057-.051-.119.076-.018.053-.028-.023-.038.023h-.081l.083-.052-.041-.031h.09l.098-.063h-.127l-.166.107-.019.052-.029-.022-.038.024z"/><path fill="none" d="m2.507 1.937l.118.113h.136v-.052h-.085l-.027-.027.027-.027h.418l.077.074v.123h.21l.075.068v.123h-.095v-.061l-.143.121h.205l.037.067"/><path d="m3.5 2.451h.402l.172-.113.077.031.162-.106v-.081l.173-.113v-.316l-.173-.112v-.081l-.162-.106-.077.031-.172-.113h-.804l-.173.113-.076-.031-.163.106v.081l-.172.112v.316l.172.113v.081l.163.106.076-.031.173.113h.402v.024h-.405l-.171-.112-.076.031-.185-.12v-.081l-.171-.112v-.34l.171-.112v-.081l.185-.12.076.031.171-.112h.811l.171.112.077-.031.184.12-.001.081.172.112v.34l-.172.112.001.081-.184.12-.077-.031-.171.112h-.405z"/></g><g><path fill="#f8991d" d="m4.03 10.555c.08-.052.115-.119.134-.217s.086-.192.189-.27c.028-.023.042-.023.035.025-.021.138-.059.329-.192.419.137-.06.329-.063.486-.183.023-.018.05-.033.021.024-.137.276-.462.354-.671.224-.019-.012-.015-.017-.003-.023"/><path fill="#f8991d" d="m4.387 10.399c-.003-.224.024-.435.147-.606.012-.016.031-.027.032.019.003.185-.026.34-.087.454-.015.026-.024.05-.046.059.025.01.051-.015.071-.054.108-.208.314-.309.349-.374.009-.015.034-.03.031.011-.017.254-.281.503-.476.509-.013 0-.022-.004-.022-.017"/><path fill="#f8991d" d="m4.618 10.03c.013-.101-.005-.15-.018-.201-.032-.132-.021-.279.031-.381.01-.02.018-.018.022.001.042.19.085.354.014.44.025-.004.063-.037.073-.091.012-.055.075-.144.114-.18.039-.035.086-.096.093-.112.007-.019.019-.018.023.018.022.176-.154.433-.333.511-.01.005-.021.005-.021-.004"/><path fill="#f8991d" d="m4.725 9.694c.008-.045-.005-.139-.019-.209-.016-.069-.007-.152.008-.206.015-.056.017-.089.014-.11-.002-.021.019-.018.027.008.042.113.049.327.019.376-.01.017-.016.035-.004.042s.021-.011.023-.025c.009-.054.035-.104.07-.15.034-.048.053-.097.065-.144.009-.031.041-.066.052-.084.012-.019.019.004.019.024-.002.218-.106.34-.185.405-.019.018-.046.06-.057.078-.011.018-.04.026-.034-.005"/><path fill="#f8991d" d="m4.822 9.398c-.006-.168-.017-.333.063-.463.014-.024.021-.036.027.004.025.152.022.319-.061.455-.016.024-.029.021-.029.004"/><path fill="#f8991d" d="m4.418 10.704c-.106.023-.269-.041-.366-.08-.164-.065-.356-.045-.552.042-.195-.087-.387-.107-.552-.042-.097.039-.261.102-.367.08-.069-.015-.053.021-.035.035.231.173.482.112.635.017.072-.042.141-.087.255-.06-.113.059-.226.136-.334.232-.008.005-.006.005.002.019.007.011.009.025.016.042.007.018.01.014.02.002.083-.087.232-.219.341-.268.007-.003.012-.004.019-.008.006.004.012.005.019.008.108.049.258.181.341.268.01.012.013.016.02-.002.007-.017.009-.031.017-.042.007-.014.009-.014.001-.019-.108-.097-.221-.174-.333-.232.114-.026.183.019.255.06.152.096.404.156.635-.017.019-.015.034-.05-.035-.035"/><path fill="#f8991d" d="m2.971 10.555c-.08-.052-.115-.119-.134-.217s-.086-.192-.189-.27c-.028-.023-.042-.023-.035.025.022.138.059.329.192.419-.137-.06-.329-.063-.486-.183-.023-.018-.05-.033-.022.024.137.276.462.354.671.224.019-.012.016-.017.003-.023"/><path fill="#f8991d" d="m2.614 10.399c.002-.224-.025-.435-.148-.606-.011-.016-.031-.027-.032.019-.003.185.026.34.086.454.015.026.024.05.046.059-.026.01-.051-.015-.072-.054-.109-.208-.313-.309-.349-.374-.009-.015-.034-.03-.031.011.017.254.282.503.476.509.013 0 .023-.004.023-.017"/><path fill="#f8991d" d="m2.382 10.03c-.013-.101.005-.15.018-.201.032-.132.021-.279-.031-.381-.01-.02-.018-.018-.022.001-.043.19-.086.354-.014.44-.025-.004-.063-.037-.074-.091-.012-.055-.075-.144-.114-.18-.04-.035-.085-.096-.093-.112-.007-.019-.019-.018-.023.018-.023.176.154.433.333.511.01.005.022.005.021-.004"/><path fill="#f8991d" d="m2.276 9.694c-.008-.045.004-.139.019-.209.015-.069.007-.152-.008-.206-.015-.056-.016-.089-.014-.11.002-.021-.019-.018-.027.008-.042.113-.049.327-.02.376.01.017.016.035.005.042s-.022-.011-.024-.025c-.008-.054-.035-.104-.069-.15-.035-.048-.053-.097-.066-.144-.009-.031-.041-.066-.052-.084-.011-.019-.019.004-.019.024.002.218.106.34.185.405.019.018.046.06.057.078.01.018.041.026.035-.005"/><path fill="#f8991d" d="m2.178 9.398c.005-.168.016-.333-.063-.463-.014-.024-.021-.036-.028.004-.026.152-.022.319.06.455.016.024.029.021.03.004"/></g></g></g><path fill="#fff" d="m10 1h2v1h-2z"/><path fill="#fff" d="m11 2h1v2h-1z"/><path fill="#fff" d="m9 4h3v1h-3z"/><path fill="#fff" d="m7 2h1v1h-1z"/><path fill="#fff" d="m8 1h1v1h-1z"/><path fill="#fff" d="m9 2h1v1h-1z"/><path fill="#fff" d="m8 3h1v1h-1z"/></g></switch></svg>