<svg xmlns="http://www.w3.org/2000/svg" viewBox="0 0 16 12" enable-background="new 0 0 16 12"><switch><g><path fill="#fff" d="m.134 0h15.731c.074 0 .135.039.135.088v11.824c0 .049-.06.088-.135.088h-15.731c-.074 0-.134-.039-.134-.088v-11.824c0-.049.06-.088.134-.088"/><path fill="#2c328a" d="m6 3h4v3h-4z"/><path fill="#d33327" d="m6 6h4v3h-4z"/><path fill="#f26756" d="m3 1h10v2h-10z"/><path fill="#acadae" d="m15 4h-1v-1h-2v1h-1v2h1v2h-1v1h1v1h2v-1h-1v-1h1v-2h1z"/><path fill="#acadae" d="m1 4h1v-1h2v1h1v2h-1v2h1v1h-1v1h-2v-1h1v-1h-1v-2h-1z"/><path fill="#acadae" d="m5 9h6v2h-6z"/></g></switch></svg>