<svg xmlns="http://www.w3.org/2000/svg" viewBox="0 0 16 12" enable-background="new 0 0 16 12"><switch><g><path fill="#21448d" d="m0 0h16v12h-16z"/><path fill="#fff" d="m3.119.635c-.133.061-.238.149-.238.193 0 .05.078.051-.019.083-.098.031-.348.081-.528.07-.059 0-.202-.039-.243-.033-.041.005.188.099.099.076-.121-.033-.191-.045-.097.016.071.044.229.046.456.019.091-.011.32-.066.404-.073.058-.004.054.04.089.043.298.017.828.006 1.06-.027.193-.028.265-.017.32.05.11.127-.006.237-.32.304-.387.083-.547.155-.696.315-.359.387.061.823.844.884.459.039.757.127.686.199-.028.028-.332.072-.68.1-.756.061-1.093.166-1.38.442-.16.155-.215.249-.215.376 0 .177 0 .177-.293.177-.154 0-.37-.022-.469-.055-.155-.039-.177-.039-.122.028.11.132.425.248.685.248.199 0 .309.039.486.165.353.26.756.359 1.424.354.878-.005 1.38-.238 1.38-.63 0-.293-.331-.464-1.022-.525-.348-.033-1.032.022-1.33.111-.055.017.005-.022.138-.089.16-.077.425-.133.784-.166.795-.066 1.154-.243 1.154-.575 0-.321-.354-.503-1.11-.575-.745-.066-.8-.199-.171-.393.447-.133.674-.331.674-.603 0-.415-.227-.553-.983-.592-.458-.022-.569-.011-.767.083m.398.116c-.017.028-.061.055-.089.055-.033 0-.038-.027-.022-.055.017-.033.061-.055.088-.055.033 0 .039.022.022.055m1.595 3.096c.106.039.144.077.111.11-.094.094-.701.177-1.071.149-.409-.039-.851-.171-.718-.227.37-.144 1.342-.16 1.678-.033"/><path fill="#fff" d="m3.119 7.505c-.133.061-.238.149-.238.193 0 .05.078.051-.019.082-.098.032-.348.081-.528.07-.059 0-.202-.038-.243-.033-.041.005.188.099.099.076-.121-.033-.191-.046-.097.016.071.044.229.046.456.019.091-.012.32-.066.404-.073.058-.005.054.04.089.043.298.017.828.005 1.06-.027.193-.028.265-.017.32.05.11.127-.006.237-.32.304-.387.083-.547.155-.696.315-.359.387.061.823.844.884.459.039.757.128.686.199-.028.028-.332.072-.68.1-.756.06-1.093.166-1.38.442-.16.154-.215.248-.215.376 0 .177 0 .177-.293.177-.154 0-.37-.023-.469-.056-.155-.038-.177-.038-.122.028.11.133.425.248.685.248.199 0 .309.039.486.166.353.26.756.359 1.424.354.878-.005 1.38-.237 1.38-.63 0-.293-.331-.464-1.022-.525-.348-.032-1.032.023-1.33.11-.055.018.005-.021.138-.088.16-.077.425-.133.784-.166.795-.066 1.154-.243 1.154-.574 0-.321-.354-.504-1.11-.575-.745-.066-.8-.199-.171-.393.447-.133.674-.332.674-.603 0-.415-.227-.553-.983-.592-.458-.021-.569-.011-.767.083m.398.116c-.017.027-.061.055-.089.055-.033 0-.038-.027-.022-.055.017-.033.061-.056.088-.056.033 0 .039.022.022.056m1.595 3.096c.106.039.144.077.111.11-.094.095-.701.177-1.071.149-.409-.039-.851-.172-.718-.227.37-.144 1.342-.16 1.678-.033"/><path fill="#fff" d="m11.617 7.505c-.133.061-.238.149-.238.193 0 .05.078.051-.02.082-.098.032-.348.081-.527.07-.06 0-.202-.038-.243-.033-.042.005.187.099.099.076-.121-.033-.191-.046-.098.016.072.044.23.046.457.019.091-.012.32-.066.404-.073.058-.005.053.04.089.043.298.017.827.005 1.06-.027.193-.028.265-.017.32.05.11.127-.006.237-.32.304-.387.083-.547.155-.695.315-.359.387.06.823.844.884.459.039.757.128.685.199-.027.028-.331.072-.679.1-.756.06-1.093.166-1.38.442-.16.154-.216.248-.216.376 0 .177 0 .177-.292.177-.155 0-.37-.023-.47-.056-.154-.038-.176-.038-.121.028.11.133.425.248.685.248.198 0 .31.039.485.166.354.26.757.359 1.425.354.878-.005 1.38-.237 1.38-.63 0-.293-.331-.464-1.021-.525-.348-.032-1.032.023-1.33.11-.055.018.006-.021.138-.088.16-.077.425-.133.784-.166.795-.066 1.153-.243 1.153-.574 0-.321-.352-.504-1.109-.575-.745-.066-.8-.199-.171-.393.447-.133.674-.332.674-.603 0-.415-.227-.553-.983-.592-.458-.021-.568-.011-.767.083m.396.116c-.016.027-.06.055-.088.055-.033 0-.039-.027-.021-.055.016-.033.06-.056.088-.056.033 0 .039.022.021.056m1.596 3.096c.105.039.144.077.11.11-.094.095-.7.177-1.07.149-.409-.039-.851-.172-.718-.227.369-.144 1.342-.16 1.678-.033"/><path fill="#fff" d="m11.617.635c-.133.061-.238.149-.238.193 0 .05.078.051-.02.083-.098.031-.348.081-.527.07-.06 0-.202-.039-.243-.033-.042.005.187.099.099.076-.121-.033-.191-.045-.098.016.072.044.23.046.457.019.091-.011.32-.066.404-.073.058-.004.053.04.089.043.298.017.827.006 1.06-.027.193-.028.265-.017.32.05.11.127-.006.237-.32.304-.387.083-.547.155-.695.315-.359.387.06.823.844.884.459.039.757.127.685.199-.027.028-.331.072-.679.1-.756.061-1.093.166-1.38.442-.16.155-.216.249-.216.376 0 .177 0 .177-.292.177-.155 0-.37-.022-.47-.055-.154-.039-.176-.039-.121.028.11.132.425.248.685.248.198 0 .31.039.485.165.354.26.757.359 1.425.354.878-.005 1.38-.238 1.38-.63 0-.293-.331-.464-1.021-.525-.348-.033-1.032.022-1.33.111-.055.017.006-.022.138-.089.16-.077.425-.133.784-.166.795-.066 1.153-.243 1.153-.575 0-.321-.352-.503-1.109-.575-.745-.066-.8-.199-.171-.393.447-.133.674-.331.674-.603 0-.415-.227-.553-.983-.592-.458-.022-.568-.011-.767.083m.396.116c-.016.028-.06.055-.088.055-.033 0-.039-.027-.021-.055.016-.033.06-.055.088-.055.033 0 .039.022.021.055m1.596 3.096c.105.039.144.077.11.11-.094.094-.7.177-1.07.149-.409-.039-.851-.171-.718-.227.369-.144 1.342-.16 1.678-.033"/><path fill="#fff" d="m0 5h16v2h-16z"/><path fill="#fff" d="m7 0h2v12h-2z"/></g></switch></svg>