<svg xmlns="http://www.w3.org/2000/svg" viewBox="0 0 16 12" enable-background="new 0 0 16 12"><switch><g><path fill="#ee322d" d="m0 0h16v12h-16z"/><g><path fill="#fff" d="m9.07 2.585c-.556-.944-1.798-.569-2.143.336-.367.964.117 2.331.881 2.985-.098-.154-.526-1.931-.061-1.812-.275-.071.035 1.601.155 1.774-.41-1.108.785-.93.953-1.853.053-.289-.675-1.998.215-1.431"/><path fill="#ed1c2e" d="m7.941 3.557c-.061.213.019.331.24.353-.222.008-.31.12-.262.337-.076-.207-.21-.256-.402-.146.175-.137.18-.278.014-.426.184.123.321.083.41-.119"/><path fill="#fff" d="m5.082 3.937c-1.194.265-1.044 1.729-.161 2.268.815.498 2.119.453 2.93-.043-.179.046-1.999-.101-1.741-.502-.153.238 1.532.461 1.735.401-1.117.043-.646-.816-1.299-1.364-.292-.245-2.25-.112-1.463-.761"/><path fill="#ed1c2e" d="m5.656 5.313c.184.124.321.085.41-.118-.061.213.019.331.24.353-.222.008-.309.121-.262.338-.076-.209-.21-.257-.402-.144.174-.137.179-.28.014-.428"/><path fill="#fff" d="m5.134 8.15c-.118 1.199 1.294 1.527 2.084.873.743-.615 1.11-1.887.887-2.818-.012.186-.714 1.867-1.015 1.501.177.217.912-1.313.917-1.526-.314 1.112-1.07.319-1.783.873-.252.195-.71 2.069-1.091 1.098"/><path fill="#ed1c2e" d="m6.62 8.03c.175-.137.179-.279.014-.427.184.124.32.085.41-.118-.061.213.019.331.24.353-.222.008-.309.12-.262.337-.076-.208-.21-.256-.401-.145"/><path fill="#fff" d="m9.156 9.402c.996.435 1.782-.582 1.541-1.514-.261-1-1.465-1.833-2.473-1.914.172.068 1.557 1.257 1.114 1.43.262-.103-.967-1.273-1.168-1.344.96.64-.025 1.125.279 1.965.108.3 1.749 1.315.707 1.377"/><path fill="#ed1c2e" d="m9.502 7.952c-.076-.209-.21-.257-.402-.146.175-.137.18-.278.014-.426.184.123.32.084.41-.119-.06.213.02.331.24.354-.222.008-.31.12-.262.337"/><path fill="#fff" d="m11.592 5.964c.637-.721.131-1.713-.727-1.9-1.105-.24-2.41.74-2.821 1.728.118-.142 1.677-1.095 1.704-.618-.016-.281-1.511.527-1.64.695.95-.747 1.21.563 2.181.309.238-.063 1.569-1.239 1.304-.213"/><path fill="#ed1c2e" d="m10.318 5.188c-.222.008-.31.12-.262.337-.076-.208-.211-.256-.402-.144.175-.137.18-.279.014-.427.185.125.321.085.41-.119-.06.213.02.331.24.354"/></g></g></switch></svg>