<svg xmlns="http://www.w3.org/2000/svg" viewBox="0 0 16 12" enable-background="new 0 0 16 12"><switch><g><path fill="#008357" d="m0 0h16v4h-16z"/><path fill="#ef3e42" d="m0 8h16v4h-16z"/><path fill="#fff" d="m0 4h16v4h-16z"/><path fill="#00529b" d="M0,0 5.958,6 0,12z"/><g><path fill="#bec0c2" d="m11.182 4.726s0 1.671 0 2.031-.191.495-.394.495c-.104 0-.24 0-.359 0-.12 0-.222.025-.259.146-.038-.12-.139-.146-.259-.146s-.255 0-.359 0c-.202 0-.394-.135-.394-.495s0-2.031 0-2.031h2.023"/><g><path fill="#ffcf46" d="m9.925 4.534l.051-.103.114-.008-.063-.096.05-.104-.113.007-.065-.095-.051.103-.114.008.063.096-.05.104.113-.007z"/><path fill="#ffcf46" d="m9.446 4.603l.036-.108.111-.024-.076-.086.034-.109-.111.024-.077-.084-.036.108-.111.024.076.086-.034.109.111-.024z"/><path fill="#ffcf46" d="m9 4.74l.011-.114.104-.047-.094-.067.01-.115-.104.047-.094-.065-.012.114-.104.047.094.067-.01.115.104-.048z"/><path fill="#ffcf46" d="m10.415 4.534l-.052-.103-.113-.008.063-.096-.05-.104.114.007.064-.095.051.103.114.008-.063.096.05.104-.114-.007z"/><path fill="#ffcf46" d="m10.893 4.603l-.035-.108-.112-.024.077-.086-.035-.109.112.024.077-.084.035.108.112.024-.077.086.035.109-.112-.024z"/><path fill="#ffcf46" d="m11.335 4.74l-.012-.114-.104-.047.094-.067-.01-.115.104.047.094-.065.011.114.104.047-.094.067.01.115-.104-.048z"/></g><g><g><path fill="#fff" d="m10.17 7.871c.514 0 .547-.07.549-.111.002-.037-.01-.068-.014-.107.476.006.754-.165.913-.334.092-.097.037-.184.015-.26-.007-.025-.012-.051-.016-.078.18-.112.115-.219.083-.323-.031-.104-.049-.221-.058-.324-.004.169-.331.364-.265.465.027.042.097.142.13.218-.19.26-.56.367-.887.29-.097-.022-.106.011-.106.036 0 .101.029.174.026.22-.11.017-.253.023-.371.023s-.261-.007-.371-.023c-.003-.046.026-.119.026-.22 0-.025-.011-.059-.107-.036-.325.077-.696-.03-.886-.29.033-.076.102-.176.129-.218.066-.101-.26-.296-.264-.465-.01.104-.026.22-.059.324-.031.104-.097.211.083.323-.004.027-.008.053-.016.078-.023.076-.076.163.016.26.159.169.437.34.913.334-.004.039-.016.07-.014.107.002.041.035.111.549.111"/><path d="m10.17 7.883c-.489 0-.559-.063-.56-.123-.001-.023.003-.045.007-.066.002-.01.003-.019.005-.029h-.01c-.385 0-.688-.113-.898-.337-.082-.087-.055-.166-.03-.235.005-.012.009-.025.013-.037.006-.021.01-.043.014-.068-.159-.103-.124-.205-.093-.296.004-.013.008-.024.012-.036.026-.089.046-.197.058-.322l.023.001c.002.078.081.168.152.246.079.089.148.167.109.226l-.011.018c-.03.044-.085.127-.114.191.14.189.393.305.66.305.071 0 .142-.008.21-.023.08-.019.121-.003.121.047 0 .058-.01.107-.018.146-.004.024-.009.046-.009.063.126.019.278.022.359.022.08 0 .232-.003.359-.022-.001-.017-.005-.038-.01-.063-.008-.039-.017-.089-.017-.146 0-.05.04-.066.121-.047.067.016.139.023.21.023.268 0 .52-.117.66-.305-.029-.064-.084-.146-.114-.191l-.012-.018c-.038-.059.03-.137.11-.226.07-.078.15-.168.152-.246l.023-.001c.012.125.03.233.058.322.004.012.008.023.012.036.031.091.065.193-.094.296.004.025.008.047.015.068.004.013.008.025.012.037.024.07.053.148-.029.235-.212.224-.514.337-.899.337h-.009c.001.01.003.019.005.029.004.021.008.043.007.066-.003.061-.071.123-.56.123m-.522-.242v.013c-.002.017-.005.03-.007.044-.004.021-.008.041-.007.061.003.067.184.101.537.101s.534-.033.537-.101c.001-.021-.003-.04-.007-.061-.003-.014-.005-.027-.007-.044v-.013h.035c.379 0 .675-.111.882-.33.072-.076.048-.144.025-.211-.005-.013-.01-.025-.013-.038-.008-.024-.012-.05-.017-.079v-.008l.007-.004c.15-.094.121-.181.09-.272-.004-.013-.008-.024-.012-.038-.023-.072-.04-.16-.052-.258-.028.066-.087.133-.142.193-.07.078-.137.152-.108.195l.012.018c.031.047.09.135.119.202l.003.006-.005.005c-.144.198-.405.32-.683.32-.073 0-.146-.008-.216-.024-.02-.005-.037-.007-.051-.007-.041 0-.041.019-.041.031 0 .056.009.104.017.142.006.03.011.058.01.079v.01l-.009.001c-.13.021-.29.023-.373.023-.084 0-.243-.003-.373-.023l-.01-.001v-.01c-.001-.021.004-.049.01-.079.007-.038.017-.086.017-.142 0-.012 0-.031-.041-.031-.014 0-.031.002-.052.007-.069.017-.142.024-.215.024-.277 0-.54-.122-.684-.32l-.004-.005.003-.006c.029-.067.088-.155.119-.202l.011-.018c.029-.043-.037-.117-.107-.195-.055-.061-.114-.127-.142-.193-.013.099-.029.186-.052.258-.004.014-.008.025-.013.038-.03.092-.06.179.091.272l.007.004-.002.008c-.004.029-.009.055-.016.079-.004.013-.008.025-.013.038-.023.066-.047.135.025.211.206.219.503.33.881.33h.036"/></g><path d="m9.797 7.573c-.125-.019-.185-.05-.185-.093 0-.067.065-.08.117-.09s.085-.019.085-.049h.023c0 .053-.055.063-.104.072-.06.012-.099.021-.099.066 0 .013.016.046.166.069l-.004.023"/><path d="m8.822 7.02c-.017-.022-.032-.047-.046-.072-.033-.061-.055-.148-.007-.193.016-.016.037-.022.06-.021.021.002.039.012.05.026.019.025.04.043.056.041.004 0 .011-.001.017-.012l.021.014c-.012.018-.026.021-.036.021-.001 0-.001 0-.002 0-.033 0-.063-.035-.073-.051-.008-.009-.02-.016-.033-.017-.016-.001-.03.003-.041.015-.036.033-.021.107.012.165.013.024.027.048.044.069l-.02.014"/><path d="m8.734 6.982l-.023-.003c.001-.01.003-.019.004-.029.006-.046.013-.097.031-.153l.023.006c-.018.057-.024.104-.03.15-.002.01-.003.019-.004.029"/><path d="m9.647 7.653l-.023-.003c0-.004.001-.009.001-.014.001-.021-.002-.043-.005-.066-.004-.023-.008-.052-.008-.09l.023-.001c.001.037.004.064.008.089.003.023.006.045.005.069 0 .005 0 .011-.001.016"/><path d="m10.543 7.573l-.004-.023c.149-.023.166-.057.166-.069 0-.045-.039-.055-.099-.066-.049-.01-.104-.019-.104-.072h.023c0 .03.032.039.084.049.053.01.118.022.118.09 0 .043-.06.073-.185.093"/><path d="m11.517 7.02l-.019-.014c.017-.021.031-.045.044-.069.032-.058.048-.132.012-.165-.011-.012-.025-.016-.041-.015-.014.001-.026.008-.033.017-.012.016-.041.051-.073.051-.001 0-.002 0-.002 0-.011 0-.024-.004-.036-.021l.021-.014c.006.011.012.012.017.012.015.001.036-.016.056-.041.011-.015.029-.024.05-.026.021-.002.043.005.06.021.048.045.026.133-.008.193-.013.025-.028.05-.046.072"/><path d="m11.606 6.982c-.001-.01-.003-.019-.004-.029-.007-.047-.013-.095-.03-.15l.023-.006c.018.057.024.107.031.152.001.01.003.021.004.03l-.023.003"/><path d="m10.693 7.653c-.001-.005-.001-.011-.001-.016-.001-.024.002-.046.005-.069.003-.024.007-.052.008-.089l.023.001c-.001.038-.005.066-.008.09s-.006.045-.005.066c0 .005 0 .01.001.014l-.023.003"/></g><path fill="#7d4802" d="m9.893 5.558c.251.131.232.221.221.479-.007.168-.04.425-.071.566-.037.172-.079.281-.122.375-.023.048.057.111.098.074.045.033.091.035.104.004.079.057.12.025.139-.008.045.022.051-.002.055-.021.075.064.098.052.041-.147-.071-.248-.131-.469-.123-.832.007-.328.045-.346.112-.397.067-.053.191-.139.371-.146l-.094-.067c-.114.017-.33.125-.396.231.006-.061-.013-.159.006-.302h-.102c.012.079.016.259.016.292-.041-.052-.15-.131-.202-.149l-.053.049"/><g><path fill="none" d="m10.122 7.06c.012-.067.008-.227.031-.281.035-.086.025-.249.024-.31"/><path fill="none" d="m10.261 7.05c-.025-.01-.06-.125-.054-.221.008-.096.004-.403-.011-.491-.016-.088.026-.457.004-.614"/><path fill="none" d="m10.315 7.03c.006-.03-.011-.153-.029-.204s-.043-.182-.045-.248"/><path fill="none" d="m10.02 7.05c-.019-.014-.037-.021-.017-.094.021-.072.15-.412.146-.596s.023-.528 0-.611"/></g><path fill="#008357" d="m10.25 4.928c-.011-.047-.086-.067-.114-.035-.029-.026-.094-.004-.088.041-.073-.006-.123.054-.108.12-.03-.012-.069.011-.062.052-.055-.019-.109.038-.102.094-.047-.007-.084.059-.065.098-.06.006-.085.1-.06.154-.029.017-.048.05-.037.082-.028-.021-.063-.006-.08.017-.051-.019-.105.008-.109.053-.045.007-.09.024-.069.073-.005.027.03.043.059.035.023.039.098.039.129.021.043.016.083-.007.088-.048.018.031.067.039.092.031 0 .045.054.071.088.061.04.016.081-.012.09-.036.025.003.044-.028.034-.05.014-.008.021-.035.007-.045.038.005.074-.021.077-.05.036-.004.04-.034.036-.049.043 0 .086-.019.101-.043.014.021.038.028.051.028.042.029.116.01.137-.024.024.058.09.098.175.077.004.031.063.053.086.031.015.034.088.049.116.024.035.022.082.017.104-.013.028.021.105 0 .12-.037.041.006.071-.023.069-.061.023.001.057-.029.045-.061.019-.022 0-.089-.045-.098-.006-.028-.028-.043-.047-.039.018-.024.006-.065-.041-.063-.002-.032-.053-.056-.086-.031-.002-.017-.017-.025-.03-.022.008-.034-.026-.085-.069-.077-.002-.013-.02-.031-.037-.027.006-.03-.023-.056-.047-.052-.032-.028-.1-.014-.109.029-.027-.012-.069.009-.071.027-.011-.01-.031-.008-.039 0-.004-.022-.032-.031-.045-.019-.005-.024-.033-.042-.053-.034.007-.017.005-.047-.013-.054.015-.024-.007-.068-.037-.063-.006-.019-.021-.024-.038-.017"/><g><path fill="none" d="m9.817 5.34c.028.008.075-.015.083-.037.011.004.043-.004.05-.018"/><path fill="none" d="m9.677 5.605c.026-.01.075.007.085.03"/><path fill="none" d="m9.878 5.106c.023-.013.081-.004.101.023.023-.01.059.006.067.031"/><path fill="none" d="m10.839 5.237c-.019-.012-.056-.007-.068.013-.014-.012-.05-.01-.065.014"/><path fill="none" d="m11.01 5.528c-.009.021-.058.022-.074.013-.017.013-.05 0-.048-.021-.01 0-.024-.01-.026-.023"/><path fill="none" d="m10.517 5.584c.015-.002.051-.012.065-.024.01.005.045.003.056-.006"/><path fill="none" d="m10.823 5.627c-.012-.008-.026-.027-.029-.041-.012-.002-.028-.011-.035-.026"/><path fill="none" d="m10.338 5.062c-.004.019-.033.05-.069.044-.009.023-.035.043-.072.032"/><path fill="none" d="m9.722 5.715c.02-.004.062-.018.07-.028.016.001.032-.007.036-.016"/><path fill="none" d="m9.94 5.645c-.012-.001-.023-.01-.029-.015-.011.003-.032-.008-.036-.017"/><path fill="none" d="m9.413 5.711c.021-.002.046-.014.053-.023"/><path fill="none" d="m9.65 5.451c.018-.013.049-.015.066-.01.019-.019.059-.035.102-.025"/><path fill="none" d="m10.436 5.115c.006.018.007.035-.002.05.016.009.021.039.018.059"/><path fill="none" d="m10.342 5.507c-.019-.036-.024-.061-.024-.09"/><path fill="none" d="m10.08 5.264c.005.023.06.054.092.056.011.036.123.041.157.015"/><path fill="none" d="m10.523 5.391c.023.019.076.028.106.015.015.016.065.028.088.022"/><path fill="none" d="m9.885 5.494c.038.011.083-.016.098-.034"/></g><g><path d="m9.971 7.625v.066h.03v-.035s.018 0 .03 0c.014 0 .025.008.025.025 0 .016-.011.031-.025.031s-.03 0-.03 0v-.021h-.03v.113h.03v-.064c0 0 .021 0 .039 0 .028 0 .045-.031.045-.061 0-.031-.018-.055-.045-.055-.039 0-.069 0-.069 0"/><path d="m10.201 7.776l.01.036h.03l-.052-.18h-.035l-.052.18h.03l.011-.036h.026v-.03h-.018l.021-.072.021.072h-.023v.03z"/><path d="m10.347 7.773h.076v.032h-.112v-.034l.076-.111h-.077v-.031h.113v.034z"/><path d="m8.749 7.23c.018.015.033.005.043-.007s.076-.095.076-.095l.025.021c0 0-.062.075-.076.094-.02.023-.051.041-.088.011-.036-.03-.026-.064-.008-.088.016-.019.077-.094.077-.094l.024.021c0 0-.067.082-.077.094-.01.013-.015.029.003.044"/><path d="m8.955 7.202l-.023.134.071-.098.025.019-.104.143-.024-.018.023-.139-.074.102-.026-.019.105-.143z"/><path d="m8.953 7.347h.178v.032h-.178z" transform="matrix(-.47116.88205-.88205-.47116 19.798 2.857)"/><path d="m9.148 7.315c.015.006.037.017.055.024.019.008.056.034.024.104-.02.044-.058.078-.092.063-.034-.014-.06-.025-.06-.025l.038-.086.027.012-.025.057c0 0 .015.006.023.01.01.005.037.012.06-.04.021-.048-.003-.061-.012-.065-.006-.002-.025-.012-.025-.012l-.021.051-.027-.012.035-.08"/><path d="m9.343 7.529v.037l.029.008-.004-.188-.035-.009-.095.161.029.008.018-.032.026.007.007-.029-.018-.004.038-.064.002.074-.023-.006-.007.029z"/><path d="m9.442 7.401c.017.001.04.005.06.007.02.002.063.015.054.092-.005.048-.03.092-.067.088s-.065-.007-.065-.007l.01-.093.029.002-.006.063c0 0 .016.002.025.003s.038-.001.044-.058c.006-.051-.021-.058-.031-.059-.005-.001-.026-.003-.026-.003l-.006.054-.029-.002.009-.087"/><path d="m10.708 7.576c.007.011.021.021.043.019.033-.001.047-.027.046-.047-.001-.021-.006-.135-.006-.135l-.03.001c0 0 .004.103.005.12.001.016-.001.031-.017.032-.013.001-.017-.013-.018-.04h-.017c-.002.016-.005.038-.007.049"/><path d="m10.9 7.553c.023-.004.026-.021.024-.036-.002-.016-.015-.121-.015-.121l.031-.004c0 0 .013.097.016.12.003.029-.007.064-.054.07-.046.006-.065-.025-.068-.055-.003-.023-.015-.121-.015-.121l.031-.004c0 0 .014.106.016.121s.01.031.033.029"/><path d="m11.09 7.41c-.01-.029-.034-.05-.077-.035-.042.014-.043.051-.036.07s.02.039.074.031c.021-.004.036.002.04.015s-.002.026-.021.032-.037.002-.043-.017l-.028.01c.008.022.034.052.076.037.042-.014.053-.042.042-.077-.012-.033-.037-.037-.069-.031-.032.004-.041-.003-.044-.012-.003-.008-.005-.021.017-.029.021-.006.036-.002.041.016l.028-.01"/><path d="m11.223 7.502l-.055-.139.044-.017-.011-.028-.115.047.012.027.043-.018.056.137z"/><path d="m11.193 7.359h.179v.032h-.179z" transform="matrix(.48611.8739-.8739.48611 12.243-6.07)"/><path d="m11.428 7.255c-.015-.025-.052-.044-.089-.023-.036.021-.04.067-.012.116.029.05.071.068.105.048s.044-.058.024-.091l-.025.015c.007.013.007.036-.013.048-.021.012-.047-.002-.065-.034s-.021-.06.002-.073c.023-.014.041 0 .047.01l.025-.015"/><path d="m11.385 7.234h.178v.032h-.178z" transform="matrix(.5885.8085-.8085.5885 10.583-6.293)"/><path d="m11.61 7.203l.031.02.016-.021-.152-.097-.026.024.083.168.023-.021-.017-.033.02-.018-.02-.022-.014.013-.034-.067.065.04-.017.015.02.022z"/></g></g></g></switch></svg>