<?xml version="1.0" encoding="utf-8"?>
<!-- Generator: Adobe Illustrator 17.1.0, SVG Export Plug-In . SVG Version: 6.00 Build 0)  -->
<!DOCTYPE svg PUBLIC "-//W3C//DTD SVG 1.1//EN" "http://www.w3.org/Graphics/SVG/1.1/DTD/svg11.dtd">
<svg version="1.1" id="Layer_1" xmlns="http://www.w3.org/2000/svg" xmlns:xlink="http://www.w3.org/1999/xlink" x="0px" y="0px"
	 viewBox="448.6 42 546.8 560" enable-background="new 448.6 42 546.8 560" xml:space="preserve">
<g>
	<path fill="#666666" d="M570.5,285.8l-56,23.1l16.5,46.1l56-23.1c13.2,23.1,32.9,39.5,52.7,52.7l-23.1,56l46.1,16.5l23.1-56
		c13.2,3.3,23.1,3.3,36.2,3.3s26.4-3.3,36.2-6.6l23.1,56l42.8-16.5l-23.1-56c23.1-13.2,39.5-29.6,52.7-52.7l56,23.1l16.5-42.8
		l-56-23.1c6.6-23.1,6.6-49.4,0-75.8l59.3-19.8l-16.5-42.8l-56,23.1c-13.2-23.1-32.9-39.5-52.7-52.7l23.1-59.3L784.6,42l-23.1,56
		c-13.2-3.3-23.1-3.3-36.2-3.3c-16.5,0-29.6,0-39.5,3.3l-23.1-56l-46.1,16.5l23.1,56c-19.8,13.2-36.2,32.9-49.4,52.7l-59.3-23.1
		l-16.5,46.1l56,23.1C563.9,236.4,563.9,262.7,570.5,285.8z M619.9,206.7c9.9-26.4,32.9-49.4,59.3-59.3c13.2-6.6,26.4-9.9,42.8-9.9
		c42.8,0,82.4,26.4,102.1,65.9c9.9,26.4,9.9,56,0,82.4s-32.9,49.4-59.3,59.3c-56,23.1-118.6-3.3-141.6-59.3
		C610,262.7,610,233.1,619.9,206.7z"/>
	<path fill="#666666" d="M448.6,559.2l16.5,42.8c164.7-69.2,349.2-69.2,513.9,0l16.5-42.8C820.8,486.7,623.2,486.7,448.6,559.2z"/>
</g>
</svg>
