<svg xmlns="http://www.w3.org/2000/svg" viewBox="0 0 16 12" enable-background="new 0 0 16 12"><switch><g><path fill="#4d90cd" d="m0 0h16v12h-16z"/><path fill="#ffcf46" d="m0 2h16v8h-16z"/><path fill="#b62054" d="m0 3h16v6h-16z"/><g><g><path fill="#d4ddd8" d="m13.156 5.117l.463.22.705-.34-.705-.34-.463.22z"/><path fill="#d4ddd8" d="m12.544 5.756l.463.221.705-.341-.705-.34-.463.22z"/></g><g><path fill="#ffcf46" d="m.816 6.406c-.038 0-.082-.057-.081-.15.001-.095.049-.156.081-.156h14.367c.031 0 .078.061.079.156.001.093-.042.15-.079.15h-14.367"/><path fill="#ffcf46" d="m2.704 5.117c-.027 0-.06-.045-.058-.118 0-.075.035-.122.058-.122h10.452c.023 0 .057.047.058.122.001.073-.03.118-.058.118h-10.452"/><path fill="#ffcf46" d="m2.092 5.756c-.027 0-.06-.045-.059-.118.001-.075.035-.122.059-.122h10.452c.023 0 .057.047.058.122.001.073-.031.118-.058.118h-10.452"/></g><g><path fill="none" d="m13.04 4.877c.023 0 .057.047.058.122.001.073-.03.118-.058.118"/><path fill="none" d="m12.917 4.877c.023 0 .057.047.058.122.001.073-.03.118-.058.118"/><path fill="none" d="m12.788 4.877c.023 0 .058.047.059.122.001.073-.031.118-.059.118"/><path fill="none" d="m12.433 5.516c.023 0 .057.047.058.122.001.073-.031.118-.058.118"/><path fill="none" d="m12.304 5.516c.023 0 .058.047.058.122.002.073-.03.118-.058.118"/><path fill="none" d="m12.176 5.516c.023 0 .057.047.058.122.001.073-.03.118-.058.118"/></g><path fill="#fff" d="m12.237 6c-.221.192-.473.504-.848.926-.862.969-2.058 1.809-3.47 1.809s-2.607-.84-3.47-1.809c-.376-.422-.627-.734-.848-.926.221-.192.472-.504.848-.926.862-.969 2.058-1.81 3.47-1.81s2.607.841 3.47 1.81c.375.422.627.734.848.926"/><path d="m8.383 8.709c-.151.02-.306.029-.463.029-1.412 0-2.607-.84-3.47-1.809-.376-.422-.627-.734-.848-.926.221-.192.472-.504.848-.926.862-.969 2.058-1.81 3.47-1.81.048 0 .096.001.145.002-.214.171-.489.42-.33.682.078.128.149.178.149.392 0 .161.032.21.075.21s.074.025.074.103c0 .079.051.1.111.1s.131.007.11.2c-.036.328-.068.667.199.833.171.107.192.228.071.363-.121.136-.396.221-.396.484 0 .221-.039.346-.16.421-.121.074-.214.16-.214.245 0 .086.025.14.139.222.114.081.159.245-.007.249-.278.007-.502.132-.314.277.156.121.694.33.809.658"/><g><path fill="#fff" d="m5.27 6.364h.193v.745h-.193z"/><path fill="#fff" d="m5.686 6.364h.193v.745h-.193z"/><path fill="#fff" d="m6.102 6.364h.193v.745h-.193z"/><path fill="#fff" d="m6.518 6.364h.193v.745h-.193z"/><path fill="#fff" d="m6.934 6.364h.193v.745h-.193z"/><path fill="#fff" d="m7.35 6.364h.193v.745h-.193z"/><path fill="#fff" d="m5.27 4.897h.193v.745h-.193z"/><path fill="#fff" d="m5.686 4.897h.193v.745h-.193z"/><path fill="#fff" d="m6.102 4.897h.193v.745h-.193z"/><path fill="#fff" d="m6.518 4.897h.193v.745h-.193z"/><path fill="#fff" d="m6.934 4.897h.193v.745h-.193z"/><path fill="#fff" d="m7.35 4.897h.193v.745h-.193z"/></g><g><path d="m10.376 6.364h.193v.745h-.193z"/><path d="m9.96 6.364h.193v.745h-.193z"/><path d="m9.544 6.364h.193v.745h-.193z"/><path d="m9.128 6.364h.193v.745h-.193z"/><path d="m8.712 6.364h.193v.745h-.193z"/><path d="m8.296 6.364h.194v.745h-.194z"/><path d="m10.376 4.897h.193v.745h-.193z"/><path d="m9.96 4.897h.193v.745h-.193z"/><path d="m9.544 4.897h.193v.745h-.193z"/><path d="m9.128 4.897h.193v.745h-.193z"/><path d="m8.712 4.897h.193v.745h-.193z"/><path d="m8.296 4.897h.194v.745h-.194z"/></g><g><path fill="#4d90cd" d="m6.467 3.958c-.276.15-.545.399-.557.745.043-.021.097-.075.133-.11-.054.242.085.542.049.634.068-.04.111-.143.121-.214.021.157.239.189.264.353.032-.025.054-.107.047-.157.025.132.228.235.274.356.014-.04.032-.125.024-.175.054.139.246.214.442.264-.168-.221.018-.445-.061-.566.05.085.121.135.206.146-.061-.025-.032-.295-.125-.417.064.021.101.096.232.11-.068-.125-.021-.303-.121-.438.035.021.103.003.143-.007-.09-.079-.039-.24-.289-.41-.121-.082-.316-.128-.481-.132.024-.014.085-.05.135-.043-.125-.039-.32-.003-.438.061"/><path fill="#4d90cd" d="m2.049 6.099c.221.064.043.199-.149.107-.007.028-.007.135.015.192-.093-.114-.353-.063-.499.221-.221.428-.007.641-.057.769.05-.015.093-.064.107-.121-.036.113.107.299.121.406.028-.051.071-.15.071-.221.014.17.186.213.242.37.022-.05.025-.175.011-.231.046.182.225.388.453.445-.047-.036-.058-.125-.072-.168.054.118.274.068.274.129.161-.1.089-.3.164-.356-.015.028.018.124.043.149.022-.16.249-.37.224-.51.019.047.082.093.133.125-.061-.274.124-.428.028-.652.054.025.124.025.192.018-.047-.192-.196-.2-.278-.389-.081-.189-.359-.235-.499-.192-.163.05-.256-.1-.523-.092"/><path fill="#4d90cd" d="m13.954 6.092c.043 0 .071.087-.057.135-.149.057-.385.228-.399.385-.271.256-.106.442-.185.606.051-.021.129-.079.164-.157-.085.378.214.527.199.713.029-.078.143-.15.157-.214.078.335.307.314.356.521.021-.043.113-.136.121-.207.028.035.043.156.043.186.035-.051.106-.15.113-.207.021.043.029.078.021.128.129-.071.129-.327.207-.405 0 .085.021.149.05.199.015-.129.185-.314.149-.484.05.05.071.121.078.206.071-.121.008-.349.051-.456.014.043.042.121.1.172-.051-.058.007-.3-.086-.471.035.014.121.078.143.121-.035-.256-.114-.584-.385-.634-.271-.05-.477.029-.563-.121-.086-.149-.207-.228-.278-.014"/></g><g><path fill="#b62054" d="m6.331 4.286c-.16.096-.032.317-.106.396.109-.043.234-.303.106-.396"/><path fill="#b62054" d="m6.484 4.676c-.07.14.104.292.061.419.086-.138.091-.395-.061-.419"/><path fill="#b62054" d="m6.619 4.147c.086-.075.317.079.496.036-.104.057-.346.118-.496-.036"/><path fill="#b62054" d="m6.867 4.449c.151.063.159.205.271.265-.106-.011-.293-.123-.271-.265"/><path fill="#b62054" d="m6.848 4.877c-.028.131.139.199.113.367.051-.093.04-.41-.113-.367"/><path fill="#b62054" d="m1.807 6.626c-.228.029-.135.307-.235.421.157-.043.335-.307.235-.421"/><path fill="#b62054" d="m2.064 6.719c-.071.114 0 .342-.043.435.079-.078.2-.377.043-.435"/><path fill="#b62054" d="m2.065 7.338c-.017.174.2.304.191.442.069-.156-.043-.416-.191-.442"/><path fill="#b62054" d="m2.561 7.656c-.058-.252.147-.317.098-.456.179.057-.017.269-.098.456"/><path fill="#b62054" d="m2.377 6.427c.228-.014.413.221.592.228-.172.036-.635-.093-.592-.228"/><path fill="#b62054" d="m2.52 6.726c.057.143.271.114.328.335-.051-.035-.464-.178-.328-.335"/><path fill="#b62054" d="m13.869 6.455c-.14-.01-.218.348-.326.4.143-.019.403-.275.326-.4"/><path fill="#b62054" d="m14.1 7.04c-.126.064-.048.33-.143.434.088-.084.244-.354.143-.434"/><path fill="#b62054" d="m14.346 7.234c-.128.219.092.34.065.468.037-.151.046-.332-.065-.468"/><path fill="#b62054" d="m14.354 6.384c.169-.03.238.187.41.199-.185.017-.432-.055-.41-.199"/><path fill="#b62054" d="m14.467 6.733c.199.077.122.354.273.449-.168-.044-.418-.309-.273-.449"/><path fill="#b62054" d="m14.11 6.633c-.157.014-.172.427-.335.47.156-.021.42-.356.335-.47"/></g></g></g></switch></svg>