<svg xmlns="http://www.w3.org/2000/svg" viewBox="0 0 16 12" enable-background="new 0 0 16 12"><path fill="#fff" d="m0 0h16v12h-16z"/><path fill="#009643" d="m0 9h16v3h-16z"/><path fill="#253885" d="m0 0h16v3h-16z"/><g transform="matrix(1.13695 0 0 1.13695-30.564-28.26)"><path fill="#010202" d="m33.912 28.374c-.056.001-.109.062-.109.062l.004.654-.206.216h.167v.374l-.989 1.331-.146-.05-.256.545c0 0 .632.395 1.55.385 1.01-.012 1.553-.404 1.553-.404l-.264-.537-.13.056-1-1.324-.002-.387h.167l-.228-.213v-.651c.002 0-.055-.059-.11-.057"/><path d="m34.29 29.996h-.756l-.015-.033c-.01-.022-.254-.542-.213-.919.042-.379.258-.599.593-.602.37 0 .563.186.62.585.054.382-.202.914-.213.937l-.016.032m-.682-.114h.611c.053-.119.229-.541.186-.838-.048-.341-.196-.487-.495-.487-.284.003-.455.181-.49.501-.032.293.136.706.188.824"/><g fill="#fff"><path d="m32.716 31.19c-.01.015-.093.179-.093.179l.142-.03-.049-.149"/><path d="m32.799 31.397l-.149.049.18.071-.031-.12"/><path d="m32.866 31.19l.075.22.183-.052-.049-.104-.209-.064"/><path d="m32.981 31.487l.027.089.242.059-.097-.204-.172.056"/><path d="m33.25 31.3l.085.204.183-.07-.059-.089-.209-.045"/><path d="m33.369 31.58l.029.078.283.041-.119-.186-.193.067"/><path d="m33.64 31.361l.105.182.265-.097-.03-.07-.34-.015"/><path d="m33.793 31.61l.056.096.328-.01-.123-.183-.261.097"/><path d="m34.14 31.368l.09.153.208-.101-.056-.082-.242.03"/><path d="m34.482 31.483l-.209.105.056.089.28-.045-.127-.149"/><path d="m34.549 31.32l.108.134.175-.137-.059-.064-.224.067"/><path d="m34.87 31.394l-.168.127.045.078.231-.059-.108-.146"/><path d="m35.1 31.13l.041.06-.115.172-.119-.153.193-.079"/><path d="m35.18 31.28l.07.141-.142.049-.011-.067.083-.123"/></g></g></svg>