<?xml version="1.0" encoding="utf-8"?>
<!-- Generator: Adobe Illustrator 17.1.0, SVG Export Plug-In . SVG Version: 6.00 Build 0)  -->
<!DOCTYPE svg PUBLIC "-//W3C//DTD SVG 1.1//EN" "http://www.w3.org/Graphics/SVG/1.1/DTD/svg11.dtd">
<svg version="1.1" id="Layer_1" xmlns="http://www.w3.org/2000/svg" xmlns:xlink="http://www.w3.org/1999/xlink" x="0px" y="0px"
	 viewBox="241 32.6 450 450" enable-background="new 241 32.6 450 450" xml:space="preserve">
<path fill="#FFFFFF" d="M568.3,175.7c-12.8-4.7-25.8-7.3-38.7-8.2c65.5,26.9,99.1,103,75.3,172.3c-24.4,70.9-99.7,107.9-168,82.6
	c-8.3-3.1-16.2-7-23.4-11.5c15.4,18.4,35.6,33.2,59.3,42.1c73.9,27.4,155.2-12.6,181.5-89.2C680.6,287.3,642.2,203.1,568.3,175.7z"
	/>
<path fill="#FFFFFF" d="M342.1,477.9l-20.2-16l-20.3,15.8l8.4-24.8l-20.8-15.1l25.3,0.7l7.5-25.2l7.2,25.2l25.3-0.4l-20.9,14.9
	L342.1,477.9L342.1,477.9z"/>
<path fill="#FFFFFF" d="M318.3,264.4l-29.1-23.1L259.9,264l12.1-35.9l-30-21.9l36.6,0.9l10.8-36.3l10.5,36.4l36.6-0.6l-30.1,21.6
	L318.3,264.4L318.3,264.4z"/>
<path fill="#FFFFFF" d="M676.9,98.2l-20.8-16.5l-21,16.3l8.7-25.6l-21.4-15.7l26.2,0.7l7.7-25.9l7.5,26.1l26.2-0.4l-21.6,15.5
	L676.9,98.2L676.9,98.2z"/>
</svg>
