<svg xmlns="http://www.w3.org/2000/svg" viewBox="0 0 16 12" enable-background="new 0 0 16 12"><switch><g><path fill="#c3002f" d="m0 0h16v12h-16z"/><g><path fill="#fff" d="m0 1h16v1h-16z"/><path fill="#fff" d="m0 3h16v1h-16z"/><path fill="#fff" d="m0 5h16v1h-16z"/><path fill="#fff" d="m0 7h16v1h-16z"/><path fill="#fff" d="m0 9h16v1h-16z"/><path fill="#fff" d="m0 11h16v1h-16z"/><path fill="#022169" d="m0 0h8v6h-8z"/><g><path fill="#ffe01b" d="m1 2h1v2h-1z"/><path fill="#ffe01b" d="m2 1h1v4h-1z"/><path fill="#ffe01b" d="m3 4h1v1h-1z"/><path fill="#ffe01b" d="m3 1h1v1h-1z"/><path fill="#ffe01b" d="m5 2h2v2h-2z"/></g></g></g></switch></svg>