<?xml version="1.0" encoding="utf-8"?>
<!-- Generator: Adobe Illustrator 17.1.0, SVG Export Plug-In . SVG Version: 6.00 Build 0)  -->
<!DOCTYPE svg PUBLIC "-//W3C//DTD SVG 1.1//EN" "http://www.w3.org/Graphics/SVG/1.1/DTD/svg11.dtd">
<svg version="1.1" id="Layer_1" xmlns="http://www.w3.org/2000/svg" xmlns:xlink="http://www.w3.org/1999/xlink" x="0px" y="0px"
	 viewBox="0 0 22 22" enable-background="new 0 0 22 22" xml:space="preserve">
<path fill="#FFFFFF" d="M20.2,4.6L22,8.2l-2.6,2c0.1,0.6,0.1,1.3,0,1.9l2.5,2.1L20,17.8L16.8,17c-0.4,0.4-0.9,0.7-1.4,1l0,3.2
	L11.3,22l-1.4-3c-0.3,0-0.6-0.1-0.9-0.2c-0.3-0.1-0.5-0.1-0.8-0.2l-2.6,2L2.4,18L4,15.1c-0.3-0.5-0.5-1-0.7-1.5L0,12.8l0-4.1
	l3.3-0.6c0.2-0.5,0.5-1,0.7-1.5L2.7,3.7L6,1.2l2.6,2.1C9.1,3.1,9.7,3,10.2,3L11.7,0L15.7,1l0,3.2c0.5,0.3,0.9,0.7,1.3,1.1L20.2,4.6
	L20.2,4.6z M12.6,5.3c-3.2-0.9-6.5,1-7.3,4.1c-0.8,3.1,1.1,6.3,4.3,7.2c3.2,0.9,6.5-1,7.3-4.1C17.7,9.4,15.8,6.2,12.6,5.3L12.6,5.3z
	"/>
</svg>
