<svg xmlns="http://www.w3.org/2000/svg" viewBox="0 0 16 12" enable-background="new 0 0 16 12"><switch><g><path fill="#006940" d="m0 0h16v4h-16z"/><path fill="#f15d2a" d="m0 8h16v4h-16z"/><path fill="#fff200" d="m0 4h16v4h-16z"/><circle fill="#00a2e5" cx="8" cy="6" r="3"/><path fill="#fff200" d="m7.998 7.136l-.019 1.258h-.045l-.019-1.258z"/><path fill="#fff200" d="m9.06 6.305l1.19.406-.015.043-1.201-.37z"/><path fill="#fff200" d="m8.597 5.04l.755-1.01.036.027-.724 1.028z"/><path fill="#fff200" d="m7.25 5.088l-.725-1.028.037-.027.754 1.01z"/><path fill="#fff200" d="m6.88 6.384l-1.202.371-.014-.044 1.19-.406z"/><path fill="#fff200" d="m7.793 4.122l-.37 1.14h-1.731l.332.241h1.319l-.15.463.205.149.521-1.604z"/><path fill="#fff200" d="m6.122 5.573l.97.704-.535 1.646.332-.241.408-1.255.394.286.205-.149-1.364-.99z"/><path fill="#fff200" d="m6.986 7.611l.97-.704 1.399 1.017-.126-.39-1.067-.775.394-.286-.078-.242-1.364.992z"/><path fill="#fff200" d="m9.191 7.419l-.369-1.14 1.398-1.017-.409-.001-1.067.775-.151-.463h-.253l.521 1.604z"/><path fill="#fff200" d="m9.69 5.263h-1.198l-.535-1.646-.127.39.408 1.255h-.486l-.079.241h1.687z"/></g></switch></svg>