<svg enable-background="new 0 0 32 32" viewBox="0 0 32 32" xmlns="http://www.w3.org/2000/svg"><g fill="none" fill-rule="evenodd"><path d="M25.5 13.048c-.41 0-.806.06-1.185.163-.466-3.25-3.256-5.75-6.637-5.75-2.938 0-5.43 1.89-6.34 4.52l-.402-.02c-2.1 0-3.86 1.447-4.345 3.398l-.12-.013c-1.836 0-3.325 1.49-3.325 3.328 0 1.825 1.468 3.302 3.285 3.324L6.422 22H25.37l-.006-.01.137.008c2.474 0 4.48-2.004 4.48-4.476s-2.005-4.474-4.477-4.474z" fill-opacity=".6" fill="#447EFF"/><path d="M15.56 26.402L14.17 26c-.145.094-.21.3-.145.46l.716 4.582c.068.16.214.218.36.124l3.187-3.45c.146-.095.21-.3.145-.46l-.885-.228c-.064-.16-1.84-.72-1.984-.626zm7-3L21.17 23c-.145.094-.21.3-.145.46l.717 4.582c.065.16.21.218.357.125l3.184-3.452c.146-.094.21-.3.146-.46l-.885-.227c-.065-.16-1.84-.72-1.985-.626zm-14 1L7.17 24c-.145.094-.21.3-.145.46l.716 4.582c.07.16.215.217.36.123l3.188-3.42c.145-.093.21-.298.145-.458l-.885-.26c-.066-.16-1.84-.718-1.986-.624z" fill="#005DFF"/></g></svg>
