<svg xmlns="http://www.w3.org/2000/svg" viewBox="0 0 16 12" enable-background="new 0 0 16 12"><switch><g><path fill="#ed1c2e" d="m0 0h16v12h-16z"/><g><circle fill="#fff200" cx="7.92" cy="5.04" r=".856"/><path fill="#fff" d="m7.14 4.699c.243-.078.558.013.764.211.22-.04.44-.316.509-.561-.075-.816-.609-1.435-.771-1.858-.051-.134-.289-.345-.537-.247-.203.081-.306.018-.989.359-.37.185-.681.373-.845.407s-.337.063-.468-.04c-.181-.142-.383-.181-.502-.287-.146-.13-.24-.229-.339-.269-.099-.04-.266.049-.195.26.159.478.535.555.696 1 .076.211.185.37.426.21.241-.16.583-.372 1.166-.394.391-.015.795-.159.981-.395-.002.204.07.372.052.637-.019.266-.017.596.054.967"/><path fill="none" d="m4.65 2.871c-.101-.049-.211.061-.275.324"/><path fill="none" d="m4.521 2.807c-.097-.043-.177-.021-.297.234"/><path fill="none" d="m4.327 2.704c-.073-.055-.169.025-.217.144"/><path fill="#fff200" d="m7.598 4.721c-.071-.402.059-.46-.097-.931-.094-.283-.153-.638-.155-.803l-.063.019c.002.165.061.52.155.803.15.456.033.525.091.892.018.003.055.015.068.021"/><path fill="#fff200" d="m7.231 4.677c0-.051-.003-.104-.011-.15.109-.026.298.075.292 0-.001-.024.002-.101.003-.142-.003.064-.265-.044-.31-.016-.048-.234.012-.474-.026-.621.087-.024.248.028.229-.04-.012-.035-.032-.123-.047-.177.014.057-.114.01-.157.042-.022-.127-.055-.367-.055-.477h-.114c-.002.204.07.372.052.637-.019.266-.017.596.054.967.025-.007.066-.017.091-.022"/><path fill="none" d="m6.37 2.477c-.118.051.039.392.177.635"/><path fill="none" d="m6.548 3.188c-.048.021-.097.04-.147.056"/><path fill="none" d="m5.666 3.376c-.037.008-.074.018-.109.028"/><path fill="#fff200" d="m6.941 2.811c-.171.247-.579.417-.955.454-.441.044-.738.191-.956.334-.019-.034-.052-.052-.082-.074-.319-.236-.189-.557-.067-.511-.046-.018-.072-.042-.097-.06-.042-.031-.164.089-.148.279.006.081.075.201.132.264-.104-.019-.152-.045-.213-.118.034-.021.078-.033.113-.036-.012-.029-.028-.062-.032-.11-.051-.001-.112.017-.165.053-.127-.127-.257-.227-.332-.376-.121-.238.002-.389.161-.229-.146-.13-.24-.229-.339-.269-.099-.04-.266.049-.195.26.159.478.535.555.696 1 .076.211.189.375.426.21.031-.022.04-.027.067-.046.075-.043.194.03.182.189.061-.146.021-.191-.029-.278-.039.021-.035-.099-.06-.115.136-.084.301-.169.509-.229.008.072.027.147.094.137.035-.008.07-.015.108-.022-.066.011-.085-.072-.093-.143.1-.023.207-.04.325-.05.136-.011.276-.039.409-.082.019.068.061.184.128.161.06-.019.118-.041.173-.066-.094.045-.131-.083-.153-.151.172-.075.319-.177.406-.299l-.013-.078"/><g><path fill="#fff200" d="m6.999 3.186c.218-.028.567-.273.71-.384.083-.064.154-.095.083-.232-.117-.223-.08-.221-.337-.363-.262-.144-.229-.156-.575-.034-.085.03-.065.061-.051.185.032.266.114.609.17.828"/><path fill="#fff200" d="m6.986 3.198c-.015-.086-.061-.202-.104-.325-.046-.131-.033-.113.132-.073.054-.172.149-.432.19-.571.047-.156.061-.184.131-.146.088.049.185.1.248.131.109.054.094.073.041.159s-.244.373-.351.555c.14.099.185.107.086.15-.111.047-.296.106-.374.12"/></g><path fill="#fff200" d="m5.24 4.102l-.012.134-.099-.09-.11.075.007-.134-.128-.039.109-.078-.048-.124.128.037.067-.115.052.123.132-.02-.066.118.098.091z"/><path fill="#fff" d="m8.01 5.891c-.188-.171-.268-.489-.198-.767-.144-.17-.493-.223-.741-.16-.668.473-.938 1.245-1.223 1.597-.091.112-.154.423.055.588.171.136.168.256.805.678.345.227.664.402.775.528.11.125.222.261.198.426-.032.227.035.421.003.578-.04.191-.078.321-.064.427s.175.206.323.039c.333-.376.213-.74.519-1.102.145-.172.227-.345-.031-.475-.26-.129-.614-.318-.925-.811-.209-.331-.535-.609-.832-.652.178-.101.286-.247.525-.363.24-.116.524-.284.811-.53"/><path fill="none" d="m7.674 8.96c.008.112.158.153.418.077"/><path fill="none" d="m7.684 9.105c.01.105.07.164.351.141"/><path fill="none" d="m7.69 9.324c-.011.092.106.134.233.115"/><path fill="#fff200" d="m7.803 5.482c-.313.263-.428.179-.758.549-.198.223-.476.452-.618.536l.047.045c.143-.084.42-.313.618-.536.319-.358.438-.291.728-.524-.006-.017-.015-.055-.017-.07"/><path fill="#fff200" d="m7.948 5.823c-.044.025-.089.055-.125.084-.077-.082-.084-.295-.146-.253-.021.013-.088.05-.124.069.057-.03.094.25.141.276-.179.159-.417.227-.524.334-.064-.064-.1-.229-.149-.178-.024.027-.09.089-.13.128.043-.04.065.094.115.115-.099.083-.29.231-.386.286l.057.1c.178-.101.286-.247.525-.363.24-.116.524-.284.811-.53-.019-.018-.047-.049-.064-.067"/><path fill="none" d="m6.473 7.668c.104.077.32-.229.462-.471"/><path fill="none" d="m7 7.158c.041.031.082.064.122.1"/><path fill="none" d="m7.603 7.828c.026.028.053.056.079.081"/><path fill="#fff200" d="m6.477 7.01c.299.024.65.292.871.6.259.36.533.544.768.66-.021.033-.02.071-.023.108-.045.395-.388.441-.408.313.007.049 0 .083-.004.114-.006.052.159.098.316-.011.066-.046.135-.166.162-.247.035.1.037.155.004.244-.035-.02-.067-.051-.088-.08-.02.024-.038.055-.078.083.024.044.07.088.128.116-.046.172-.067.336-.159.476-.146.224-.338.192-.279-.024-.04.191-.078.321-.064.427s.175.206.323.039c.333-.376.213-.74.519-1.102.145-.172.231-.352-.031-.475-.035-.016-.044-.021-.073-.034-.076-.044-.072-.184.072-.252-.157.021-.177.076-.227.165.037.023-.068.08-.07.108-.141-.075-.297-.176-.453-.326.059-.042.114-.098.072-.149-.025-.026-.049-.054-.073-.083.042.052-.021.108-.078.151-.069-.074-.138-.159-.205-.256-.077-.113-.172-.221-.275-.314.05-.051.129-.144.075-.191-.046-.042-.094-.082-.144-.116.086.059-.007.155-.054.208-.151-.111-.313-.188-.463-.202l-.061.051"/><g><path fill="#fff200" d="m6.772 6.769c-.133-.174-.519-.354-.688-.423-.097-.04-.159-.086-.241.044-.135.213-.151.18-.146.473.005.299-.021.276.258.516.068.059.086.026.185-.049.215-.16.471-.403.632-.561"/><path fill="#fff200" d="m6.789 6.774c-.066.055-.144.153-.229.252-.091.104-.081.085-.13-.078-.176.039-.447.087-.59.12-.158.038-.189.039-.191-.039-.002-.102-.006-.211-.01-.281-.009-.122.016-.117.117-.115.1.003.445.025.655.026.016-.171.001-.214.087-.149.097.073.24.203.291.264"/></g><path fill="#fff200" d="m8.445 7.834l.121-.057-.028.131.121.058-.12.061.03.13-.122-.055-.084.104-.031-.129h-.134l.081-.106-.084-.104.135-.003.029-.129z"/><path fill="#fff" d="m8.608 4.539c-.055.249-.29.476-.565.556-.074.21.054.539.232.721.744.343 1.547.19 1.995.261.142.022.443-.078.481-.342.032-.216.138-.274.185-1.036.025-.412.017-.776.07-.935.054-.159.114-.323.269-.386.213-.085.348-.241.5-.291.185-.061.317-.093.401-.158.084-.066.091-.255-.128-.3-.492-.101-.747.185-1.215.102-.221-.04-.412-.025-.395.264.019.29.031.691-.24 1.207-.183.346-.261.768-.148 1.047-.176-.104-.357-.125-.578-.274-.221-.149-.508-.312-.864-.437"/><path fill="none" d="m11.436 3.297c.093-.063.054-.213-.143-.401"/><path fill="none" d="m11.557 3.217c.086-.062.106-.143-.055-.374"/><path fill="none" d="m11.742 3.101c.085-.036.063-.159-.017-.26"/><path fill="#fff200" d="m8.359 4.925c.384.139.369.28.854.381.292.061.629.186.772.268l.016-.064c-.144-.081-.48-.207-.773-.268-.47-.097-.471-.233-.817-.368-.012.014-.041.04-.053.05"/><path fill="#fff200" d="m8.582 4.628c.044.026.092.05.135.066-.031.108-.214.22-.146.253.021.011.087.051.122.073-.055-.034.17-.207.168-.26.227.075.405.247.552.288-.023.087-.148.2-.079.218.035.008.121.033.176.048-.057-.017.049-.104.042-.157.121.044.346.136.44.191l.059-.099c-.176-.104-.357-.125-.578-.274-.221-.149-.508-.312-.864-.437-.007.025-.019.066-.026.089"/><path fill="none" d="m10.917 4.984c.015-.128-.358-.163-.639-.165"/><path fill="none" d="m10.213 4.782c.006-.051.014-.104.024-.156"/><path fill="none" d="m10.49 3.925c.012-.037.023-.073.031-.109"/><path fill="#fff200" d="m10.342 5.311c-.127-.271-.07-.709.085-1.054.183-.404.203-.734.188-.995.039.001.071-.019.106-.035.363-.158.575.116.476.197.038-.03.071-.042.1-.054.048-.021.005-.186-.167-.268-.073-.035-.211-.034-.295-.018.068-.08.115-.109.209-.125.002.04-.01.084-.025.116.031.004.067.006.111.026.025-.043.041-.106.036-.169.173-.046.325-.109.491-.1.268.014.336.196.119.254.185-.061.317-.093.401-.158.084-.066.091-.255-.128-.3-.492-.101-.747.186-1.215.102-.221-.04-.418-.024-.395.264.004.038.004.048.008.081 0 .087-.123.154-.255.063.096.126.154.115.256.113.001-.043.104.019.129.007.005.159-.004.345-.056.555-.066-.029-.142-.05-.165.012-.011.035-.023.069-.036.104.023-.063.105-.037.17-.008-.029.097-.068.199-.119.306-.059.123-.104.259-.134.395-.069-.017-.188-.04-.203.03-.014.061-.024.123-.029.183.008-.104.138-.072.208-.058-.021.186-.006.365.055.502l.074.027"/><g><path fill="#fff200" d="m9.989 5.174c-.085.203-.048.627-.023.807.014.104.005.182.158.188.253.01.232.042.483-.11.256-.154.249-.12.317-.481.016-.089-.02-.088-.135-.137-.246-.106-.584-.205-.802-.267"/><path fill="#fff200" d="m9.984 5.156c.082.031.205.049.334.073.136.025.114.027-.003.151.122.133.3.345.399.451.111.119.129.146.06.186-.086.052-.18.11-.237.149-.102.068-.11.045-.158-.043s-.202-.399-.306-.582c-.155.072-.185.106-.173-.001.015-.12.056-.309.083-.384"/></g><path fill="#fff200" d="m10.08 3.192l-.11-.077.127-.041-.01-.134.112.073.098-.091.013.133.133.021-.097.092.066.116-.133-.017-.049.124-.069-.115-.127.039z"/></g></g></switch></svg>