<?xml version="1.0" encoding="utf-8"?>
<!-- Generator: Adobe Illustrator 18.0.0, SVG Export Plug-In . SVG Version: 6.00 Build 0)  -->
<!DOCTYPE svg PUBLIC "-//W3C//DTD SVG 1.1//EN" "http://www.w3.org/Graphics/SVG/1.1/DTD/svg11.dtd">
<svg version="1.1" id="Layer_1" xmlns="http://www.w3.org/2000/svg" xmlns:xlink="http://www.w3.org/1999/xlink" x="0px" y="0px"
	 viewBox="0 0 56 56" enable-background="new 0 0 56 56" xml:space="preserve">
<g>
	<path fill="#FFFFFF" d="M46.4,43.3h-0.1l0,0H6.9l0,0H6.8c-3.7,0-6.8-3-6.8-6.8c0-3.5,2.7-6.4,6.1-6.8c0.8-4.4,4.8-7.8,9.5-7.8
		c0.2,0,0.6,0,0.8,0c2-5.6,7.4-9.7,13.7-9.7c7.1,0,13,5.1,14.2,11.8c0.7-0.1,1.5-0.2,2.2-0.2c5.4,0,9.7,4.3,9.7,9.7
		C56.1,39,51.8,43.3,46.4,43.3z M46.4,27.3c-3,0-5.5,2.1-6.1,4.9L39.7,32c0.8-1.5,1.3-3.3,1.3-5.1c0-6.1-4.9-11-11-11
		c-6,0-10.7,4.7-11,10.6c-1-0.7-2.2-1-3.5-1c-3.5,0-6.3,2.8-6.3,6.3c0,1.3,0.3,2.5,1.1,3.5l-0.5,0.2c-0.5-1.2-1.6-2.1-3-2.1
		c-1.8,0-3.3,1.4-3.3,3.3c0,1.8,1.4,3.3,3.3,3.3c0.1,0,0.4,0,0.5,0h38.5c0.2,0,0.5,0.1,0.7,0.1c3.4,0,6.2-2.8,6.2-6.2
		S49.8,27.3,46.4,27.3z"/>
</g>
</svg>
