<svg xmlns="http://www.w3.org/2000/svg" viewBox="0 0 16 12" enable-background="new 0 0 16 12"><switch><g><path fill="#fff" d="m0 .031h16v11.938h-16z"/><path fill="#0060a9" d="m11.606 1.584s0 2.462 0 3.5c0 2.731-1.648 4.674-3.606 5.347-1.958-.673-3.605-2.615-3.605-5.347 0-1.038 0-3.501 0-3.501h7.21"/><path fill="#fff" d="m10.693 7.947l-5.445-6.189h-.707v.811l5.514 6.261c.243-.262.504-.639.639-.883"/><circle fill="#ffd520" cx="7.932" cy="2.686" r=".734"/><circle fill="#ffd520" cx="10.354" cy="2.686" r=".734"/><circle fill="#ffd520" cx="10.354" cy="5.397" r=".734"/><circle fill="#ffd520" cx="8.205" cy="8.386" r=".734"/><circle fill="#ffd520" cx="6.8" cy="6.795" r=".734"/><circle fill="#ffd520" cx="5.396" cy="5.205" r=".734"/></g></switch></svg>