<?xml version="1.0" encoding="utf-8"?>
<!-- Generator: Adobe Illustrator 18.0.0, SVG Export Plug-In . SVG Version: 6.00 Build 0)  -->
<!DOCTYPE svg PUBLIC "-//W3C//DTD SVG 1.1//EN" "http://www.w3.org/Graphics/SVG/1.1/DTD/svg11.dtd">
<svg version="1.1" id="Layer_1" xmlns="http://www.w3.org/2000/svg" xmlns:xlink="http://www.w3.org/1999/xlink" x="0px" y="0px"
	 viewBox="0 0 56 56" enable-background="new 0 0 56 56" xml:space="preserve">
<path opacity="0.4" fill="#FFFFFF" enable-background="new    " d="M25.9,27.8H11.8c-0.2,0-0.4,0.1-0.6,0.1c-1.4,0-2.5-1.1-2.5-2.5
	c0-1.4,1.1-2.5,2.5-2.5c1.2,0,2.2,0.9,2.5,2l1.3-0.6c-0.4-0.7-0.6-1.4-0.6-2.2c0-2.4,2-4.4,4.4-4.4c1.3,0,2.4,0.5,3.2,1.4
	c0-0.3,0-0.5,0-0.8c0-4.5,3.6-8.1,8.1-8.1s8.1,3.6,8.1,8.1c0,1.4-0.4,2.7-1,3.9l1.6,0.8c0.3-2.1,2.1-3.7,4.3-3.7
	c2.4,0,4.4,2,4.4,4.4s-2,4.4-4.4,4.4c-0.2,0-0.3,0-0.5-0.1H32.1"/>
<path fill="#FFFFFF" d="M43.1,16c-0.7,0-1.4,0.1-2,0.3C40.1,11,35.5,7,30,7c-4.9,0-9.1,3.2-10.6,7.6c-0.2,0-0.4,0-0.7,0
	c-3.4,0-6.3,2.3-7.2,5.4l-0.3,0c-3.1,0-5.6,2.5-5.6,5.6c0,3.1,2.5,5.5,5.5,5.6l0,0h31.7l0,0l0.2,0c4.1,0,7.5-3.4,7.5-7.5
	S47.2,16,43.1,16z M43,27.9c-0.2,0-0.3,0-0.5-0.1H11.8c-0.2,0-0.4,0.1-0.6,0.1c-1.4,0-2.5-1.1-2.5-2.5c0-1.4,1.1-2.5,2.5-2.5
	c1.2,0,2.2,0.9,2.5,2l1.3-0.6c-0.4-0.7-0.6-1.4-0.6-2.2c0-2.4,2-4.4,4.4-4.4c1.3,0,2.4,0.5,3.2,1.4c0-0.3,0-0.5,0-0.8
	c0-4.5,3.6-8.1,8.1-8.1s8.1,3.6,8.1,8.1c0,1.4-0.4,2.7-1,3.9l1.6,0.8c0.3-2.1,2.1-3.7,4.3-3.7c2.4,0,4.4,2,4.4,4.4
	S45.5,27.9,43,27.9L43,27.9z"/>
<path fill="#FFFFFF" d="M33.5,36.5c-1.6-0.7-3.4-0.1-4.2,1.5c-0.7,1.6-0.1,3.4,1.5,4.2c1.6,0.7,3.4,0.1,4.2-1.5
	C35.7,39.1,35,37.2,33.5,36.5z"/>
<path fill="#FFFFFF" d="M35.2,32.4l0,6.7L30,36.9L35.2,32.4z"/>
<path fill="#FFFFFF" d="M19.8,42.8c-1.6-0.7-3.4-0.1-4.2,1.5c-0.7,1.6-0.1,3.4,1.5,4.2c1.6,0.7,3.4,0.1,4.2-1.5
	C22.1,45.4,21.4,43.5,19.8,42.8z"/>
<path fill="#FFFFFF" d="M21.6,38.7l0,6.7l-5.2-2.2L21.6,38.7z"/>
</svg>
