<?xml version="1.0" encoding="utf-8"?>
<!-- Generator: Adobe Illustrator 18.0.0, SVG Export Plug-In . SVG Version: 6.00 Build 0)  -->
<!DOCTYPE svg PUBLIC "-//W3C//DTD SVG 1.1//EN" "http://www.w3.org/Graphics/SVG/1.1/DTD/svg11.dtd">
<svg version="1.1" id="Layer_1" xmlns="http://www.w3.org/2000/svg" xmlns:xlink="http://www.w3.org/1999/xlink" x="0px" y="0px"
	 viewBox="0 0 48 48" enable-background="new 0 0 48 48" xml:space="preserve">
<g>
	<path fill="#FFFFFF" d="M45,16l-4.2,1.1l3.1,3.1L43,21.2l-3.1-3.1l-1.1,4.2L37.5,22l1.1-4.2l-4.2,1.1l-0.3-1.2l4.2-1.1l-3.1-3.1
		l0.9-0.9l3.1,3.1l1.1-4.2l1.2,0.3l-1.1,4.2l4.2-1.1L45,16z M31.6,15.1l-0.8,0.9L27.9,13l-1.1,4l-1.2-0.3l1.1-4l-3.9,1.1l-0.3-1.2
		l3.9-1.1l-2.9-2.9l0.8-0.9l2.9,2.9l1.1-4L29.5,7l-1.1,4l3.9-1.1l0.3,1.2l-3.9,1.1L31.6,15.1z M22.4,23.8l1-0.3l0.1,0.5l-1,0.3
		l0.7,0.7l-0.3,0.3l-0.7-0.7l-0.3,1l-0.5-0.1l0.3-1l-1,0.3l-0.1-0.5l1-0.3l-0.7-0.7l0.3-0.3l0.7,0.7l0.3-1l0.5,0.1L22.4,23.8z
		 M19.4,17.9l-0.8,0.8L15.9,16l-1,3.8l-1.1-0.3l1-3.8l-3.8,1l-0.3-1.1l3.8-1l-2.8-2.8l0.8-0.8l2.8,2.8l1-3.8l1.1,0.3l-1,3.8l3.8-1
		l0.3,1.1l-3.8,1L19.4,17.9z M12.8,22.1l0.3,1l-3.5,0.9l2.6,2.6l-0.8,0.8l-2.6-2.6l-0.9,3.5l-1-0.3l0.9-3.5l-3.5,0.9l-0.3-1l3.5-0.9
		L5,21l0.8-0.8l2.6,2.6l0.9-3.5l1,0.3l-0.9,3.5L12.8,22.1z M5.6,31.3l0.9-0.9l1.9,1.9l0.7-2.6l1.2,0.3l-0.7,2.6l2.6-0.7l0.3,1.2
		l-2.6,0.7l1.9,1.9l-0.9,0.9L9,34.7l-0.7,2.6L7.1,37l0.7-2.6l-2.6,0.7l-0.3-1.2l2.6-0.7L5.6,31.3z M12.2,37.7l0.8-0.8l1.7,1.7
		l0.6-2.3l1.1,0.3l-0.6,2.3l2.3-0.6l0.3,1.1L16,39.9l1.7,1.7l-0.8,0.8l-1.7-1.7L14.6,43l-1.1-0.3l0.6-2.3L11.8,41L11.6,40l2.3-0.6
		L12.2,37.7z M20.7,37.9l0.7-0.7l1.5,1.5l0.5-2l1,0.3l-0.5,2l2-0.5l0.3,1l-2,0.5l1.5,1.5l-0.7,0.7l-1.5-1.5l-0.5,2l-1-0.3l0.5-2
		l-2,0.5l-0.3-1l2-0.5L20.7,37.9z M29.4,27.1l-1.4,0.4l1.1,1.1L28.5,29L27.4,28l-0.4,1.4l-0.7-0.2l0.4-1.4l-1.4,0.4l-0.2-0.7
		l1.4-0.4l-1.1-1.1l0.5-0.5l1.1,1.1l0.4-1.4l0.7,0.2l-0.4,1.4l1.4-0.4L29.4,27.1z M25.9,33.7l1.8-0.5L26.4,32l0.6-0.6l1.3,1.3
		l0.5-1.8l0.8,0.2l-0.5,1.8l1.8-0.5l0.2,0.8l-1.8,0.5l1.3,1.3L30,35.6l-1.3-1.3L28.2,36l-0.8-0.2l0.5-1.8l-1.8,0.5L25.9,33.7z"/>
</g>
</svg>
