<svg xmlns="http://www.w3.org/2000/svg" viewBox="0 0 16 12" enable-background="new 0 0 16 12"><path fill="#e4032e" d="M16,0H0v12h16"/><path fill="#fff" d="M4,0v12h8V0H4z"/><path fill="#e4032e" d="m11.807 5.645c-.113.112-.267.191-.474.191-.586 0-.793-.58-.629-.999l-.226-.165c-.109.095-.25.164-.438.164-.566 0-.781-.543-.646-.958l-.037-.028v-1.065c-.095.033-.195.065-.315.065-.39 0-.642-.195-.791-.452h-.46c-.149.257-.402.452-.791.452-.135 0-.248-.032-.354-.072v1.104l-.011.008c.156.418-.054.987-.635.987-.201 0-.35-.076-.462-.183l-.245.18c.167.42-.038 1-.626 1-.209 0-.364-.08-.478-.194l-.074.055 1.771 2.417c.156-.266.42-.465.822-.465.242 0 .425.084.578.197h.101v.075c.397.392.397 1.103 0 1.494v.388h1.231v-.385c-.402-.393-.402-1.107 0-1.5v-.072h.097c.152-.114.335-.198.577-.198.421 0 .69.217.843.5l1.799-2.453-.127-.091"/></svg>