<svg xmlns="http://www.w3.org/2000/svg" viewBox="0 0 16 12" enable-background="new 0 0 16 12"><switch><g><path fill="#fff" d="m0 0h8v12h-8z"/><path fill="#ed1c2e" d="m8 0h8v12h-8z"/><g><path fill="#ed1c2e" d="m2.645 5.03v-1.085c-.053-.024-.106-.063-.152-.108-.046-.047-.084-.099-.108-.151h-1.085v-1.601h1.085c.024-.052.062-.105.108-.151.047-.046.099-.084.152-.108v-1.085h1.6v1.085c.052.024.104.062.151.108.047.047.084.099.108.151h1.085v1.601h-1.084c-.025.053-.063.104-.109.151-.046.046-.099.084-.151.108v1.085h-1.6"/><path fill="#a7b1b7" d="m4.108.973v.983c.053.014.112.05.164.103s.087.111.102.163h.983v1.328h-.983c-.015.052-.05.111-.102.164-.052.052-.111.088-.164.102v.983h-1.328v-.983c-.052-.014-.111-.05-.164-.102-.052-.053-.088-.112-.103-.164h-.983v-1.328h.983c.015-.052.05-.111.103-.163s.111-.088.164-.103v-.983h1.328"/></g></g></switch></svg>