<svg xmlns="http://www.w3.org/2000/svg" viewBox="0 0 16 12" enable-background="new 0 0 16 12"><switch><g><g><path fill="#fff" d="m0 0h16v12h-16z"/><path fill="#fff200" d="m0 0h8v12h-8z"/></g><path fill="#757679" d="m9 3h1v1h-1z"/><path fill="#757679" d="m10 4h1v1h-1z"/><path fill="#757679" d="m11 5h1v1h-1z"/><path fill="#757679" d="m13 7h1v1h-1z"/><path fill="#949067" d="m14 3h1v1h-1z"/><path fill="#949067" d="m13 4h1v1h-1z"/><path fill="#949067" d="m12 5h1v1h-1z"/><path fill="#949067" d="m10 7h1v1h-1z"/><path fill="#949067" d="m9 8h1v1h-1z"/><path fill="#757679" d="m12 5h1v2h-1z"/><path fill="#757679" d="m14 8h1v1h-1z"/><path fill="#757679" d="m14 4h1v1h-1z"/><path fill="#757679" d="m13 6h1v1h-1z"/><path fill="#757679" d="m9 4h1v1h-1z"/><path fill="#757679" d="m10 6h1v1h-1z"/><path fill="#949067" d="m11 2h2v3h-2z"/><path fill="#949067" d="m11 6h1v1h-1z"/><path fill="#757679" d="m11 4h1v1h-1z"/><path fill="#ed1c2e" d="m12 6h1v3h-1z"/></g></switch></svg>