<svg xmlns="http://www.w3.org/2000/svg" viewBox="0 0 16 12" enable-background="new 0 0 16 12"><switch><g><path fill="#006940" d="m0 0h16v12h-16z"/><g><path fill="#ffd520" d="m0 5h16v1h-16z"/><path d="m0 6h16v1h-16z"/><path fill="#fff" d="m0 7h16v1h-16z"/><path fill="#ffd520" d="m7 0h1v12h-1z"/><path d="m8 0h1v12h-1z"/><path fill="#fff" d="m9 0h1v12h-1z"/></g><circle fill="#ed174c" cx="8" cy="6" r="3.6"/><g><path fill="#006940" d="m8.262 7.02c.072.307.263.883.313 1.012.05.127.122.391.284.435.072.039.174.012.129-.324.051-.012.06-.14.051-.231-.012-.089-.039-.423-.045-.691-.006-.269-.737-.688-.732-.201"/><path fill="none" d="m8.727 7.185c-.004.092.086.501.095.556.008.055.037.392.167.404"/><path fill="none" d="m8.981 8.424c-.029.043-.109.05-.159-.051-.051-.101-.156-.46-.197-.678-.042-.219-.135-.617-.171-.787"/><path fill="#006940" d="m7.58 6.43c-.028.2.022.592.118.742l.44.102c.045-.028.096-.096.111-.152.107-.033.191-.117.219-.279-.129-.307-.587-.715-.889-.412"/><path fill="#7d77b7" d="m8.561 4.618c.008.067.051.134.102.177-.033.025-.051.059-.059.084-.185.158-.612 1.266-.621 1.508-.029.13-.088.336-.139.424-.285-.256-.578-.734-.529-.948-.017-.004-.042-.007-.068-.015.005-.019.016-.117.019-.176-.017 0-.047 0-.072-.008.005-.037.017-.143.017-.19-.028-.009-.061-.036-.087-.064.019-.051.07-.149.096-.208-.042-.005-.073-.048-.087-.072.036-.022.083-.087.104-.126-.031-.025-.067-.061-.072-.078.038-.036.152-.162.203-.232-.03 0-.042-.002-.067-.008.042-.018.09-.078.146-.131.097.083.279.068.367.018.16.093.331.106.554.033.042.013.155.029.196.013"/><path fill="#006940" d="m9.198 7.661c.033-1.183-.168-2.263-.477-2.657-.31-.394-.881-.306-1.04.033-.066.143-.076.483-.008.629.117.252.569 1.048.88 1.35.31.301.528.504.646.646"/><path fill="#ffd520" d="m8.731 7.379c-.089.012-.195-.012-.279-.051s-.155-.078-.244-.078c-.091 0-.576-.033-.655-.061-.077-.028-.296-.068-.385-.061-.089.005-.229.066-.285.066s-.084.045-.084.089c0 .045.011.129.079.174.117-.006.286-.017.307-.039.162.044.38.09.515.095.134.007.374.017.463.012s.106-.033.224.005c.117.039.274.123.346.146.074.022.119-.05.135-.129.018-.077-.039-.173-.135-.167"/><path fill="#ffd520" d="m8.731 7.675c.074.022.119-.05.135-.129.018-.077-.039-.173-.135-.167-.068.014-.16.189 0 .296"/><g><path fill="#d9d9d9" d="m7.787 7.128c-.096-.079-.26-.005-.285.184-.021.173.067.297.196.29-.028-.094-.007-.436.089-.474"/><path fill="#d9d9d9" d="m7.933 7.128c-.089-.073-.206-.001-.257.066-.073.095-.068.274-.023.363.046.089.18.056.207.011-.016-.089 0-.385.073-.44"/><path fill="#d9d9d9" d="m8.108 7.196c-.063-.106-.237-.075-.293.003-.056.079-.067.246 0 .33.066.084.14.072.2.028-.017-.078.009-.277.093-.361"/><path fill="#d9d9d9" d="m8.212 7.245c-.062-.106-.178-.061-.224.005-.066.095-.061.313.084.347.072.017.129-.044.15-.072-.056-.005-.111-.067-.111-.117 0-.051.005-.151.101-.162"/></g><path fill="#ffd520" d="m7.715 3.856c-.151 0-.147.227 0 .227.146 0 .15-.227 0-.227"/><path d="m7.715 3.941c-.039 0-.037.056 0 .056.036 0 .037-.056 0-.056"/><g><path fill="#ed174c" d="m8.553 7.02c-.31-.302-.763-1.098-.88-1.35.092.352.184.914.88 1.35"/><path fill="none" d="m8.25 3.94c-.071.101-.134.137-.162.148-.016.045-.066.1-.122.123"/><path fill="none" d="m7.943 4c.034.017.045-.017.051-.039"/><path fill="none" d="m7.709 4.256c.039.011.066-.018.084-.04"/><path fill="none" d="m8.07 3.959c.016-.011.051 0 .072.006"/><path fill="none" d="m7.648 4.459c.064.029.176-.021.218-.055.113.018.285-.025.336-.096.049-.072.133-.047.201-.151"/><path fill="none" d="m8.13 4.518c.071.009.15-.017.184-.059.034-.042.101-.101.196-.092"/><path fill="none" d="m7.365 4.693c.051 0 .068.025.102.051s.122 0 .155.038c.034.038.071.071.117.061"/><path fill="none" d="m7.234 5c.042.008.132-.004.162-.016.041.023.121.045.159.028"/><path fill="none" d="m7.218 5.202c.046 0 .099-.001.136-.026.043.025.135.042.177.021"/><path fill="none" d="m8.05 4.941c-.068.08-.109.218.045.322.097-.037.173-.146.114-.326"/><path fill="none" d="m7.822 4.864c-.013.093.068.199.177.183"/><path fill="none" d="m7.748 5.15c.037.155.192.326.352.113"/><path fill="none" d="m8.141 5.242c.018.08.053.178.156.191.146.019.143-.274.093-.434"/><path fill="none" d="m8.215 4.944c.074.085.25.114.278-.129"/><path fill="none" d="m8.398 5.335c.117.113.44-.05.086-.466"/><path fill="none" d="m7.895 5.448c.104.075.214.13.309-.064"/><path fill="none" d="m7.631 5.477c.125.131.226.151.326.012"/><path fill="none" d="m7.832 5.582c.045.084.108.156.176.189.066.033.113-.014.122-.072.008-.059-.007-.133-.023-.195"/><path fill="none" d="m8.121 5.691c.067.037.218.05.26-.075.075.059.164.104.226.024"/><path fill="none" d="m8.613 5.068c.057.129.168.443.163.551.089.178.111.313.1.413.073.106.112.308.079.402"/><path fill="none" d="m7.209 5.474c.03-.005.086-.021.106-.033.021-.015.033-.003.064.013.031.018.078.006.137-.033"/><path fill="none" d="m7.265 5.672c.033-.003.111-.027.142-.045"/><path fill="none" d="m7.315 5.862c.084-.012.174-.116.246-.084"/><path fill="none" d="m7.552 6.03c.054.017.116-.095.19-.093"/><path fill="none" d="m8.562 5.352c.028.064.05.253.039.298-.012.045.005.056.05.048.045-.01.104-.051.126-.078"/><path fill="none" d="m8.642 5.789c-.03.14-.011.273.018.327s.142.021.217-.084"/><path fill="none" d="m8.1 5.762c-.002.07.062.218.117.276.057.059.132.075.166 0 .033-.076.03-.231-.041-.36"/><path fill="none" d="m8.402 5.906c.042.025.16.027.225.015"/><path fill="none" d="m8.307 6.088c.067.166.213.261.369.045"/><path fill="none" d="m8.03 6.167c.063.061.201.08.293-.048"/><path fill="none" d="m8.165 5.961c-.015.045-.132.146-.255.146"/><path fill="none" d="m8.098 6.413c.122.061.298.055.262-.233"/><path fill="none" d="m7.603 6.373c.061-.045.15-.072.206-.049"/><path fill="none" d="m8.363 6.255c.006.146.095.51.284.677.19.167.446.391.552.67"/><path fill="none" d="m9.201 7.396c-.012-.235-.229-.458-.363-.575-.135-.117-.281-.386-.208-.632.001.106.129.269.225.353.095.084.326.33.337.43"/><path fill="none" d="m8.721 6.141c-.012.067.078.188.178.261.102.071.273.239.277.341"/><path fill="none" d="m8.25 7.121c-.07-.054-.117-.248-.063-.394"/><path fill="none" d="m8.06 6.58c-.067.113-.057.201-.06.26-.003.092.068.159.165.021"/><path fill="none" d="m7.856 6.788c.018.047.039.135.039.181.041-.021.092-.041.125-.051"/><path fill="none" d="m7.895 6.969c.013.025.021.08.021.13"/><path fill="none" d="m7.705 6.669c-.025.084-.042.202.08.276"/><path fill="none" d="m7.865 6.818c-.028.038-.067.092-.067.135.005.051 0 .106.021.146"/><path fill="none" d="m8.08 6.938c-.029.059-.045.133-.04.184"/><path fill="none" d="m7.916 6.632c.008.046.024.103.092.082"/><path fill="none" d="m7.577 6.703c.005.039.025.078.109.084"/></g><path d="m7.04 7.154c.025-.01.073-.019.094-.023-.01.047 0 .076-.038.08-.037.004-.039-.017-.056-.057"/><path d="m7.234 7.432c.043.009.002.007-.051-.014-.012.01-.037.015-.045.016.012-.061.002-.082.061-.082.054-.002.028.011.034.08"/></g></g></switch></svg>