<svg xmlns="http://www.w3.org/2000/svg" viewBox="0 0 16 12" enable-background="new 0 0 16 12"><path fill="#fff" d="m0 4h16v4h-16z"/><path fill="#e40520" d="m0 0h16v4h-16z"/><path d="m0 8h16v4h-16z"/><g fill="#037b3e" transform="matrix(3.1312 0 0 3.4052-158.74-207.31)"><path d="m52.608 62.915l-.021-.021.021-.021.021-.021.021.021.021.021-.021.021-.021.021-.021-.021m-.143-.011c-.007-.003-.02-.011-.027-.021-.015-.016-.018-.024-.008-.019.015.008.045.013.056.01.039-.013.048-.065.017-.099-.006-.007-.011-.014-.011-.017 0-.003.007-.008.014-.012.012-.005.017-.01.024-.023.007-.013.01-.016.014-.013.005.004.022.044.022.052 0 .004.006.005.034.005h.034l-.005-.013c-.003-.007-.008-.016-.011-.02-.004-.007-.004-.009 0-.012.003-.002.012-.009.021-.015.008-.006.017-.013.018-.017.003-.008.021-.031.025-.031.002 0 .002.024.002.054v.054h.42v-.154l-.012-.007-.015-.006-.012.009-.012.009v.11h-.176c-.097 0-.176-.001-.176-.001 0-.001.088-.12.099-.133.002-.003.008-.01.012-.017.005-.006.009-.013.01-.013.001-.001.006-.007.01-.013.005-.006.01-.013.012-.016.002-.002.034-.044.07-.095.037-.05.068-.091.07-.091.002 0 .003.004.005.009.005.028.01.044.014.053.006.011.002.015-.012.015-.007 0-.023.02-.099.122-.05.067-.091.122-.092.124-.001.001.044.002.1.002h.1v-.036c0-.02.001-.037.002-.04.006-.009.073-.056.078-.054.003.001.021.013.04.027l.034.026v.224h-.583l-.006.022c-.007.026-.019.045-.034.055-.014.011-.047.013-.066.006m.726-.256c0-.122.001-.175.003-.177.002-.001.011.005.02.014.009.009.024.024.034.032.016.014.017.016.012.02-.017.01-.016.007-.016.122v.109h.032c.028 0 .034-.001.047-.009.016-.009.017-.008.01.011-.003.007-.007.022-.008.032l-.002.018h-.066-.066v-.174"/><path d="m53.54 62.777c.002-.049.007-.066.025-.081.014-.012.034-.018.057-.016h.017v-.02c.001-.026-.001-.034-.009-.037-.01-.003-.008-.014.004-.021.006-.004.021-.017.033-.029.012-.012.023-.022.025-.022.001 0 .002.048.002.108v.108h.047v-.111c0-.097-.001-.112-.005-.116-.003-.003-.007-.005-.008-.005-.007 0-.002-.013.008-.02.006-.004.021-.017.033-.029.012-.012.023-.021.024-.02.002.001.003.069.003.151v.15h.047v-.307l-.008-.007c-.005-.004-.008-.009-.008-.011 0-.002.011-.013.023-.023.013-.011.027-.024.031-.029.017-.024.017-.028.017.21v.221h-.358v-.045m.101-.033v-.022h-.013c-.018 0-.034.015-.034.032v.012h.047v-.022m.293-.1c0-.122.001-.176.003-.177.002-.001.011.005.02.014.009.009.024.024.034.032.016.014.018.016.013.019-.017.01-.016.007-.016.123v.109h.033c.03 0 .034-.001.046-.009.007-.005.014-.008.015-.007.001.001-.001.009-.004.016-.003.008-.007.023-.008.033l-.002.019h-.066-.067v-.174m-.266-.183c-.006-.002-.012-.006-.015-.009-.003-.004-.002-.004.012-.002.024.003.038-.001.052-.014l.012-.012.016.006c.009.003.018.005.021.004.007-.003.018-.021.017-.027-.001-.007.005-.006.009.001.008.015.002.034-.014.04-.008.003-.015.003-.027 0-.015-.003-.017-.003-.024.003-.015.014-.038.018-.059.01m.04-.055c-.008-.006-.025-.034-.026-.043 0-.008.001-.01.007-.011.01-.001.014.005.021.031.007.021.006.028-.002.023"/></g><g fill="#358c55"><path d="m7 5h1v2h-1z"/><path d="m6 6h2v1h-2z"/><path d="m9 5h1v2h-1z"/><path d="m10 6h1v1h-1z"/></g></svg>