<svg xmlns="http://www.w3.org/2000/svg" viewBox="0 0 16 12" enable-background="new 0 0 16 12"><path fill="#0fa0dc" d="m0 0h16v6h-16z"/><path fill="#fad303" d="m0 6h16v3h-16z"/><path fill="#22613e" d="m0 9h16v3h-16z"/><g fill="#e5bf09"><path d="m12.615 3.082l1.385-.082-1.385-.081 1.317-.437-1.36.281 1.159-.763-1.24.623.923-1.037-1.037.922.622-1.24-.762 1.159.281-1.359-.438 1.317-.08-1.385-.081 1.385-.438-1.317.281 1.359-.762-1.159.622 1.24-1.036-.922.922 1.037-1.24-.623 1.159.763-1.36-.281 1.318.437-1.385.081 1.385.082-1.318.436 1.36-.28-1.159.762 1.24-.623-.922 1.038 1.036-.923-.622 1.24.762-1.159-.281 1.359.438-1.317.081 1.385.08-1.385.438 1.317-.281-1.359.762 1.159-.622-1.24 1.037.923-.923-1.038 1.24.623-1.159-.762 1.36.28z"/><circle cx="12" cy="3" r=".591"/></g><path fill="#0fa0dc" d="m12 3.624c-.344 0-.624-.279-.624-.624 0-.343.28-.623.624-.623.343 0 .623.28.623.623 0 .344-.28.624-.623.624m0-1.182c-.309 0-.559.25-.559.558 0 .309.25.559.559.559.308 0 .558-.25.558-.559 0-.308-.25-.558-.558-.558"/></svg>