<svg xmlns="http://www.w3.org/2000/svg" viewBox="0 0 16 12" enable-background="new 0 0 16 12"><switch><g><g><path fill="#010101" d="m0 0h16v12h-16z"/><path fill="#ce2028" d="M0,0h16v12L0,0z"/><path fill="#fbd118" d="m9.906 3.486c-.118.153-.398-.153-.733-.16-.335-.007-.572.321-.67.433-.098.111-.411.698-.404.761.007.063.195-.175.265-.216.008.083-.076.181-.056.21.021.028.244-.168.321-.175.021.056-.042.112-.021.195.028.028.154-.14.238-.174.014.063-.077.182-.028.258.034.007.244-.237.313-.265.07-.028-.034.23 0 .251.063-.042.259-.265.321-.293.063-.028-.007.286.021.286.077-.056.273-.321.294-.363.021-.042-.021.405.195.642.216.237.544.509.579.509.042-.077-.014-.237.021-.231.098.105.278.259.32.259s-.027-.168.028-.168c.111.105.433.517 1.06.705-.042-.119-.133-.224-.14-.279.042.007.188.077.217.07.027-.007-.308-.418-.286-.475.076-.007.111.042.14.007-.035-.056-.328-.384-.328-.461 0-.077.091.014.118 0 .028-.014-.111-.307-.083-.342.027-.035.334.189.411.189s.021-.272.056-.286c.035-.014.293.146.35.146.056 0 .049-.119.069-.104.021.014.628.621.419 1.333-.209.509-.628.781-1.242.558.035.056.363.328.719.23.355-.098.789-.377.74-1.074-.049-.698-.279-.796-.315-.9-.035-.105.056.028.133.056.076.028-.015-.146-.035-.224-.021-.077.23.161.293.182s-.146-.572-.209-.614c-.063-.042.063.014.104.028.042.014-.384-.649-.475-.649s.077-.035.126-.035-.489-.433-.58-.433c-.09 0 .195-.111.224-.118.049.007-.621-.356-1.222.007-.035-.028.283-.248.293-.342.004-.024-.104-.077-.111-.105s.168-.112.175-.174c-.042-.056-.119-.035-.161-.049-.01-.053.146-.182.133-.237-.01-.031-.125-.042-.153-.021s.073-.147.056-.195c-.014-.021-.069-.007-.125.007-.035-.007.182-.307.139-.349-.041-.042-.628.307-.844.698-.217.391-.049.705-.077.837-.028.132-.063.265-.153.265s-.301-.14-.37-.209-.083-.119-.182-.147c-.098-.028-.321.056-.404.063-.084.007-.412-.063-.433-.042-.021.021.32.147.398.188s.084.098.14.133c.056.035.579.188.412.404m2.045.985c.167.168 1.298.921 1.298 1.842s-.823.894-1.062.866c.266.224 1.271.181 1.271-.866 0-.921-1.298-1.842-1.466-1.926-.167-.083-.209-.083-.041.084"/></g><path fill="#b1b3b6" d="m1 6h1v1h-1z"/><path fill="#b1b3b6" d="m3 4h1v1h-1z"/><path fill="#b1b3b6" d="m5 6h1v1h-1z"/><path fill="#b1b3b6" d="m4 8h1v1h-1z"/><path fill="#b1b3b6" d="m3 10h1v1h-1z"/></g></switch></svg>