<?xml version="1.0" encoding="utf-8"?>
<!-- Generator: Adobe Illustrator 18.0.0, SVG Export Plug-In . SVG Version: 6.00 Build 0)  -->
<!DOCTYPE svg PUBLIC "-//W3C//DTD SVG 1.1//EN" "http://www.w3.org/Graphics/SVG/1.1/DTD/svg11.dtd">
<svg version="1.1" id="Layer_1" xmlns="http://www.w3.org/2000/svg" xmlns:xlink="http://www.w3.org/1999/xlink" x="0px" y="0px"
	 viewBox="0 0 56 56" enable-background="new 0 0 56 56" xml:space="preserve">
<path fill="#FFFFFF" d="M18.5,23.6c1.2-2.6,3.2-4.7,5.7-6c1.1-4.6-1-9.6-5.3-12C18,5.1,17,4.7,16,4.5c4.6,2.8,6.3,8.8,3.6,13.6
	c-2.7,4.9-8.9,6.6-13.8,3.9c-0.6-0.3-1.1-0.7-1.6-1.1c0.9,1.5,2.3,2.9,4,3.8c1.4,0.8,3,1.2,4.5,1.3C14.3,24.6,16.3,23.7,18.5,23.6z"
	/>
<path fill="#FFFFFF" d="M43.1,27c-0.7,0-1.3,0.1-2,0.3c-0.8-5.4-5.4-9.6-11-9.6c-4.9,0-9,3.1-10.6,7.5c-0.2,0-0.4,0-0.7,0
	c-3.5,0-6.4,2.4-7.2,5.7l-0.2,0c-3.1,0-5.5,2.5-5.5,5.5c0,3,2.4,5.5,5.5,5.5l0,0h31.5l0,0l0.2,0c4.1,0,7.5-3.3,7.5-7.5
	S47.2,27,43.1,27z M43.2,38.7c-0.2,0-0.3,0-0.5-0.1H11.8c-0.1,0-0.3,0-0.4,0c-1.3,0-2.4-1.1-2.4-2.4c0-1.3,1.1-2.4,2.4-2.4
	c1.1,0,2.1,0.8,2.3,1.9l1.4-0.7c-0.5-0.7-0.7-1.5-0.7-2.4c0-2.4,2-4.4,4.4-4.4c1.2,0,2.4,0.5,3.2,1.4c0-0.2,0-0.5,0-0.7
	c0-4.5,3.6-8.1,8.1-8.1s8.1,3.6,8.1,8.1c0,1.5-0.4,2.9-1.1,4l1.8,0.8c0.3-2.1,2.1-3.7,4.3-3.7c2.4,0,4.3,1.9,4.3,4.3
	S45.5,38.7,43.2,38.7z"/>
<path opacity="0.4" fill="#FFFFFF" enable-background="new    " d="M43.1,38.7c-0.2,0-0.3,0-0.5,0H11.8c-0.1,0-0.3,0-0.4,0
	c-1.3,0-2.4-1.1-2.4-2.4s1.1-2.4,2.4-2.4c1.1,0,2.1,0.8,2.3,1.9l1.4-0.7c-0.5-0.7-0.7-1.5-0.7-2.4c0-2.4,2-4.4,4.4-4.4
	c1.2,0,2.4,0.5,3.2,1.4c0-0.2,0-0.5,0-0.7c0-4.5,3.6-8.1,8.1-8.1s8.1,3.6,8.1,8.1c0,1.5-0.4,2.9-1.1,4l1.8,0.8
	c0.3-2.1,2.1-3.7,4.3-3.7c2.4,0,4.3,1.9,4.3,4.3C47.5,36.8,45.5,38.7,43.1,38.7z"/>
</svg>
