<?xml version="1.0" encoding="utf-8"?>
<!-- Generator: Adobe Illustrator 17.1.0, SVG Export Plug-In . SVG Version: 6.00 Build 0)  -->
<!DOCTYPE svg PUBLIC "-//W3C//DTD SVG 1.1//EN" "http://www.w3.org/Graphics/SVG/1.1/DTD/svg11.dtd">
<svg version="1.1" id="Layer_1" xmlns="http://www.w3.org/2000/svg" xmlns:xlink="http://www.w3.org/1999/xlink" x="0px" y="0px"
	 viewBox="265.6 156.8 929.6 560" enable-background="new 265.6 156.8 929.6 560" xml:space="preserve">
<path fill="#666666" d="M993.6,582.4c0-16.8,5.6-28,5.6-44.8c0-28-5.6-61.6-16.8-84l100.8-44.8l-22.4-78.4l-112,44.8
	c-22.4-28-50.4-56-84-72.8l50.4-117.6l-78.4-28l-50.4,117.6c-16.8-5.6-33.6-5.6-56-5.6c-16.8,0-33.6,0-56,5.6l-39.2-117.6l-78.4,28
	l50.4,117.6c-33.6,22.4-61.6,44.8-84,78.4l-112-44.8l-28,72.8L484,453.6c-11.2,28-16.8,56-16.8,84c0,16.8,5.6,28,5.6,44.8
	C400,599.2,332.8,616,265.6,644l28,72.8c280-117.6,593.6-117.6,873.6,0l28-72.8C1133.6,616,1066.4,599.2,993.6,582.4z M556.8,565.6
	c0-11.2-5.6-22.4-5.6-33.6c0-100.8,84-184.8,184.8-184.8c100.8,0,184.8,84,184.8,184.8c0,11.2,0,22.4-5.6,33.6
	C797.6,548.8,674.4,548.8,556.8,565.6z"/>
</svg>
