<svg xmlns="http://www.w3.org/2000/svg" viewBox="0 0 16 12" enable-background="new 0 0 16 12"><switch><g><path fill="#009b67" d="m0 12h16v-12z"/><path fill="#006bb6" d="m16 0h-16v12z"/><path fill="#fff" d="M16,2.3916 3.1938,12 0,12 0,9.6084 12.8086,0 16,0z"/><path fill="#ce1141" d="M16,1.6055 2.1406,12 0,12 0,10.3945 13.8564,0 16,0z"/><path fill="#fdb827" d="m3.28 5l.319-.811.693.537-.113-.857.857.113-.531-.688.805-.326-.805-.326.531-.687-.857.113.113-.857-.693.537-.319-.811-.32.811-.693-.537.113.857-.857-.113.531.687-.804.326.804.326-.531.688.857-.113-.113.857.693-.537z"/></g></switch></svg>