<?xml version="1.0" encoding="utf-8"?>
<!-- Generator: Adobe Illustrator 18.0.0, SVG Export Plug-In . SVG Version: 6.00 Build 0)  -->
<!DOCTYPE svg PUBLIC "-//W3C//DTD SVG 1.1//EN" "http://www.w3.org/Graphics/SVG/1.1/DTD/svg11.dtd">
<svg version="1.1" id="Layer_1" xmlns="http://www.w3.org/2000/svg" xmlns:xlink="http://www.w3.org/1999/xlink" x="0px" y="0px"
	 viewBox="0 0 56 56" enable-background="new 0 0 56 56" xml:space="preserve">
<path fill="#FFFFFF" d="M18.9,16.5c-0.5,1-1.2,1.8-2,2.5c0.3,0,0.6-0.1,0.8-0.1c1.2-2.7,3.3-4.8,5.9-6.1c-0.3-3.5-2.2-6.9-5.6-8.7
	c-0.9-0.5-1.9-0.9-2.8-1.1C19.9,5.7,21.5,11.7,18.9,16.5z"/>
<path fill="#FFFFFF" d="M7.5,23.1c0.8,0.4,1.6,0.8,2.5,1c0.4-1,1.1-1.8,1.8-2.5c-2.2,0.4-4.5,0-6.6-1.1c-0.6-0.3-1.1-0.7-1.6-1.1
	C4.4,20.8,5.8,22.2,7.5,23.1z"/>
<path fill="#FFFFFF" d="M42.3,22.3c-0.7,0-1.3,0.1-2,0.3c-0.8-5.4-5.4-9.6-11-9.6c-4.9,0-9,3.1-10.6,7.5c-0.2,0-0.4,0-0.7,0
	c-3.5,0-6.4,2.4-7.2,5.7l-0.2,0c-3.1,0-5.5,2.5-5.5,5.5c0,3,2.4,5.5,5.5,5.5l0,0h31.5l0,0l0.2,0c4.1,0,7.5-3.3,7.5-7.5
	S46.5,22.3,42.3,22.3z M42.4,34c-0.2,0-0.3,0-0.5-0.1H11.1c-0.1,0-0.3,0-0.4,0c-1.3,0-2.4-1.1-2.4-2.4s1.1-2.4,2.4-2.4
	c1.1,0,2.1,0.8,2.3,1.9l1.4-0.7c-0.5-0.7-0.7-1.5-0.7-2.4c0-2.4,2-4.4,4.4-4.4c1.2,0,2.4,0.5,3.2,1.4c0-0.2,0-0.5,0-0.7
	c0-4.5,3.6-8.1,8.1-8.1s8.1,3.6,8.1,8.1c0,1.5-0.4,2.9-1.1,4l1.8,0.8c0.3-2.1,2.1-3.7,4.3-3.7c2.4,0,4.3,1.9,4.3,4.3
	C46.7,32.1,44.8,34,42.4,34z"/>
<path fill="#FFFFFF" d="M39.7,42.6c-1.6-0.7-3.4-0.1-4.2,1.5c-0.7,1.6-0.1,3.4,1.5,4.2c1.6,0.7,3.4,0.1,4.2-1.5
	C41.9,45.2,41.2,43.4,39.7,42.6z"/>
<path fill="#FFFFFF" d="M41.4,38.5l0,6.7l-5.2-2.2L41.4,38.5z"/>
<path fill="#FFFFFF" d="M14.5,42.6c-1.5-0.7-3.4-0.1-4.1,1.4c-0.7,1.5-0.1,3.4,1.5,4.1s3.4,0.1,4.1-1.4S16.1,43.3,14.5,42.6z"/>
<path fill="#FFFFFF" d="M16.3,38.5l0,6.7L11.1,43C11.1,43,16.3,38.5,16.3,38.5z"/>
<path fill="#FFFFFF" d="M26.1,46.8c-1.6-0.7-3.4-0.1-4.2,1.5c-0.7,1.6-0.1,3.4,1.5,4.2c1.6,0.7,3.4,0.1,4.2-1.5
	C28.3,49.4,27.6,47.6,26.1,46.8z"/>
<path fill="#FFFFFF" d="M27.8,42.7l0,6.7l-5.2-2.2L27.8,42.7z"/>
<path opacity="0.4" fill="#FFFFFF" enable-background="new    " d="M42.4,34c-0.2,0-0.3,0-0.5,0H11.1c-0.1,0-0.3,0-0.4,0
	c-1.3,0-2.4-1.1-2.4-2.4c0-1.3,1.1-2.4,2.4-2.4c1.1,0,2.1,0.8,2.3,1.9l1.4-0.7c-0.5-0.7-0.7-1.5-0.7-2.4c0-2.4,2-4.4,4.4-4.4
	c1.2,0,2.4,0.5,3.2,1.4c0-0.2,0-0.5,0-0.7c0-4.5,3.6-8.1,8.1-8.1s8.1,3.6,8.1,8.1c0,1.5-0.4,2.9-1.1,4l1.8,0.8
	c0.3-2.1,2.1-3.7,4.3-3.7c2.4,0,4.3,1.9,4.3,4.3S44.8,34,42.4,34z"/>
</svg>
