<svg xmlns="http://www.w3.org/2000/svg" viewBox="0 0 16 12" enable-background="new 0 0 16 12"><switch><g><g><path fill="#003263" d="m13 5.882h-5.974l5.974 6.118h-10v-12z"/><path fill="#e03a3e" d="m11.272 5.412h-5.364l5.977 6.117h-8.413v-10.707z"/><g><path fill="#fff" d="m5.579 10.277l.294-.676.603.433-.067-.729.726.067-.425-.599.668-.302-.668-.302.425-.599-.726.067.067-.729-.603.433-.294-.676-.295.676-.603-.433.067.729-.726-.067.425.599-.667.302.667.302-.425.599.726-.067-.067.729.603-.433z"/><path fill="#fff" d="m4.812 4.379l.067-.142-.415-.179.445-.104-.3-.327.446.079-.136-.422.373.251.053-.44.232.378.231-.378.053.44.373-.251-.137.422.447-.079-.3.327.445.104-.415.179.067.141c.447-.212.793-.604.946-1.083.004.052.007.103.007.156 0 .953-.769 1.726-1.719 1.726s-1.719-.773-1.719-1.726c0-.05.003-.1.007-.148.154.475.498.865.944 1.076"/></g></g><path fill="#003263" d="m3 0h1v12h-1z"/><path fill="#003263" d="m4 11h9v1h-9z"/><path fill="#003263" d="m5.516 8.215h8.292v1h-8.292z" transform="matrix(.70714.70708-.70708.70714 8.992-4.279)"/><path fill="#003263" d="m3.382 2.525h9.363v1h-9.363z" transform="matrix(.83016.55753-.55753.83016 3.056-3.982)"/><path fill="#003263" d="m6 5h7v1h-7z"/></g></switch></svg>