<svg xmlns="http://www.w3.org/2000/svg" viewBox="0 0 16 12" enable-background="new 0 0 16 12" xmlns:xlink="http://www.w3.org/1999/xlink"><switch><g><path fill="#fff" d="m0 0h16v12h-16z"/><g><path fill="#fed600" d="m9.364 4.549c0-.066-.021-.193-.091-.237-.089-.047-.089-.075-.096-.136-.008-.061.148-.174.148-.174s-.142-.064-.195-.058c-.053.008-.156.018-.17.032-.014.015-.093-.256-.043-.299s.153.1.153.1.068-.156-.17-.455c.082-.584-.463-.72-.587-.716-.104-.014-.37.082-.413.21-.135.046-.142.164-.142.164s-.278.05-.314.292c.164-.136.271.014.271.014s.142.1.217.103c.074.003-.071.249-.114.292-.043.042-.221.206-.213.217s.139.05.131.11c-.007.061-.405.246-.384.292.103-.032.184-.008.184-.008.014.102-.026.218-.095.255h1.923"/><path fill="#fed600" d="m9.259 7.217s.019.213-.073.304c.402.025.621.436.625.533.003.099-.123.175-.123.175s.043.174-.124.202c.003.167-.112.167-.112.167s-.044.138-.178.131c-.04.199-.246.195-.246.195s-.121.291-.298.178c-.113.247-.41.236-.523 0-.062-.003-.2.08-.283-.167-.185.033-.257-.202-.257-.202s-.123-.012-.17-.135c-.145-.029-.12-.174-.12-.174s-.145-.04-.142-.199c-.116-.069-.105-.192-.105-.192s.091-.428.616-.519c-.083-.119-.072-.294-.072-.294l1.584-.003"/><g transform="matrix(-1.48352 0 0 1.48359 758.85 27.399)"><path fill="#fed600" d="m506.98-15.258s.193.208.29.053c.097-.155-.135-.199-.138-.202-.003-.003-.135-.044-.146-.287-.012-.243.29-.401.375-.421.085-.02.334-.02.334-.02s.91-.22 1-.287c.094-.067.954-.225.954-.225s.138-.017.126.106c-.012.122-.126.138-.126.138s.096.076.085.143c-.012.067-.085.175-.237.158.018.24-.316.278-.316.278s-.035.346-.343.328c-.073.237-.348.246-.348.246s-.129.161-.316.172c-.108.269-.342.193-.342.193s.017.169-.091.169c.056.194-.152.22-.231.182-.021.041-.091.167-.252.088-.097.143-.255.076-.255.076s-.035.114-.173.07c-.138-.044.149-.951.147-.957"/><path fill="#fed600" d="m507.57-15.966s-.214.023-.187.354"/><path fill="#fed600" d="m508.39-16.309s.41.281-.357.369"/><path fill="#fed600" d="m508.27-15.978c.003.006.193.231-.158.298.166.158-.147.211-.147.211s.064.166-.123.211c.062.172-.14.164-.14.164s-.006.211-.246.208c.003.143-.164.152-.164.152s-.05.155-.211.108c-.018.109-.129.085-.129.085"/><path fill="#f3ea29" d="m507-14.368s-.009-.149.026-.179"/><path fill="#f3ea29" d="m507.27-14.45c-.003-.003-.07-.138-.047-.161"/><path fill="#f3ea29" d="m507.51-14.535l-.182-.178"/><path fill="#f3ea29" d="m507.74-14.711c-.003-.003-.275-.173-.275-.173"/><path fill="#f3ea29" d="m507.84-14.884c-.003-.003-.155-.067-.161-.123"/><path fill="#fed600" d="m508.17-15.08s-.369.079-.433-.006"/><path fill="#fed600" d="m508.48-15.256c-.014 0-.553.059-.603-.009"/><path fill="#fed600" d="m508.84-15.498c-.009-.003-.638.117-.817.026"/><path fill="#fed600" d="m509.14-15.823c-.014 0-.837.199-.96.138"/><path fill="#fed600" d="m509.45-16.11c-.006 0-.981.228-1.104.134"/><path fill="#fed600" d="m509.58-16.388c-.003 0-.934.305-1.013.228"/></g><g transform="matrix(1.48352 0 0 1.48359 24.1 27.918)"><path fill="#fed600" d="m-9.363-15.602s.193.208.29.053c.096-.155-.136-.199-.138-.202-.003-.003-.134-.044-.146-.287-.012-.243.29-.401.375-.422.085-.02.334-.02.334-.02s.91-.22 1-.287c.093-.067.954-.225.954-.225s.138-.018.126.105c-.012.123-.126.138-.126.138s.097.076.085.143c-.012.067-.085.175-.237.158.017.24-.316.278-.316.278s-.035.346-.342.328c-.074.237-.349.246-.349.246s-.129.161-.316.172c-.108.269-.342.194-.342.194s.017.17-.091.17c.055.193-.153.219-.232.181-.02.041-.091.167-.252.088-.096.143-.254.076-.254.076s-.036.114-.174.07c-.137-.043.15-.951.147-.957"/><path fill="#fed600" d="m-8.766-16.31s-.213.023-.187.354"/><path fill="#fed600" d="m-7.952-16.653s.41.281-.357.369"/><path fill="#fed600" d="m-8.07-16.322c.003.006.194.231-.158.299.167.158-.146.211-.146.211s.065.166-.122.211c.061.173-.141.164-.141.164s-.006.211-.246.208c.003.143-.163.152-.163.152s-.05.155-.211.109c-.018.108-.129.084-.129.084"/><path fill="#f3ea29" d="m-9.34-14.712s-.008-.149.026-.178"/><path fill="#f3ea29" d="m-9.07-14.794c-.004-.003-.071-.137-.047-.161"/><path fill="#f3ea29" d="m-8.828-14.879l-.18-.179"/><path fill="#fed600" d="m-8.599-15.05c-.003-.003-.275-.173-.275-.173"/><path fill="#f3ea29" d="m-8.503-15.227c-.003-.003-.155-.067-.161-.123"/><path fill="#fed600" d="m-8.166-15.423s-.369.079-.433-.006"/><path fill="#fed600" d="m-7.859-15.599c-.014 0-.553.059-.603-.009"/><path fill="#fed600" d="m-7.501-15.842c-.009-.003-.639.117-.818.026"/><path fill="#fed600" d="m-7.199-16.17c-.015 0-.837.199-.961.138"/><path fill="#fed600" d="m-6.887-16.454c-.006 0-.98.228-1.104.134"/><path fill="#fed600" d="m-6.761-16.732c-.003 0-.933.304-1.012.228"/></g><path fill="#3ac2d4" d="m11.865 5.298s-.084 1.214-.089 1.211-.177-.212-.177-.212l-.534 1.674.125.365-.312 1.019-.256-.325-.414.167.332-1.074.309-.22.552-1.649-.307.038.771-.993"/><path fill="#3ac2d4" d="m13.04 5.798s-.645 1.031-.647 1.027c-.003-.005-.057-.271-.057-.271l-1.062.984-1.133 1.093-.004-.225-.387-.048.513-.393.263-.043 1.656-1.501-.289-.11 1.146-.515"/><path fill="none" d="m10.148 8.405c.006-.015.588-.512.588-.512"/><path fill="#3ac2d4" d="m12.701 4.926s-.316 1.174-.32 1.171c-.004-.004-.133-.242-.133-.242l-1.279 2.199.053.382-.461.842-.19-.368-.438.084.49-.891.344-.158 1.295-2.171-.309-.021.947-.828"/><path fill="#3ac2d4" d="m1.689 4.705l.772.004-.077.186.336 1.333.407-1.329-.144-.193h.803l-.172.186-.663 1.904.172.25h-.772l.172-.25-.648-1.896-.186-.193"/><path fill="#3ac2d4" d="m13.524 4.751h.733l-.119.165-.004 1.938.164.184h-.774l.154-.197-.003-1.922-.151-.168"/><path fill="none" d="m7.747 2.997s.094.118.129.129.231.107.221.173c-.011.065-.14.099-.14.099"/><path fill="none" d="m7.902 2.822l.197.188s.035.162.175.149c.14-.013.121-.072.121-.072s-.168-.118-.302-.09"/><path fill="#218541" d="m6.703 8.747l.263-.219s-.058-.12-.267-.115c-.196-.139-.535-.464-.535-.464l-.169-.459c0 0 .138-.039.169-.15.031-.111-.009-.25-.022-.263-.013-.014-.151.022-.191.08s-.102.28-.196.205c-.093-.076.013-.161.013-.161s.094-.115.089-.178c-.004-.063-.124-.249-.138-.254s-.04.245-.076.271c-.036.027-.085.139-.156.076s.035-.156.035-.156.201-.106.005-.458c-.058.15-.169.249-.169.249s-.054.093-.103.013c-.049-.08.058-.155.058-.155s.174-.103.178-.254-.21-.325-.21-.325-.013.28-.08.316c-.067.035-.094.094-.169.031-.076-.063.058-.201.058-.201s.231-.231.218-.365c-.013-.133-.027-.155-.027-.155s-.174.106-.196.16c-.022.054-.093.245-.183.188-.063-.072.053-.21.053-.21s.085-.094.08-.134c-.004-.04-.071-.16-.2-.275-.018-.036-.027-.179-.027-.179s-.098.116-.093.179-.009.186.004.325c.014.138-.107-.045-.107-.045l.022-.445c0 0-.169-.205-.374-.28.076.111.071.218.071.218s-.085.183-.085.231c0 .049.098.263.281.405-.276-.298-.619-.2-.721-.258.049.058.196.275.178.334-.018.058.263.178.263.178l.298.005c0 0 .147.103.161.169.013.066-.214-.125-.303-.12-.089.004-.325-.031-.325-.031s.143.134.147.191c.004.059.067.191.151.228.085.035.311.049.311.049s.098-.058.116.004c.018.063-.129.111-.129.111s-.151 0-.201-.04c-.049-.04-.058-.106-.276-.133-.022.183.12.369.12.369s.602-.049.597.08c-.004.129-.498.014-.517-.026-.018-.04.022.254.138.315.116.063.374.031.405.019.031-.014.147-.026.147.04s-.588.12-.597.103.089.227.325.214c.236-.014.338-.085.338-.085s.143-.026.156.031-.143.085-.143.085-.374.009-.387-.01c-.014-.018.085.236.347.231.196-.018.21-.102.25-.115.058-.014.183-.014.201-.009.018.005.329.223.329.223l.793.802"/><path fill="none" d="m4.405 5.229s-.009.428.205.557"/><path fill="none" d="m4.854 5.567s.142.218-.098.298"/><path fill="none" d="m4.115 5.714s-.018.245.414.228"/><path fill="none" d="m5.184 5.928s-.071.174-.245.165"/><path fill="none" d="m5.344 6.319c0 .022.031.259-.196.254"/><path fill="none" d="m4.258 6.222s.285.179.414.165"/><path fill="none" d="m4.32 6.653s.134.143.378.107"/><path fill="none" d="m5.496 6.752c0 .018-.044.155-.143.174"/><path fill="none" d="m4.542 7.07s.107.138.388.063"/><path fill="none" d="m5.763 7.01s-.044.219-.16.223"/><path fill="none" d="m6.03 7.246s-.089.263-.316.223"/><path fill="none" d="m4.988 7.714s.089.08.308-.019"/><path fill="none" d="m4.743 7.446c.018 0 .129.094.396-.049"/><path fill="#fed600" d="m9.971 6.232s.175.168.178.203c.004.034.047.199.092.224s.224.168.248.224c.023.056.182.294.182.294s.146.301.245.325c.098.024.374-.018.431.115.056.133.041.325.041.325s-.066.06-.098.024-.088.175-.185.115c-.133-.283-.482-.237-.482-.237s.076-.119-.234-.224c-.486.084-.629-.424-.629-.424l-.277-.24.49-.725"/><path fill="#fed600" d="m9.691 6.952l.217.101-.018-.185"/><path fill="#fed600" d="m9.998 6.924l.199.098-.08-.161"/><path fill="#fed600" d="m9.988 6.661l.195.106-.09-.203"/><path fill="#fed600" d="m10.299 7.623s-.223-.294-.22-.294.382.074.382.074l-.141-.301.346.091"/><path fill="#fed600" d="m10.943 7.669s.221.049.213.416"/><path fill="#fed600" d="m11.06 7.612s.238-.014.224.357"/><path fill="#fed600" d="m6.957 6.276s-.175.168-.178.203-.075.178-.12.202c-.045.024-.202.183-.227.238-.025.057-.175.302-.175.302s-.172.249-.271.274c-.12.01-.349.032-.404.166-.056.133.03.336.096.336.098.044.143.089.174.054.053.016.022.06.121.002-.075-.096-.066-.189.008-.212.074-.025.196.088.196.088s.044-.206.356-.311c.486.084.617-.308.651-.401.077-.104.195-.133.294-.198l-.521-.742"/><path fill="none" d="m7.245 6.955l-.226.118.018-.16"/><path fill="none" d="m6.946 6.923l-.212.098.097-.165"/><path fill="none" d="m6.952 6.664l-.183.08.065-.135"/><path fill="none" d="m6.637 7.622c.034-.068.207-.281.203-.281s-.356.073-.356.073l.114-.296-.308.061"/><path fill="none" d="m5.999 7.667s-.268.049-.163.38"/><path fill="none" d="m5.883 7.622s-.292.008-.191.371"/><path fill="none" d="m9.104 7.355c0-.004.098.246-.113.29.54-.04.693.576.693.576"/><path fill="none" d="m8.979 7.444s.048.182-.109.272c.565.123.696.711.696.711"/><path fill="none" d="m8.86 7.528c0 .007.054.235-.123.271.351-.094.718.798.718.798"/><path fill="none" d="m8.689 7.63s.091.174-.076.229c.316.032.417 1.069.417 1.069"/><path fill="none" d="m8.581 7.691s.051.192-.112.25c.33-.174.269 1.168.269 1.168"/><path fill="none" d="m8.363 7.702s-.069.203.083.243c-.301-.084-.243 1.164-.243 1.164"/><path fill="none" d="m8.222 7.623s-.047.185.138.278c-.308-.195-.435 1.041-.435 1.041"/><path fill="none" d="m8.711 7.793s.563.54.559.939"/><path fill="none" d="m7.823 7.357c0 .004-.069.29.131.298"/><path fill="none" d="m7.964 7.463c0 .007-.055.243.105.254"/><path fill="none" d="m8.091 7.531s-.098.236.141.269"/><path fill="none" d="m8.214 7.804c-.004 0-.468.432-.54.932"/><path fill="none" d="m8.127 7.76c-.004 0-.591.367-.631.835"/><path fill="none" d="m7.997 7.698s-.653.381-.624.726"/><path fill="none" d="m7.841 7.615s-.486.091-.606.613"/><path fill="none" d="m6.816 4.274s.47.259.806.246c.337-.015.842-.231.842-.231s.449.252.813.217c.365-.034.871-.231.871-.231.301 1.505-.387 2.857-1.684 3.465-1.377-.629-2.046-2.142-1.648-3.465" id="0"/><g transform="matrix(1.48352 0 0 1.48359 24.1 27.918)"><path fill="#fff" d="m-11.648-15.937s.317.175.543.165c.227-.009.567-.156.567-.156s.303.17.548.147c.246-.024.587-.156.587-.156.203 1.015-.261 1.926-1.135 2.336-.928-.424-1.379-1.444-1.111-2.336"/><path fill="#c4203b" d="m-11.531-15.2v.634l.18.303v-.938h-.18"/><path fill="#c4203b" d="m-11.171-15.2v1.149l.18.168v-1.316h-.18"/><path fill="#c4203b" d="m-10.812-15.2v1.453l.18.099v-1.552h-.18"/><path fill="#c4203b" d="m-9.552-15.2v.634l-.18.306v-.941h.18"/><path fill="#c4203b" d="m-9.911-15.2v1.155l-.18.164v-1.319h.18"/><path fill="#c4203b" d="m-10.272-15.2v1.449l-.18.107v-1.557h.18"/><path fill="#263779" d="m-11.648-15.937s.079.044.187.086c.107.043.244.084.357.079.227-.01.567-.156.567-.156s.303.17.548.146c.246-.023.587-.156.587-.156.049.295.074.445.03.738h-2.34c-.03-.292-.028-.424.063-.738"/></g><use xlink:href="#0"/></g></g></switch></svg>