<svg xmlns="http://www.w3.org/2000/svg" viewBox="0 0 16 12" enable-background="new 0 0 16 12"><path fill="#cf1327" d="m0 0h16v12h-16z"/><path fill="#fdd118" d="m2 2h12v8h-12z"/><g fill="#087b5f"><path d="m2 10v-8l6 4z"/><path d="m14 10v-8l-6 4z"/></g><path fill="#f09f00" d="m3 6h1v1h-1z"/><path fill="#cf1327" d="m7 5h2v2h-2z"/><g fill="#fdd118"><path d="m3 0h1v1h-1z"/><path d="m8 0h1v1h-1z"/><path d="m12 0h1v1h-1z"/><path d="m12 11h1v1h-1z"/><path d="m8 11h1v1h-1z"/><path d="m3 11h1v1h-1z"/></g></svg>