<?xml version="1.0" encoding="utf-8"?>
<!-- Generator: Adobe Illustrator 18.0.0, SVG Export Plug-In . SVG Version: 6.00 Build 0)  -->
<!DOCTYPE svg PUBLIC "-//W3C//DTD SVG 1.1//EN" "http://www.w3.org/Graphics/SVG/1.1/DTD/svg11.dtd">
<svg version="1.1" id="Layer_1" xmlns="http://www.w3.org/2000/svg" xmlns:xlink="http://www.w3.org/1999/xlink" x="0px" y="0px"
	 viewBox="0 0 56 56" enable-background="new 0 0 56 56" xml:space="preserve">
<path opacity="0.4" fill="#FFFFFF" enable-background="new    " d="M25.3,28H11.2c-0.2,0-0.4,0.1-0.6,0.1c-1.4,0-2.5-1.1-2.5-2.5
	S9.2,23,10.6,23c1.2,0,2.2,0.9,2.5,2l1.3-0.6c-0.4-0.7-0.6-1.4-0.6-2.2c0-2.4,2-4.4,4.4-4.4c1.3,0,2.4,0.5,3.2,1.4
	c0-0.3,0-0.5,0-0.8c0-4.5,3.6-8.1,8.1-8.1s8.1,3.6,8.1,8.1c0,1.4-0.4,2.7-1,3.9l1.6,0.8c0.3-2.1,2.1-3.7,4.3-3.7
	c2.4,0,4.4,2,4.4,4.4s-2,4.4-4.4,4.4c-0.2,0-0.3,0-0.5-0.1H31.5"/>
<path fill="#FFFFFF" d="M42.5,16.2c-0.7,0-1.4,0.1-2,0.3c-0.9-5.3-5.5-9.3-11.1-9.3c-4.9,0-9.1,3.2-10.6,7.6c-0.2,0-0.4,0-0.7,0
	c-3.4,0-6.3,2.3-7.2,5.4l-0.3,0C7.5,20,5,22.5,5,25.6c0,3.1,2.5,5.5,5.5,5.6l0,0h31.7l0,0l0.2,0c4.1,0,7.5-3.4,7.5-7.5
	S46.6,16.2,42.5,16.2z M42.5,28c-0.2,0-0.3,0-0.5-0.1H11.2c-0.2,0-0.4,0.1-0.6,0.1c-1.4,0-2.5-1.1-2.5-2.5c0-1.4,1.1-2.5,2.5-2.5
	c1.2,0,2.2,0.9,2.5,2l1.3-0.6c-0.4-0.7-0.6-1.4-0.6-2.2c0-2.4,2-4.4,4.4-4.4c1.3,0,2.4,0.5,3.2,1.4c0-0.3,0-0.5,0-0.8
	c0-4.5,3.6-8.1,8.1-8.1s8.1,3.6,8.1,8.1c0,1.4-0.4,2.7-1,3.9l1.6,0.8c0.3-2.1,2.1-3.7,4.3-3.7c2.4,0,4.4,2,4.4,4.4S44.9,28,42.5,28z
	"/>
<path fill="#FFFFFF" d="M25.7,40.8l-2.2-0.7c-0.2,0.2-0.3,0.5-0.2,0.7l1.2,7.4c0.1,0.3,0.3,0.4,0.6,0.2l5.1-5.6
	c0.2-0.2,0.3-0.5,0.2-0.7l-1.4-0.4C28.8,41.6,26,40.7,25.7,40.8z"/>
<path fill="#FFFFFF" d="M15,34.4l-2.2-0.7c-0.2,0.2-0.3,0.5-0.2,0.7l1.2,7.4c0.1,0.3,0.3,0.4,0.6,0.2l5.1-5.5
	c0.2-0.2,0.3-0.5,0.2-0.7l-1.4-0.4C18.1,35.1,15.3,34.2,15,34.4z"/>
<path fill="#FFFFFF" d="M37.2,34.5L35,33.9c-0.2,0.2-0.3,0.5-0.2,0.7l1.2,7.4c0.1,0.3,0.3,0.4,0.6,0.2l5.1-5.6
	c0.2-0.2,0.3-0.5,0.2-0.7l-1.4-0.4C40.3,35.3,37.5,34.4,37.2,34.5z"/>
</svg>
