<svg xmlns="http://www.w3.org/2000/svg" viewBox="0 0 16 12" enable-background="new 0 0 16 12"><switch><g><path fill="#0093c1" d="m0 0h16v4h-16z"/><path fill="#2fb457" d="m0 8h16v4h-16z"/><path fill="#ed174c" d="m0 4h16v4h-16z"/><path fill="#fff" stroke="#fff" stroke-width=".425" d="m4.347 6c0 1.323 1.071 2.396 2.392 2.396.774 0 1.463-.367 1.899-.939-.355.334-.832.537-1.358.537-1.1 0-1.991-.893-1.991-1.993 0-1.101.891-1.994 1.991-1.994.525 0 1 .205 1.358.537-.436-.571-1.125-.939-1.899-.939-1.32 0-2.392 1.073-2.392 2.396z" stroke-miterlimit="10"/><circle fill="#fff" cx="10.02" cy="6" r="1.042"/></g></switch></svg>