<svg xmlns="http://www.w3.org/2000/svg" viewBox="0 0 16 12" enable-background="new 0 0 16 12"><switch><g><g><g><path fill="#294da1" d="m0 0h16v12h-16z"/><path fill="#d1a750" d="m6.242 5.692s.031-.021.042-.024c.012-.003.052-.015.052-.015s.026-.013.04-.013c.015 0 .042.015.052.028.008.014.054.037.054.037s.031.01.037 0c.006-.011.019-.018.034-.018s.017-.014.017-.024c0-.011.006-.024.017-.037.012-.013.034-.021.034-.021s.031-.013.034-.031.034-.032.052-.035c.017-.002 0-.01.046-.005.045.005.052-.01.054-.024.003-.013 0-.026.029-.023.028.002.042.002.042-.014 0-.015.026-.023-.019-.036-.046-.014-.043-.003-.046-.024s0-.018-.03-.021c-.031-.003-.015-.018-.018-.034-.003-.016-.011-.024-.017-.034-.006-.011-.022-.011-.022-.026 0-.015-.003-.023-.019-.023-.018 0-.023 0-.023-.016 0-.015.004-.028.019-.028.018 0 .026-.014.023-.029-.003-.016-.003-.05-.003-.05l.022-.027c0 0 .068-.055.074-.065.006-.011.029-.019.04.002s.017.027.025.037c.009.011.034.003.04-.008s.008-.049.023-.07c.016-.021.025-.031.029-.048.004-.017.012-.031.029-.031.019 0 .03-.023.03-.038s.008-.027.029-.031c.022-.004.034-.017.041.003.008.02.016.02.03.027.015.007.037.017.048.007.011-.01.017-.027.033-.017.016.01.027 0 .031-.021.004-.02.008-.047.008-.047s.003-.014.029-.014.008-.017.022-.027.015-.02.033-.014c.018.007.048-.008.033-.025-.016-.017-.048-.044-.029-.065.018-.021.025-.055.008-.059-.019-.003-.045.004-.049-.017s-.011-.034.012-.038.06-.003.07-.014c.012-.011.049-.017.049-.048 0-.03.011-.034.015-.051s.004-.053-.011-.069c-.016-.017-.038-.042-.041-.051-.004-.01-.019-.027-.042-.034-.021-.007-.041-.01-.041-.027 0-.017.016.003.016-.042 0-.044-.03-.051-.03-.051l-.044-.027c0 0-.079-.021-.101-.021s-.046-.022-.021-.037c.024-.014.03-.039.021-.059-.01-.019-.016-.034-.049-.042s-.043-.017-.027-.036c.016-.02.019-.034.037-.02.018.014.048.02.072.008.024-.011.033-.019.046-.008.012.011.027.022.046.006.018-.017.051-.02.066-.011.016.008.052.005.064 0 .012-.006.036-.025.036-.037s.015-.031.03-.039.033-.037.049-.037c.015 0 .021-.017.021-.028s.012-.034.015-.042.033-.02.055-.003.049.022.049.022.03.006.046 0c.015-.005.036-.011.058.003.021.014.052.014.052.014s.006-.022.006-.034.006-.031-.006-.04c-.013-.008-.027-.019-.004-.036.025-.017.025-.014.049-.014.024 0 .04.003.059.003.018 0 .048.017.048.034s.013.028.027.036c.016.009.034.017.027.031-.006.014-.006.025.013.022.018-.002.024.008.024.022s.006.022.024.028c.018.006.027.017.027.031 0 .014-.004.022.003.036.006.014.024.037.024.037s.033.039-.01.019c-.042-.019-.052-.028-.066-.025-.016.003-.024.011-.024.011s-.021.006-.036.006c-.016 0-.031.031-.007.036.024.006.034.011.034.031 0 .02-.01.014-.021.028-.013.014-.021.005-.043.005s-.027.017-.027.034c0 .017.01.014.019.028.009.014.024.017.039.003.016-.014.027-.022.037.003.009.025.021.025.039.025s.024 0 .04-.008c.015-.008.033 0 .036.022s.019.025.033.034c.016.008.024.014.027.028.003.014.013.019.027.011.016-.008.04-.014.049-.002.009.011.024.033.024.033l.003.028.058.019c0 0 .006.014.006.025s.01.017.024.014c.016-.003.043 0 .043 0s.021-.008.021-.025c0-.017.009-.022.024-.022.015 0 .049.012.058-.005s.036-.022.058-.014c.021.009.076.031.076.031s-.006.002.012.03c.019.028.052.028.052.028s.003.025.009.036c.007.011.034.017.049.006.016-.011.037-.025.055-.025.019 0 .031 0 .031-.011s-.019-.019-.019-.036c0-.017.019-.017.021-.034.004-.017.021 0 .034.008.012.008.027.022.027.034s.024.05.039.056c.016.005.055.008.067-.006.012-.014.042-.019.039.014s-.009.036.013.047c.021.011.024.05.006.062-.019.011-.024.014-.024.033s-.006.042.009.053c.016.011.024.02.024.031 0 .011.019.061.019.061s.009.051.006.062-.009.031.019.028.033-.003.033.019.009.031-.006.039c-.016.009-.024.037-.01.042.016.006.027.014.031.025.003.011.027.031.042.019.016-.011.019-.017.03-.019.013-.003.021-.011.01-.025-.013-.014-.016-.028-.004-.036.013-.008.019-.037.019-.037s.019-.025.04 0c.021.025.023.017.039.017s.021.014.021.028.03.011.03.034.006.076.006.076 0 .031.019.042.016.014.006.028c-.009.014-.006.037-.006.048 0 .011.006.017-.009.028-.016.011-.021.025-.013.042.01.017.006.028.03.047s.021.028.021.042c0 .014.024.034.024.048 0 .014.019.031.033.034.016.002.033.028.033.042s.004.05.004.05-.004.008.015.008.03.019.036-.002c.007-.022.025-.025.037-.031.012-.005.036-.017.049-.008.012.008.027.008.039.008s.07.003.07.003.015-.003.024.019c.009.022.036.048.021.059-.015.011-.015.034.004.034.018 0 .036 0 .036.014 0 .014.003.025.019.017.015-.008.023-.011.03 0 .006.012.019.012.033.02s.021.002.03-.008c.01-.012.046-.022.046-.022s.048-.011.066-.006c.019.006.043.017.043.017s.012.028.006.045c-.006.017-.012.014-.006.039.006.025-.006.028-.019.025-.012-.003-.024-.003-.024.019s-.012.028-.012.048 0 .017-.013.025c-.012.008-.015.022.004.025.018.003.012.022.012.034s-.003.036-.003.036.003.014-.019.014-.039-.003-.043.011c-.002.014-.027.036-.006.05s.016.022.004.028c-.013.006-.021.034.002.042.025.009.021.017.007.028-.016.012-.046.019-.046.036s-.006.017-.024.021c-.019.002-.027.024-.006.053.021.027.027.022.042.022.016 0 .016-.022.016-.022s.052.002.066.002c.016 0 .037 0 .049-.008.013-.008.046-.022.046.003s.006.022.021.034c.015.011.019.002.03.019.012.016.016.002.024-.018s.027-.039.042-.017c.016.022.016.017.034.017s.024.009.024.022c0 .015.018.015.039.011.021-.002.024.012.033.025.01.015.013.012.024.012.013 0 .024 0 .034-.012.009-.011.021-.025.033-.008.012.017.036.014.042-.006.007-.019.034-.036.049-.014.016.021.027.021.043.025.015.002.036.002.046.017.009.014.039.036.018.053s-.045.039-.027.045c.019.006.03.011.043.025.012.014.051.019.069.022s.034.006.055-.012c.021-.017.043-.017.04.006s.009.048.009.048.016.036.016.05c0 .015-.003.018.024.034s.023.028.045.011c.021-.017.027-.025.027-.039s0-.045 0-.045.031-.006.043-.014.06-.033.072-.022c.013.011.027.009.04.003s.036-.006.049-.006c.012 0 .033.003.058-.017s.024-.014.039 0c.016.014.016.03.007.042-.01.012 0 .036.021.036.021 0 .027.012.027.025 0 .015.004.034.007.045s.003.017.036.025c.033.008.027.028.033.042s.006.025-.012.025c-.019 0-.024.008-.027.021-.003.015-.03.019-.03.019l-.027-.005c0 0-.019 0-.027.011-.01.012-.027.034-.016.054.013.019.013.03 0 .039-.012.009-.019.05-.03.042-.012-.009-.027.003-.039.008-.013.006-.01.045.015.06.024.014.03.033.03.033l.027.042c0 0-.009.009-.015.022-.007.015-.024.042-.007.048.019.006.01.036-.009.036s-.039-.009-.042.015c-.004.021-.013.017-.031.014-.018-.003-.063-.014-.076.008-.012.022-.015.031-.036.028-.021-.003-.012.034-.006.048s.027.033.027.033.019.014.019.042-.013.025-.024.006c-.013-.019-.036-.017-.04.006-.003.022-.006.056-.027.056s-.03.006-.039.017c-.01.012-.024.031-.024.042 0 .012-.003.022-.019.025-.015.003-.018.033-.018.033s-.037.006-.04.019c-.003.015.003.037-.027.04s-.049.022-.058.036c-.01.014-.012.025 0 .039s.021.059.036.067c.016.009.027.011.024.033s-.021.04.003.04.04.005.03.024c-.009.019-.009.022-.027.031-.018.008-.027.008-.027.03s.007.022-.009.031c-.015.008-.015.019-.015.036s-.007.011-.025.031c-.018.019-.042.019-.057.014-.016-.006-.019-.006-.021-.022-.004-.017-.031-.017-.046-.014-.015.002-.036.019-.036.019s-.027.017-.016.03c.012.015.006.036-.016.034-.021-.003-.069.022-.085-.003-.015-.025-.058-.042-.063-.009-.006.034.019.031.016.064-.004.034-.01.034-.021.045-.013.012-.013.02-.016.033-.003.015-.006.045.016.057.021.011.03.042.03.059s0 .033.021.033c.021 0 .039-.002.042-.021s.046-.031.049.008.003.059.019.076c.015.017.027.039.039.047.013.009.033.08.033.08-.03.006-.038.045-.057.053-.011.004-.023 0-.032.008-.008.005-.008.016-.018.021-.023.01-.019-.024-.045-.012-.024.011-.027.039-.062.027-.019-.007-.03-.078-.035-.095-.003-.01-.023-.039-.028-.048-.021-.031-.062 0-.074-.01-.021-.014-.012-.037-.043-.04-.063-.004-.018.038-.045.048-.051.019-.051-.048-.089-.018-.015.012.023.019.014.038-.007.016-.044.041-.042.06.003.026.031.033.039.056.023.057-.015.097-.072.052-.031-.024-.038-.071-.087-.068-.012.001-.016.013-.026.015-.012 0-.021-.011-.033-.008-.018.007-.002.02-.006.029 0 0-.024.021-.028.026-.014.019-.009.034-.028.049-.018.013-.03.005-.049.024-.019.021-.02.051-.045.07-.012.01-.02-.029-.035-.004-.002.004-.005.008-.006.011-.004.008-.005.011-.001.02.032.062-.035.085-.056.128-.009.019.016.035.006.049-.007.011-.036.039-.038.046-.003.007-.006.021-.011.025-.006.005-.023.003-.025.011-.002.01.02.018.024.024.007.007-.003.018-.001.021.034.033.014.023.031.054.002.004.013-.004.017.007s-.008.01-.004.023c.001.003.025.034.025.035.001.011-.046.032-.057.032-.029.001.024-.06-.023-.06-.021 0-.021.048-.027.052-.002.002-.021 0-.025 0-.031 0-.051.038-.063.042-.008.003-.024-.005-.037-.003-.013.003-.027.015-.038.015-.008 0-.012-.005-.018-.009-.014-.008-.039-.011-.054-.016-.009-.003-.024.01-.03.007-.01-.007.007-.024-.016-.036-.003-.002-.02-.042-.019-.045.007-.026.016-.055.012-.083-.005-.028-.05-.053-.062-.076-.009-.018-.018-.063-.035-.075-.019-.013-.036-.037-.046-.057-.004-.006.006-.016-.001-.025-.008-.01-.023-.014-.026-.028-.003-.011 0-.048-.013-.056-.015-.008-.106-.02-.13-.021-.012 0-.021 0-.03-.01-.004-.003-.01-.018-.013-.018-.01-.001-.02.004-.029.005-.007 0-.018-.005-.024 0-.029.021-.037.046-.065.067s-.06.021-.09.047c-.018.016-.03.055-.048.072-.008.008-.021 0-.023.004-.015.019-.036.029-.052.047-.003.004-.002.011-.006.014l-.032.008c-.009.002-.024 0-.031.002-.016.005-.015.021-.066.031-.004.001-.011.004-.014.007-.006.004-.011.011-.017.015-.004.003-.016-.002-.021-.002-.014.002-.021.014-.033.016-.027.003-.071-.014-.093-.005-.013.005-.049.045-.062.049-.008.003-.015-.001-.023-.004-.005.006-.016.049-.02.059 0 .001-.059.05-.063.056-.008.008-.011.018-.02.026-.007.007-.017.012-.026.012-.012 0-.03-.009-.042-.011-.021-.004-.088-.007-.107-.002-.021.004-.015.063-.065.068-.03.004-.058.009-.088.012-.003 0-.021-.013-.039-.008-.007.002-.029.024-.029.031v.013c0 .003.007.01.006.011-.012.014-.038.034-.046.05-.002.004-.006.009-.009.012-.007.005-.042.019-.045.024-.009.021.024.041.021.049-.009.027-.045.054-.057.079-.004.011.013.045.012.058-.004.032-.016.074-.014.106 0 .007.004.039.007.043.004.006.012.01.018.016.005.005.046.084.047.092.008.059-.077.038-.028.097.008.009.014.019.022.026.011.011.073.056.073.06.002.009-.05.017-.059.026-.024.023-.045.067-.068.092-.015.016-.027-.001-.047.034-.007.014 0 .044-.008.052-.013.013-.022-.004-.035.002-.005.002-.008.018-.014.021-.014.012-.135.076-.146.07-.006-.002-.013-.023-.014-.029s-.009-.023-.015-.027c-.031-.026-.079-.031-.109.001-.008.009-.009.021-.019.029-.017.015-.035.026-.052.041-.003.003-.013.013-.016.013-.013-.002-.042-.035-.05-.045-.014-.016-.053-.055-.057-.072 0-.063-.049-.127-.069-.188h.03c.034-.023.024-.08.086-.058.008-.011.007-.021.021-.029.005-.003.015-.006.018-.011.021-.031.045-.151.023-.183-.019-.028-.038-.026-.054-.073-.004-.012.004-.027 0-.041-.003-.011-.023-.077-.026-.082-.004-.006-.017-.013-.018-.017 0-.005-.005-.077-.003-.083-.021-.057-.09-.092-.093-.098-.009-.014-.018-.031-.026-.046-.011-.018-.011-.026-.017-.044-.002-.007-.014-.014-.015-.021-.001-.016.04-.046.039-.072-.001-.008-.026-.033-.021-.047.005-.015.032-.048.031-.065-.002-.021-.042-.068-.048-.092-.002-.011.017-.02.012-.027-.005-.01-.048-.049-.055-.06-.005-.009.016-.02.001-.035-.014-.014-.002-.009-.006-.021-.005-.014-.021-.025-.026-.039-.005-.013-.041-.145-.041-.151-.006-.01-.017-.017-.021-.026-.006-.009-.008-.026-.013-.033-.001-.001-.041-.013-.048-.024-.007-.01-.008-.042-.019-.059-.006-.008-.014-.006-.021-.012-.005-.004-.004-.012-.008-.017-.012-.018-.036-.002-.053-.063-.022-.015-.043-.028-.063-.048-.004-.003-.006-.007-.01-.01-.016-.006-.038-.008-.051-.02-.008 0-.049-.001-.053-.004-.005-.003-.01-.021-.013-.021-.021-.005-.056-.003-.074-.018-.015-.013-.018-.073-.043-.065-.003-.002-.007-.003-.011-.002-.017-.021-.074-.024-.099-.039-.007-.004-.028 0-.028-.007.005-.012.004-.021.004-.033-.013-.013-.021-.027-.03-.036-.021-.006-.014-.008-.027-.016-.038-.003-.042.004-.065.025-.007.006-.019.008-.026.012-.013.007-.017.03-.035.02-.006-.004-.01-.01-.015-.014-.01-.009-.016-.004-.021-.021-.031-.017-.117.041-.138.001-.015-.008-.024.002-.037-.011-.006-.007.017-.076-.046-.105.015-.011.03-.019.044-.029.003-.008-.001-.019-.001-.027 0-.012.008-.035.005-.043-.002-.009-.011-.016-.015-.025-.003-.01.001-.022-.004-.033-.004-.003-.016-.01-.019-.01-.017-.013-.033-.021-.047-.038-.003-.003-.005-.01-.009-.012-.012-.009-.049-.019-.048-.037.001-.006.009-.007.012-.012.002-.008 0-.017.006-.023.018-.023.056-.013.05-.057-.003-.019-.017-.037-.021-.058-.007-.005-.008-.014-.014-.019-.038-.003-.033-.043-.047-.052-.04-.027-.07-.011-.026-.064.007-.018-.038-.045-.048-.055-.016-.016-.008-.048-.014-.064-.004-.009-.03-.023-.039-.035-.002-.004-.009-.021-.013-.024l.001-.005c.009-.007.004-.019.002-.027-.006-.005-.018-.004-.021-.007-.037-.033-.081-.048-.129-.066-.013-.006-.009-.016-.019-.021-.009-.005-.073-.033-.078-.032-.008-.002-.013-.03-.019-.039-.004-.009-.022-.024-.022-.025.001-.026-.016-.029-.036-.043.002-.004-.002-.013-.002-.017s.014-.05.016-.056c.004-.01.017-.019.015-.03-.003-.018-.005-.045-.012-.061-.021-.055-.045-.048-.032-.119.004-.015-.002-.022.01-.036-.002-.001.006-.008.006-.009.007-.007.026-.017.029-.022.012-.015.019-.05.033-.061.011-.008.041-.024.047-.031.004-.006.011-.022.007-.03-.011-.006-.021-.003-.032-.005-.003-.001-.017-.011-.027-.013-.003-.003-.009-.008-.009-.012l-.005-.005c-.012-.001-.025-.009-.036-.013-.014-.006-.032-.006-.046-.014-.023-.014-.051-.053-.074-.059-.032-.007-.053.003-.084.005-.019.001-.019-.011-.035-.016-.021-.007-.006.011-.054-.004-.007-.005.003-.022.004-.028-.008-.002-.017.002-.026 0-.04-.01-.025-.046-.035-.07-.005-.006-.021-.004-.029-.005-.002-.001-.003-.004-.002-.005l.004-.003c.006-.011-.018-.037-.018-.041.002-.009.052-.017.059-.017.002-.006-.005-.012-.006-.019-.001-.014.008-.032.013-.044l-.002-.005c-.014-.008-.019-.019-.03-.028.001-.006.009-.01.011-.017.023-.065.06-.013.092-.073.003-.006.013-.021.015-.03l.007-.001c.006.001.015.006.021.004.004-.006.014-.008.021-.011l.012.003c.06-.013.046-.034.08-.059.009-.006.035-.009.048-.014.013.006.031.026.056.035.018.007.077.019.087.025.013.007.016.023.026.03.034.019.015-.013.047-.007.034.008.061.035.093.048.005.002.019-.001.024-.002.01-.002.063-.012.068-.01s.015.008.021.009c.007.002.014-.015.019-.014.022.004.023.013.054.01.002 0 .016-.085.03-.09.009-.002.031.021.038.021.012.003 0-.017-.001-.019-.003-.007-.019-.06-.019-.064.001-.003.016.004.021.002.018-.005.04-.01.053-.023.001-.002.027-.039.027-.04.002-.007-.007-.021-.003-.026.004-.004.019-.01.025-.017.01-.01.011-.026.024-.034.055-.005.073-.047.122-.052.003 0 .014-.002.017-.002l.01.016c.003.004.035.023.041.022.004-.001.006-.009.011-.01.01.001.037-.016.04-.024.001-.002-.006-.01-.003-.016.003-.004.037-.029.042-.032.013 0 .025-.002.037.002.006.003.007.014.015.015.009.001.023-.003.03-.001.006.001.01-.013.018-.014l.002.002"/></g><path fill="#fff" d="m12.06 2.519l-.175.543h-.576l.468.338-.18.543.463-.338.462.338-.177-.548.464-.331h-.572z"/><path fill="#fff" d="m10.484 1.946l-.174.543h-.576l.468.338-.18.543.462-.337.463.337-.177-.547.464-.332h-.572z"/><path fill="#fff" d="m8.837 1.655l-.175.544h-.575l.467.338-.179.543.462-.337.462.337-.177-.548.465-.331h-.573z"/><path fill="#fff" d="m7.164 1.655l-.176.544h-.575l.468.338-.18.543.463-.337.462.337-.177-.548.464-.331h-.572z"/><path fill="#fff" d="m5.516 1.946l-.175.543h-.575l.467.338-.18.543.463-.337.463.337-.178-.547.465-.332h-.573z"/><path fill="#fff" d="m3.943 2.519l-.175.543h-.575l.467.338-.18.543.463-.338.462.338-.177-.548.465-.331h-.573z"/></g><path fill="#fff" d="m3 3h1v1h-1z"/><path fill="#fff" d="m5 2h1v1h-1z"/><path fill="#fff" d="m12 3h1v1h-1z"/><path fill="#fff" d="m10 2h1v1h-1z"/></g></switch></svg>