<svg xmlns="http://www.w3.org/2000/svg" viewBox="0 0 16 12" enable-background="new 0 0 16 12"><path fill="#fff" d="m0 0h16v12h-16z"/><path fill="#cc1417" d="m0 0h16v3h-16z"/><path fill="#0c682f" d="m0 9h16v3h-16z"/><g fill="#f4c800"><path d="m8 3.795l-.065.236h-.252l.211.133-.089.234.195-.157.196.157-.089-.236.21-.131h-.25z"/><path d="m6.85 4.114l-.066.237h-.252l.211.132-.089.234.196-.157.196.157-.089-.236.211-.13h-.252z"/><path d="m6.03 4.98l-.065.237h-.252l.211.133-.089.234.195-.157.196.157-.088-.236.21-.131h-.251z"/><path d="m5.77 6.146l-.067.237h-.252l.212.133-.09.234.197-.157.195.157-.088-.236.21-.131h-.251z"/><path d="m8 7.629c.125 0 .211-.104.251-.116.039-.014.045-.033-.003-.049-.025-.008-.112-.013-.155 0 .002-.055-.055-.188-.093-.247-.037.058-.094.192-.092.247-.044-.013-.131-.008-.156 0-.048.015-.041.035-.002.049.04.012.125.116.25.116"/><path d="m7.03 7.747c.124-.019.192-.133.23-.151.037-.02.04-.039-.01-.048-.025-.004-.111.003-.152.022-.007-.054-.082-.177-.128-.231-.028.064-.066.205-.055.259-.046-.006-.131.011-.154.023-.046.022-.036.041.005.048s.14.097.264.078"/><path d="m8 6.6c.118.579.637.979 1.097.338.123.685.773.676.975.25-.351.193-.759.097-.965-.32-.282.307-.778.144-.944-.141-.167-.286-.132-.838-.058-.965.075-.127.263-.123.355-.009.044-.329-.171-.544-.461-.544-.289 0-.505.215-.46.544.092-.114.28-.118.354.009.075.127.11.68-.057.965s-.661.448-.941.14c-.207.417-.615.514-.966.321.202.426.852.435.975-.25.46.64.978.241 1.096-.338"/><path d="m8 7.798c.487 0 1.269.123 1.575.224l-.043.188c-.333-.099-1.066-.21-1.532-.21-.465 0-1.199.111-1.531.21l-.044-.189c.307-.1 1.088-.223 1.575-.223"/><path d="m9.152 4.114l.067.237h.251l-.211.132.09.234-.197-.157-.195.157.088-.236-.21-.13h.251z"/><path d="m9.975 4.98l.066.237h.252l-.212.133.09.234-.196-.157-.196.157.088-.236-.21-.131h.251z"/><path d="m10.233 6.146l.066.237h.252l-.211.133.089.234-.196-.157-.196.157.089-.236-.21-.131h.25z"/><path d="m8.977 7.747c-.124-.019-.193-.133-.23-.151-.037-.02-.041-.039.009-.048.025-.004.111.003.153.022.006-.055.082-.178.128-.231.027.064.064.205.055.259.045-.006.13.012.154.023.045.022.035.041-.006.048s-.14.097-.263.078"/></g></svg>