<svg xmlns="http://www.w3.org/2000/svg" viewBox="0 0 16 12" enable-background="new 0 0 16 12"><switch><g><g><path fill="#fff" d="m0 4h16v4h-16z"/><path fill="#f58220" d="m0 0h16v4h-16z"/><path fill="#008357" d="m0 8h16v4h-16z"/></g><path fill="#002b55" d="m8 7.953c-1.077 0-1.953-.876-1.953-1.953s.876-1.953 1.953-1.953 1.953.876 1.953 1.953-.876 1.953-1.953 1.953m0-3.231c-.705 0-1.278.573-1.278 1.278 0 .705.573 1.277 1.278 1.277.705 0 1.277-.573 1.277-1.277 0-.705-.573-1.278-1.277-1.278"/></g></switch></svg>