<svg xmlns="http://www.w3.org/2000/svg" viewBox="0 0 16 12" enable-background="new 0 0 16 12"><path fill="#fff" d="m0 0h16v12h-16z"/><path fill="#0c682f" d="m0 9h16v3h-16z"/><path fill="#bc1818" d="m0 4h16v4h-16z"/><path d="m0 0h16v3h-16z"/><g fill="#fff"><path d="m5.762 9.926l3.861-6.489c.287.081.495-.282.684-.844.222-.658.402-1.105.365-1.128-.038-.022-.345.35-.818.858-.409.44-.629.8-.406 1.013l-3.86 6.487c-.028.048.144.152.174.103"/><path d="m10.237 9.926l-3.861-6.489c-.287.081-.495-.282-.684-.844-.221-.658-.402-1.106-.364-1.128s.344.35.817.858c.41.44.629.8.407 1.013l3.859 6.487c.028.048-.144.152-.174.103"/></g><path fill="#bc1818" d="M8,9.977C9.321,8.986,9.957,7.664,9.957,6S9.321,3.014,8,2.023C6.678,3.014,6.042,4.336,6.042,6   S6.678,8.986,8,9.977z"/><path d="m6.463 8.108c.282-.629.421-1.327.421-2.104 0-.777-.139-1.476-.421-2.104-.283.629-.421 1.328-.421 2.105 0 .776.138 1.474.421 2.103"/><path d="m9.539 8.108c-.281-.629-.42-1.327-.42-2.104 0-.777.139-1.476.42-2.104.283.628.422 1.326.422 2.104 0 .777-.139 1.475-.422 2.104"/><g fill="#fff"><ellipse cx="8" cy="6" rx=".294" ry=".502"/><path d="m7.877 5.178c-.266-.393-.395-.89-.395-1.497 0-.607.129-1.104.395-1.496v2.993"/><path d="m8.122 5.178c.267-.393.396-.89.396-1.497 0-.607-.129-1.104-.396-1.496v2.993"/><path d="m7.877 6.822c-.266.392-.395.889-.395 1.496s.129 1.104.395 1.496v-2.992"/><path d="m8.122 6.822c.267.392.396.889.396 1.496s-.129 1.105-.396 1.496v-2.992"/><path d="m10 1h1v2h-1z"/><path d="m5 1h1v2h-1z"/><path d="m5 8h1v2h-1z"/><path d="m10 8h1v2h-1z"/></g></svg>