<svg xmlns="http://www.w3.org/2000/svg" viewBox="0 0 16 12" enable-background="new 0 0 16 12"><switch><g><path fill="#f15d2a" d="m0 0h16v6h-16z"/><path fill="#00539f" d="m0 6h16v6h-16z"/><path fill="#fff" d="m16 4h-6.395l-6-4h-1.443l7.2 4.8h6.637z"/><path fill="#fff" d="m16 8h-6.395l-6 4h-1.443l7.2-4.801h6.637z"/><path fill="#009366" d="m6.837 6l-6.837 4.558v1.442h2.163l7.2-4.801h6.637v-2.399h-6.637l-7.2-4.8h-2.163v1.442z"/><path fill="#fec057" d="M6.8369,6 0,10.5576 0,9.5967 5.3955,6 0,2.4033 0,1.4424z"/><path d="M0,9.5967 5.3955,6 0,2.4033z"/></g></switch></svg>