<svg xmlns="http://www.w3.org/2000/svg" viewBox="0 0 16 12" enable-background="new 0 0 16 12"><switch><g><g><path fill="#ffc721" d="m0 0h16v12h-16z"/><path fill="#fff" d="m0 3h16v9h-16z"/><path fill="#ce2028" d="m0 6h16v6h-16z"/><path fill="#4075ba" d="m0 9h16v3h-16z"/><path fill="#3f8f42" d="m0 12l10-6-10-6v12"/><path fill="#fff" d="m1.9 6c0-1.285.898-2.359 2.1-2.632-.193-.044-.394-.068-.6-.068-1.491 0-2.7 1.209-2.7 2.7s1.209 2.7 2.7 2.7c.207 0 .407-.024.6-.067-1.202-.273-2.1-1.348-2.1-2.633"/></g><path fill="#fff" d="m1 4h1v4h-1z"/><path fill="#fff" d="m2 7h1v2h-1z"/><path fill="#fff" d="m2 3h1v2h-1z"/><path fill="#fff" d="m3 3h1v1h-1z"/><path fill="#fff" d="m3 8h1v1h-1z"/><path fill="#fff" d="m4 4h1v1h-1z"/><path fill="#fff" d="m4 7h1v1h-1z"/></g></switch></svg>