<svg xmlns="http://www.w3.org/2000/svg" viewBox="0 0 16 12" enable-background="new 0 0 16 12"><switch><g><path fill="#00817a" d="m0 0h16v3.5h-16z"/><path d="m0 4h16v4h-16z"/><path fill="#fff200" d="m0 8.571h16v3.429h-16z"/><g><path fill="#fff" d="m0 3h16v1h-16z"/><path fill="#fff" d="m0 8h16v1h-16z"/></g><path fill="#ed1c2e" d="M8.584,6 0,0 0,12z"/><path fill="#fff200" d="m3.162 3.841l-.521 1.618h-1.712l1.391 1.01-.534 1.617 1.377-1 1.377 1-.527-1.63 1.384-.987h-1.706z"/><g><path fill="#fff" d="m3.168 5.71c-.267-.06-.54-.066-.835.044l-.11.118-.333 1.076h1.061c.033.063.144.096.217.096.074 0 .187-.033.219-.096h1.061l-.333-1.076-.109-.118c-.295-.11-.57-.104-.838-.044"/><g><path fill="none" d="m3.168 6.81c.17-.106.728-.177 1.049-.089"/><path fill="none" d="m3.168 6.81c.076.002.182.072.219.139"/><path fill="none" d="m4.217 6.721c.016.052.139.198.231.228"/><path fill="none" d="m4.217 6.721l-.211-.967"/><path fill="none" d="m3.168 6.81c-.169-.106-.726-.177-1.047-.089"/><path fill="none" d="m3.168 6.81c-.075.002-.18.072-.217.139"/><path fill="none" d="m2.121 6.721c-.015.052-.139.198-.231.228"/><path fill="none" d="m2.121 6.721l.212-.967"/><path fill="none" d="m3.168 6.81v-1.1"/></g></g><path d="m3.759 5.398l-.098-.107-.173.157c.014.046-.047.09-.104.142s-.376.34-.376.34c-.053-.058-.106-.124-.1-.148l-.03.027c-.006.024.021.06.074.118l-.15.136c.119.119.366.201.623.201l-.012.247c-.358 0-.624-.111-.794-.282l-.047.042c-.012.029.047.083.079.118l-.185.168c.002.048.027.125.062.207.032.074.027.082-.027.132s-.072.029-.097-.027c-.017-.04-.03-.075-.038-.148-.008-.072-.092-.07-.118-.121l.141-.129.095.005.098-.088-.063-.069-.077.069c.015.017.041.048.061.046-.036.008-.072-.008-.086-.022l-.262.237c.007.012-.03.063-.057.097-.095.118-.309.397-.475.593-.024.028-.044.017-.06-.001-.065-.074-.139-.147-.213-.233-.016-.019-.028-.043-.015-.056.195-.183.25-.231.316-.283.061-.048.092-.057.182-.078.116-.112.131-.125.2-.191.008-.009.031-.008.037-.003l.391-.355.04.036.059-.084.271-.246-.022-.023-.292.265-.057-.036-.028.025.036.015-.388.352c-.016.015-.022-.02-.02-.055.002-.036.006-.085.005-.101.016.009.036-.003.059-.022l.618-.514c-.003-.01-.002-.023.017-.04.018-.017.18-.164.196-.178-.01.008-.01.058.032.103.03.034.071.056.086.041l.302-.273-.017-.02-.285.258c-.01.008-.043-.003-.066-.029-.018-.02-.03-.045-.018-.055l.322-.293c-.012.016.021.052.059.094l.014-.012c-.032-.036-.049-.059-.038-.07l.245-.207.143.007.196-.177c-.002-.029-.006-.071-.005-.093.002-.032.008-.065.037-.034.028.032.057.063.057.063l.013-.012.032.035c0 0 .044-.04.067-.061.014-.013.064.042.051.055-.021.019-.032.029-.032.029l.027.03.742-.542c.043-.03.089-.044.021.023l-.68.622c-.035.035-.041.025-.073-.007l-.432.392"/><path d="m2.561 5.088c.021.021.061.034.125 0 .231.258.734.829 1.915 2.18.04.048.136-.046.094-.094-1.181-1.351-1.684-1.921-1.915-2.18.018-.021.028-.069.012-.095-.043-.05-.086-.098-.133-.147-.051-.055-.051-.083-.123-.106-.066-.021-.106.005-.137.03-.03.026-.054.076-.056.095-.003.03-.018.04-.036.058-.031.031-.058.018-.138-.005s-.093-.048-.196.1c-.199.286-.289.414-.484.693l.317.359c.267-.35.359-.475.581-.763.029-.039.033-.075.033-.107 0-.021-.002-.059-.002-.082 0-.039-.006-.058.013-.08.056-.003.144-.043.152-.098.004.053-.067.121-.144.117.037.034.087.094.12.127"/></g></switch></svg>