<svg xmlns="http://www.w3.org/2000/svg" viewBox="0 0 16 12" enable-background="new 0 0 16 12" xmlns:xlink="http://www.w3.org/1999/xlink"><path fill="#004996" d="m0 0h16v6h-16z"/><path fill="#e40520" d="m0 6h16v6h-16z"/><g fill="#fff"><path d="m5 4h6v4h-6z"/></g><g fill="#e40520"><path d="m5.518 6.744c-.177-.004-.035.121-.163.137-.038.004-.109.027-.114.08.052-.062.172-.002.216-.047.042-.045-.02-.084.076-.084.03 0 .054-.009.071-.018l-.086-.068"/><path d="m10.48 6.744c.179-.004.037.121.164.137.039.004.109.027.114.08-.052-.062-.171-.002-.216-.047-.042-.045.02-.084-.076-.084-.029 0-.054-.009-.071-.018l.085-.068"/></g><g fill="#fff"><path d="m5.831,6.986-.35-.271"/><path d="m10.168 6.986l.352-.271"/><path d="m5.955 7.229l-.133-.235.012-.006.169.221z"/><path d="m6.178 7.177l-.352-.181.005-.01.375.157z"/><path d="m6.07 7.213l-.245-.219.011-.008.273.2z"/><path d="m5.826 7l-.051-.001.013-.034.046.023z"/><path d="m5.822 6.994l-.009-.043.043.004-.017.043z"/><path d="m5.831 7l-.052-.031.032-.023.034.046z"/><path d="m10.04 7.229l.134-.235-.012-.006-.169.221z"/><path d="m9.822 7.177l.352-.181-.006-.01-.374.157z"/><path d="m9.934 7.213l.245-.219-.011-.008-.272.2z"/><path d="m10.173 7l.05-.001-.01-.034-.047.023z"/><path d="m10.179 6.994l.008-.043-.042.004.016.043z"/><path d="m10.168 7l.052-.031-.031-.023-.035.046z"/></g><path fill="#00793e" d="m9.242 6.908c.219.117.89.295 1.043.379.153.086.655.149.715.189v.524h-6v-.524c.06-.04.56-.103.715-.188.153-.084.824-.262 1.043-.379h2.484z"/><g fill="#e40520"><path d="m8.533 5.986c.043.044.096.25.043.375l.17-.117c.072.152.104.793-.025.933l-.721.165v-.81l.533-.546"/><path d="m7.467 5.986c-.044.044-.096.25-.044.375l-.17-.117c-.071.152-.104.793.026.933l.721.165v-.81l-.533-.546"/></g><g fill="#004996"><path d="m8.721 7.177c.13-.14.098-.78.025-.933l-.17.117c.053-.125 0-.331-.043-.375l.593-.604c.088.071.192.268.192.425l.27-.184c.058.197.093.407.087.537l.183-.104c.098.485-.148.713-.212.803.178.299-.273.556-.521.38-.164-.116-.192-.251-.404-.062"/><path d="m7.279 7.177c-.13-.14-.097-.78-.026-.933l.17.117c-.053-.125 0-.331.043-.375l-.592-.605c-.089.071-.193.268-.193.425l-.269-.183c-.059.197-.094.407-.088.537l-.181-.103c-.1.484.147.712.209.803-.177.299.271.556.521.38.167-.117.193-.252.406-.063"/></g><g fill="#fff"><path d="m8.275 5.651l.117.029.062-.45-.117.408-.052-.013c-.018-.002-.024.022-.01.026"/><path d="m8.434 5.682l.11.042.146-.437-.19.39-.052-.02c-.017-.005-.029.018-.014.025"/><path d="m8.576 5.729l.103.055.224-.415-.259.362-.05-.026c-.014-.006-.031.016-.018.024"/><path d="m7.724 5.651l-.116.029-.062-.45.114.408.055-.013c.018-.002.024.022.009.026"/><path d="m7.565 5.682l-.109.042-.147-.437.191.39.053-.02c.014-.005.028.018.012.025"/><path d="m7.423 5.729l-.102.055-.223-.415.259.362.049-.026c.014-.006.031.016.017.024"/></g><g fill="#cf7400"><path d="m7.998 6.662l.304-1.049c.004-.017.047-.006.042.005l-.274 1.052-.072-.008"/><path d="m7.968 6.646l.498-.999c.008-.017.048-.001.04.01l-.468 1-.07-.016"/><path d="m7.94 6.624l.675-.926c.011-.016.048.004.039.015l-.647.937-.067-.026"/><path d="m8 6.662l-.303-1.049c-.006-.017-.047-.007-.042.005l.273 1.052.072-.008"/><path d="m8.03 6.646l-.5-.999c-.007-.017-.047-.001-.04.01l.47 1 .07-.016"/><path d="m8.06 6.624l-.676-.926c-.011-.015-.047.005-.038.015l.647.937.067-.026"/><path d="m9.242,5.295-1.202,1.226-.032-.019 1.203-1.228z"/><path d="m9.724,5.564-1.705,1.216-.026-.024 1.706-1.216z"/><path d="m10.03 5.987l-2.061 1.096-.022-.026 2.062-1.097z"/><path d="m6.757 5.295l1.203 1.226.032-.019-1.202-1.228z"/><path d="m6.276 5.564l1.705 1.216.026-.024-1.706-1.216z"/><path d="m5.97 5.987l2.062 1.096.022-.026-2.061-1.097z"/></g><g fill="#fff046"><path d="m9.299 5.258l.013-.047.066-.003.144-.221-.234.162.011.053-.053.021z"/><path d="m9.295 5.33l.057-.059-.133-.086-.057.058z"/><path d="m9.787 5.536l.024-.044.066.007.189-.199-.267.127v.054l-.057.013z"/><path d="m9.769 5.605l.069-.049-.113-.104-.068.049z"/><path d="m10.1 5.966l.028-.041.066.014.221-.174-.287.094-.009.054-.059.006z"/><path d="m10.07 6.03l.075-.041-.091-.115-.076.04z"/><path d="m6.702 5.258l-.014-.047-.065-.003-.145-.221.234.162-.01.053.052.021z"/><path d="m6.705 5.33l-.056-.059.131-.086.057.058z"/><path d="m6.212 5.536l-.023-.044-.066.007-.189-.199.266.127v.054l.057.013z"/><path d="m6.232 5.605l-.069-.049.112-.104.068.049z"/><path d="m5.902 5.966l-.029-.041-.065.014-.222-.174.286.094.01.054.058.006z"/><path d="m5.934 6.03l-.076-.041.092-.115.077.04z"/></g><path d="m9.279 5.293l.024-.024-.073-.047-.023.023z"/><path d="m9.763 5.567l.028-.019-.062-.058-.029.021z"/><path d="m10.07 5.995l.032-.017-.053-.064-.029.016z"/><path d="m6.719 5.293l-.022-.024.073-.047.022.023z"/><path d="m6.237 5.567l-.028-.019.062-.058.029.021z"/><path d="m5.934 5.995l-.032-.017.051-.064.031.016z"/><g fill="#e40520"><path d="m9.214 5.402c.104.011.173.116.18.161l.052-.033c-.03-.05-.069-.111-.192-.146-.01.005-.03.014-.04.018"/><path d="m9.277 5.317c.016.043.008.054-.053.081-.063.028-.152.021-.153-.001 0-.012-.006-.029-.013-.049.009.031.167.01.219-.031"/><path d="m9.672 5.665c.102.025.146.14.144.184l.058-.025c-.019-.052-.044-.118-.158-.17-.013.003-.033.009-.044.011"/><path d="m9.753 5.591c.005.044-.003.054-.07.072-.066.019-.151 0-.149-.024.002-.011 0-.029-.002-.049.002.033.16.034.221.001"/><path d="m9.961 6.081c.095.036.118.155.109.198l.062-.02c-.01-.054-.021-.121-.128-.185-.01.002-.031.006-.043.007"/><path d="m10.05 6.02c-.004.043-.015.052-.082.062-.073.012-.152-.018-.145-.04.002-.011.005-.029.006-.051-.002.033.153.053.221.029"/><path d="m6.787 5.402c-.104.011-.173.116-.182.16l-.05-.033c.028-.049.067-.11.191-.145.009.005.029.014.041.018"/><path d="m6.723 5.317c-.015.043-.01.054.052.081.063.028.151.021.153-.001 0-.012.005-.029.013-.049-.008.031-.166.01-.218-.031"/><path d="m6.328 5.665c-.101.025-.145.14-.144.184l-.057-.025c.018-.052.042-.118.157-.17.011.003.032.009.044.011"/><path d="m6.247 5.591c-.007.044.002.054.069.072.068.019.152 0 .151-.024-.002-.011 0-.029.001-.049-.003.033-.159.034-.221.001"/><path d="m6.04 6.081c-.095.036-.119.155-.112.198l-.06-.02c.01-.054.022-.121.127-.185.01.002.033.006.045.007"/><path d="m5.946 6.02c.002.043.013.052.082.062.07.012.15-.019.144-.04-.004-.011-.006-.029-.006-.051.002.033-.153.053-.22.029"/></g><g fill="#004996"><path d="m9.277 5.366c.077.011.177.067.216.13l-.048.033c-.029-.049-.068-.11-.191-.145.01-.005.017-.01.023-.018"/><path d="m9.277 5.317c-.053.041-.21.062-.219.031-.005-.018-.013-.039-.02-.061-.012-.046.079-.05.188-.003l.051.033"/><path d="m9.742 5.639c.075.022.16.092.186.159l-.055.026c-.018-.052-.043-.118-.157-.17.011-.005.02-.008.026-.015"/><path d="m9.753 5.591c-.061.033-.219.032-.222-.001-.001-.019-.004-.041-.007-.063-.002-.047.089-.038.186.024l.043.04"/><path d="m10.04 6.06c.069.029.143.108.155.178l-.058.019c-.01-.054-.021-.121-.128-.185.012-.004.022-.005.031-.012"/><path d="m10.05 6.02c-.068.024-.223.004-.221-.029.001-.018.002-.04.005-.062.006-.047.094-.027.178.044l.038.047"/><path d="m6.723 5.366c-.077.011-.177.067-.216.13l.048.033c.028-.049.067-.11.191-.145-.009-.005-.017-.01-.023-.018"/><path d="m6.723 5.317c.053.041.21.062.219.031.006-.018.013-.039.018-.061.013-.045-.078-.049-.186-.002l-.051.032"/><path d="m6.257 5.639c-.074.022-.159.092-.186.159l.056.025c.018-.052.042-.118.157-.17-.011-.004-.021-.007-.027-.014"/><path d="m6.247 5.591c.062.033.218.032.221-.001.002-.019.005-.041.005-.063.005-.047-.087-.038-.184.024l-.042.04"/><path d="m5.964 6.06c-.07.03-.141.109-.154.178l.058.019c.01-.054.022-.121.127-.185-.011-.004-.021-.005-.031-.012"/><path d="m5.946 6.02c.066.024.222.005.22-.028-.002-.018-.003-.04-.005-.062-.006-.048-.095-.028-.179.043l-.036.047"/></g><path fill="#c9cecb" d="m7.973 5.202c-.036-.032.015-.13.015-.193 0-.062.02-.295.018-.375-.004-.081.105-.104.103-.007-.002.1.002.354.009.399.008.045.005.185-.02.203-.018-.023-.092-.041-.125-.027"/><path fill="#cf7400" d="m7.965 5.21c-.024.115-.065.284-.087.467-.033.278.053 1.165.042 1.309 0 0 .173-.004.159 0-.008-.48.018-.607.038-.738.02-.133.009-.317.02-.438.01-.121-.039-.378-.029-.564.003-.05-.131-.091-.143-.036"/><path fill="#fff" d="m8 7.874c.495 0 .88-.025 1.191-.096.045-.01.072-.029.072-.04 0-.009 0-.049 0-.09.171.128.545.016.807.144.103.049.492.214.709.117-.117.012-.278-.015-.342-.062.128.043.311.034.354-.013-.232.066-.476-.118-.635-.17-.291-.095-.564-.029-.874-.13-.127-.041-.211-.017-.211.018 0 .013 0 .094 0 .094-.22.032-.588.07-1.071.07s-.851-.038-1.071-.07c0 0 0-.081 0-.094 0-.035-.084-.059-.21-.018-.31.101-.584.035-.875.13-.161.052-.402.236-.636.17.044.047.226.056.355.013-.064.048-.226.074-.343.062.217.097.606-.068.708-.117.264-.128.636-.016.809-.144 0 .041 0 .081 0 .09 0 .011.026.03.071.04.312.071.697.096 1.192.096"/><g fill="#cf7400"><path d="m8.102 6.775h.241v.039h-.241z" transform="matrix(-.2004.9797-.9797-.2004 16.528.101)"/><path d="m7.657 6.775h.241v.039h-.241z" transform="matrix(.2004.9797-.9797.2004 12.876-2.186)"/></g><g fill="#fff"><path d="m8.141 6.655c.018-.071.074-.067.124-.058.049.009.113.015.155-.043.04.057.034.119-.033.176-.072-.091-.176-.095-.246-.075"/><path d="m8.295 6.568l-.025.12-.051-.008.025-.119z"/><path d="m7.859 6.655c-.017-.071-.075-.067-.125-.057-.048.008-.112.014-.153-.043-.04.056-.035.119.031.175.073-.091.177-.095.247-.075"/><path d="m7.705 6.568l.024.12.052-.008-.026-.119z"/></g><g fill="#c9cecb"><path d="m8.932 7.236c-.113.024-.186.09-.157.156.03.071.147.047.185.026.034-.018.024-.083-.036-.084-.061 0-.041-.05.021-.063l-.013-.035"/><path d="m8.966 7.274c.021-.007.026-.007.017-.032-.011-.026-.015-.024-.038-.017-.021.005-.026.005-.017.031.01.027.014.023.038.018"/><path d="m7.07 7.236c.114.024.185.09.156.156-.029.072-.146.047-.182.027-.036-.019-.027-.084.035-.085.059 0 .04-.05-.022-.063l.013-.035"/><path d="m7.03 7.274c-.021-.006-.028-.006-.016-.032.01-.026.015-.024.036-.018.023.006.027.006.018.032-.01.027-.015.023-.038.018"/></g><g fill="#fff046"><path d="m5.544 7.393c-.045.035-.111.094-.13.137-.007-.012-.015-.025-.025-.036-.022.02-.049.056-.052.09l.485-.121c.016-.029.083-.027.093.007.011.032-.038.057-.077.038l-.472.114c.014.02.048.049.083.059.008-.011.013-.03.017-.039.043.024.13.06.192.059-.062.047-.198.088-.286.062.017-.012.054-.029.062-.044-.049-.03-.154-.068-.226-.084.038-.037.112-.121.136-.159-.024-.003-.074-.006-.094-.006.062-.041.201-.092.294-.077"/><path d="m10.582 7.668c.021-.014.043-.032.051-.045l-.472-.112c-.039.02-.087-.005-.077-.038.009-.033.076-.036.091-.008l.487.119c-.003-.033-.031-.07-.051-.09-.01.011-.021.024-.027.035-.017-.042-.084-.102-.13-.134.094-.016.231.033.295.074-.022.001-.071.004-.095.007.024.037.1.121.139.158-.044.011-.097.027-.143.046l-.068-.012"/></g><g fill="#cf7400"><path d="m5.536 7.534c-.061-.017-.133-.011-.196.049l.196-.049"/><path d="m5.742 7.505c-.014-.035-.027-.1.012-.11.032-.009.063.041.083.089.019.045.022.101-.011.108-.038.008-.071-.051-.084-.087"/><path d="m5.615 7.561c.039.007.081-.008.106-.041.033-.041.1-.062.132-.054.014.004.031.036-.015.039-.047.002-.084.032-.108.064-.019.027-.101.058-.199.013l.084-.021"/><path d="m10.257 7.508c.013-.036.027-.1-.013-.11-.031-.009-.064.042-.083.087-.021.047-.021.104.013.111.039.008.069-.052.083-.088"/><path d="m10.463 7.536c.061-.019.134-.011.196.048l-.196-.048"/><path d="m10.384 7.564c-.04.005-.081-.008-.106-.042-.033-.042-.098-.062-.132-.053-.014.003-.03.036.016.038.047.003.084.034.107.065.021.024.101.058.198.012l-.083-.02"/></g><path fill="#00793e" d="m8.337 4.455c-.008-.004-.018-.015-.042-.02.022.001.101-.006.122-.01-.008-.006-.027-.018-.05-.024.039-.007.087-.018.121-.013-.007-.005-.024-.027-.039-.034.038.01.1.016.125.021-.015-.007-.043-.028-.059-.039.037.009.079.016.107.026-.025-.022-.048-.045-.067-.052.043.009.123.035.15.046-.027-.027-.056-.06-.083-.074.071.01.111.039.138.06-.016-.032-.047-.07-.076-.087.071.02.164.053.205.085-.018-.03-.067-.081-.104-.101.057.012.127.033.162.065-.168-.29-.745.017-.901.208-.064-.231-.291-.35-.442-.325.021.02.07.037.111.044-.032-.005-.087.009-.107.02.039 0 .146.013.182.027-.043.004-.094.02-.116.032.049.005.131.016.168.021-.041.005-.08.014-.107.021.033.004.147.028.175.039-.032 0-.079.01-.103.013.026.003.109.031.143.042-.019 0-.06 0-.072-.001.027.012.119.051.134.057l-.05-.004.036.032-.039-.013c-.386-.172-.802-.212-.976.019.016.001.051-.007.064-.011-.032.019-.066.062-.071.078.019-.005.064-.023.091-.046-.001.014.005.036.004.046.032-.026.074-.06.088-.071l.015.03c.015-.014.033-.033.056-.043-.001.01-.004.026-.004.033.024-.018.048-.043.11-.072-.009.005-.015.026-.019.035.019-.018.059-.038.067-.044-.016.019-.024.046-.03.059.065-.035.107-.056.136-.068-.006.01-.011.031-.021.042.024-.007.073-.032.092-.037-.01.01-.034.03-.044.045-.268.062-.551.143-.574.37.017-.016.049-.065.064-.083.003.025.004.078.012.094.009-.011.058-.097.076-.119-.003.016-.003.047 0 .062.012-.02.071-.083.087-.101 0 .025 0 .044 0 .059.023-.02.086-.108.106-.135 0 .016.005.041 0 .064.014-.009.089-.08.11-.106-.011.016-.014.042-.018.06.013-.008.076-.05.087-.062-.005.015-.013.029-.02.038.027-.011.1-.059.107-.064-.012.015-.016.035-.022.049-.191.09-.441.208-.426.457.009-.023.034-.1.044-.106.002.03-.001.069.011.098.012-.022.037-.08.045-.104.005.018 0 .057.009.076.009-.034.062-.139.065-.155.004.031 0 .046 0 .056.008-.018.051-.074.07-.109l.006.026c.024-.046.079-.118.114-.155-.019.02-.029.049-.035.062.021.001.049 0 .063 0-.029.011-.1.041-.111.06.016.001.054-.004.074-.004-.049.021-.12.061-.146.097.028-.009.054-.02.083-.023-.126.076-.163.153-.134.237.009-.05.06-.117.096-.148-.014.033-.039.137-.004.185.012-.048.037-.143.058-.177.003.035.012.067.027.091.009-.057.043-.15.064-.178-.003.021 0 .074.007.088.021-.042.063-.107.069-.13-.006.025-.001.055 0 .067.011-.027.055-.099.066-.115-.004.03.009.06.015.084.014-.041.076-.155.084-.172 0 .018 0 .053-.002.074.054-.092.129-.182.214-.207-.018.013-.076.052-.088.073.008-.003.033-.006.055-.007-.033.012-.095.06-.11.085.023-.003.055-.017.068-.023-.029.016-.082.058-.095.074.018-.012.061-.025.086-.032-.036.018-.103.053-.134.099.017-.005.087-.025.099-.034-.055.035-.11.099-.126.133.027-.018.1-.061.118-.069-.043.028-.132.103-.13.157.018-.012.047-.031.065-.044-.037.044-.046.115-.026.166.008-.014.027-.048.033-.065-.006.028-.01.082.034.133-.001-.029.003-.11.016-.136.002.03.031.058.059.087-.005-.033-.019-.127-.028-.146.016.016.032.073.041.087.008-.032.011-.094.003-.121.013.03.033.059.035.078.008-.062-.008-.157-.015-.189.015.023.04.073.041.087.006-.052.009-.128-.006-.168.011.014.032.04.039.056.017-.018.009-.099-.003-.118.009.012.02.026.033.043 0-.035.006-.084-.004-.102l.016.02c0 0-.016-.072.022-.099-.01.018-.003.084 0 .11.007-.006.04-.014.05-.021-.013.012-.018.06-.019.078.011-.013.034-.028.039-.034-.014.021-.027.062-.037.086.016-.006.042-.03.047-.036-.014.019-.032.068-.037.086.012-.006.043-.027.053-.037-.02.03-.036.072-.046.097.017-.013.069-.034.076-.042-.04.03-.06.095-.076.131.025-.01.063-.032.073-.047-.014.04-.067.139-.085.165.019-.007.073-.05.082-.06-.009.032-.034.088-.053.108.038-.01.085-.052.095-.071-.01.039-.039.127-.059.155.043-.022.095-.064.102-.107.005.03.021.124.008.161.043-.061.054-.176.035-.217.017.017.049.07.049.107.027-.055-.016-.189-.055-.237.031.025.069.069.084.103.007-.052-.054-.165-.104-.197.043.021.1.069.108.087-.023-.071-.062-.146-.14-.191.024.007.075.028.091.042-.018-.035-.055-.083-.091-.106l.059.021c-.02-.022-.054-.074-.077-.086.023.016.059.04.07.053 0-.014-.012-.046-.023-.06.066.048.066.113.069.138.008-.011.019-.046.018-.053.01.037.015.11.014.136.02-.02.039-.046.037-.062 0 .035.004.092-.003.124.024-.02.04-.055.043-.073.004.031 0 .108-.008.131.015-.014.042-.062.042-.082.008.034.018.094.008.125.016-.023.041-.074.04-.093.01.016.039.069.042.091.031-.13-.07-.24-.12-.296.002-.018-.007-.073-.012-.088.031.048.07.097.081.129.009-.014.023-.059.013-.083.02.029.066.093.073.115.007-.018.009-.067-.002-.087.024.029.06.076.074.106.009-.023.009-.067 0-.087.029.032.073.103.08.131.005-.026.016-.067.005-.084.011.021.039.053.047.071.002-.012-.003-.064-.009-.074.021.025.043.053.056.07 0-.018-.003-.049-.013-.063.026.016.087.048.104.089-.02-.142-.393-.298-.573-.315-.012-.013-.044-.059-.044-.066.019.02.072.048.105.064-.008-.026-.023-.05-.027-.061.028.023.071.055.089.069l-.013-.047c.021.015.072.049.091.068v-.047c.02.018.061.047.073.068 0-.012 0-.041-.006-.055.029.024.053.059.068.082.004-.013.004-.048 0-.06.023.028.067.073.075.088.006-.019 0-.067-.007-.08.023.022.061.084.075.106.003-.022.005-.055 0-.075.03.023.066.073.073.093.005-.01.003-.072-.009-.088.031.042.07.104.083.14.007-.025 0-.08-.007-.106.026.028.059.073.061.115.008-.02.013-.087 0-.104.035.029.088.08.098.108.01-.188-.328-.293-.445-.313.001-.008-.02-.031-.027-.039.023.007.088.038.1.051 0-.018-.018-.044-.018-.056.032.021.103.049.12.073.001-.019-.01-.051-.018-.063.029.017.09.059.111.088.004-.015.009-.065-.004-.078.02.026.098.083.111.111.006-.032-.014-.084-.036-.107.042.032.113.095.124.117.001-.027-.021-.092-.045-.114.04.031.088.052.124.126-.004-.297-.716-.281-1.1-.071.018-.012.067-.033.082-.039l-.028-.011.045.003c.015-.005.021-.009.03-.011l-.022-.018.037.013c.008-.004.025-.01.037-.014"/><path fill="#e40520" d="m8.169 4.233c.002.015.004.03.004.046.002.047-.04.042-.139.015s-.117-.066-.1-.086c.02-.025.028-.039.033-.051.003-.011.064-.002.111.017.045.019.086.032.091.059"/><path fill="#004996" d="m8.169 4.233c-.005-.027-.046-.04-.09-.059-.047-.019-.108-.028-.112-.017.003-.01.006-.018.015-.029-.032-.002-.049-.036-.024-.068.023-.034.092-.016.144.015.05.032.063.066.06.09-.001.016.003.04.007.068"/><path fill="#cf7400" d="m8.03 4.238v.327c.008 0 .038.008.048.015v-.327c-.02-.006-.042-.014-.048-.015"/><path d="m6.962 7.677l-.02.079.057.011-.004.017-.085-.013.025-.099z"/><path d="m7.095 7.782c.018.002.025-.006.025-.014.002-.008.014-.066.014-.066l.025.003c0 0-.009.052-.013.065-.002.016-.017.033-.054.028-.038-.004-.045-.023-.042-.04.004-.013.013-.064.013-.064l.025.003c0 0-.011.057-.013.065s.002.017.02.02"/><path d="m7.207 7.71l.038.066.01-.06.025.002-.015.099-.024-.003-.043-.068-.01.064-.025-.003.014-.099z"/><path d="m7.257 7.757h.1v.026h-.1z" transform="matrix(-.1264.992-.992-.1264 15.939 1.504)"/><path d="m7.397 7.828c-.036-.002-.056-.024-.052-.053.001-.031.027-.051.063-.047.034.001.055.023.053.053-.005.031-.028.048-.064.047l.001-.018c.019.001.034-.009.036-.031.002-.02-.008-.034-.029-.035s-.034.012-.035.032c-.002.02.009.034.029.034l-.002.018"/><path d="m7.515 7.734l.043.063.004-.061.028.001-.008.101h-.025l-.048-.067-.004.063-.026-.001.005-.1z"/><path d="m7.7 7.842l.002-.101.09.003v.016h-.063v.021l.053.002v.018l-.054-.002-.002.043z"/><path d="m7.833 7.823l-.009.022h-.026l.045-.101h.031l.039.103h-.024l-.007-.023-.049-.001.005-.016.036.001-.016-.041-.02.04z"/><path d="m7.931 7.745h.028v.102h-.028z"/><path d="m8.02 7.847v-.084h-.039v-.018h.103v.017l-.04.001v.084z"/><path d="m8.218 7.744l.002.082.06-.002v.018l-.086.003-.004-.101z"/><path d="m8.521 7.834l-.009-.101.09-.005v.016l-.062.004.004.023.053-.003v.018l-.054.002.005.043z"/><path d="m8.78 7.775l.006.038-.026.002-.016-.098s.054-.007.072-.008c.02-.003.031.011.034.024 0 .015-.011.025-.019.026.01-.001.019.005.023.017 0 .008.005.029.005.029l-.026.003c0 0-.001-.011-.003-.023-.003-.013-.011-.014-.022-.014-.015.001-.028.004-.028.004l-.002-.02c0 0 .025-.002.034-.004.01 0 .015-.007.014-.015s-.01-.013-.019-.012c-.01.004-.034.005-.034.005l.005.026.002.02"/><path d="m8.947 7.727c-.002-.006-.01-.016-.029-.013-.022.003-.028.016-.023.036.003.02.018.03.036.029.017-.003.024-.015.022-.022l.023-.003c.004.021-.015.037-.043.041-.032.005-.058-.011-.062-.042-.008-.029.009-.052.041-.056.033-.005.054.011.059.026l-.024.004"/><path d="m9.07 7.689l-.065.011.006.022.059-.009.003.016-.059.011.006.026.067-.011.002.016-.09.015-.023-.098.089-.016z"/><path d="m8.328 7.82l-.008.022h-.025l.038-.102h.029l.048.098-.024.001-.01-.021-.048.002.006-.016.034-.001-.02-.04-.014.041z"/><path d="m8.679 7.822c-.035.004-.062-.015-.064-.045-.004-.029.016-.052.051-.053.036-.004.061.013.064.044.003.03-.016.051-.051.054v-.015c.019-.003.03-.016.029-.036-.004-.022-.02-.034-.038-.032-.02.001-.032.016-.029.037.001.019.018.031.038.03v.016"/><path d="m7.02 7.701l.003-.012.018.002c-.004.013-.002.026-.021.027v-.005c.006 0 .009-.004.009-.01l-.009-.002"/><g fill="#fff046"><path d="m8.551 6.779c.088 0 .088.107 0 .107s-.088-.107 0-.107"/><path d="m9.576 6.811l-.113.193-.462.021-.11.148-.735.18c-.126.027-.159-.068-.034-.108l.541-.172.165-.171.748-.091"/><path d="m8.641 6.939l1.37-.162-.037-.205-1.37.164z"/><path d="m9.699 6.606c.024-.004.058.2.036.204.015.01.069.012.075-.009.014-.059 0-.156-.039-.203-.013-.017-.066-.01-.072.008"/><path d="m9.916 6.58c.023-.004.058.203.035.203.016.012.068.014.074-.008.015-.059.001-.156-.038-.203-.012-.017-.066-.009-.071.008"/><path d="m8.851 6.705c-.023.004.014.207.039.203-.01.016-.06.03-.072.011-.035-.054-.056-.15-.038-.202.007-.02.062-.028.071-.012"/><path d="m8.65 6.729c-.024.003.014.208.037.205-.005.014-.059.027-.072.007-.035-.052-.056-.149-.039-.202.008-.018.063-.024.074-.01"/><path d="m7.449 6.779c-.088 0-.088.107 0 .107s.088-.107 0-.107"/><path d="m6.424 6.811l.113.193.461.021.109.148.736.179c.125.028.159-.067.035-.107l-.541-.172-.166-.171-.747-.091"/><path d="m7.359 6.939l-1.37-.162.036-.205 1.369.164z"/><path d="m6.301 6.606c-.025-.004-.059.2-.037.204-.016.01-.068.012-.073-.01-.016-.059 0-.156.037-.203.012-.016.067-.009.073.009"/><path d="m6.084 6.58c-.023-.004-.057.203-.036.203-.014.012-.068.014-.073-.008-.015-.058-.001-.156.036-.203.013-.017.068-.009.073.008"/><path d="m7.147 6.705c.024.004-.013.207-.037.203.01.016.06.029.072.011.036-.054.056-.15.038-.202-.008-.02-.061-.028-.073-.012"/><path d="m7.35 6.729c.025.003-.014.207-.038.204.006.015.06.027.072.008.036-.053.057-.149.04-.202-.007-.018-.064-.024-.074-.01"/></g><g fill="#cf7400"><path d="m9.373 6.385l-.709.969.023.011.711-.969z"/><path d="m6.626 6.385l.709.969-.023.011-.709-.969z"/></g><g fill="#fff046"><path d="m9.475 6.269c.049.024-.067.183-.116.159-.051-.024.065-.184.116-.159"/><path d="m6.526 6.269c-.05.024.066.183.115.159.051-.024-.066-.184-.115-.159"/><path d="m9.531 6.77c.115.13.078.318-.065.38-.155.068-.407.03-.454-.213-.074.243.266.435.513.3.248-.134.196-.433.006-.467"/><path d="m9.296 6.721h.063v.516h-.063z"/><path d="m9.08 7.143l.446-.366.047.037-.446.366z"/><path d="m9.01 6.951h.633v.055h-.633z"/><path d="m9.129 6.777l.446.366-.047.037-.446-.366z"/><ellipse cx="9.328" cy="6.979" rx=".069" ry=".059"/><path d="m9.637 6.979c0-.141-.139-.254-.309-.254s-.31.113-.31.254c0 .139.14.253.31.253s.309-.115.309-.253h.111c0 .189-.188.343-.42.343s-.42-.153-.42-.343.188-.343.42-.343.42.153.42.343h-.111" id="0"/><use xlink:href="#0"/><path d="m6.468 6.77c-.114.13-.077.318.066.38.154.068.408.03.453-.213.075.243-.265.435-.513.3-.247-.134-.194-.433-.006-.467"/><path d="m6.64 6.721h.065v.516h-.065z"/><path d="m6.918 7.143l-.445-.366-.048.037.447.366z"/><path d="m6.355 6.951h.632v.055h-.632z"/><path d="m6.872 6.777l-.447.366.048.037.445-.366z"/><ellipse cx="6.671" cy="6.979" rx=".07" ry=".059"/><path d="m6.362 6.979c0-.141.139-.254.309-.254.171 0 .311.113.311.254 0 .139-.139.253-.311.253-.17-.001-.309-.115-.309-.253h-.111c0 .189.188.343.419.343.233 0 .421-.153.421-.343s-.187-.343-.42-.343c-.232 0-.419.153-.419.343h.11" id="1"/><use xlink:href="#1"/></g><g fill="#fff"><ellipse cx="7.999" cy="7.295" rx=".267" ry=".074"/></g><path fill="#fff046" d="m8.26 7.319c0 .037-.117.065-.26.065-.146 0-.261-.028-.261-.065v-.391h.521v.391"/><g fill="#004996"><ellipse cx="8" cy="6.92" rx=".267" ry=".069"/><path d="m8.266 6.988c0 .037-.12.068-.266.068-.147 0-.267-.031-.267-.068v-.068c0 .039.12.069.267.069.146 0 .266-.03.266-.069v.068"/><path d="m8.266 7.294c0 .037-.12.075-.266.075-.147 0-.267-.038-.267-.075v.072c0 .038.12.076.267.076.146 0 .266-.038.266-.076v-.072"/></g><path fill="#fff" d="m8.228 6.955c-.049-.019-.132-.031-.228-.031s-.183.012-.229.031c.043.02.115.034.231.034.123 0 .202-.022.226-.034"/><path fill="#e40520" d="m7.751 7.01l.082.34c.005.001.025.004.029.006l.111-.252.095.259c.009 0 .028-.002.039-.005l.066-.212.072.174c.006-.005.01-.01.016-.014v-.097l-.073-.176c-.007 0-.022.004-.027.005l-.077.259-.087-.244h-.038l-.105.214-.053-.238c-.011-.003-.039-.011-.05-.019"/><g fill="#fff046"><path d="m8.03 6.885c0 .045.003.04-.027.04-.026 0-.027.005-.027-.04 0-.043-.005-.039.027-.039.03 0 .027-.004.027.039"/><path d="m8.213 6.915c0 .046.003.041-.028.032-.024-.006-.027-.001-.027-.047 0-.044-.002-.039.027-.031.032.008.028.002.028.046"/><path d="m7.786 6.915c0 .046-.002.041.027.032.025-.006.028-.001.028-.047 0-.044.003-.039-.028-.031-.031.008-.027.002-.027.046"/><path d="m8.01 7.02c0 .044.001.04-.028.04-.025 0-.028.004-.028-.04s-.004-.039.028-.039c.029 0 .028-.005.028.039"/><path d="m8.199 6.999c0 .046.001.041-.028.046-.024.004-.027.01-.027-.036 0-.044-.002-.038.027-.042.032-.006.028-.012.028.032"/><path d="m7.768 6.986c0 .047 0 .043-.02.031-.018-.011-.019-.007-.019-.056-.001-.045-.003-.041.019-.027.02.013.019.005.02.052"/><path d="m8.06 7.402c0 .046-.001.041.028.037.025-.003.028.002.028-.044 0-.044.003-.038-.028-.034-.029.004-.028-.002-.028.041"/><path d="m7.804 7.38c0 .047-.002.04.029.048.023.005.026.012.026-.035 0-.043.003-.037-.026-.044-.032-.007-.029-.012-.029.031"/><path d="m8.229 7.37c0 .05-.002.045.019.03.018-.01.021-.006.022-.054 0-.046 0-.04-.019-.027-.023.014-.02.007-.022.051"/></g><path d="m7.206 6.475c.057 0 .133.02.13.047-.009.046-.015.09-.019.136-.003.023-.05.043-.111.043s-.108-.02-.109-.043c-.006-.046-.013-.09-.02-.137-.005-.027.072-.046.129-.046"/><ellipse fill="#fff" cx="7.206" cy="6.523" rx=".13" ry=".048"/><path d="m7.206 6.77c.102 0 .12-.107.111-.111-.003.023-.05.043-.111.043s-.108-.02-.109-.043c-.009.003.007.111.109.111"/><g fill="#fff"><path d="m7.206 6.629c.053 0 .097-.012.117-.029l.004-.03c-.016.018-.064.034-.121.034-.056 0-.104-.016-.122-.033l.004.029c.02.017.066.029.118.029"/><path d="m7.216 6.658c0-.004-.003-.008-.012-.008-.008 0-.012.007-.012.016 0 .011.005.016.012.016.007 0 .012-.004.012-.008h.01c0 .01-.01.018-.022.018s-.021-.01-.021-.025.009-.023.022-.023c.014 0 .021.008.021.016h-.01z"/></g><path fill="#004996" d="m7.224 6.57c0-.064.07-.194-.019-.194-.089 0-.018.13-.018.194.011.001.028.001.037 0"/><g fill="#ffd139"><path d="m8.766 6.707c-.02.014-.05.045-.029.061.018.013.102-.012.153-.047-.017.004-.106-.003-.124-.014"/><path d="m8.955 6.708c.011-.077-.019-.147-.098-.147-.078 0-.107.07-.098.147.005.022.192.023.196 0"/></g><path fill="#e40520" d="m8.816 6.535c-.008.018.034.029.033.051 0 .007.022.014.025.006.005-.018.024-.081-.009-.117-.044-.046-.162-.045-.193.023-.014.027-.014.082.05.098.014.004.017-.012.007-.02.011.004.026-.004.02-.012.007.004.025.004.025-.001.006.001.017 0 .017-.007.019.005.017-.023.025-.021"/><g fill="#fff046"><path d="m8.811 7.513c-.026 0-.047.014-.047.032 0 .018.021.032.047.032v.034c-.051 0-.094-.03-.094-.066 0-.037.043-.066.094-.066v.034"/><path d="m8.553 7.557c.011.004.023.008.041.008.033 0 .061-.012.061-.027 0-.013-.027-.024-.061-.024-.031 0-.06.012-.06.024 0 .007.007.014.019.019l-.018.02c-.02-.01-.033-.024-.033-.04 0-.027.042-.049.092-.049.037 0 .069.011.085.027.028-.011.059.003.059.023s-.029.04-.063.026c-.017.013-.046.024-.081.024-.021 0-.042-.004-.059-.012l.018-.019"/><path d="m8.557 7.518c.006.004.01.009.012.017.008.023-.02.057-.074.069-.047.012-.095 0-.104-.025-.011-.027.02-.058.071-.07.021-.007.044-.007.063-.003-.01.004-.02.013-.023.021-.01 0-.021.002-.033.004-.03.008-.053.026-.049.039.007.014.037.018.067.01.034-.008.053-.024.047-.039-.001-.01.01-.019.023-.023"/><path d="m8.44 7.608c-.013.011-.031.021-.054.027-.051.012-.1.001-.109-.025-.01-.026.023-.057.071-.07.05-.012.098-.002.109.024.001.007.001.013 0 .02-.021 0-.03-.007-.033-.011-.005-.013-.034-.017-.067-.011-.031.008-.052.026-.047.039.004.015.034.02.066.011.014-.004.025-.008.034-.013.009.005.024.009.03.009"/><path d="m8.329 7.573c.008.008.014.018.014.027-.002.029-.045.049-.097.046-.052-.004-.091-.027-.09-.055.002-.027.047-.047.097-.045.019.001.038.006.052.011-.006.007-.015.014-.02.019-.01-.003-.022-.005-.033-.006-.034-.002-.062.009-.062.024s.024.026.057.029c.033 0 .061-.009.062-.023-.001-.009.008-.02.02-.027"/><path d="m8.106 7.596c.005.002.011.004.016.004.033.01.063.008.068-.006 0-.01.014-.017.028-.021.006.011.01.021.004.03-.012.026-.061.036-.11.02-.009-.003-.017-.006-.024-.01l.018-.017"/><path d="m8.105 7.523c.017-.001.032.003.05.007.018.006.035.014.045.023-.007.003-.021.008-.027.012-.008-.004-.017-.008-.027-.012-.014-.004-.024-.006-.035-.006l-.006-.024"/><path d="m8.702 7.532c-.016 0-.016.015 0 .015.013 0 .013-.015 0-.015"/><path d="m7.368 7.482c.025 0 .046.013.046.031s-.021.033-.046.033v.034c.051 0 .093-.029.093-.066s-.042-.067-.093-.067v.035"/><path d="m7.625 7.526c-.011.003-.026.008-.041.008-.033 0-.061-.013-.061-.027 0-.014.028-.025.061-.025s.059.012.059.025c0 .007-.006.014-.018.019l.018.019c.02-.009.034-.022.034-.038 0-.027-.041-.05-.093-.05-.038 0-.068.01-.084.027-.03-.01-.059.004-.059.024 0 .021.028.039.064.024.015.015.044.025.079.025.021 0 .042-.004.059-.012l-.018-.019"/><path d="m7.623 7.486c-.006.005-.01.01-.013.016-.009.024.02.058.071.07.049.012.097 0 .108-.025.011-.026-.021-.058-.071-.069-.023-.006-.046-.007-.065-.003.009.004.019.014.021.021.012-.001.022.001.035.004.03.008.053.026.047.038-.005.015-.034.019-.066.011-.032-.008-.052-.024-.047-.039.003-.009-.007-.019-.02-.024"/><path d="m7.737 7.576c.014.012.033.022.057.027.05.013.098.001.107-.025.01-.025-.023-.057-.071-.069-.049-.012-.099-.001-.108.025-.002.007-.002.013-.001.019.021 0 .03-.006.033-.011.005-.014.035-.018.067-.01.032.007.053.025.047.038-.005.014-.033.019-.066.011-.013-.003-.025-.009-.034-.014-.008.005-.023.009-.031.009"/><path d="m7.481 7.501c-.013 0-.013.015 0 .015.013 0 .013-.015 0-.015"/><path d="m7.946 7.596c-.006 0-.012.001-.019.001-.032 0-.06-.013-.06-.026.006-.01-.005-.02-.018-.026-.008.007-.014.016-.014.025 0 .028.042.05.092.05.012 0 .021-.001.029-.002l-.01-.022"/><path d="m7.979 7.528c-.015-.004-.033-.007-.052-.007-.019 0-.036.004-.051.008.007.005.016.014.021.02.009-.003.019-.004.03-.004.014 0 .026.002.035.004l.017-.021"/><path d="m7.5 7.03c0-.013 0-.04 0-.053 0-.024.029-.03.029-.04s-.012-.013-.044-.013c-.029 0-.041.004-.041.014s.028.016.028.04c0 .013 0 .04 0 .053h.028z"/><path d="m7.505 7.356c-.006-.018-.011-.045-.011-.064 0-.059 0-.169 0-.2 0-.04.017-.06.043-.06s.034.022.034.04c0 .02 0 .115 0 .134 0 .065-.066.051-.078.027v.032c.015.026.114.032.114-.049 0-.02 0-.119 0-.152 0-.032-.022-.07-.065-.07-.075 0-.086.047-.086.11 0 .042 0 .117 0 .188 0 .021-.004.046-.015.062-.033.007-.057.023-.057.041 0 .023.04.041.089.041s.089-.018.089-.041c0-.018-.024-.034-.057-.039"/><path d="m7.441 7.355c-.001.005-.004.01-.008.013-.012.012-.014.029.015.035"/><path d="m7.508 7.401c.017-.006.017-.02.002-.036-.001-.004-.002-.006-.005-.009"/><path d="m8.511 7.03c0-.012 0-.039 0-.051 0-.024-.029-.031-.029-.041s.013-.014.044-.014c.029 0 .042.004.042.014s-.03.017-.03.041c0 .012 0 .039 0 .051h-.027"/><path d="m8.502 7.356c.009-.019.01-.046.01-.064 0-.059 0-.169 0-.2 0-.04-.017-.06-.042-.06-.027 0-.034.022-.034.04 0 .02 0 .115 0 .134 0 .065.068.051.076.027v.032c-.012.027-.111.033-.111-.048 0-.02 0-.119 0-.152 0-.032.021-.07.065-.07.073 0 .083.047.083.11 0 .042 0 .117 0 .188 0 .021.007.046.015.062.033.006.058.021.058.039 0 .023-.04.041-.088.041s-.088-.017-.088-.04c0-.018.023-.034.056-.039"/><path d="m8.564 7.355c.004.005.006.01.009.013.014.012.015.029-.014.035"/><path d="m8.5 7.401c-.019-.006-.019-.02-.005-.036.002-.004.005-.006.007-.009"/><path d="m8.55 7.092c-.011 0-.032.003-.038-.007-.007.007-.008.011 0 .024.008.008.027.007.038.007.013 0 .013-.024 0-.024"/><path d="m8.55 7.116c-.011 0-.032.003-.038-.007-.007.006-.008.012 0 .023.008.011.027.007.038.007.013 0 .013-.023 0-.023"/><path d="m8.55 7.139c-.011 0-.032.004-.038-.006-.007.006-.008.012 0 .024.008.009.027.007.038.007.013 0 .013-.025 0-.025"/><path d="m8.55 7.164c-.011 0-.032.002-.038-.007-.007.005-.008.012 0 .024.008.008.027.007.038.007.013 0 .013-.024 0-.024"/><path d="m8.55 7.188c-.011 0-.032.002-.038-.006-.007.004-.008.011 0 .022.008.009.027.008.038.008.013 0 .013-.024 0-.024"/><path d="m8.55 7.212c-.011 0-.032.001-.038-.008-.007.005-.008.012 0 .024.008.008.027.007.038.007.013 0 .013-.023 0-.023"/><path d="m8.549 7.07c-.012 0-.033.003-.04-.006-.004.004-.003.012.003.021.008.01.027.007.038.007.013 0 .012-.022-.001-.022"/><path d="m6.076 7.439c-.092 0-.092.105 0 .105.093.001.093-.105 0-.105"/><path d="m6.216 7.439c-.093 0-.093.105 0 .105.094.001.094-.105 0-.105"/><path d="m6.357 7.439c-.095 0-.095.105 0 .105.091.001.091-.105 0-.105"/><path d="m6.497 7.439c-.093 0-.093.105 0 .105.092.001.092-.105 0-.105"/><path d="m6.145 7.342c-.094 0-.094.106 0 .106.092 0 .092-.106 0-.106"/><path d="m6.284 7.342c-.093 0-.093.106 0 .106s.093-.106 0-.106"/><path d="m6.425 7.342c-.092 0-.092.106 0 .106.093 0 .093-.106 0-.106"/><path d="m6.214 7.248c-.094 0-.094.106 0 .106.093 0 .093-.106 0-.106"/><path d="m6.354 7.248c-.093 0-.093.106 0 .106.093 0 .093-.106 0-.106"/><path d="m6.659 7.373c-.095 0-.095.107 0 .107.092 0 .092-.107 0-.107"/><path d="m6.881 7.378c-.093 0-.093.106 0 .106.094 0 .094-.106 0-.106"/><path d="m7.02 7.447c-.092 0-.092.106 0 .106.094.001.094-.106 0-.106"/><path d="m9.945 7.439c.094 0 .094.105 0 .105s-.093-.105 0-.105"/><path d="m9.805 7.439c.095 0 .095.105 0 .105-.092.001-.092-.105 0-.105"/><path d="m9.666 7.439c.091 0 .091.105 0 .105-.095.001-.095-.105 0-.105"/><path d="m9.524 7.439c.094 0 .094.105 0 .105-.092.001-.092-.105 0-.105"/><path d="m9.877 7.342c.093 0 .093.106 0 .106-.094 0-.094-.106 0-.106"/><path d="m9.736 7.342c.093 0 .093.106 0 .106-.093 0-.093-.106 0-.106"/><path d="m9.598 7.342c.091 0 .091.106 0 .106-.094 0-.094-.106 0-.106"/><path d="m9.81 7.248c.091 0 .091.106 0 .106-.095 0-.095-.106 0-.106"/><path d="m9.668 7.248c.095 0 .095.106 0 .106-.093 0-.093-.106 0-.106"/><path d="m9.35 7.389c.092 0 .092.106 0 .106-.094 0-.094-.106 0-.106"/><path d="m9.179 7.34c.094 0 .094.107 0 .107-.093 0-.093-.107 0-.107"/><path d="m9.04 7.407c.093 0 .093.106 0 .106-.095.001-.095-.106 0-.106"/></g></svg>