<svg xmlns="http://www.w3.org/2000/svg" viewBox="0 2 16 12" enable-background="new 0 2 16 12"><path fill="#fff" d="m7.996 2h8v12h-8z"/><path fill="#009a4d" d="m0 2h7.996v12h-7.996z"/><g fill="#ce1141"><path d="m11.364 10.04c-.688 1.092-1.912 1.815-3.303 1.815-2.149 0-3.892-1.728-3.892-3.859 0-2.133 1.742-3.86 3.892-3.86 1.392 0 2.616.724 3.303 1.814-.541-.558-1.302-.906-2.145-.906-1.641 0-2.973 1.322-2.973 2.952 0 1.63 1.332 2.95 2.974 2.95.842.002 1.602-.346 2.144-.906"/><path d="m8.865 6.792h2.415v2.416h-2.415z" transform="matrix(.7071-.7071.7071.7071-2.707 9.466)"/></g></svg>