<svg xmlns="http://www.w3.org/2000/svg" viewBox="0 0 16 12" enable-background="new 0 0 16 12"><switch><g><path fill="#ed1c2e" d="m0 0h16v6h-16z"/><path d="m0 6h16v6h-16z"/><g><path fill="#ffe252" d="m8 3h1v1h-1z"/><path fill="#ffe252" d="m9 4h1v1h-1z"/><path fill="#ffe252" d="m10 5h1v1h-1z"/><path fill="#ffe252" d="m10 6h1v1h-1z"/><path fill="#ffe252" d="m9 7h1v1h-1z"/><path fill="#ffe252" d="m8 8h1v1h-1z"/><path fill="#ffe252" d="m6 8h1v1h-1z"/><path fill="#ffe252" d="m7 5h1v1h-1z"/><path fill="#ffe252" d="m7 7h1v1h-1z"/><path fill="#ffe252" d="m6 6h1v1h-1z"/><path fill="#ffe252" d="m7 8h1v1h-1z"/><path fill="#ffe252" d="m9 9h1v1h-1z"/></g></g></switch></svg>