<svg xmlns="http://www.w3.org/2000/svg" viewBox="0 0 16 12" enable-background="new 0 0 16 12"><switch><g><path fill="#ffdf1c" d="m.02.001h15.96v12h-15.96z"/><path fill="#ed1c2e" d="m16 .001l-6.279 4.709c-.076-.102-.16-.196-.252-.282l4.131-4.427h-4.8l-.516 3.864c-.093-.012-.188-.021-.284-.021s-.191.009-.285.021l-.514-3.864h-4.801l4.132 4.428c-.093.086-.177.181-.253.282l-6.279-4.71v4.801l5.875.881c-.016.104-.025.21-.025.318 0 .109.01.215.025.318l-5.875.882v4.8l6.279-4.709c.076.102.16.195.252.282l-4.131 4.427h4.8l.515-3.864c.094.013.189.021.285.021s.191-.008.284-.021l.516 3.864h4.8l-4.131-4.427c.092-.087.176-.181.252-.282l6.279 4.709v-4.8l-5.875-.882c.016-.104.026-.209.026-.318 0-.108-.011-.214-.026-.318l5.875-.881v-4.8"/><circle fill="#ffdf1c" cx="8" cy="6" r="1.803"/></g></switch></svg>