<svg xmlns="http://www.w3.org/2000/svg" viewBox="0 0 16 12" enable-background="new 0 0 16 12"><switch><g><path fill="#ed1c2e" d="m0 0h16v12h-16z"/><g><path d="m11.542 4.734v-.114c-.094 0-.17-.025-.236-.062-.033.006-.06.02-.098.02-.302 0-.456-.219-.476-.452h-4.958c-.003.248-.163.494-.483.494-.072 0-.133-.016-.189-.039-.019.006-.034.018-.056.021v.367c.027-.004.049-.016.079-.016.144 0 .25.054.329.131h5.95c.042-.118.092-.233.138-.35"/><path d="m11.177 3.584c.012-.001.02-.006.031-.006.01 0 .015.006.024.006h.31v-.785h-6.496v.785h6.131"/><path d="m10.731 5.626h-5.15c-.033.102-.103.183-.194.243.094.249.179.501.255.757h5.307c.01-.005.024-.003.035-.008.033-.161.06-.324.1-.483-.245-.062-.367-.285-.352-.509"/><path d="m10.698 7.167h-4.9c.093.376.162.759.218 1.144.629.273 1.168.651 1.601 1.119.208.13.406.271.579.438h.585c.031-.015.063-.026.094-.039.457-.697 1.089-1.278 1.887-1.67.018-.236.049-.471.079-.705-.078-.076-.125-.179-.143-.287"/></g></g></switch></svg>