<svg xmlns="http://www.w3.org/2000/svg" viewBox="0 0 16 12" enable-background="new 0 0 16 12"><switch><g><g><g><path fill="#fff" d="m0 0h16v12h-16z"/><path fill="#263779" d="m2.643 5.233c1.071 0 1.429.796 2.857.796.715 0 1.072-.796 1.785-.796 1.072 0 1.43.796 2.857.796.715 0 1.072-.796 1.785-.796 1.072 0 1.43.796 2.857.796.715 0 .946-.225 1.215-.387v-1.177c-.269.162-.5.54-1.215.54-1.428 0-1.785-.796-2.857-.796-.713 0-1.07.796-1.785.796-1.428 0-1.785-.796-2.857-.796-.713 0-1.07.796-1.785.796-1.429 0-1.786-.796-2.857-.796"/><path fill="#263779" d="m2.643 1.253c1.071 0 1.429.796 2.857.796.715 0 1.072-.796 1.785-.796 1.072 0 1.43.796 2.857.796.715 0 1.072-.796 1.785-.796 1.072 0 1.43.796 2.857.796.715 0 .946-.226 1.215-.387v-1.178c-.269.162-.5.54-1.215.54-1.428 0-1.785-.796-2.857-.796-.713 0-1.07.796-1.785.796-1.428 0-1.785-.796-2.857-.796-.713 0-1.07.796-1.785.796-1.429 0-1.786-.796-2.857-.796"/><path fill="#263779" d="m2.643 3.243c1.071 0 1.429.796 2.857.796.715 0 1.072-.796 1.785-.796 1.072 0 1.43.796 2.857.796.715 0 1.072-.796 1.785-.796 1.072 0 1.43.796 2.857.796.715 0 .946-.226 1.215-.387v-1.177c-.269.162-.5.54-1.215.54-1.428 0-1.785-.796-2.857-.796-.713 0-1.07.796-1.785.796-1.428 0-1.785-.796-2.857-.796-.713 0-1.07.796-1.785.796-1.429 0-1.786-.796-2.857-.796"/><path fill="#263779" d="m14.785 6.995c-1.428 0-1.785-.796-2.857-.796-.713 0-1.07.796-1.785.796-1.428 0-1.785-.796-2.857-.796-.713 0-1.07.796-1.785.796-1.429 0-1.786-.796-2.857-.796-.714 0-1.071.796-1.785.796-.339 0-.615-.045-.857-.114v1.025c.242.068.519.113.857.113.714 0 1.071-.796 1.785-.796 1.071 0 1.429.796 2.857.796.715 0 1.072-.796 1.785-.796 1.072 0 1.43.796 2.857.796.715 0 1.072-.796 1.785-.796 1.072 0 1.43.796 2.857.796.715 0 .946-.226 1.215-.387v-1.178c-.269.162-.5.54-1.215.54"/><path fill="#263779" d="m14.785 10.975c-1.428 0-1.785-.795-2.857-.795-.713 0-1.07.795-1.785.795-1.428 0-1.785-.795-2.857-.795-.713 0-1.07.795-1.785.795-1.429 0-1.786-.795-2.857-.795-.714 0-1.071.795-1.785.795-.339 0-.615-.045-.857-.113v1.025c.242.068.519.113.857.113.714 0 1.071-.796 1.785-.796 1.071 0 1.429.796 2.857.796.715 0 1.072-.796 1.785-.796 1.072 0 1.43.796 2.857.796.715 0 1.072-.796 1.785-.796 1.072 0 1.43.796 2.857.796.715 0 .946-.225 1.215-.388v-1.177c-.269.161-.5.539-1.215.539"/><path fill="#263779" d="m14.785 8.985c-1.428 0-1.785-.796-2.857-.796-.713 0-1.07.796-1.785.796-1.428 0-1.785-.796-2.857-.796-.713 0-1.07.796-1.785.796-1.429 0-1.786-.796-2.857-.796-.714 0-1.071.796-1.785.796-.339 0-.615-.046-.857-.114v1.025c.242.068.519.113.857.113.714 0 1.071-.795 1.785-.795 1.071 0 1.429.795 2.857.795.715 0 1.072-.795 1.785-.795 1.072 0 1.43.795 2.857.795.715 0 1.072-.795 1.785-.795 1.072 0 1.43.795 2.857.795.715 0 .946-.226 1.215-.387v-1.178c-.269.162-.5.54-1.215.54"/></g><path fill="#263779" d="m0 0h9v6h-9z"/><g><path fill="#fff" d="m0 0h10v7h-10z"/><path fill="#e03a3e" d="m0 2h10v2h-10z"/><path fill="#e03a3e" d="m4 0h2v7h-2z"/><path fill="#e03a3e" d="m0 0h1v1h-1z"/><path fill="#e03a3e" d="m2 1h1v1h-1z"/><path fill="#e03a3e" d="m2 2h1v1h-1z"/><path fill="#e03a3e" d="m7 4h1v1h-1z"/><path fill="#e03a3e" d="m9 6h1v1h-1z"/><path fill="#e03a3e" d="m8 5h1v1h-1z"/><path fill="#233168" d="m7 6h1v1h-1z"/><path fill="#233168" d="m2 6h1v1h-1z"/><path fill="#233168" d="m0 4h1v1h-1z"/><path fill="#233168" d="m9 4h1v1h-1z"/><path fill="#233168" d="m7 0h1v1h-1z"/><path fill="#233168" d="m2 0h1v1h-1z"/><path fill="#e03a3e" d="m1 5h1v1h-1z"/><path fill="#e03a3e" d="m0 6h1v1h-1z"/><path fill="#e03a3e" d="m2 4h1v1h-1z"/><path fill="#e03a3e" d="m9 0h1v1h-1z"/><path fill="#e03a3e" d="m7 1h1v1h-1z"/><path fill="#e03a3e" d="m6 2h1v1h-1z"/></g></g><path fill="#0c6e38" d="m10 2h1v1h-1z"/><path fill="#0c6e38" d="m10 5h1v1h-1z"/><path fill="#0c6e38" d="m11 3h1v1h-1z"/><path fill="#0c6e38" d="m12 2h2v1h-2z"/><path fill="#0c6e38" d="m14 3h1v1h-1z"/><path fill="#0c6e38" d="m11 3h3v2h-3z"/><path fill="#0c6e38" d="m14 5h1v1h-1z"/><path fill="#0c6e38" d="m12 1h1v1h-1z"/><path fill="#a24623" d="m12 5h1v6h-1z"/><path fill="#e03a3e" d="m11 7h3v1h-3z"/><path fill="#e0ca3b" d="m12 8h2v1h-2z"/></g></switch></svg>