<svg xmlns="http://www.w3.org/2000/svg" viewBox="0 0 16 12" enable-background="new 0 0 16 12" xmlns:xlink="http://www.w3.org/1999/xlink"><switch><g><g><path fill="#fff" d="m0 0h16v12h-16z" id="0"/><use xlink:href="#0"/></g><path fill="#007dc5" d="m0 1.333h16v1.334h-16z"/><path fill="#007dc5" d="m0 9.334h16v1.332h-16z"/><path fill="#007dc5" d="m6.985 7.559l-1.696.05h-.172l.964-1.689-.878-1.45-.085-.149h1.955l.835-1.524.087-.148.999 1.722 1.705-.05h.173l-.973 1.698.887 1.44.086.149h-1.906l-.971 1.692-1.01-1.742m1.013.689l.384-.639h-.732l.349.639m1.971-1.143l-.341-.603-.349.603h.69m-1.245 0l.599-1.133-.685-1.188-1.315.048-.686 1.187.682 1.085h1.406m-2 0l-.363-.609-.363.609h.726m2.905-1.671l.35-.599h-.711l.361.599m-3.268-.002l.348-.597h-.696l.348.597m2-1.11l-.37-.662-.382.662h.752"/><path fill="#007dc5" d="m8.907 4.421h1.791l-.887 1.548.887 1.54h-1.791l-.913 1.592-.922-1.592h-1.783l.878-1.54-.878-1.548h1.783l.922-1.573.913 1.573m-2.356 1.548l.713 1.235h1.461l.713-1.235-.713-1.235h-1.461l-.713 1.235m.887-1.548h1.095l-.539-.965-.556.965m2.191 1.209l.521-.896h-1.062l.54.896m-.523 1.574h1.034l-.512-.904-.523.904m-1.625.305l.513.939.565-.939h-1.078m-1.122-1.209l-.54.904h1.079l-.539-.904m.522-1.565h-1.043l.522.896.521-.896"/></g></switch></svg>